<svg width="59" height="60" viewBox="0 0 59 60" fill="none" xmlns="http://www.w3.org/2000/svg">
<circle cx="29.3799" cy="29.9999" r="29.3808" fill="#3C3B3B"/>
<g clip-path="url(#clip0_201_837)">
<path d="M42 46.3974C42 47.0544 41.439 47.6964 40.8489 47.8972C40.6482 47.9656 40.2433 47.9998 39.6341 47.9998C32.4649 47.9998 25.296 47.9994 18.1275 47.9987C17.2622 47.9987 16.5642 47.7434 16.246 46.938C16.1532 46.7015 16.1068 46.2999 16.1068 45.733C16.1082 35.2421 16.1082 24.7511 16.1068 14.2602C16.1068 13.7453 16.1582 13.3668 16.2611 13.1247C16.6495 12.2145 17.409 12.1045 18.3918 12.1045C22.7999 12.1073 27.2055 12.1077 31.6086 12.1056C31.6309 12.1056 31.6421 12.117 31.6421 12.1397C31.6435 14.8317 31.6435 17.5255 31.6421 20.221C31.6414 20.7246 31.6921 21.0949 31.7942 21.332C32.1394 22.1375 32.8191 22.3597 33.6973 22.3608C36.4476 22.3622 39.2026 22.3625 41.9622 22.3618C41.9672 22.3618 41.9721 22.3628 41.9767 22.3646C41.9813 22.3664 41.9854 22.3691 41.989 22.3725C41.9925 22.3758 41.9952 22.3798 41.9971 22.3842C41.999 22.3886 42 22.3934 42 22.3981C42 30.3951 42 38.3948 42 46.3974ZM34.4945 30.8427C34.6686 30.134 34.8462 29.4254 35.0275 28.7168C35.0821 28.5046 35.1001 28.338 35.0814 28.2169C34.9692 27.4883 34.008 27.2202 33.5592 27.8163C33.4729 27.931 33.3934 28.135 33.3208 28.4284C33.1208 29.2367 32.9162 30.0461 32.7069 30.8565C32.6975 30.8907 32.6752 30.9078 32.64 30.9078H26.7636C26.7276 30.9078 26.714 30.8904 26.7226 30.8555C26.8988 30.1412 27.0782 29.4269 27.2609 28.7126C27.317 28.4904 27.3328 28.3145 27.3084 28.1848C27.1681 27.4574 26.1864 27.2288 25.7646 27.8505C25.6934 27.9552 25.6225 28.1496 25.552 28.4337C25.3514 29.2385 25.1475 30.0447 24.9403 30.8523C24.931 30.8879 24.908 30.9057 24.8713 30.9057C24.0579 30.91 23.2444 30.9103 22.431 30.9067C22.1699 30.9053 21.984 30.9228 21.8732 30.9591C21.1428 31.1952 21.0867 32.2079 21.7783 32.5273C21.9099 32.5878 22.1087 32.6174 22.3749 32.6159C23.056 32.6124 23.7407 32.6138 24.429 32.6202C24.4728 32.6209 24.4894 32.6423 24.4786 32.6843L23.2153 37.6901C23.2116 37.705 23.203 37.7183 23.1906 37.7278C23.1783 37.7373 23.163 37.7425 23.1473 37.7425C22.3339 37.7475 21.5197 37.7478 20.7048 37.7435C20.4437 37.7421 20.2578 37.7596 20.1471 37.7959C19.4081 38.0352 19.3617 39.0671 20.0694 39.3716C20.201 39.4278 20.4053 39.4552 20.6822 39.4538C21.3546 39.4495 22.03 39.4506 22.7082 39.457C22.7471 39.457 22.7618 39.4759 22.7525 39.5136C22.5669 40.2692 22.3763 41.0238 22.1807 41.7772C21.952 42.6564 23.0793 43.2813 23.6662 42.5667C23.7626 42.4492 23.8457 42.2494 23.9154 41.9674C24.119 41.1484 24.3268 40.3276 24.539 39.5051C24.5476 39.4709 24.5696 39.4538 24.6048 39.4538H30.4813C30.5172 39.4538 30.5309 39.4713 30.5222 39.5061C30.3489 40.2126 30.1716 40.9184 29.9904 41.6234C29.9314 41.8549 29.9134 42.0361 29.9364 42.1672C30.067 42.9085 31.0617 43.1307 31.4846 42.5026C31.5551 42.3986 31.6241 42.2099 31.6917 41.9364C31.8931 41.1288 32.0977 40.3194 32.3056 39.5083C32.3142 39.4734 32.3369 39.4559 32.3735 39.4559C33.5595 39.4517 34.7455 39.4517 35.9315 39.4559C36.8259 39.4591 37.1722 38.2681 36.3696 37.8557C36.2214 37.7795 35.9945 37.7425 35.6888 37.7446C34.7337 37.7503 33.7753 37.7489 32.8137 37.7403C32.772 37.7403 32.7562 37.72 32.7662 37.6794L34.0306 32.6715C34.0393 32.6366 34.0619 32.6188 34.0986 32.6181C35.2307 32.6152 36.3631 32.6149 37.4959 32.617C37.731 32.617 37.9076 32.5921 38.0256 32.5422C38.7257 32.2442 38.7117 31.24 38.0008 30.974C37.872 30.9263 37.6584 30.9035 37.3599 30.9057C36.4206 30.9142 35.4813 30.9132 34.542 30.9025C34.501 30.9025 34.4852 30.8825 34.4945 30.8427Z" fill="#FE964A"/>
<path d="M41.9223 20.6524L33.4027 20.6534C33.3936 20.6534 33.3848 20.6498 33.3783 20.6434C33.3719 20.637 33.3682 20.6283 33.3682 20.6192L33.3693 12.1833C33.3696 12.1767 33.3717 12.1703 33.3755 12.165C33.3793 12.1596 33.3846 12.1554 33.3908 12.1529C33.3969 12.1504 33.4037 12.1498 33.4102 12.151C33.4167 12.1522 33.4227 12.1553 33.4276 12.1598L41.9461 20.5947C41.9506 20.5994 41.9537 20.6054 41.9549 20.6119C41.9562 20.6183 41.9555 20.625 41.953 20.6311C41.9505 20.6372 41.9463 20.6424 41.9408 20.6462C41.9354 20.65 41.929 20.6521 41.9223 20.6524Z" fill="#FE964A"/>
<path d="M32.2538 32.6599L30.9764 37.7191C30.9745 37.7265 30.9702 37.733 30.9641 37.7376C30.9581 37.7423 30.9507 37.7448 30.943 37.7448H25.0256C25.0203 37.7448 25.0151 37.7436 25.0104 37.7413C25.0056 37.739 25.0015 37.7357 24.9983 37.7315C24.995 37.7274 24.9928 37.7226 24.9917 37.7175C24.9907 37.7124 24.9908 37.7071 24.9921 37.7021L26.2695 32.6428C26.2714 32.6355 26.2757 32.629 26.2818 32.6243C26.2878 32.6197 26.2953 32.6172 26.3029 32.6172H32.2203C32.2256 32.6172 32.2308 32.6184 32.2355 32.6207C32.2403 32.623 32.2444 32.6263 32.2476 32.6304C32.2509 32.6346 32.2531 32.6394 32.2542 32.6445C32.2552 32.6496 32.2551 32.6549 32.2538 32.6599Z" fill="#FE964A"/>
</g>
<defs>
<clipPath id="clip0_201_837">
<rect width="26" height="36" fill="white" transform="translate(16 12)"/>
</clipPath>
</defs>
</svg>
