<svg width="59" height="60" viewBox="0 0 59 60" fill="none" xmlns="http://www.w3.org/2000/svg">
<circle cx="29.3799" cy="29.9999" r="29.3808" fill="#3C3B3B"/>
<g clip-path="url(#clip0_201_862)">
<path d="M36.0424 13H36.6699C38.8846 13.093 40.9777 13.8872 42.6405 15.3362C44.8014 17.2199 45.9212 19.6515 46 22.6309V22.7013C45.9336 25.3792 44.9645 27.6563 43.0928 29.5325C41.7987 30.8296 40.5038 32.1257 39.208 33.4206C38.9295 33.6995 38.6951 33.8912 38.5047 33.9957C37.6375 34.4718 36.4714 34.2593 35.8385 33.4531C35.3172 32.7891 35.2229 31.8614 35.6274 31.1289C35.7411 30.9235 36.0296 30.5899 36.4926 30.1282C37.6229 29.0019 38.7511 27.8732 39.8774 26.7421C40.2917 26.326 40.5859 25.9959 40.7599 25.752C43.0881 22.4835 41.0913 17.8357 37.0996 17.3005C35.4222 17.0754 33.7434 17.6338 32.5521 18.8271C31.2288 20.1526 29.9042 21.4768 28.5783 22.7996C28.2954 23.082 28.0652 23.2726 27.8877 23.3713C27.0862 23.8176 25.9985 23.6496 25.3769 23.0094C24.7367 22.3507 24.5495 21.3532 24.9891 20.5298C25.1024 20.3177 25.3691 20.0017 25.7893 19.5815C26.9819 18.3875 28.1761 17.1951 29.3719 16.0042C29.7703 15.6071 30.0964 15.3081 30.3501 15.1071C31.9952 13.806 33.8926 13.1036 36.0424 13Z" fill="#FE964A"/>
<path d="M34.9631 21.0592L20.0379 35.9324C19.2167 36.7507 19.2144 38.0798 20.0327 38.9009L20.0683 38.9367C20.8867 39.7579 22.2157 39.7602 23.0369 38.9419L37.9621 24.0687C38.7833 23.2503 38.7856 21.9213 37.9673 21.1001L37.9317 21.0643C37.1134 20.2432 35.7843 20.2408 34.9631 21.0592Z" fill="#FE964A"/>
<path d="M21.7086 46.9999H21.5897C19.4614 46.9681 17.4174 46.2847 15.7486 44.9785C13.462 43.1891 12.2125 40.7914 12 37.7854V36.9168C12.1576 34.3912 13.1037 32.2626 14.8382 30.5312C16.1792 29.1924 17.5197 27.8535 18.8598 26.5143C19.0993 26.2748 19.3027 26.1076 19.47 26.0129C20.2689 25.5607 21.3473 25.7167 21.9716 26.339C22.6376 27.0017 22.8329 28.0224 22.3773 28.8611C22.2622 29.0736 21.9813 29.4023 21.5346 29.8472C20.3822 30.9965 19.2316 32.1475 18.0828 33.3003C17.6768 33.7081 17.3855 34.0399 17.2089 34.2958C14.8648 37.6938 17.0661 42.404 21.1973 42.7313C22.789 42.8575 24.337 42.2871 25.4645 41.1575C26.8104 39.8099 28.1571 38.4634 29.5047 37.118C29.7185 36.9046 29.9009 36.7526 30.0519 36.6618C30.8328 36.193 31.9013 36.3225 32.5368 36.9082C33.2487 37.5643 33.4725 38.6148 33.0036 39.4808C32.8868 39.6959 32.6096 40.0222 32.1722 40.4596C30.9977 41.6341 29.8223 42.8077 28.6461 43.9804C28.2458 44.3798 27.9202 44.6793 27.6692 44.8789C25.9528 46.2464 23.966 46.9535 21.7086 46.9999Z" fill="#FE964A"/>
</g>
<defs>
<clipPath id="clip0_201_862">
<rect width="34" height="34" fill="white" transform="translate(12 13)"/>
</clipPath>
</defs>
</svg>
