<svg width="59" height="60" viewBox="0 0 59 60" fill="none" xmlns="http://www.w3.org/2000/svg">
<circle cx="29.3812" cy="29.9999" r="29.3808" fill="#3C3B3B"/>
<path d="M46 37.6709V41.9037C45.8601 42.7063 45.4435 43.2125 44.7502 43.4224C44.5439 43.4848 44.2232 43.5154 43.788 43.514C42.6383 43.5109 41.4886 43.5092 40.3389 43.5087C39.5666 43.5087 38.8673 43.0259 38.6355 42.3008C38.5745 42.1109 38.5441 41.7543 38.5446 41.231C38.5455 40.1614 38.5457 39.0914 38.5452 38.0209C38.5448 37.7141 38.5733 37.4717 38.6309 37.2938C38.8182 36.7138 39.2053 36.3282 39.7923 36.137C40.2167 35.9988 40.7944 36.0593 41.2639 36.0566C41.2878 36.0562 41.2998 36.0442 41.2998 36.0207C41.3007 34.8405 41.3009 33.6607 41.3004 32.4813C41.3004 32.0523 41.2533 31.699 40.8635 31.5157C40.7355 31.4555 40.4918 31.4254 40.1323 31.4254C36.7593 31.4254 33.385 31.4259 30.0094 31.4268C29.9859 31.4268 29.9742 31.4385 29.9742 31.462V36.0247C29.9742 36.046 29.9848 36.0566 30.0061 36.0566C30.4822 36.0579 31.0632 36.0008 31.4916 36.1409C32.3555 36.4238 32.7241 37.1178 32.7267 37.9943C32.7294 39.0511 32.7298 40.108 32.728 41.1652C32.7267 41.6558 32.7183 41.9477 32.7028 42.0411C32.5952 42.68 32.1085 43.2384 31.4916 43.4277C31.3105 43.4835 30.9858 43.5114 30.5174 43.5114C29.381 43.5118 28.2443 43.5127 27.1074 43.514C26.0914 43.5154 25.2693 42.7557 25.2706 41.7204C25.2724 40.653 25.2722 39.5852 25.27 38.517C25.2686 37.8923 25.3014 37.4742 25.3682 37.2625C25.5482 36.6941 26.0589 36.2093 26.6897 36.0885C27.0941 36.0108 27.5696 36.0646 27.984 36.0526C28.0119 36.0522 28.0258 36.038 28.0258 36.0101V31.4613C28.0258 31.4523 28.0222 31.4437 28.0157 31.4373C28.0092 31.431 28.0004 31.4274 27.9913 31.4274C24.5528 31.4252 21.1143 31.425 17.6757 31.4268C17.4345 31.4272 17.2527 31.4573 17.1305 31.5171C16.8428 31.6579 16.6989 31.9104 16.6989 32.2748C16.6993 33.5228 16.6998 34.7712 16.7002 36.0201C16.7002 36.0431 16.7117 36.0548 16.7348 36.0553C17.187 36.0639 17.7315 36.0048 18.1359 36.119C18.7757 36.2988 19.1869 36.697 19.3698 37.3137C19.4309 37.52 19.4603 37.8374 19.4581 38.2659C19.4528 39.351 19.4523 40.4365 19.4568 41.5225C19.4576 41.8222 19.4304 42.0619 19.3751 42.2417C19.1852 42.8548 18.7925 43.2491 18.197 43.4244C17.9841 43.4872 17.635 43.5173 17.1498 43.5147C16.1776 43.5094 15.2057 43.5094 14.2339 43.5147C13.793 43.5169 13.4691 43.4872 13.2624 43.4257C12.5594 43.2176 12.1386 42.7087 12 41.899V37.6616C12.1284 36.8692 12.5476 36.3601 13.2577 36.1343C13.6794 36.0002 14.2512 36.0599 14.72 36.0566C14.7435 36.0562 14.7552 36.0442 14.7552 36.0207C14.7539 34.8896 14.7541 33.7589 14.7559 32.6287C14.7563 32.1156 14.7891 31.7382 14.8541 31.4965C15.1702 30.3184 16.238 29.4963 17.4785 29.4923C20.9865 29.4826 24.4946 29.4768 28.0026 29.4751C28.0181 29.4751 28.0258 29.4676 28.0258 29.4525V25.3665C28.0258 25.3626 28.025 25.3587 28.0235 25.3551C28.022 25.3515 28.0197 25.3482 28.0169 25.3454C28.014 25.3426 28.0107 25.3404 28.007 25.3389C28.0033 25.3374 27.9993 25.3366 27.9953 25.3366C26.4121 25.3371 24.8275 25.3369 23.2413 25.336C22.536 25.336 21.9643 25.079 21.7172 24.383C21.6579 24.2153 21.6285 23.9718 21.6289 23.6526C21.6311 21.9278 21.6302 20.2034 21.6263 18.4795C21.6254 17.9744 21.659 17.6233 21.7272 17.4263C21.872 17.008 22.1602 16.7251 22.5918 16.5777C22.772 16.5161 23.0418 16.4854 23.4013 16.4854C27.1315 16.4867 30.8618 16.4869 34.5921 16.486C34.9626 16.4856 35.2375 16.5168 35.4168 16.5796C36.132 16.8287 36.3718 17.419 36.3711 18.1402C36.3693 19.8854 36.3702 21.6303 36.3738 23.375C36.3746 23.8576 36.3414 24.1971 36.2741 24.3937C36.1294 24.8178 35.8427 25.1018 35.4142 25.2457C35.2212 25.3099 34.9037 25.3413 34.4619 25.34C32.9766 25.3342 31.4913 25.3338 30.0061 25.3386C29.9848 25.3386 29.9742 25.349 29.9742 25.3698V29.4419C29.9742 29.4649 29.9857 29.4764 30.0087 29.4764C33.5415 29.4791 37.0735 29.4795 40.6045 29.4777C41.8118 29.4771 42.8955 30.438 43.1631 31.5821C43.2202 31.8261 43.2479 32.267 43.2461 32.905C43.243 33.9431 43.243 34.9815 43.2461 36.0201C43.2461 36.0431 43.2576 36.0548 43.2807 36.0553C43.7362 36.0639 44.2787 36.0075 44.6792 36.1184C45.4256 36.3247 45.8659 36.8422 46 37.6709Z" fill="#FE964A"/>
</svg>
