<svg width="40" height="40" viewBox="0 0 40 40" fill="none" xmlns="http://www.w3.org/2000/svg">
<g clip-path="url(#clip0_201_771)">
<path d="M5.82578 0H5.94063C6.28177 0.0192708 6.58229 0.160417 6.84219 0.423438C9.16406 2.76927 11.4826 5.11849 13.7977 7.47109C14.0221 7.69974 14.1349 7.97656 14.1359 8.30156C14.1385 9.68021 14.1404 11.0615 14.1414 12.4453C14.1414 12.4577 14.1439 12.47 14.1487 12.4815C14.1535 12.4931 14.1606 12.5036 14.1695 12.5125C16.2846 14.6302 18.401 16.7471 20.5188 18.8633C20.8151 19.1596 21.0008 19.3927 21.0758 19.5625C21.4688 20.4555 20.5477 21.4516 19.6242 21.1023C19.4352 21.031 19.1596 20.8143 18.7977 20.4523C16.7133 18.3685 14.6354 16.2911 12.5641 14.2203C12.5145 14.1708 12.4474 14.143 12.3773 14.143C11.0279 14.1404 9.6625 14.1344 8.28125 14.125C7.9474 14.1224 7.65547 13.9964 7.40547 13.7469C5.06484 11.4068 2.72448 9.06615 0.384375 6.725C0.143229 6.48385 0.0151042 6.19271 0 5.85156V5.72734C0.0994792 5.27161 0.326302 4.96458 0.680469 4.80625C0.860677 4.72552 1.20703 4.68568 1.71953 4.68672C2.70286 4.6888 3.68724 4.68906 4.67266 4.6875C4.73464 4.68698 4.76562 4.65573 4.76562 4.59375C4.7651 3.64062 4.76484 2.68385 4.76484 1.72344C4.76432 1.20677 4.80469 0.857812 4.88594 0.676562C5.04688 0.318229 5.36016 0.0927083 5.82578 0Z" fill="#FE964A"/>
<path d="M19.6875 0H20.3781C26.5789 0.160937 32.3023 3.11484 35.9867 8.03516C38.5419 11.4466 39.8797 15.3125 40 19.6328V20.3789C39.8383 26.6109 36.8547 32.3617 31.8867 36.0453C28.4904 38.563 24.65 39.8812 20.3656 40H19.6227C13.3656 39.8406 7.59063 36.8266 3.9125 31.8305C1.42344 28.4492 0.119271 24.6276 0 20.3656V19.6773C0.0890625 16.8695 0.738542 14.1951 1.94844 11.6539C1.95833 11.6326 1.97187 11.6302 1.98906 11.6469L5.52031 15.1781C5.53906 15.1969 5.54479 15.2195 5.5375 15.2461C5.39609 15.7391 5.23359 16.2602 5.13359 16.7234C3.74609 23.1398 6.53281 29.5883 12.0977 33.0055C16.8906 35.9492 23.1039 35.9773 27.9023 33.0055C34.5438 28.8922 37.0734 20.6844 33.7914 13.5609C32.1312 9.95781 28.957 7.04922 25.2258 5.70156C21.9503 4.51771 18.6234 4.46328 15.2453 5.53828C15.2342 5.54183 15.2224 5.54225 15.2109 5.5395C15.1995 5.53674 15.189 5.53092 15.1805 5.52266L11.6547 1.99687C11.6328 1.975 11.6359 1.95729 11.6641 1.94375C14.2052 0.734896 16.8797 0.0869792 19.6875 0Z" fill="#FE964A"/>
<path d="M25.0219 23.0075C27.5016 18.8419 24.0976 13.5106 19.2273 14.2129C19.2034 14.2166 19.1825 14.2098 19.1648 14.1926L16.5055 11.534C16.4915 11.52 16.4836 11.5012 16.4836 11.4817V10.1403C16.4836 10.1205 16.493 10.1075 16.5117 10.1012C19.0924 9.18404 21.6021 9.23742 24.0406 10.2614C29.1336 12.4004 31.7148 18.0293 30.0055 23.3067C29.0031 26.3997 26.4859 28.9395 23.4039 29.9723C21.1716 30.7202 18.9349 30.7309 16.6937 30.0044C13.5969 29.0004 11.0883 26.5059 10.0344 23.4301C9.25312 21.1499 9.27161 18.8463 10.0898 16.5192C10.0982 16.4958 10.1148 16.484 10.1398 16.484H11.4812C11.5026 16.484 11.5211 16.4916 11.5367 16.5067L14.1922 19.1645C14.2099 19.1817 14.2169 19.2028 14.2133 19.2278C13.8734 21.5723 15.0226 23.8622 17.0328 25.045C19.8094 26.677 23.3883 25.752 25.0219 23.0075Z" fill="#FE964A"/>
</g>
<defs>
<clipPath id="clip0_201_771">
<rect width="40" height="40" fill="white"/>
</clipPath>
</defs>
</svg>
