<svg width="32" height="32" viewBox="0 0 32 32" fill="none" xmlns="http://www.w3.org/2000/svg">
<path d="M17.3333 4H5.33325C3.12411 4 1.33325 5.79086 1.33325 8V21.3333H21.3333V8C21.3333 5.79086 19.5424 4 17.3333 4Z" stroke="#FF7E07" stroke-width="2.66667" stroke-linecap="round" stroke-linejoin="round"/>
<path d="M21.3333 10.6667H25.562C26.2693 10.6667 26.9475 10.9476 27.4476 11.4477L30.6666 14.6667V21.3333H21.3333V10.6667Z" stroke="#FF7E07" stroke-width="2.66667" stroke-linecap="round" stroke-linejoin="round"/>
<path d="M7.33333 28C9.17428 28 10.6667 26.5076 10.6667 24.6667C10.6667 22.8257 9.17428 21.3333 7.33333 21.3333C5.49238 21.3333 4 22.8257 4 24.6667C4 26.5076 5.49238 28 7.33333 28Z" stroke="#FF7E07" stroke-width="2.66667" stroke-linecap="round" stroke-linejoin="round"/>
<path d="M24.6666 28C26.5075 28 27.9999 26.5076 27.9999 24.6667C27.9999 22.8257 26.5075 21.3333 24.6666 21.3333C22.8256 21.3333 21.3333 22.8257 21.3333 24.6667C21.3333 26.5076 22.8256 28 24.6666 28Z" stroke="#FF7E07" stroke-width="2.66667" stroke-linecap="round" stroke-linejoin="round"/>
</svg>
