<svg width="32" height="32" viewBox="0 0 32 32" fill="none" xmlns="http://www.w3.org/2000/svg">
<path fill-rule="evenodd" clip-rule="evenodd" d="M25.5781 6.54974L15.9998 6.33309L6.42153 6.54974C4.64665 6.58989 3.14385 7.87072 2.82293 9.6168C2.0473 13.8369 2.0473 18.1631 2.82293 22.3832C3.14385 24.1293 4.64665 25.4101 6.42153 25.4503L15.9998 25.6669L25.5781 25.4503C27.353 25.4101 28.8558 24.1293 29.1767 22.3832C29.9524 18.1631 29.9524 13.8369 29.1767 9.6168C28.8558 7.87072 27.353 6.58989 25.5781 6.54974ZM6.46676 8.54923L15.9998 8.3336L25.5329 8.54923C26.3599 8.56794 27.0601 9.16474 27.2097 9.97833C27.414 11.0903 27.5613 12.2101 27.6515 13.3333H4.34812C4.43832 12.2101 4.58561 11.0903 4.78999 9.97833C4.93952 9.16474 5.63975 8.56794 6.46676 8.54923ZM4.24121 16C4.24121 18.0156 4.42414 20.0311 4.78999 22.0217C4.93952 22.8353 5.63975 23.4321 6.46676 23.4508L15.9998 23.6664L25.5329 23.4508C26.3599 23.4321 27.0601 22.8353 27.2097 22.0217C27.5755 20.0311 27.7584 18.0156 27.7584 16H4.24121Z" fill="#FF7E07"/>
</svg>
