<svg width="32" height="32" viewBox="0 0 32 32" fill="none" xmlns="http://www.w3.org/2000/svg">
<path d="M13.3335 17.6667C13.8858 17.6667 14.3335 18.1144 14.3335 18.6667V21.3334C14.3335 21.8856 13.8858 22.3334 13.3335 22.3334C12.7812 22.3334 12.3335 21.8856 12.3335 21.3334V18.6667C12.3335 18.1144 12.7812 17.6667 13.3335 17.6667Z" fill="#FF7E07"/>
<path d="M19.6668 18.6667C19.6668 18.1144 19.2191 17.6667 18.6668 17.6667C18.1145 17.6667 17.6668 18.1144 17.6668 18.6667V21.3334C17.6668 21.8856 18.1145 22.3334 18.6668 22.3334C19.2191 22.3334 19.6668 21.8856 19.6668 21.3334V18.6667Z" fill="#FF7E07"/>
<path fill-rule="evenodd" clip-rule="evenodd" d="M12.8662 4.50001C13.1423 4.02172 12.9785 3.41013 12.5002 3.13399C12.0219 2.85785 11.4103 3.02172 11.1341 3.50001L8.46747 8.11882C8.42752 8.18801 8.39678 8.26 8.37487 8.33335H8.00016C5.97512 8.33335 4.3335 9.97497 4.3335 12C4.3335 13.1455 4.85878 14.1683 5.68162 14.8407L6.57087 20.9537L7.16653 23.7445C7.52342 25.4167 8.88848 26.6868 10.582 26.9224C14.1768 27.4226 17.8235 27.4226 21.4184 26.9224C23.1119 26.6868 24.4769 25.4167 24.8338 23.7445L25.4295 20.9537L26.3187 14.8407C27.1415 14.1683 27.6668 13.1455 27.6668 12C27.6668 9.97497 26.0252 8.33335 24.0002 8.33335H23.6255C23.6035 8.26 23.5728 8.18801 23.5329 8.11882L20.8662 3.50001C20.59 3.02172 19.9785 2.85785 19.5002 3.13399C19.0219 3.41013 18.858 4.02172 19.1341 4.50001L21.3473 8.33335H10.653L12.8662 4.50001ZM24.1781 15.6624C24.1192 15.6653 24.0598 15.6667 24.0002 15.6667H8.00016C7.9405 15.6667 7.88117 15.6653 7.82221 15.6624L8.54056 20.6006L9.12248 23.3271C9.30379 24.1766 9.99727 24.8218 10.8576 24.9415C14.2695 25.4163 17.7308 25.4163 21.1427 24.9415C22.0031 24.8218 22.6965 24.1766 22.8779 23.3271L23.4598 20.6006L24.1781 15.6624ZM6.3335 12C6.3335 11.0795 7.07969 10.3334 8.00016 10.3334H24.0002C24.9206 10.3334 25.6668 11.0795 25.6668 12C25.6668 12.9205 24.9206 13.6667 24.0002 13.6667H8.00016C7.07969 13.6667 6.3335 12.9205 6.3335 12Z" fill="#FF7E07"/>
</svg>
