<svg width="32" height="32" viewBox="0 0 32 32" fill="none" xmlns="http://www.w3.org/2000/svg">
<path fill-rule="evenodd" clip-rule="evenodd" d="M8.71353 4.33333C7.93338 4.33333 7.20484 4.72323 6.77208 5.37236L1.98645 12.5508C1.69348 12.9903 1.65844 13.553 1.89465 14.0254C4.51345 19.2631 8.15286 23.9243 12.5989 27.7353L14.9332 29.7361C15.5471 30.2622 16.4528 30.2622 17.0667 29.7361L19.401 27.7353C23.8471 23.9243 27.4865 19.2631 30.1053 14.0254C30.3415 13.553 30.3064 12.9903 30.0135 12.5508L25.2278 5.37236C24.7951 4.72323 24.0665 4.33333 23.2864 4.33333H8.71353ZM8.43618 6.48176C8.49801 6.38903 8.60208 6.33333 8.71353 6.33333H11.8333L9.27979 12.4617C9.22097 12.6029 9.17658 12.7485 9.14666 12.8963C8.20821 12.8265 7.27057 12.7423 6.33406 12.6437L4.45977 12.4464L8.43618 6.48176ZM4.37149 14.4481C6.7627 18.8348 9.92024 22.7618 13.6976 26.0417L9.53029 14.9289C8.39384 14.8508 7.25845 14.752 6.12469 14.6327L4.37149 14.4481ZM11.713 15.0535L16 26.4853L20.2869 15.0535C17.4304 15.1835 14.5695 15.1835 11.713 15.0535ZM22.4696 14.9289L18.3023 26.0416C22.0797 22.7618 25.2372 18.8348 27.6284 14.4481L25.8752 14.6327C24.7415 14.752 23.6061 14.8508 22.4696 14.9289ZM27.5401 12.4464L25.6658 12.6437C24.7293 12.7423 23.7917 12.8265 22.8533 12.8963C22.8233 12.7485 22.779 12.6029 22.7201 12.4617L20.1666 6.33333H23.2864C23.3978 6.33333 23.5019 6.38903 23.5637 6.48176L27.5401 12.4464ZM20.7889 13.0267C17.5984 13.1924 14.4015 13.1924 11.211 13.0267L13.9999 6.33333H18L20.7889 13.0267Z" fill="#FF7E07"/>
</svg>
