<svg width="32" height="32" viewBox="0 0 32 32" fill="none" xmlns="http://www.w3.org/2000/svg">
<path d="M20.9998 17.3333C20.9998 16.781 20.5521 16.3333 19.9998 16.3333H11.9998C11.4476 16.3333 10.9998 16.781 10.9998 17.3333C10.9998 17.8856 11.4476 18.3333 11.9998 18.3333H19.9998C20.5521 18.3333 20.9998 17.8856 20.9998 17.3333Z" fill="#FF7E07"/>
<path d="M20.9998 22.6667C20.9998 22.1144 20.5521 21.6667 19.9998 21.6667H11.9998C11.4476 21.6667 10.9998 22.1144 10.9998 22.6667C10.9998 23.219 11.4476 23.6667 11.9998 23.6667H19.9998C20.5521 23.6667 20.9998 23.219 20.9998 22.6667Z" fill="#FF7E07"/>
<path fill-rule="evenodd" clip-rule="evenodd" d="M9.33317 3C7.30813 3 5.6665 4.64162 5.6665 6.66667V25.3333C5.6665 27.3584 7.30813 29 9.33317 29H22.6665C24.6915 29 26.3332 27.3584 26.3332 25.3333V10.6235C26.3332 10.1158 26.1676 9.62201 25.8615 9.21693L21.8645 3.92672C21.4235 3.34306 20.7343 3 20.0028 3H9.33317ZM7.6665 6.66667C7.6665 5.74619 8.4127 5 9.33317 5H18.9998V10.8627C18.9998 11.415 19.4476 11.8627 19.9998 11.8627H24.3332V25.3333C24.3332 26.2538 23.587 27 22.6665 27H9.33317C8.4127 27 7.6665 26.2538 7.6665 25.3333V6.66667Z" fill="#FF7E07"/>
</svg>
