<svg width="32" height="32" viewBox="0 0 32 32" fill="none" xmlns="http://www.w3.org/2000/svg">
<path fill-rule="evenodd" clip-rule="evenodd" d="M23.9812 7.23158C18.677 6.63875 13.3232 6.63875 8.019 7.23158C7.66011 7.27169 7.48728 7.69256 7.71441 7.97332L12.4038 13.7701C14.0836 15.8466 15.0001 18.4367 15.0001 21.1076V24.9599L17.0001 26.4266V21.1076C17.0001 18.4367 17.9166 15.8466 19.5964 13.77L24.2858 7.97332C24.5129 7.69256 24.3401 7.27169 23.9812 7.23158ZM7.79686 5.24395C13.2487 4.63463 18.7515 4.63463 24.2034 5.24395C26.1326 5.45957 27.0616 7.72196 25.8407 9.23119L21.1514 15.0279C19.7595 16.7485 19.0001 18.8946 19.0001 21.1076V28.4C19.0001 28.7768 18.7883 29.1217 18.4521 29.292C18.116 29.4624 17.7126 29.4293 17.4087 29.2064L13.4087 26.2731C13.1519 26.0847 13.0001 25.7852 13.0001 25.4667V21.1076C13.0001 18.8946 12.2407 16.7485 10.8489 15.0279L6.15949 9.23119C4.93857 7.72196 5.86762 5.45957 7.79686 5.24395Z" fill="#FF7E07"/>
</svg>
