<svg width="32" height="32" viewBox="0 0 32 32" fill="none" xmlns="http://www.w3.org/2000/svg">
<path fill-rule="evenodd" clip-rule="evenodd" d="M17.3334 4C17.3334 3.26362 16.7365 2.66667 16.0001 2.66667C15.2637 2.66667 14.6667 3.26362 14.6667 4V5H13.9235C10.9568 5 8.5013 7.30668 8.3161 10.2677L8.02143 14.9789C7.90909 16.7752 7.30603 18.5062 6.27795 19.9834C5.34904 21.3182 6.176 23.1616 7.79058 23.3554L12.3334 23.9005V25.3333C12.3334 27.3584 13.975 29 16.0001 29C18.0251 29 19.6667 27.3584 19.6667 25.3333V23.9005L24.2096 23.3554C25.8242 23.1616 26.6511 21.3182 25.7222 19.9834C24.6941 18.5062 24.0911 16.7752 23.9787 14.9789L23.684 10.2677C23.4988 7.30668 21.0434 5 18.0766 5H17.3334V4ZM13.9235 7C12.0129 7 10.4315 8.48556 10.3122 10.3925L10.0175 15.1038C9.88234 17.2653 9.15667 19.3483 7.91954 21.1259C7.8524 21.2224 7.91217 21.3556 8.02887 21.3696L13.0124 21.9676C14.9971 22.2058 17.0031 22.2058 18.9877 21.9676L23.9713 21.3696C24.088 21.3556 24.1478 21.2224 24.0806 21.1259C22.8435 19.3483 22.1178 17.2653 21.9826 15.1038L21.6879 10.3925C21.5687 8.48556 19.9873 7 18.0766 7H13.9235ZM16.0001 27C15.0796 27 14.3334 26.2538 14.3334 25.3333V24.3333H17.6667V25.3333C17.6667 26.2538 16.9206 27 16.0001 27Z" fill="#FF7E07"/>
</svg>
