<svg width="32" height="32" viewBox="0 0 32 32" fill="none" xmlns="http://www.w3.org/2000/svg">
<path fill-rule="evenodd" clip-rule="evenodd" d="M15 7.7178C10.1312 8.2182 6.33337 12.3323 6.33337 17.3334C6.33337 22.6721 10.6613 27 16 27C21.0011 27 25.1152 23.2023 25.6156 18.3334H16C15.4478 18.3334 15 17.8857 15 17.3334V7.7178ZM4.33337 17.3334C4.33337 10.89 9.55672 5.6667 16 5.6667C16.5523 5.6667 17 6.11442 17 6.6667V16.3334H26.6667C27.219 16.3334 27.6667 16.7811 27.6667 17.3334C27.6667 23.7767 22.4434 29 16 29C9.55672 29 4.33337 23.7767 4.33337 17.3334Z" fill="#FF7E07"/>
<path fill-rule="evenodd" clip-rule="evenodd" d="M20.6667 6.23156V12.6667H27.1018C26.3511 9.4875 23.8459 6.98227 20.6667 6.23156ZM19.9974 4.08223C24.8245 4.68294 28.6505 8.50893 29.2512 13.336C29.3421 14.0668 28.7364 14.6667 28 14.6667H19.3334C18.9652 14.6667 18.6667 14.3682 18.6667 14V5.33337C18.6667 4.59699 19.2667 3.9913 19.9974 4.08223Z" fill="#FF7E07"/>
</svg>
