<svg width="32" height="32" viewBox="0 0 32 32" fill="none" xmlns="http://www.w3.org/2000/svg">
<path fill-rule="evenodd" clip-rule="evenodd" d="M15.0002 7.71782C10.1313 8.21821 6.3335 12.3323 6.3335 17.3334C6.3335 22.6721 10.6614 27.0001 16.0002 27.0001C21.0013 27.0001 25.1153 23.2023 25.6157 18.3334H16.0002C15.4479 18.3334 15.0002 17.8857 15.0002 17.3334V7.71782ZM4.3335 17.3334C4.3335 10.8901 9.55684 5.66672 16.0002 5.66672C16.5524 5.66672 17.0002 6.11443 17.0002 6.66672V16.3334H26.6668C27.2191 16.3334 27.6668 16.7811 27.6668 17.3334C27.6668 23.7767 22.4435 29.0001 16.0002 29.0001C9.55684 29.0001 4.3335 23.7767 4.3335 17.3334Z" fill="#FF7E07"/>
<path fill-rule="evenodd" clip-rule="evenodd" d="M20.6668 6.23158V12.6667H27.102C26.3513 9.48751 23.846 6.98228 20.6668 6.23158ZM19.9975 4.08225C24.8246 4.68295 28.6506 8.50895 29.2513 13.336C29.3422 14.0668 28.7365 14.6667 28.0002 14.6667H19.3335C18.9653 14.6667 18.6668 14.3682 18.6668 14.0001V5.33339C18.6668 4.59701 19.2668 3.99131 19.9975 4.08225Z" fill="#FF7E07"/>
</svg>
