<svg width="32" height="32" viewBox="0 0 32 32" fill="none" xmlns="http://www.w3.org/2000/svg">
<path d="M26.5201 4.33331H5.48014C4.7729 4.33331 4.09462 4.61426 3.59453 5.11436C3.09443 5.61446 2.81348 6.29274 2.81348 6.99998V19.08C2.81348 19.4302 2.88245 19.7769 3.01646 20.1005C3.15048 20.424 3.3469 20.718 3.59453 20.9656C3.84215 21.2132 4.13612 21.4096 4.45965 21.5437C4.78319 21.6777 5.12995 21.7466 5.48014 21.7466H7.66681L10.7468 27.08C10.8456 27.2547 10.9889 27.4001 11.1623 27.5012C11.3357 27.6024 11.5328 27.6557 11.7335 27.6557C11.9342 27.6557 12.1313 27.6024 12.3047 27.5012C12.478 27.4001 12.6214 27.2547 12.7201 27.08L15.8135 21.7466H26.4801C27.1874 21.7466 27.8657 21.4657 28.3658 20.9656C28.8659 20.4655 29.1468 19.7872 29.1468 19.08V6.99998C29.1469 6.29961 28.8714 5.62733 28.38 5.12836C27.8885 4.6294 27.2204 4.34382 26.5201 4.33331Z" stroke="#FF7E07" stroke-width="2" stroke-linecap="round" stroke-linejoin="round"/>
<path d="M6.68018 10.4799H14.6802" stroke="#FF7E07" stroke-width="2" stroke-linecap="round" stroke-linejoin="round"/>
<path d="M6.68018 15.8132H24.0135" stroke="#FF7E07" stroke-width="2" stroke-linecap="round" stroke-linejoin="round"/>
</svg>
