<svg width="32" height="32" viewBox="0 0 32 32" fill="none" xmlns="http://www.w3.org/2000/svg">
<path d="M20.6667 16C20.6667 14.8954 21.5621 14 22.6667 14C23.7712 14 24.6667 14.8954 24.6667 16C24.6667 17.1046 23.7712 18 22.6667 18C21.5621 18 20.6667 17.1046 20.6667 16Z" fill="#FF7E07"/>
<path fill-rule="evenodd" clip-rule="evenodd" d="M27.2551 8.89871C26.3781 6.83782 24.4402 5.35632 22.1342 5.11365L21.2651 5.02219C16.8753 4.56025 12.4477 4.59072 8.06467 5.11301L7.48875 5.18164C5.2637 5.44678 3.50069 7.1852 3.20432 9.40631C2.62037 13.7827 2.62037 18.2173 3.20432 22.5937C3.50069 24.8149 5.2637 26.5533 7.48876 26.8184L8.06468 26.887C12.4477 27.4093 16.8753 27.4398 21.2651 26.9779L22.1342 26.8864C24.4402 26.6437 26.3781 25.1622 27.2551 23.1013C28.6408 22.6888 29.6984 21.4875 29.872 20.0032C30.183 17.3435 30.183 14.6566 29.872 11.9969C29.6984 10.5126 28.6408 9.31127 27.2551 8.89871ZM21.0558 7.01121C16.8143 6.56488 12.5362 6.59431 8.30133 7.09896L7.72541 7.16759C6.40699 7.32469 5.36236 8.35476 5.18675 9.67083C4.62623 13.8717 4.62623 18.1284 5.18675 22.3292C5.36236 23.6453 6.40699 24.6754 7.72541 24.8325L8.30133 24.9011C12.5362 25.4057 16.8143 25.4352 21.0558 24.9888L21.9249 24.8974C23.059 24.778 24.0624 24.219 24.7578 23.3893C22.7469 23.5066 20.7093 23.4541 18.7223 23.2321C17.0299 23.0429 15.6611 21.7102 15.4614 20.0032C15.1503 17.3435 15.1503 14.6566 15.4614 11.9969C15.6611 10.2899 17.0299 8.95713 18.7223 8.76797C20.7093 8.5459 22.7469 8.4935 24.7578 8.61076C24.0624 7.781 23.059 7.22201 21.9249 7.10267L21.0558 7.01121ZM25.7032 10.6863C25.704 10.6914 25.7048 10.6965 25.7056 10.7016L25.7136 10.7535L25.9785 10.7124C26.1155 10.7259 26.2524 10.7403 26.3889 10.7556C27.1721 10.8431 27.7958 11.462 27.8855 12.2292C28.1785 14.7345 28.1785 17.2655 27.8855 19.7709C27.7958 20.5381 27.1721 21.1569 26.3889 21.2445C26.2524 21.2597 26.1155 21.2741 25.9785 21.2877L25.7136 21.2466L25.7056 21.2984C25.7048 21.3035 25.704 21.3086 25.7032 21.3138C23.465 21.5162 21.1696 21.4931 18.9445 21.2445C18.1613 21.1569 17.5376 20.5381 17.4479 19.7709C17.1549 17.2655 17.1549 14.7345 17.4479 12.2292C17.5376 11.462 18.1613 10.8431 18.9445 10.7556C21.1696 10.5069 23.465 10.4838 25.7032 10.6863Z" fill="#FF7E07"/>
</svg>
