<svg width="32" height="35" viewBox="0 0 32 35" fill="none" xmlns="http://www.w3.org/2000/svg">
<g filter="url(#filter0_d_314_82)">
<path fill-rule="evenodd" clip-rule="evenodd" d="M10.3334 10C10.3334 6.87039 12.8705 4.33333 16.0001 4.33333C19.1297 4.33333 21.6667 6.87039 21.6667 10C21.6667 13.1296 19.1297 15.6667 16.0001 15.6667C12.8705 15.6667 10.3334 13.1296 10.3334 10ZM16.0001 6.33333C13.975 6.33333 12.3334 7.97495 12.3334 10C12.3334 12.025 13.975 13.6667 16.0001 13.6667C18.0251 13.6667 19.6667 12.025 19.6667 10C19.6667 7.97495 18.0251 6.33333 16.0001 6.33333Z" fill="#FF7E07"/>
<path fill-rule="evenodd" clip-rule="evenodd" d="M10.6667 19.6667C9.00989 19.6667 7.66675 21.0098 7.66675 22.6667V24.251C7.66675 24.2752 7.68423 24.2957 7.70804 24.2996C13.1997 25.1962 18.8004 25.1962 24.2921 24.2996C24.3159 24.2957 24.3334 24.2752 24.3334 24.251V22.6667C24.3334 21.0098 22.9903 19.6667 21.3334 19.6667H20.8789C20.8438 19.6667 20.8089 19.6722 20.7755 19.6831L19.6214 20.06C17.2683 20.8283 14.7318 20.8283 12.3787 20.06L11.2247 19.6831C11.1913 19.6722 11.1564 19.6667 11.1212 19.6667H10.6667ZM5.66675 22.6667C5.66675 19.9052 7.90532 17.6667 10.6667 17.6667H11.1212C11.3672 17.6667 11.6117 17.7056 11.8455 17.7819L12.9995 18.1587C14.9492 18.7954 17.0509 18.7954 19.0006 18.1587L20.1547 17.7819C20.3885 17.7056 20.6329 17.6667 20.8789 17.6667H21.3334C24.0948 17.6667 26.3334 19.9052 26.3334 22.6667V24.251C26.3334 25.2554 25.6056 26.1117 24.6144 26.2735C18.9093 27.2049 13.0909 27.2049 7.38578 26.2735C6.39459 26.1117 5.66675 25.2554 5.66675 24.251V22.6667Z" fill="#FF7E07"/>
</g>
<defs>
<filter id="filter0_d_314_82" x="-4" y="0" width="40" height="40" filterUnits="userSpaceOnUse" color-interpolation-filters="sRGB">
<feFlood flood-opacity="0" result="BackgroundImageFix"/>
<feColorMatrix in="SourceAlpha" type="matrix" values="0 0 0 0 0 0 0 0 0 0 0 0 0 0 0 0 0 0 127 0" result="hardAlpha"/>
<feOffset dy="4"/>
<feGaussianBlur stdDeviation="2"/>
<feComposite in2="hardAlpha" operator="out"/>
<feColorMatrix type="matrix" values="0 0 0 0 0 0 0 0 0 0 0 0 0 0 0 0 0 0 0.25 0"/>
<feBlend mode="normal" in2="BackgroundImageFix" result="effect1_dropShadow_314_82"/>
<feBlend mode="normal" in="SourceGraphic" in2="effect1_dropShadow_314_82" result="shape"/>
</filter>
</defs>
</svg>
