<svg width="162" height="66" viewBox="0 0 162 66" fill="none" xmlns="http://www.w3.org/2000/svg">
<path d="M12.2248 1.19519C10.4356 1.19519 8.76571 2.07167 7.21507 3.82461C5.70418 5.53772 4.49149 8.04761 3.57701 11.3543H2.68241C2.72217 10.7567 2.76194 10.1392 2.80169 9.50177C2.84146 8.94402 2.88121 8.34641 2.92096 7.70898C2.96073 7.03171 2.98062 6.35443 2.98062 5.67716C2.98062 5.07956 2.96073 4.48197 2.92096 3.88437C2.88121 3.24693 2.84146 2.64935 2.80169 2.09159C2.76194 1.49399 2.72217 0.896392 2.68241 0.298798H3.57701C4.17342 0.458158 4.73006 0.816714 5.24694 1.37447C5.80358 1.89238 6.24095 2.45015 6.55902 3.04774C7.03614 2.48998 7.59279 1.99199 8.22895 1.55375C8.78559 1.15535 9.44162 0.796795 10.1971 0.478077C10.9525 0.15936 11.8272 0 12.8212 0C14.5309 0 16.2207 0.458158 17.8906 1.37447C19.5606 2.25094 21.0516 3.60549 22.3636 5.43811C23.7155 7.23091 24.789 9.50177 25.5842 12.2507C26.4191 14.9598 26.8368 18.147 26.8368 21.8123C26.8368 25.4774 26.4191 28.6847 25.5842 31.4335C24.789 34.1427 23.6956 36.4134 22.304 38.2461C20.9522 40.039 19.4015 41.3934 17.6521 42.3097C15.9026 43.1863 14.0936 43.6246 12.2248 43.6246C10.7935 43.6246 9.44162 43.3256 8.1693 42.728C6.89698 42.1305 5.76381 41.2939 4.76981 40.2183C3.81558 39.1027 3.02037 37.8078 2.38421 36.3339C1.74805 34.82 1.35045 33.1666 1.19141 31.3737H2.086C2.24505 32.8876 2.62278 34.322 3.21917 35.6764C3.81558 36.9912 4.55113 38.1466 5.42586 39.1425C6.30059 40.1385 7.2747 40.9353 8.34823 41.5329C9.42176 42.1305 10.5151 42.4293 11.6284 42.4293C12.9008 42.4293 14.1134 42.1105 15.2665 41.4731C16.4195 40.8356 17.4334 39.74 18.3081 38.1864C19.1829 36.5927 19.8786 34.4813 20.3956 31.8518C20.9124 29.1825 21.1708 25.836 21.1708 21.8123H14.6104L11.9266 27.1906H11.3302V15.2387H11.9266L14.6104 20.617H21.1708C21.0913 16.7924 20.7931 13.6451 20.2763 11.175C19.7593 8.66514 19.0835 6.67315 18.2484 5.19909C17.4533 3.72502 16.5189 2.68918 15.4454 2.09159C14.4116 1.49399 13.3381 1.19519 12.2248 1.19519Z" fill="white"/>
<path d="M39.6722 8.66514C39.6722 10.2986 40.1495 11.7129 41.1037 12.9081C42.0579 14.0634 43.2506 15.1391 44.6821 16.1351C46.1134 17.1311 47.6641 18.1072 49.334 19.0633C51.0437 20.0194 52.6142 21.115 54.0455 22.3501C55.477 23.5452 56.6697 24.9596 57.6239 26.593C58.5781 28.2264 59.0554 30.2184 59.0554 32.569C59.0554 34.1227 58.777 35.5769 58.2203 36.9315C57.6638 38.2859 56.8686 39.4612 55.8348 40.4573C54.8407 41.4532 53.648 42.23 52.2564 42.7878C50.8648 43.3456 49.3539 43.6246 47.7238 43.6246C46.2129 43.6246 44.9206 43.4651 43.8472 43.1463C42.7735 42.8675 41.879 42.529 41.1633 42.1305C40.3284 41.6922 39.6325 41.1943 39.0758 40.6366C38.7579 41.2341 38.3205 41.7919 37.7638 42.3097C37.247 42.8278 36.6903 43.1663 36.094 43.3256H35.1992C35.2391 42.768 35.2788 42.1703 35.3185 41.5329C35.3584 41.0149 35.3981 40.4373 35.4378 39.7998C35.4776 39.1624 35.4974 38.5449 35.4974 37.9473C35.4974 37.27 35.4776 36.6127 35.4378 35.9752C35.3981 35.298 35.3584 34.6805 35.3185 34.1227C35.2788 33.4854 35.2391 32.8678 35.1992 32.2701H36.094C37.0083 35.5769 38.3205 38.1066 40.0302 39.8597C41.7796 41.5727 44.1454 42.4293 47.1272 42.4293C49.5129 42.4293 51.4412 41.6724 52.9124 40.1585C54.4233 38.6046 55.1788 36.4732 55.1788 33.7642C55.1788 32.1308 54.7015 30.7364 53.7473 29.581C52.7931 28.3857 51.6004 27.2903 50.1689 26.2942C48.7376 25.2982 47.1671 24.3221 45.4574 23.366C43.7875 22.4099 42.2368 21.3342 40.8055 20.1389C39.374 18.904 38.1813 17.4697 37.2271 15.8363C36.2729 14.2029 35.7956 12.2109 35.7956 9.86033C35.7956 8.50578 36.0541 7.23091 36.5711 6.03572C37.0879 4.84053 37.8035 3.80469 38.718 2.92822C39.6325 2.01191 40.706 1.29479 41.9386 0.776875C43.1712 0.258959 44.5032 0 45.9345 0C47.1272 0 48.1809 0.15936 49.0954 0.478077C50.0099 0.796795 50.7852 1.13543 51.4215 1.49399C52.1371 1.93223 52.7931 2.43023 53.3895 2.98798C53.7076 2.39038 54.1251 1.83262 54.6419 1.31471C55.1986 0.796795 55.7752 0.458158 56.3715 0.298798H57.2661C57.1865 0.896392 57.1269 1.49399 57.0872 2.09159C57.0475 2.64935 57.0076 3.24693 56.9679 3.88437C56.9679 4.48197 56.9679 5.07956 56.9679 5.67716C56.9679 6.35443 56.9679 7.03171 56.9679 7.70898C57.0076 8.34641 57.0475 8.94402 57.0872 9.50177C57.1269 10.1392 57.1865 10.7567 57.2661 11.3543H56.3715C55.457 8.04761 54.1847 5.53772 52.5546 3.82461C50.9244 2.07167 48.9165 1.19519 46.5308 1.19519C44.5826 1.19519 42.9524 1.87247 41.6404 3.22703C40.3284 4.58156 39.6722 6.39428 39.6722 8.66514Z" fill="white"/>
<path d="M81.4244 41.2342L85.0028 42.1306V42.7281H72.7764V42.1306L76.3549 41.2342V2.09168H70.0928C70.0928 3.76494 69.7547 5.31869 69.0787 6.75292C68.403 8.18714 67.5481 9.42218 66.5143 10.458H65.918C65.9577 9.9401 65.9974 9.40225 66.0372 8.8445C66.0769 8.36643 66.1166 7.86843 66.1565 7.35051C66.1962 6.79276 66.2162 6.235 66.2162 5.67725C66.2162 4.9203 66.1962 4.26294 66.1565 3.70519C66.1166 3.10758 66.0769 2.58966 66.0372 2.15144C65.9974 1.67336 65.9577 1.25504 65.918 0.896484H91.8613C91.7819 1.25504 91.7223 1.67336 91.6824 2.15144C91.6427 2.58966 91.603 3.10758 91.5631 3.70519C91.5631 4.26294 91.5631 4.9203 91.5631 5.67725C91.5631 6.235 91.5631 6.79276 91.5631 7.35051C91.603 7.86843 91.6427 8.36643 91.6824 8.8445C91.7223 9.40225 91.7819 9.9401 91.8613 10.458H91.2649C90.2311 9.42218 89.3763 8.18714 88.7005 6.75292C88.0246 5.31869 87.6865 3.76494 87.6865 2.09168H81.4244V41.2342Z" fill="white"/>
<path d="M120.795 41.533C120.795 39.8598 121.133 38.306 121.809 36.8718C122.484 35.4375 123.339 34.2025 124.373 33.1667H124.969C124.89 33.6845 124.83 34.2223 124.79 34.7801C124.751 35.2582 124.711 35.7762 124.671 36.334C124.671 36.8916 124.671 37.4296 124.671 37.9474C124.671 38.7045 124.671 39.3816 124.671 39.9793C124.711 40.5369 124.751 41.035 124.79 41.4732C124.83 41.9513 124.89 42.3696 124.969 42.7281H100.219V42.1306L103.797 41.2342V2.39047L100.219 1.49408V0.896484H124.373C124.294 1.25504 124.234 1.67336 124.194 2.15144C124.154 2.58966 124.115 3.10758 124.075 3.70519C124.075 4.26294 124.075 4.9203 124.075 5.67725C124.075 6.235 124.075 6.79276 124.075 7.35051C124.115 7.86843 124.154 8.36643 124.194 8.8445C124.234 9.40225 124.294 9.9401 124.373 10.458H123.777C122.743 9.42218 121.888 8.18714 121.212 6.75292C120.536 5.31869 120.198 3.76494 120.198 2.09168H108.867V20.0195H114.532L117.216 14.6412H117.813V26.5931H117.216L114.532 21.2148H108.867V41.533H120.795Z" fill="white"/>
<path d="M148.819 41.2342L152.397 42.1306V42.7281H140.171V42.1306L143.75 41.2342V2.09168H137.487C137.487 3.76494 137.149 5.31869 136.473 6.75292C135.798 8.18714 134.943 9.42218 133.909 10.458H133.312C133.352 9.9401 133.392 9.40225 133.432 8.8445C133.472 8.36643 133.511 7.86843 133.551 7.35051C133.591 6.79276 133.611 6.235 133.611 5.67725C133.611 4.9203 133.591 4.26294 133.551 3.70519C133.511 3.10758 133.472 2.58966 133.432 2.15144C133.392 1.67336 133.352 1.25504 133.312 0.896484H159.256C159.177 1.25504 159.117 1.67336 159.077 2.15144C159.037 2.58966 158.998 3.10758 158.958 3.70519C158.958 4.26294 158.958 4.9203 158.958 5.67725C158.958 6.235 158.958 6.79276 158.958 7.35051C158.998 7.86843 159.037 8.36643 159.077 8.8445C159.117 9.40225 159.177 9.9401 159.256 10.458H158.66C157.626 9.42218 156.771 8.18714 156.095 6.75292C155.419 5.31869 155.081 3.76494 155.081 2.09168H148.819V41.2342Z" fill="white"/>
<path fill-rule="evenodd" clip-rule="evenodd" d="M65.0478 64.4501L67.8629 59.7407L67.8751 65.5279H69.885L69.871 55.7402H68.1527L64.5825 61.8204L60.9469 55.7402H59.2293V65.5279H61.2526V59.8153L64.0669 64.4501H65.0478ZM77.8526 55.7402V65.5279H85.2677V63.7025H79.9566V61.459H84.5013V59.6608H79.9566V57.5656H85.0794V55.7402H77.8526ZM101.361 55.7402H99.2706V61.8031L94.3433 55.7402H92.6419V65.5279H94.7324V59.465L99.6599 65.5279H101.361V55.7402ZM48.3322 62.4323H0V60.2917H48.3322V62.4323ZM112.154 62.0502H160.486V59.9097H112.154V62.0502Z" fill="white"/>
</svg>
