<svg width="83" height="68" viewBox="0 0 83 68" fill="none" xmlns="http://www.w3.org/2000/svg">
<path d="M30.5648 7.22189C29.023 10.4554 30.0509 14.5235 32.7233 16.6096L40.9975 23.0768L30.6162 7.06543C30.6162 7.11758 30.5648 7.16974 30.5648 7.22189Z" fill="white"/>
<path d="M42.9998 0.493164L41.0469 23.0238L49.1155 3.72672C47.471 2.05779 45.3639 0.858243 42.9998 0.493164Z" fill="white"/>
<path d="M32.875 3.72672L40.9437 23.0238L39.0421 0.493164C36.6267 0.858243 34.5196 2.05779 32.875 3.72672Z" fill="white"/>
<path d="M51.4802 7.2215C51.4288 7.16934 51.4288 7.11719 51.3774 7.11719L40.9961 23.0242L49.3217 16.5571C52.0969 14.4188 53.022 10.4551 51.4802 7.2215Z" fill="white"/>
<path d="M3.48078 31.9937H3.42938V36.8962H4.7142V38.513H0.5V36.8962H1.73343V30.6377H0.5V28.9688H3.37799L6.30738 33.4019H6.35877L9.33955 28.9688H12.2175V30.6377H10.9327V36.8962H12.2175V38.5651H8.00334V36.8962H9.23676V31.9937H9.18537L6.56434 35.8009H6.1532L3.48078 31.9937Z" fill="white"/>
<path d="M17.5146 34.0277H19.7245L18.6452 30.8985H18.5939L17.5146 34.0277ZM20.1356 35.3837H17.0521L16.5381 36.8962H17.5146V38.513H13.6602V36.8962H14.7394L17.566 28.9688H19.6217L22.4483 36.8962H23.5276V38.513H19.6731V36.8962H20.6496L20.1356 35.3837Z" fill="white"/>
<path d="M27.9456 33.0885H30.1555C30.5153 33.0885 30.8236 32.9842 31.0806 32.7235C31.3375 32.4627 31.4403 32.2019 31.4403 31.8368C31.4403 31.4718 31.3375 31.211 31.0806 30.9502C30.875 30.6894 30.5667 30.5851 30.1555 30.5851H27.9456V33.0885ZM27.9456 36.8958H29.179V38.5126H24.9648V36.8958H26.1983V30.6373H24.9648V29.0205H30.1041C30.5666 29.0205 31.0292 29.0727 31.3889 29.2291C31.7487 29.3856 32.1084 29.5942 32.3654 29.855C32.6224 30.1157 32.8279 30.4287 32.9821 30.7416C33.1363 31.1067 33.1877 31.4718 33.1877 31.889C33.1877 32.4105 33.0849 32.8278 32.8793 33.1407C32.6738 33.4536 32.4682 33.7144 32.2626 33.8708C32.0056 34.0795 31.6973 34.2359 31.3375 34.2881V34.3402L32.9821 36.9479H34.1641V38.5647H31.9029L29.5902 34.7575H27.8942L27.9456 36.8958Z" fill="white"/>
<path d="M35.7031 36.8958H36.9366V30.6373H35.7031V29.0205H43.6176V32.2019H42.0758V30.6373H38.6325V32.8799H41.1508V34.4967H38.6325V36.8958H42.0758V35.3312H43.5662V38.5126H35.7031V36.8958Z" fill="white"/>
<path d="M52.8708 35.7492C52.8708 36.1664 52.768 36.5837 52.6138 36.9488C52.4596 37.3138 52.2027 37.6789 51.8943 37.9397C51.5859 38.2526 51.1748 38.4612 50.7637 38.6177C50.3011 38.7742 49.7872 38.8785 49.2733 38.8785C48.708 38.8785 48.194 38.7742 47.7315 38.6177C47.269 38.4612 46.9092 38.2526 46.6008 38.044C46.2411 37.7832 45.9327 37.5225 45.6758 37.2095L46.6008 35.9057C46.8064 36.1664 47.012 36.4272 47.3203 36.6358C47.5259 36.7923 47.8343 37.0009 48.1426 37.1052C48.451 37.2095 48.8107 37.3138 49.2219 37.3138C49.8386 37.3138 50.2497 37.1574 50.5581 36.8445C50.8664 36.5315 51.0206 36.1664 51.0206 35.7492C51.0206 35.4363 50.9178 35.2277 50.6609 35.0712C50.4039 34.9148 50.0956 34.7583 49.7358 34.6018C49.3761 34.4975 48.9649 34.3411 48.5538 34.2367C48.1426 34.1324 47.7315 33.9238 47.3717 33.7152C47.012 33.5066 46.7036 33.2458 46.4467 32.8807C46.1897 32.5678 46.0869 32.0984 46.0869 31.5769C46.0869 31.2118 46.1383 30.7946 46.2925 30.4816C46.4467 30.1166 46.6522 29.8036 46.9092 29.5429C47.1662 29.2821 47.5259 29.0735 47.9371 28.917C48.3482 28.7606 48.8107 28.6562 49.3761 28.6562C49.8386 28.6562 50.2497 28.7084 50.6095 28.8649C50.9692 29.0213 51.329 29.1256 51.5859 29.3343C51.8943 29.4907 52.1513 29.7515 52.4596 29.9601V31.9941H50.9692V30.8989C50.8151 30.7946 50.7123 30.6381 50.5581 30.5338C50.4039 30.4295 50.2497 30.3773 50.0442 30.3252C49.8386 30.273 49.633 30.2209 49.4274 30.2209C48.9135 30.2209 48.5538 30.3773 48.2968 30.6381C48.0398 30.8989 47.9371 31.2118 47.9371 31.629C47.9371 31.942 48.0398 32.1506 48.2968 32.307C48.5538 32.4635 48.8621 32.62 49.2219 32.7243C49.5816 32.8286 49.9928 32.985 50.4039 33.0894C50.8151 33.1937 51.2262 33.4023 51.5859 33.6109C51.9457 33.8195 52.254 34.0803 52.511 34.4454C52.7166 34.7583 52.8708 35.1755 52.8708 35.7492Z" fill="white"/>
<path d="M59.7579 36.8962H60.9913V38.513H56.7771V36.8962H58.062V30.6377H56.3146V32.4631H54.8242V28.9688H62.9957V32.4631H61.5053V30.6377H59.7579V36.8962Z" fill="white"/>
<path d="M64.9453 36.8958H66.1787V30.6373H64.9453V29.0205H72.8084V32.2019H71.318V30.6373H67.8747V32.8799H70.3929V34.4967H67.8747V36.8958H71.318V35.3312H72.8084V38.5126H64.9453V36.8958Z" fill="white"/>
<path d="M82.0622 35.7492C82.0622 36.1664 81.9594 36.5837 81.8052 36.9488C81.651 37.3138 81.3941 37.6789 81.0857 37.9397C80.7774 38.2526 80.3662 38.4612 79.9551 38.6177C79.4925 38.7742 78.9786 38.8785 78.4647 38.8785C77.8994 38.8785 77.3854 38.7742 76.9229 38.6177C76.4604 38.4612 76.1006 38.2526 75.7923 38.044C75.4325 37.7832 75.1242 37.5225 74.8672 37.2095L75.7923 35.9057C75.9978 36.1664 76.2034 36.4272 76.5118 36.6358C76.7173 36.7923 77.0257 37.0009 77.334 37.1052C77.6424 37.2617 78.0021 37.3138 78.4133 37.3138C79.03 37.3138 79.4411 37.1574 79.7495 36.8445C80.0579 36.5315 80.212 36.1664 80.212 35.7492C80.212 35.4363 80.1092 35.2277 79.8523 35.0712C79.5953 34.9148 79.287 34.7583 78.9272 34.6018C78.5675 34.4975 78.1563 34.3411 77.7452 34.2367C77.334 34.1324 76.9229 33.9238 76.5631 33.7152C76.2034 33.5066 75.895 33.2458 75.6381 32.8807C75.3811 32.5678 75.2783 32.0984 75.2783 31.5769C75.2783 31.2118 75.3297 30.7946 75.4839 30.4816C75.6381 30.1166 75.8437 29.8036 76.1006 29.5429C76.3576 29.2821 76.7173 29.0735 77.1285 28.917C77.5396 28.7606 78.0021 28.6562 78.5675 28.6562C79.03 28.6562 79.4411 28.7084 79.8009 28.8649C80.1606 29.0213 80.5204 29.1256 80.7773 29.3343C81.0857 29.4907 81.3427 29.7515 81.651 29.9601V31.9941H80.1606V30.8989C80.0065 30.7946 79.9037 30.6381 79.7495 30.5338C79.5953 30.4295 79.4411 30.3773 79.2356 30.3252C79.03 30.273 78.8244 30.2209 78.6189 30.2209C78.1049 30.2209 77.7452 30.3773 77.4882 30.6381C77.2313 30.8989 77.1285 31.2118 77.1285 31.629C77.1285 31.942 77.2313 32.1506 77.4882 32.307C77.7452 32.4635 78.0535 32.62 78.4133 32.7243C78.773 32.8286 79.1842 32.985 79.5953 33.0894C80.0065 33.1937 80.4176 33.4023 80.7773 33.6109C81.1371 33.8195 81.4455 34.0803 81.7024 34.4454C81.9594 34.7583 82.0622 35.1755 82.0622 35.7492Z" fill="white"/>
<path d="M26.9648 49.5186H28.9177C29.3288 49.5186 29.5858 49.4143 29.7914 49.2057C29.9969 48.997 30.0997 48.6841 30.0997 48.319C30.0997 47.954 29.9969 47.6932 29.7914 47.4324C29.5858 47.2238 29.2774 47.1195 28.9177 47.1195H26.9648V49.5186ZM26.9648 52.6478H28.044V54.1082H24.3438V52.6478H25.423V47.1195H24.3438V45.6592H28.8663C29.3288 45.6592 29.6886 45.7113 30.0483 45.8678C30.4081 46.0243 30.7164 46.1807 30.922 46.4415C31.179 46.7023 31.3332 46.963 31.4873 47.276C31.7443 47.954 31.7443 48.6841 31.4873 49.3621C31.3846 49.675 31.179 49.9358 30.922 50.1966C30.6651 50.4574 30.4081 50.6138 30.0483 50.7703C29.6886 50.9268 29.3288 50.9789 28.8663 50.9789H26.9134V52.6478H26.9648Z" fill="white"/>
<path d="M36.9874 49.3619C36.8846 49.3619 36.8332 49.3097 36.7304 49.2576C36.6277 49.2576 36.5763 49.2054 36.4735 49.2054C36.3707 49.2054 36.2679 49.1533 36.1137 49.1533C35.9082 49.1533 35.754 49.2054 35.5484 49.2576C35.3942 49.3097 35.2401 49.3619 35.0859 49.4662C34.9317 49.5705 34.8289 49.6748 34.6747 49.7791V52.8041H35.5484V54.1079H32.4648V52.8041H33.3899V49.3097H32.5162V47.9537H34.5719L34.6233 48.6839H34.7261C34.8803 48.5274 35.0345 48.371 35.1887 48.2145C35.3428 48.1102 35.497 47.9537 35.7026 47.9016C35.9082 47.7973 36.1137 47.7451 36.3707 47.7451C36.5249 47.7451 36.6277 47.7451 36.7818 47.7973C36.8846 47.8494 36.9874 47.8494 37.0902 47.9016C37.193 47.9537 37.2958 48.0059 37.3985 48.058L36.9874 49.3619Z" fill="white"/>
<path d="M40.3334 46.1804C40.3334 46.4412 40.2306 46.7019 40.0765 46.8584C39.7681 47.2235 39.2028 47.2235 38.843 46.9105L38.7916 46.8584C38.6375 46.6498 38.5347 46.4412 38.5347 46.1804C38.5347 45.9196 38.6375 45.6588 38.7916 45.5024C39.1 45.1373 39.6653 45.1373 40.0251 45.4502L40.0765 45.5024C40.282 45.6588 40.3334 45.8675 40.3334 46.1804ZM40.1279 47.9536V52.7518H41.0015V54.0557H37.918V52.7518H38.7916V49.2575H37.918V47.9536H40.1279Z" fill="white"/>
<path d="M44.7488 52.3351H44.8516C45.0572 51.6049 45.3142 50.8747 45.5197 50.1446C45.7253 49.4144 45.9309 48.6843 46.1878 47.9541H48.1408V49.258H47.3185L45.6739 54.0561H44.0293C43.7724 53.2738 43.464 52.4394 43.2071 51.657C42.9501 50.8747 42.6417 50.0403 42.3848 49.258H41.5625V47.9541H43.5154L44.7488 52.3351Z" fill="white"/>
<path d="M51.6855 49.0485C51.48 49.0485 51.2744 49.1006 51.1202 49.1528C50.9661 49.2049 50.8119 49.3092 50.6577 49.4657C50.5549 49.57 50.4521 49.7265 50.3493 49.8829C50.2979 50.0394 50.2466 50.1959 50.2466 50.3523H53.1245C53.1245 50.1959 53.0732 50.0394 53.0218 49.8829C52.9704 49.7265 52.8676 49.57 52.7134 49.4657C52.5592 49.3614 52.405 49.2571 52.2509 49.1528C52.0453 49.1006 51.8911 49.0485 51.6855 49.0485ZM50.1952 51.604C50.1952 51.7605 50.2466 51.8648 50.3493 52.0734C50.4521 52.2299 50.5549 52.3863 50.7091 52.5428C50.8633 52.6993 51.0688 52.8036 51.223 52.9079C51.4286 53.0122 51.6342 53.0643 51.8397 53.0643C52.0967 53.0643 52.3537 53.0122 52.5592 52.96C52.7648 52.9079 52.919 52.8036 53.1245 52.6993C53.2787 52.5949 53.4843 52.4385 53.5871 52.282L54.2038 53.3773C54.0496 53.5859 53.844 53.7423 53.5871 53.8988C53.3815 54.0031 53.1245 54.1596 52.8676 54.2639C52.5592 54.3682 52.2509 54.4203 51.8397 54.4203C51.4286 54.4203 51.0174 54.316 50.6063 54.1596C50.2466 54.0031 49.8868 53.7423 49.6298 53.4816C49.3729 53.1686 49.1159 52.8036 48.9617 52.4385C48.6534 51.604 48.6534 50.6652 48.9617 49.8308C49.1159 49.4657 49.3215 49.1006 49.5784 48.7877C49.8354 48.4748 50.1438 48.2662 50.5035 48.1097C51.223 47.7968 52.0453 47.7968 52.7648 48.1097C53.1245 48.2662 53.4329 48.5269 53.6899 48.7877C53.9468 49.0485 54.1524 49.4135 54.3066 49.7786C54.4608 50.1437 54.5635 50.5609 54.5635 50.926C54.5635 51.0303 54.5635 51.1346 54.5121 51.2389C54.5121 51.3433 54.4608 51.4476 54.4608 51.4997C54.4094 51.604 54.4094 51.6562 54.358 51.7605L50.1952 51.604Z" fill="white"/>
<path d="M57.2383 45.6592L58.1634 48.1626H57.0841L55.5938 45.6592H57.2383Z" fill="white"/>
<path d="M37.6602 65.8411V62.9727H38.2769L39.5103 64.5373L40.7437 62.9727H41.3604V65.8411H40.7951V63.6507L39.7159 65.111H39.3047L38.1741 63.6507V65.8411H37.6602Z" fill="white"/>
<path d="M44.0253 63.3405C43.3572 63.3405 42.7919 63.7577 42.7919 64.3836C42.7919 65.0616 43.3572 65.4266 44.0253 65.4266C44.6934 65.4266 45.2587 65.0094 45.2587 64.3836C45.2587 63.7577 44.6934 63.3405 44.0253 63.3405ZM44.0253 62.8711C44.9504 62.8711 45.8241 63.3926 45.8241 64.3836C45.8241 65.3745 44.9504 65.896 44.0253 65.896C43.1002 65.896 42.2266 65.3745 42.2266 64.3836C42.2266 63.3926 43.1002 62.8711 44.0253 62.8711Z" fill="white"/>
<path d="M48.5019 63.3405C47.8852 63.3405 47.4226 63.6534 47.2684 64.0706V64.8008C47.474 65.1659 47.8852 65.531 48.5019 65.531C49.17 65.531 49.6839 65.1137 49.6839 64.4357C49.6839 63.7577 49.17 63.3405 48.5019 63.3405ZM48.6047 62.8711C49.5811 62.8711 50.3006 63.4969 50.3006 64.3836C50.3006 65.2702 49.5811 65.896 48.6047 65.896C47.9365 65.896 47.5254 65.6353 47.2684 65.3745V67.1477H46.7031V62.9232H47.2171V63.3926C47.5254 63.1319 47.9365 62.8711 48.6047 62.8711Z" fill="white"/>
<path d="M52.6646 63.3405C52.0992 63.3405 51.5339 63.6534 51.5339 64.2271H53.7438C53.7438 63.9142 53.4868 63.3405 52.6646 63.3405ZM52.6132 62.8711C53.898 62.8711 54.4119 63.7577 54.2063 64.5922H51.5339C51.5853 65.218 52.2534 65.4788 52.9215 65.4788C53.3327 65.4788 53.7438 65.3745 54.0522 65.218V65.6874C53.7438 65.8439 53.2813 65.896 52.8701 65.896C51.8937 65.896 51.02 65.4266 51.02 64.3836C50.9172 63.3926 51.7909 62.8711 52.6132 62.8711Z" fill="white"/>
<path d="M56.9258 65.8411V62.9727H57.4911V64.1722H59.444V62.9727H60.0093V65.8411H59.444V64.6416H57.4911V65.8411H56.9258Z" fill="white"/>
<path d="M62.1208 65.531C62.5319 65.531 62.9944 65.3745 63.2514 65.1137V64.5922C62.9944 64.54 62.6861 64.4879 62.3777 64.4879C61.8638 64.4879 61.3499 64.5922 61.3499 65.0616C61.4013 65.3745 61.761 65.531 62.1208 65.531ZM64.1251 65.4788C64.2279 65.4788 64.2792 65.4788 64.382 65.4266V65.8439C64.2279 65.896 64.1251 65.896 63.9709 65.896C63.7139 65.896 63.457 65.7917 63.3542 65.531C62.9944 65.7917 62.5833 65.896 62.018 65.896C61.4013 65.896 60.8359 65.6353 60.8359 65.0094C60.8359 64.2793 61.6582 64.0185 62.3777 64.0185C62.6861 64.0185 62.9944 64.0706 63.3028 64.1228V64.0185C63.3028 63.6013 62.943 63.2883 62.3263 63.2883C61.9152 63.2883 61.504 63.3405 61.0929 63.4969V63.0797C61.3499 62.9754 61.8124 62.8711 62.3777 62.8711C63.3028 62.8711 63.8681 63.2883 63.8681 64.1228V65.2702C63.8681 65.4266 63.9709 65.4788 64.1251 65.4788Z" fill="white"/>
<path d="M67.4638 65.4243H68.7486C69.1083 65.4243 69.3653 65.32 69.3653 65.0071C69.3653 64.642 69.0569 64.5898 68.8 64.5898H67.5151L67.4638 65.4243ZM67.4638 64.1726H68.6972C69.0055 64.1726 69.2111 64.0683 69.2111 63.7554C69.2111 63.4424 68.9028 63.3381 68.6972 63.3381H67.4638V64.1726ZM66.8984 65.8415V62.9209H68.7486C69.3653 62.9209 69.7764 63.1817 69.7764 63.7032C69.7764 64.0161 69.5709 64.2248 69.3139 64.3291C69.5709 64.4334 69.8792 64.642 69.8792 65.0071C69.8792 65.4765 69.5195 65.7894 68.8 65.7894H66.8984V65.8415Z" fill="white"/>
<path d="M70.8047 65.8411V62.9727H71.37V64.1722H72.0381L73.1174 62.9727H73.7855L72.5006 64.3808L73.9396 65.8411H73.2715L72.0381 64.5894H71.37V65.8411H70.8047Z" fill="white"/>
<path d="M77.1292 62.9727H77.7459L76.1014 66.3105C75.7416 66.9885 75.3305 67.3015 74.8165 67.3015C74.7138 67.3015 74.5596 67.3014 74.4568 67.2493V66.8321C74.5596 66.8321 74.6624 66.8842 74.7651 66.8842C75.1249 66.8842 75.4333 66.6234 75.6388 66.1541L75.7416 65.8933L74.1484 62.9727H74.7651L76.05 65.3196L77.1292 62.9727Z" fill="white"/>
<path d="M80.0547 62.8711C80.4144 62.8711 80.8256 62.9232 81.0826 63.1319V63.6013C80.8256 63.4448 80.4658 63.3405 80.1061 63.3405C79.438 63.3405 78.7699 63.6534 78.7699 64.4357C78.7699 65.1659 79.438 65.531 80.1061 65.531C80.4658 65.531 80.8256 65.4266 81.1339 65.2702V65.7396C80.8256 65.896 80.4658 65.9482 80.0547 65.9482C79.181 65.9482 78.256 65.4788 78.256 64.4357C78.2046 63.3405 79.1296 62.8711 80.0547 62.8711Z" fill="white"/>
<path d="M82.0598 64.6431L82.0084 61.6182H82.6251L82.5737 64.6431H82.0598ZM82.3168 65.8948C82.1112 65.8948 81.957 65.7905 81.957 65.5819C81.957 65.3733 82.1112 65.269 82.3168 65.269C82.5223 65.269 82.6765 65.3733 82.6765 65.5819C82.6765 65.7905 82.471 65.8948 82.3168 65.8948Z" fill="white"/>
<path d="M0.5 66.0513V61.6182H4.7142V66.0513H4.09749V62.1397H1.11671V66.0513H0.5Z" fill="white"/>
<path d="M7.59171 63.5485C6.92361 63.5485 6.35829 63.9657 6.35829 64.5916C6.35829 65.2174 6.92361 65.6347 7.59171 65.6347C8.25982 65.6347 8.82514 65.2174 8.82514 64.5916C8.82514 63.9657 8.25982 63.5485 7.59171 63.5485ZM7.59171 63.0791C8.51678 63.0791 9.39046 63.6006 9.39046 64.5916C9.39046 65.5825 8.51678 66.104 7.59171 66.104C6.66664 66.104 5.79297 65.5825 5.79297 64.5916C5.79297 63.6528 6.66664 63.0791 7.59171 63.0791Z" fill="white"/>
<path d="M10.2617 66.0501V63.1816H13.3453V66.0501H12.78V63.5989H10.827V66.0501H10.2617Z" fill="white"/>
<path d="M16.2798 63.5485C15.6631 63.5485 15.2006 63.8614 15.0464 64.2786V65.0088C15.252 65.3739 15.6631 65.739 16.2798 65.739C16.9479 65.739 17.4619 65.3217 17.4619 64.6437C17.4619 63.9657 16.9479 63.5485 16.2798 63.5485ZM16.3312 63.0791C17.3077 63.0791 18.0272 63.705 18.0272 64.5916C18.0272 65.4782 17.3077 66.104 16.3312 66.104C15.6631 66.104 15.252 65.8433 14.995 65.5825V67.3557H14.4297V63.1313H14.9436V63.6006C15.252 63.3399 15.6631 63.0791 16.3312 63.0791Z" fill="white"/>
<path d="M20.4862 63.5485C19.8181 63.5485 19.2528 63.9657 19.2528 64.5916C19.2528 65.2174 19.8181 65.6347 20.4862 65.6347C21.1544 65.6347 21.7197 65.2174 21.7197 64.5916C21.7197 63.9657 21.1544 63.5485 20.4862 63.5485ZM20.4862 63.0791C21.4113 63.0791 22.285 63.6006 22.285 64.5916C22.285 65.5825 21.4113 66.104 20.4862 66.104C19.5612 66.104 18.6875 65.5825 18.6875 64.5916C18.6875 63.6528 19.5612 63.0791 20.4862 63.0791Z" fill="white"/>
<path d="M24.7077 65.6844C25.4272 65.6844 25.8897 65.2672 25.8897 64.6935C25.8897 64.1198 25.4272 63.7026 24.7077 63.7026C23.9882 63.7026 23.5256 64.1719 23.5256 64.6935C23.577 65.2672 24.0396 65.6844 24.7077 65.6844ZM24.7591 66.1538C23.7312 66.1538 23.0117 65.5801 23.0117 64.4327C23.0117 63.4418 23.4743 62.8159 24.0396 62.4509C25.016 61.9293 25.6841 62.1379 26.1981 61.7207V62.2422C25.7355 62.5552 25.1702 62.3987 24.3993 62.8159C23.9368 63.0767 23.7312 63.4418 23.577 63.8069C23.834 63.4939 24.2965 63.2853 24.8105 63.2853C25.6841 63.2853 26.455 63.859 26.455 64.6935C26.455 65.6323 25.7869 66.1538 24.7591 66.1538Z" fill="white"/>
<path d="M29.9456 63.1816H30.5623L28.9178 66.5195C28.558 67.1975 28.1469 67.5104 27.6329 67.5104C27.5302 67.5104 27.376 67.5104 27.2732 67.4583V67.041C27.376 67.041 27.4788 67.0932 27.5816 67.0932C27.9413 67.0932 28.2497 66.8324 28.4552 66.363L28.558 66.1023L26.9648 63.1816H27.5816L28.8664 65.5286L29.9456 63.1816Z" fill="white"/>
<path d="M32.7762 62.7141C32.4164 62.7141 32.1081 62.662 31.7997 62.4534V62.0361C32.1594 62.2447 32.4164 62.2969 32.7762 62.2969C33.1359 62.2969 33.3929 62.2447 33.7526 62.0361V62.4534C33.4443 62.662 33.1359 62.7141 32.7762 62.7141ZM31.2344 66.052V63.1314H31.7997V65.2697L33.8554 63.1314H34.3179V66.052H33.7526V63.9137L31.6969 66.052H31.2344Z" fill="white"/>
</svg>
