<svg width="59" height="60" viewBox="0 0 59 60" fill="none" xmlns="http://www.w3.org/2000/svg">
<circle cx="29.3812" cy="29.9999" r="29.3808" fill="#3C3B3B"/>
<g clip-path="url(#clip0_201_824)">
<path d="M29.6173 12H30.5665C33.0659 12.0928 35.4279 12.6973 37.6526 13.8134C37.6761 13.8251 37.6819 13.8429 37.6702 13.8668L36.7519 15.6738C36.7393 15.6991 36.7203 15.7057 36.695 15.6935C28.3306 11.557 18.5171 15.8384 15.7426 24.7104C15.7351 24.7348 15.7189 24.7434 15.694 24.7364L13.7583 24.1627C13.7293 24.1537 13.7192 24.135 13.7281 24.1064C15.8487 17.0449 22.2676 12.1962 29.6173 12Z" fill="#FE964A"/>
<path d="M40.963 20.4797C42.6541 20.4797 44.0251 19.1087 44.0251 17.4176C44.0251 15.7264 42.6541 14.3555 40.963 14.3555C39.2718 14.3555 37.9009 15.7264 37.9009 17.4176C37.9009 19.1087 39.2718 20.4797 40.963 20.4797Z" fill="#FE964A"/>
<path d="M30.0125 37.905C34.9361 37.905 38.9274 33.9137 38.9274 28.9901C38.9274 24.0665 34.9361 20.0752 30.0125 20.0752C25.0889 20.0752 21.0976 24.0665 21.0976 28.9901C21.0976 33.9137 25.0889 37.905 30.0125 37.905Z" fill="#FE964A"/>
<path d="M47 28.4964V29.4295C46.8233 33.8648 45.2326 37.6523 42.2279 40.792C40.2162 42.8929 37.6765 44.4173 34.8887 45.2807C34.8838 45.2823 34.8787 45.2828 34.8736 45.2824C34.8686 45.2819 34.8637 45.2805 34.8592 45.2781C34.8547 45.2757 34.8508 45.2725 34.8477 45.2686C34.8445 45.2647 34.8422 45.2602 34.8408 45.2554L34.2608 43.3042C34.2528 43.277 34.2624 43.2592 34.2896 43.2508C43.4436 40.427 47.6975 29.9702 42.912 21.5742C42.9083 21.5674 42.9074 21.5595 42.9095 21.552C42.9116 21.5445 42.9165 21.5381 42.9233 21.5341L44.6965 20.5082C44.7002 20.5061 44.7042 20.5047 44.7084 20.5042C44.7126 20.5036 44.7168 20.5039 44.7209 20.505C44.7249 20.5061 44.7287 20.5081 44.732 20.5107C44.7353 20.5133 44.7381 20.5165 44.7401 20.5202C46.1422 22.9853 46.8955 25.6441 47 28.4964Z" fill="#FE964A"/>
<path d="M11 29.1706V28.8015C11.1519 27.5588 11.7458 26.6989 12.7817 26.2217C14.2351 25.5523 15.8832 26.0811 16.7052 27.4388C17.3295 28.4703 17.2606 29.9026 16.4858 30.8771C15.5225 32.0886 13.8709 32.4106 12.5293 31.6379C11.6321 31.1213 11.1223 30.2989 11 29.1706Z" fill="#FE964A"/>
<path d="M15.7496 33.2818C17.2037 38.0602 20.938 41.8191 25.7347 43.2549C25.7418 43.2571 25.7478 43.2621 25.7513 43.2688C25.7549 43.2755 25.7557 43.2834 25.7537 43.2908L25.1687 45.2588C25.1674 45.263 25.1653 45.2668 25.1625 45.2702C25.1597 45.2735 25.1563 45.2763 25.1525 45.2783C25.1486 45.2804 25.1444 45.2816 25.1401 45.282C25.1357 45.2824 25.1313 45.2819 25.1272 45.2806C19.6295 43.5973 15.4086 39.3744 13.7176 33.8773C13.7106 33.8544 13.7188 33.8394 13.7422 33.8323L15.6948 33.253C15.7229 33.2445 15.7412 33.2541 15.7496 33.2818Z" fill="#FE964A"/>
<path d="M30.1714 48.0003H29.822C27.6915 47.8161 26.3169 45.6589 27.2113 43.6754C28.2069 41.4648 31.2683 41.2517 32.5768 43.2669C33.2743 44.3406 33.2174 45.7124 32.4749 46.7389C31.9367 47.4833 31.1689 47.9038 30.1714 48.0003Z" fill="#FE964A"/>
</g>
<defs>
<clipPath id="clip0_201_824">
<rect width="36" height="36" fill="white" transform="translate(11 12)"/>
</clipPath>
</defs>
</svg>
