<svg width="59" height="60" viewBox="0 0 59 60" fill="none" xmlns="http://www.w3.org/2000/svg">
<circle cx="29.3799" cy="29.9999" r="29.3808" fill="#3C3B3B"/>
<g clip-path="url(#clip0_201_811)">
<path d="M28.9149 12H29.0928C29.518 12.0764 29.8032 12.2787 29.9485 12.6068C30.0212 12.7704 30.0571 13.0859 30.0561 13.5532C30.0538 14.6604 30.0538 15.7678 30.0561 16.8755C30.0566 17.3137 30.0245 17.6105 29.9598 17.7656C29.6019 18.6178 28.3799 18.5876 28.0396 17.7537C27.9749 17.5943 27.943 17.3517 27.9439 17.0259C27.9467 15.8686 27.9467 14.7115 27.9439 13.5546C27.943 13.0854 27.9791 12.7685 28.0522 12.604C28.1994 12.2749 28.487 12.0736 28.9149 12Z" fill="#FE964A"/>
<path d="M16.3486 17.307L16.3137 17.3418C15.9121 17.742 15.911 18.392 16.3112 18.7936L19.3169 21.8098C19.7171 22.2114 20.367 22.2125 20.7686 21.8123L20.8035 21.7776C21.2051 21.3774 21.2062 20.7274 20.806 20.3258L17.8003 17.3096C17.4001 16.908 16.7502 16.9068 16.3486 17.307Z" fill="#FE964A"/>
<path d="M41.6863 17.3414L41.6515 17.3067C41.2499 16.9065 40.5999 16.9076 40.1997 17.3092L37.194 20.3254C36.7938 20.727 36.7949 21.377 37.1965 21.7772L37.2314 21.8119C37.633 22.2121 38.283 22.211 38.6832 21.8094L41.6889 18.7932C42.0891 18.3916 42.0879 17.7416 41.6863 17.3414Z" fill="#FE964A"/>
<path d="M38.308 28.1806C38.8402 30.9263 38.1371 33.8366 36.3715 35.9846C36.0221 36.4093 35.4498 36.9577 35.1305 37.4527C34.5315 38.3823 34.3001 39.3624 34.2706 40.4734C34.2636 40.7354 34.2303 40.932 34.1708 41.0633C33.9155 41.6272 33.455 41.6729 32.8419 41.6729C30.1728 41.672 27.5035 41.672 24.834 41.6729C24.3469 41.6734 24.0125 41.4723 23.8306 41.0696C23.678 40.7335 23.7266 40.2273 23.6963 39.8546C23.5908 38.5644 23.0726 37.4949 22.1663 36.5717C18.5607 32.8958 18.6373 26.7294 22.3801 23.1589C24.0137 21.6008 25.9688 20.7315 28.2455 20.551C33.0809 20.1671 37.3897 23.4458 38.308 28.1806ZM25.9801 28.9941C26.338 27.9205 27.1676 27.1702 28.2687 26.922C28.6618 26.8334 29.1237 26.8876 29.4676 26.7259C29.9837 26.4826 30.2002 25.8055 29.9429 25.3126C29.7319 24.908 29.3825 24.7149 28.8945 24.7332C27.0655 24.8021 25.6327 25.5765 24.5963 27.0563C24.2933 27.4887 23.8039 28.464 23.896 29.0356C24.0394 29.9314 25.1876 30.2309 25.7516 29.5053C25.8195 29.4181 25.8957 29.2477 25.9801 28.9941Z" fill="#FE964A"/>
<path d="M11 30.0841V29.9076C11.0764 29.4829 11.2787 29.1977 11.6068 29.0519C11.7704 28.9793 12.0859 28.9434 12.5532 28.9444C13.6515 28.9467 14.75 28.9467 15.8488 28.9444C16.3006 28.9434 16.6037 28.9746 16.7579 29.0379C17.6129 29.3873 17.5932 30.6206 16.7579 30.9588C16.5915 31.0258 16.3231 31.0587 15.9528 31.0572C14.8198 31.0535 13.6871 31.0533 12.5546 31.0565C12.0863 31.0579 11.7699 31.0219 11.6054 30.9483C11.2749 30.8011 11.0731 30.513 11 30.0841Z" fill="#FE964A"/>
<path d="M47 29.9168V30.0925C46.8805 30.7371 46.4996 31.0586 45.8574 31.0572C44.5918 31.0549 43.3259 31.0542 42.0598 31.0551C41.6792 31.0556 41.424 31.0338 41.2941 30.9897C40.3843 30.6811 40.3808 29.3008 41.3096 29.0041C41.4315 28.9652 41.6527 28.9457 41.9734 28.9457C43.1232 28.9467 44.273 28.9462 45.4229 28.9443C45.9024 28.9439 46.2228 28.9783 46.3841 29.0477C46.7197 29.1916 46.925 29.4813 47 29.9168Z" fill="#FE964A"/>
<path d="M30.1391 48H27.8518C27.6022 47.962 27.3435 47.9522 27.1128 47.8812C26.1092 47.5741 25.4143 46.9561 25.0281 46.027C24.7524 45.3633 24.7482 44.5561 24.7904 43.8234C24.791 43.8121 24.7959 43.8013 24.8041 43.7935C24.8124 43.7856 24.8233 43.7812 24.8347 43.7813H33.1801C33.1965 43.7813 33.2052 43.7895 33.2061 43.8059C33.2511 44.7312 33.261 45.5348 32.8665 46.2668C32.2956 47.3271 31.3864 47.9048 30.1391 48Z" fill="#FE964A"/>
</g>
<defs>
<clipPath id="clip0_201_811">
<rect width="36" height="36" fill="white" transform="translate(11 12)"/>
</clipPath>
</defs>
</svg>
