<svg width="59" height="60" viewBox="0 0 59 60" fill="none" xmlns="http://www.w3.org/2000/svg">
<circle cx="29.3799" cy="29.9999" r="29.3808" fill="#3C3B3B"/>
<path d="M12 40.7679V19.2018C12.1089 17.9659 12.9363 16.9207 14.1449 16.6259C14.3747 16.5696 14.7731 16.5415 15.3402 16.5415C17.857 16.5402 20.3738 16.5398 22.8906 16.5402C23.7304 16.5402 24.4671 16.8014 25.1006 17.3238C25.299 17.4872 25.5967 17.8134 25.9938 18.3026C26.2895 18.6665 26.5864 19.0298 26.8843 19.3924C27.2376 19.8227 27.5703 20.085 28.1035 20.085C31.7005 20.0841 35.2975 20.085 38.8945 20.0876C40.0932 20.0883 41.1198 20.7856 41.5554 21.8959C41.7613 22.4192 41.7779 23.0208 41.7434 23.5939C41.742 23.6147 41.731 23.6251 41.7102 23.6251C35.7194 23.6251 29.7285 23.6251 23.7373 23.6251C21.9769 23.6251 20.3659 24.6637 19.6201 26.2508C19.5086 26.4876 19.3653 26.906 19.1905 27.5059C17.95 31.7594 16.7086 36.0127 15.4664 40.2658C15.3526 40.6554 15.2377 40.9387 15.1218 41.1158C14.3275 42.3264 12.3354 42.4825 12 40.7679Z" fill="#FE964A"/>
<path d="M13.8859 43.4157C15.311 43.2211 16.3722 42.2522 16.7826 40.8424C18.0682 36.422 19.3556 32.002 20.6448 27.5824C20.7656 27.1685 20.8885 26.8528 21.0133 26.6355C21.4773 25.8266 22.1604 25.3235 23.0626 25.1261C23.33 25.0676 23.7707 25.0386 24.3848 25.0391C30.6438 25.0413 36.9026 25.0415 43.1611 25.0397C43.8195 25.0397 44.2595 25.0701 44.4813 25.1307C45.3652 25.3731 46 26.2457 45.994 27.1734C45.9927 27.3845 45.9363 27.682 45.8247 28.0659C44.5811 32.334 43.3365 36.6019 42.0907 40.8697C41.7068 42.1838 40.7247 43.1381 39.3879 43.3918C39.1458 43.4374 38.7046 43.4602 38.0645 43.4602C29.9864 43.4597 21.9277 43.4597 13.8886 43.4602C13.6703 43.4602 13.6695 43.4453 13.8859 43.4157Z" fill="#FE964A"/>
</svg>
