<svg width="46" height="46" viewBox="0 0 46 46" fill="none" xmlns="http://www.w3.org/2000/svg">
<path d="M39.1217 6.89941H6.87861C5.62523 6.89941 4.60916 7.91548 4.60916 9.16887V9.22816C4.60916 10.4815 5.62523 11.4976 6.87861 11.4976H39.1217C40.3751 11.4976 41.3912 10.4815 41.3912 9.22816V9.16887C41.3912 7.91548 40.3751 6.89941 39.1217 6.89941Z" fill="#FE964A"/>
<path d="M29.9298 16.1035H6.86693C5.62 16.1035 4.60916 17.1144 4.60916 18.3613V18.4404C4.60916 19.6873 5.62 20.6981 6.86693 20.6981H29.9298C31.1768 20.6981 32.1876 19.6873 32.1876 18.4404V18.3613C32.1876 17.1144 31.1768 16.1035 29.9298 16.1035Z" fill="#FE964A"/>
<path d="M39.1217 25.2969H6.87861C5.62523 25.2969 4.60916 26.3129 4.60916 27.5663V27.6274C4.60916 28.8808 5.62523 29.8969 6.87861 29.8969H39.1217C40.3751 29.8969 41.3912 28.8808 41.3912 27.6274V27.5663C41.3912 26.3129 40.3751 25.2969 39.1217 25.2969Z" fill="#FE964A"/>
<path d="M29.921 34.4812L6.86894 34.5214C5.62102 34.5236 4.61114 35.537 4.61332 36.785L4.61346 36.8658C4.61564 38.1137 5.62905 39.1236 6.87697 39.1214L29.929 39.0812C31.177 39.079 32.1868 38.0656 32.1847 36.8177L32.1845 36.7368C32.1823 35.4889 31.1689 34.479 29.921 34.4812Z" fill="#FE964A"/>
</svg>
