<svg width="40" height="40" viewBox="0 0 40 40" fill="none" xmlns="http://www.w3.org/2000/svg">
<path d="M4.81249 0H35.1961C36.9016 0.123438 38.3203 1.30625 38.6609 2.975C38.7208 3.27188 38.7508 3.79063 38.7508 4.53125C38.7497 12.1745 38.7487 19.8177 38.7476 27.4609C38.7469 29.2414 37.5437 30.7836 35.7945 31.1562C35.4982 31.2193 34.9797 31.2508 34.2391 31.2508C24.512 31.2497 14.7851 31.25 5.05858 31.2516C3.29218 31.2516 1.75546 30.0828 1.35702 28.3516C1.28514 28.0385 1.24921 27.5206 1.24921 26.7977C1.25025 19.1148 1.25051 11.4323 1.24999 3.75C1.24921 1.71406 2.7953 0.182031 4.81249 0ZM34.993 8.09609C34.993 7.77286 34.8646 7.46287 34.636 7.23431C34.4074 7.00575 34.0974 6.87734 33.7742 6.87734H24.9758C24.6525 6.87734 24.3425 7.00575 24.114 7.23431C23.8854 7.46287 23.757 7.77286 23.757 8.09609V8.15391C23.757 8.47714 23.8854 8.78713 24.114 9.01569C24.3425 9.24425 24.6525 9.37266 24.9758 9.37266H33.7742C34.0974 9.37266 34.4074 9.24425 34.636 9.01569C34.8646 8.78713 34.993 8.47714 34.993 8.15391V8.09609ZM11.2055 10.818C10.7872 10.9279 10.3919 11.0927 10.0195 11.3125C9.99348 11.3281 9.96952 11.3253 9.94764 11.3039C9.68931 11.0477 9.43176 10.7906 9.17499 10.5328C8.92499 10.2823 8.7341 10.124 8.60233 10.0578C7.60858 9.55859 6.48983 10.6367 6.8953 11.6336C7.08202 12.0922 7.76718 12.657 8.17733 13.0703C8.19921 13.0922 8.20233 13.1164 8.18671 13.143C7.96796 13.518 7.80285 13.9154 7.69139 14.3352C7.68852 14.3459 7.68217 14.3555 7.67329 14.3624C7.66442 14.3693 7.6535 14.3732 7.64218 14.3734C7.26874 14.376 6.8953 14.3771 6.52186 14.3766C6.18228 14.3766 5.93957 14.4042 5.79374 14.4594C4.73202 14.8617 4.75077 16.3734 5.79686 16.7859C5.94218 16.8432 6.15754 16.8724 6.44296 16.8734C6.83931 16.875 7.23775 16.8755 7.63827 16.875C7.66639 16.875 7.6841 16.8885 7.69139 16.9156C7.80337 17.3344 7.96822 17.731 8.18593 18.1055C8.20051 18.1305 8.19764 18.1534 8.17733 18.1742C7.84556 18.5143 7.51431 18.8544 7.18358 19.1945C6.25233 20.1539 7.29139 21.7078 8.49999 21.2305C8.97811 21.0422 9.54218 20.3508 9.94686 19.9461C9.9562 19.9367 9.96834 19.9307 9.98135 19.929C9.99437 19.9273 10.0075 19.93 10.0187 19.9367C10.3927 20.1565 10.7893 20.3219 11.2086 20.4328C11.2341 20.4396 11.2471 20.4562 11.2476 20.4828C11.2562 21.0391 11.1648 21.8406 11.3375 22.3125C11.725 23.3664 13.239 23.4039 13.6539 22.3375C13.8351 21.8727 13.7453 21.0523 13.7516 20.4859C13.7521 20.4583 13.7656 20.4409 13.7922 20.4336C14.2094 20.3201 14.6055 20.1557 14.9805 19.9406C15.006 19.926 15.0294 19.9289 15.0508 19.9492C15.3867 20.2773 15.7229 20.6052 16.0594 20.9328C17.2547 22.0961 18.9726 20.3438 17.7836 19.1492C17.4633 18.8273 17.1427 18.5026 16.8219 18.175C16.8016 18.1542 16.7987 18.1313 16.8133 18.1062C17.031 17.7312 17.1961 17.3341 17.3086 16.9148C17.3164 16.8878 17.3344 16.8742 17.3625 16.8742C17.7516 16.8763 18.1406 16.8758 18.5297 16.8727C18.8625 16.8706 19.1088 16.8341 19.2687 16.7633C20.2562 16.3258 20.2305 14.8398 19.207 14.4586C19.0591 14.4034 18.8161 14.376 18.4781 14.3766C18.1057 14.3776 17.732 14.3763 17.357 14.3727C17.3458 14.3727 17.335 14.369 17.3262 14.3622C17.3174 14.3554 17.3112 14.3459 17.3086 14.3352C17.1971 13.9159 17.0323 13.5188 16.814 13.1438C16.7979 13.1172 16.801 13.0927 16.8234 13.0703C17.1401 12.75 17.4591 12.4323 17.7805 12.1172C19.0055 10.9148 17.225 9.09297 15.968 10.3836C15.668 10.6914 15.3633 10.9974 15.0539 11.3016C15.0325 11.3229 15.0086 11.3258 14.982 11.3102C14.6075 11.0935 14.2114 10.9292 13.7937 10.8172C13.7667 10.8099 13.7531 10.7924 13.7531 10.7648C13.7489 10.3018 13.7448 9.83854 13.7406 9.375C13.7297 8.01641 11.8672 7.64219 11.3531 8.88359C11.2844 9.05026 11.2502 9.31719 11.2508 9.68437C11.2518 10.0437 11.251 10.4031 11.2484 10.7625C11.2484 10.7922 11.2341 10.8107 11.2055 10.818ZM34.993 13.0961C34.993 12.7729 34.8646 12.4629 34.636 12.2343C34.4074 12.0057 34.0974 11.8773 33.7742 11.8773H24.9758C24.6525 11.8773 24.3425 12.0057 24.114 12.2343C23.8854 12.4629 23.757 12.7729 23.757 13.0961V13.1539C23.757 13.4771 23.8854 13.7871 24.114 14.0157C24.3425 14.2443 24.6525 14.3727 24.9758 14.3727H33.7742C34.0974 14.3727 34.4074 14.2443 34.636 14.0157C34.8646 13.7871 34.993 13.4771 34.993 13.1539V13.0961ZM34.993 18.0961C34.993 17.7729 34.8646 17.4629 34.636 17.2343C34.4074 17.0057 34.0974 16.8773 33.7742 16.8773H24.9758C24.6525 16.8773 24.3425 17.0057 24.114 17.2343C23.8854 17.4629 23.757 17.7729 23.757 18.0961V18.1539C23.757 18.4771 23.8854 18.7871 24.114 19.0157C24.3425 19.2443 24.6525 19.3727 24.9758 19.3727H33.7742C34.0974 19.3727 34.4074 19.2443 34.636 19.0157C34.8646 18.7871 34.993 18.4771 34.993 18.1539V18.0961ZM34.993 23.0961C34.993 22.7729 34.8646 22.4629 34.636 22.2343C34.4074 22.0057 34.0974 21.8773 33.7742 21.8773H24.9758C24.6525 21.8773 24.3425 22.0057 24.114 22.2343C23.8854 22.4629 23.757 22.7729 23.757 23.0961V23.1539C23.757 23.4771 23.8854 23.7871 24.114 24.0157C24.3425 24.2443 24.6525 24.3727 24.9758 24.3727H33.7742C34.0974 24.3727 34.4074 24.2443 34.636 24.0157C34.8646 23.7871 34.993 23.4771 34.993 23.1539V23.0961Z" fill="#FE964A"/>
<path d="M12.5 18.1229C13.8798 18.1229 14.9984 17.0043 14.9984 15.6244C14.9984 14.2446 13.8798 13.126 12.5 13.126C11.1201 13.126 10.0016 14.2446 10.0016 15.6244C10.0016 17.0043 11.1201 18.1229 12.5 18.1229Z" fill="#FE964A"/>
<path d="M27.6359 40H12.3445C11.9591 39.9234 11.6677 39.7406 11.4703 39.4516C11.0219 38.7938 11.2953 37.868 12.0453 37.5836C12.1875 37.5299 12.4159 37.5023 12.7305 37.5008C13.2206 37.4992 13.7099 37.4992 14.1984 37.5008C14.2086 37.5008 14.2185 37.4979 14.227 37.4925C14.2356 37.4871 14.2425 37.4794 14.2469 37.4703C14.7964 36.3052 15.1333 35.081 15.2578 33.7977C15.2609 33.7659 15.2784 33.75 15.3102 33.75H24.7047C24.7137 33.75 24.7224 33.7533 24.7291 33.7594C24.7357 33.7655 24.7399 33.7738 24.7406 33.7828C24.8625 35.0688 25.1984 36.2948 25.7484 37.4609C25.7604 37.4859 25.7802 37.4987 25.8078 37.4992C26.2547 37.5013 26.7 37.5018 27.1438 37.5008C27.8531 37.4992 28.3524 37.6031 28.6445 38.25C28.9953 39.025 28.4742 39.8617 27.6359 40Z" fill="#FE964A"/>
</svg>
