<svg width="40" height="40" viewBox="0 0 40 40" fill="none" xmlns="http://www.w3.org/2000/svg">
<g clip-path="url(#clip0_201_799)">
<path d="M0.55989 4.70139C0.570307 2.74479 1.93055 1.09115 3.79774 0.671007C4.14264 0.593461 4.71846 0.554688 5.52517 0.554688C15.4355 0.555845 25.3458 0.557871 35.2561 0.560764C37.2292 0.560764 38.9253 1.90451 39.3394 3.83854C39.4117 4.17593 39.4476 4.7526 39.447 5.56858C39.4465 6.66117 39.445 7.75376 39.4427 8.84635C39.4427 8.87471 39.4285 8.88889 39.4002 8.88889H0.599821C0.572622 8.88889 0.559022 8.87529 0.559022 8.84809C0.551499 7.46036 0.551788 6.07813 0.55989 4.70139ZM28.3307 4.72135C28.3307 4.35346 28.1846 4.00063 27.9244 3.74049C27.6643 3.48035 27.3115 3.3342 26.9436 3.3342C26.5757 3.3342 26.2228 3.48035 25.9627 3.74049C25.7026 4.00063 25.5564 4.35346 25.5564 4.72135C25.5564 4.90352 25.5923 5.0839 25.662 5.25219C25.7317 5.42049 25.8339 5.57341 25.9627 5.70222C26.0915 5.83103 26.2444 5.93321 26.4127 6.00292C26.581 6.07263 26.7614 6.10851 26.9436 6.10851C27.1257 6.10851 27.3061 6.07263 27.4744 6.00292C27.6427 5.93321 27.7956 5.83103 27.9244 5.70222C28.0532 5.57341 28.1554 5.42049 28.2251 5.25219C28.2948 5.0839 28.3307 4.90352 28.3307 4.72135ZM33.8863 4.72135C33.8863 4.53919 33.8504 4.35881 33.7807 4.19051C33.711 4.02222 33.6088 3.8693 33.48 3.74049C33.3512 3.61168 33.1983 3.5095 33.03 3.43979C32.8617 3.37008 32.6813 3.3342 32.4991 3.3342C32.1312 3.3342 31.7784 3.48035 31.5183 3.74049C31.2581 4.00063 31.112 4.35346 31.112 4.72135C31.112 4.90352 31.1479 5.0839 31.2176 5.25219C31.2873 5.42049 31.3895 5.57341 31.5183 5.70222C31.6471 5.83103 31.8 5.93321 31.9683 6.00292C32.1366 6.07263 32.317 6.10851 32.4991 6.10851C32.6813 6.10851 32.8617 6.07263 33.03 6.00292C33.1983 5.93321 33.3512 5.83103 33.48 5.70222C33.6088 5.57341 33.711 5.42049 33.7807 5.25219C33.8504 5.0839 33.8863 4.90352 33.8863 4.72135Z" fill="#FE964A"/>
<path d="M39.3429 36.1392C38.954 38.0342 37.276 39.4326 35.2995 39.4344C25.1288 39.4413 14.958 39.4456 4.78733 39.4474C2.45486 39.4474 0.55382 37.6123 0.554688 35.2564C0.555845 27.4294 0.556135 19.5912 0.555556 11.7416C0.555556 11.7218 0.56333 11.7029 0.577167 11.6889C0.591004 11.6749 0.609772 11.667 0.62934 11.667H39.3993C39.43 11.667 39.4453 11.6823 39.4453 11.713C39.4436 19.2709 39.4439 26.8366 39.4462 34.41C39.4462 35.2278 39.4117 35.8041 39.3429 36.1392ZM16.7205 19.0064C10.6181 20.5012 6.23872 25.9222 6.11632 32.2278C6.10995 32.579 6.14178 32.8435 6.21181 33.0212C6.67882 34.1991 8.38021 34.1566 8.80295 32.9682C8.85214 32.8293 8.88194 32.5863 8.89236 32.239C9.04253 27.0377 12.7517 22.5706 17.8967 21.5923C24.6762 20.3033 30.9288 25.3831 31.1094 32.2651C31.1192 32.6337 31.1568 32.8947 31.2222 33.0481C31.7196 34.2069 33.3958 34.1444 33.8082 32.9561C33.8678 32.7836 33.8932 32.5345 33.8845 32.2087C33.6536 23.3666 25.3637 16.8901 16.7205 19.0064ZM19.2535 28.3988C18.5093 27.6569 17.7656 26.9141 17.0226 26.1705C16.7546 25.9031 16.5373 25.7327 16.3707 25.6592C15.2344 25.1574 14.0556 26.4005 14.5495 27.4838C14.6299 27.6603 14.8643 27.9419 15.2526 28.3285C15.9308 29.0026 16.6056 29.678 17.2769 30.3545C17.2972 30.3747 17.3047 30.3991 17.2995 30.4274C17.0859 31.6213 17.3993 32.5611 18.2396 33.2469C20.1675 34.8215 22.9913 33.292 22.7665 30.8311C22.7271 30.3953 22.5943 30.0035 22.3681 29.6557C21.6667 28.5753 20.6525 28.1638 19.3255 28.4213C19.2977 28.4265 19.2737 28.419 19.2535 28.3988Z" fill="#FE964A"/>
</g>
<defs>
<clipPath id="clip0_201_799">
<rect width="40" height="40" fill="white"/>
</clipPath>
</defs>
</svg>
