<svg width="255" height="66" viewBox="0 0 255 66" fill="none" xmlns="http://www.w3.org/2000/svg">
<g clip-path="url(#clip0_276_909)">
<path d="M93.6971 18.7275C85.8004 18.7275 79.2314 25.0868 79.2314 32.9136C79.2314 40.7404 85.8004 47.0298 93.6971 47.0298C97.9598 47.0298 101.105 45.6321 103.62 43.0465C106.206 40.4609 106.975 36.8969 106.975 34.0317C106.975 33.1232 106.905 32.2847 106.765 31.5858H93.6971V35.4293H102.991C102.712 37.5957 102.013 39.203 100.895 40.3211C99.567 41.6489 97.4008 43.1862 93.6971 43.1862C87.9666 43.1862 83.4941 38.5741 83.4941 32.9136C83.4941 27.2531 87.9666 22.6409 93.6971 22.6409C96.7718 22.6409 99.0781 23.8289 100.685 25.4362L103.411 22.7108C101.105 20.4746 98.0299 18.7275 93.6971 18.7275ZM117.387 28.8604C112.425 28.8604 108.303 32.704 108.303 38.0849C108.303 43.3959 112.355 47.3093 117.387 47.3093C122.419 47.3093 126.472 43.3959 126.472 38.0849C126.472 32.7738 122.349 28.8604 117.387 28.8604ZM117.387 43.6755C114.662 43.6755 112.286 41.3693 112.286 38.0849C112.286 34.8004 114.662 32.4943 117.387 32.4943C120.112 32.4943 122.488 34.7305 122.488 38.0849C122.488 41.3693 120.112 43.6755 117.387 43.6755ZM137.094 28.8604C132.062 28.8604 128.009 32.704 128.009 38.0849C128.009 43.3959 132.062 47.3093 137.094 47.3093C142.055 47.3093 146.178 43.3959 146.178 38.0849C146.178 32.7738 142.125 28.8604 137.094 28.8604ZM137.094 43.6755C134.368 43.6755 131.992 41.3693 131.992 38.0849C131.992 34.8004 134.368 32.4943 137.094 32.4943C139.819 32.4943 142.195 34.7305 142.195 38.0849C142.195 41.3693 139.889 43.6755 137.094 43.6755ZM156.731 28.8604C152.188 28.8604 148.065 32.8437 148.065 38.015C148.065 43.1164 152.188 47.0996 156.731 47.0996C158.897 47.0996 160.574 46.1213 161.482 45.0032H161.622V46.3309C161.622 49.825 159.806 51.7117 156.801 51.7117C154.355 51.7117 152.887 49.9648 152.258 48.4973L148.764 49.9648C149.742 52.4109 152.398 55.3458 156.801 55.3458C161.482 55.3458 165.396 52.5506 165.396 45.8418V29.4894H161.622V30.9569H161.482C160.574 29.8388 158.897 28.8604 156.731 28.8604ZM157.08 43.5357C154.355 43.5357 152.049 41.2296 152.049 38.015C152.049 34.8004 154.355 32.4244 157.08 32.4244C159.806 32.4244 161.902 34.8004 161.902 38.015C161.902 41.2296 159.806 43.5357 157.08 43.5357ZM168.331 19.8457H172.314V46.8201H168.331V19.8457ZM183.006 28.8604C178.255 28.8604 174.271 32.5642 174.271 38.0849C174.271 43.2562 178.184 47.3093 183.426 47.3093C187.688 47.3093 190.134 44.7237 191.113 43.2562L187.968 41.1597C186.92 42.6971 185.452 43.6755 183.426 43.6755C181.329 43.6755 179.862 42.767 178.953 40.8801L191.322 35.7787L190.903 34.7305C190.134 32.704 187.758 28.8604 183.006 28.8604ZM178.255 37.8053C178.114 34.2414 181.05 32.4244 183.076 32.4244C184.683 32.4244 186.081 33.1931 186.5 34.3811L178.255 37.8053Z" fill="white"/>
<path d="M198.31 46.4006L207.535 21.8721H211.099L220.323 46.4006H216.829L214.453 39.7618H204.18L201.804 46.4006H198.31ZM205.228 36.8268H213.405L209.422 25.7855H209.282L205.228 36.8268Z" fill="white"/>
<path d="M223.537 44.374C222 42.627 221.231 40.5306 221.231 38.0148C221.231 35.5689 222 33.4725 223.537 31.6555C225.145 29.9085 226.962 29.0699 229.198 29.0699C230.456 29.0699 231.574 29.3494 232.552 29.8386C233.6 30.3976 234.369 31.0266 234.928 31.9351H235.068L234.928 29.6289V21.8721H238.073V46.4006H235.068V44.0945H234.928C234.369 44.9331 233.6 45.632 232.552 46.191C231.504 46.7501 230.386 46.9597 229.198 46.9597C226.962 46.9597 225.075 46.1211 223.537 44.374ZM233.46 42.4174C234.509 41.2993 234.998 39.8318 234.998 38.0148C234.998 36.2677 234.509 34.8002 233.46 33.6821C232.482 32.564 231.224 32.005 229.687 32.005C228.15 32.005 226.891 32.564 225.913 33.6821C224.865 34.8002 224.376 36.2677 224.376 38.0148C224.376 39.7618 224.865 41.2294 225.913 42.3475C226.962 43.4656 228.22 44.0247 229.687 44.0247C231.224 44.0945 232.482 43.5355 233.46 42.4174Z" fill="white"/>
<path d="M252.609 45.4222C251.351 46.4006 249.743 46.9596 247.787 46.9596C246.109 46.9596 244.642 46.5403 243.314 45.6318C242.057 44.7233 241.148 43.6053 240.589 42.1377L243.384 40.9497C243.803 41.9281 244.362 42.7667 245.201 43.3258C245.97 43.8848 246.878 44.1643 247.787 44.1643C248.765 44.1643 249.604 43.9547 250.302 43.5354C251.001 43.1161 251.281 42.557 251.281 41.998C251.281 40.9497 250.442 40.1111 248.835 39.622L245.97 38.9231C242.685 38.0846 241.078 36.5472 241.078 34.1712C241.078 32.6338 241.707 31.4458 242.965 30.4675C244.223 29.559 245.83 29.0698 247.717 29.0698C249.184 29.0698 250.512 29.4192 251.77 30.118C252.958 30.8168 253.797 31.7952 254.285 32.9832L251.49 34.1712C251.141 33.4724 250.652 32.9133 249.953 32.494C249.254 32.0747 248.416 31.8651 247.507 31.8651C246.669 31.8651 245.97 32.0747 245.271 32.494C244.642 32.9133 244.293 33.4025 244.293 34.0314C244.293 35.0098 245.201 35.7086 247.018 36.058L249.534 36.687C252.888 37.5255 254.495 39.2027 254.495 41.7184C254.565 43.186 253.866 44.4438 252.609 45.4222Z" fill="white"/>
<path d="M24.7568 8.22386C25.4423 6.41023 26.3849 4.74052 27.7846 3.38749C33.3834 -2.111 42.6385 -0.729177 46.4376 6.17993C49.2941 11.4193 52.3222 16.5436 55.2643 21.7254C60.1776 30.333 65.1475 38.9406 70.0037 47.5769C74.0887 54.8025 69.6608 63.9285 61.5485 65.1664C56.5781 65.915 51.9222 63.6116 49.3513 59.1208C45.0379 51.5497 40.696 43.9784 36.3827 36.436C36.297 36.2633 36.1828 36.1194 36.0685 35.9754C35.6115 35.6011 35.4115 35.0542 35.1259 34.5648C33.212 31.1678 31.241 27.7997 29.3271 24.4315C28.0989 22.2436 26.8135 20.0845 25.5851 17.8966C24.4711 15.939 23.9569 13.8087 24.014 11.5633C24.0998 10.4117 24.2426 9.26025 24.7568 8.22386Z" fill="#3C8BD9"/>
<path d="M24.4768 8.64355C24.2158 9.664 23.984 10.6844 23.926 11.7616C23.839 14.1426 24.4478 16.3535 25.6652 18.4227C28.8539 23.78 32.0426 29.1657 35.2022 34.5513C35.4921 35.0332 35.724 35.5151 36.0139 35.9685C34.2746 38.9165 32.5353 41.8361 30.7671 44.784C28.3321 48.8939 25.8972 53.0327 23.4332 57.1426C23.3173 57.1426 23.2883 57.086 23.2593 57.001C23.2303 56.7743 23.3173 56.5755 23.3752 56.3489C24.5637 52.0973 23.5781 48.3273 20.5924 45.0958C18.7662 43.14 16.4472 42.0345 13.7803 41.666C10.3017 41.1841 7.22902 42.0628 4.47519 44.1888C3.98239 44.5573 3.66353 45.0958 3.08377 45.3792C2.96782 45.3792 2.90985 45.3226 2.88086 45.2375C4.27227 42.8848 5.63469 40.5322 7.02609 38.1795C12.7657 28.4287 18.5053 18.6779 24.2738 8.95534C24.3318 8.84197 24.4188 8.75693 24.4768 8.64355Z" fill="#FABC04"/>
<path d="M3.01322 45.3287C3.56383 44.8359 4.08546 44.314 4.66505 43.8502C11.707 38.284 22.2845 42.3137 23.8205 51.1266C24.1972 53.2432 23.9944 55.2725 23.3568 57.3018C23.3278 57.4756 23.2989 57.6206 23.2409 57.7945C22.9801 58.2583 22.7482 58.7515 22.4584 59.2153C19.8793 63.4765 16.083 65.5932 11.0985 65.2744C5.38954 64.8681 0.897722 60.5776 0.115276 54.8956C-0.261456 52.1417 0.289153 49.5612 1.70915 47.1841C1.99894 46.6623 2.3467 46.1984 2.66547 45.6766C2.81037 45.5606 2.75241 45.3287 3.01322 45.3287Z" fill="#34A852"/>
</g>
<defs>
<clipPath id="clip0_276_909">
<rect width="254.5" height="65.3057" fill="white"/>
</clipPath>
</defs>
</svg>
