<svg width="1920" height="238" viewBox="0 0 1920 238" fill="none" xmlns="http://www.w3.org/2000/svg">
<path d="M330 50L329.922 49.0031L330 50ZM746.5 92.5L746.628 93.4918L746.5 92.5ZM1261 56L1261.18 55.0159L1261 56ZM1602.5 143L1602.42 142.003L1602.5 143ZM-0.371076 234.514C0.0348668 234.14 0.0603795 233.507 -0.314092 233.101C-0.688563 232.695 -1.32121 232.67 -1.72716 233.044L-0.371076 234.514ZM4.25196 227.529C3.84592 227.903 3.82024 228.536 4.1946 228.942C4.56896 229.348 5.20161 229.373 5.60765 228.999L4.25196 227.529ZM11.5953 223.486C12.002 223.113 12.0287 222.48 11.655 222.073C11.2813 221.667 10.6487 221.64 10.2421 222.014L11.5953 223.486ZM16.2518 216.506C15.8441 216.878 15.8156 217.511 16.1881 217.918C16.5607 218.326 17.1932 218.355 17.6009 217.982L16.2518 216.506ZM23.6031 212.517C24.0122 212.146 24.043 211.513 23.672 211.104C23.3009 210.695 22.6685 210.664 22.2594 211.035L23.6031 212.517ZM28.2826 205.596C27.8718 205.966 27.8381 206.598 28.2073 207.009C28.5765 207.419 29.2088 207.453 29.6195 207.084L28.2826 205.596ZM35.6733 201.671C36.086 201.304 36.123 200.672 35.756 200.259C35.3889 199.846 34.7569 199.809 34.3442 200.176L35.6733 201.671ZM40.4482 194.779C40.0334 195.144 39.9927 195.775 40.3573 196.19C40.7219 196.605 41.3537 196.646 41.7686 196.281L40.4482 194.779ZM47.8985 190.928C48.3157 190.566 48.3605 189.935 47.9986 189.518C47.6367 189.1 47.0051 189.056 46.5879 189.417L47.8985 190.928ZM52.735 184.122C52.3153 184.481 52.2661 185.112 52.6251 185.532C52.9841 185.951 53.6154 186.001 54.0351 185.642L52.735 184.122ZM60.2252 180.386C60.6476 180.031 60.7015 179.4 60.3457 178.977C59.9899 178.555 59.359 178.501 58.9366 178.857L60.2252 180.386ZM65.1935 173.628C64.7683 173.98 64.7093 174.611 65.0618 175.036C65.4142 175.461 66.0446 175.52 66.4698 175.168L65.1935 173.628ZM72.7378 170.016C73.166 169.667 73.2303 169.037 72.8814 168.609C72.5326 168.181 71.9027 168.117 71.4745 168.466L72.7378 170.016ZM77.7992 163.359C77.3679 163.704 77.298 164.333 77.6431 164.764C77.9881 165.195 78.6174 165.265 79.0487 164.92L77.7992 163.359ZM85.4207 159.87C85.8551 159.529 85.9309 158.901 85.5899 158.466C85.2489 158.032 84.6202 157.956 84.1858 158.297L85.4207 159.87ZM90.613 153.302C90.1752 153.639 90.0934 154.267 90.4301 154.705C90.7669 155.142 91.3947 155.224 91.8324 154.887L90.613 153.302ZM98.2846 149.976C98.7258 149.643 98.814 149.016 98.4817 148.575C98.1495 148.134 97.5225 148.046 97.0813 148.378L98.2846 149.976ZM103.616 143.51C103.171 143.838 103.076 144.464 103.404 144.908C103.731 145.353 104.357 145.448 104.802 145.12L103.616 143.51ZM111.364 140.342C111.813 140.019 111.915 139.394 111.592 138.946C111.269 138.497 110.644 138.396 110.196 138.718L111.364 140.342ZM116.824 134.005C116.372 134.322 116.263 134.946 116.581 135.398C116.898 135.85 117.522 135.959 117.974 135.641L116.824 134.005ZM124.651 131.01C125.106 130.698 125.223 130.075 124.911 129.62C124.599 129.164 123.976 129.048 123.521 129.36L124.651 131.01ZM130.263 124.803C129.803 125.11 129.679 125.73 129.986 126.19C130.292 126.649 130.913 126.774 131.372 126.467L130.263 124.803ZM138.151 122.01C138.614 121.709 138.746 121.09 138.446 120.626C138.145 120.163 137.526 120.031 137.063 120.331L138.151 122.01ZM143.932 115.941C143.464 116.236 143.324 116.853 143.618 117.321C143.913 117.788 144.53 117.928 144.998 117.634L143.932 115.941ZM151.887 113.361C152.358 113.073 152.507 112.458 152.219 111.986C151.931 111.515 151.316 111.366 150.845 111.654L151.887 113.361ZM157.825 107.459C157.349 107.74 157.192 108.353 157.473 108.829C157.754 109.304 158.367 109.462 158.843 109.181L157.825 107.459ZM165.862 105.099C166.342 104.825 166.508 104.214 166.234 103.734C165.96 103.255 165.349 103.088 164.87 103.363L165.862 105.099ZM171.964 99.3781C171.481 99.6448 171.305 100.253 171.572 100.737C171.839 101.22 172.447 101.396 172.93 101.129L171.964 99.3781ZM180.068 97.2647C180.555 97.0056 180.741 96.4001 180.482 95.9124C180.223 95.4247 179.617 95.2394 179.129 95.4985L180.068 97.2647ZM186.353 91.7354C185.861 91.9865 185.666 92.5889 185.917 93.0808C186.168 93.5726 186.77 93.7677 187.262 93.5166L186.353 91.7354ZM194.515 89.8888C195.011 89.6459 195.216 89.0469 194.973 88.5509C194.73 88.0549 194.131 87.8497 193.635 88.0926L194.515 89.8888ZM200.987 84.5705C200.486 84.8048 200.271 85.4002 200.505 85.9003C200.74 86.4004 201.335 86.6159 201.835 86.3816L200.987 84.5705ZM209.205 83.0081C209.71 82.7828 209.936 82.1914 209.71 81.6871C209.485 81.1829 208.894 80.9568 208.389 81.1822L209.205 83.0081ZM215.858 77.9258C215.35 78.1418 215.113 78.729 215.329 79.2373C215.545 79.7455 216.132 79.9824 216.64 79.7664L215.858 77.9258ZM224.135 76.6632C224.648 76.4568 224.896 75.8742 224.689 75.362C224.483 74.8497 223.9 74.6018 223.388 74.8082L224.135 76.6632ZM230.971 71.8375C230.455 72.034 230.195 72.6116 230.392 73.1278C230.588 73.644 231.166 73.9032 231.682 73.7068L230.971 71.8375ZM239.292 70.8973C239.812 70.7113 240.083 70.1389 239.897 69.6189C239.711 69.0989 239.138 68.8282 238.618 69.0142L239.292 70.8973ZM246.316 66.3484C245.792 66.5238 245.51 67.0904 245.685 67.6142C245.861 68.1379 246.427 68.4203 246.951 68.2449L246.316 66.3484ZM254.665 65.752C255.192 65.5877 255.486 65.0271 255.322 64.4998C255.158 63.9725 254.597 63.6782 254.07 63.8425L254.665 65.752ZM261.881 61.501C261.35 61.6539 261.044 62.208 261.197 62.7387C261.349 63.2694 261.904 63.5758 262.434 63.4229L261.881 61.501ZM270.243 61.2671C270.777 61.1261 271.095 60.5788 270.954 60.0449C270.813 59.5109 270.266 59.1924 269.732 59.3335L270.243 61.2671ZM277.639 57.3397C277.102 57.4686 276.771 58.0085 276.9 58.5455C277.029 59.0825 277.569 59.4133 278.106 59.2844L277.639 57.3397ZM286.006 57.4836C286.546 57.3671 286.889 56.835 286.772 56.2952C286.656 55.7553 286.124 55.4121 285.584 55.5286L286.006 57.4836ZM293.57 53.9033C293.028 54.007 292.672 54.5308 292.776 55.0733C292.88 55.6158 293.403 55.9714 293.946 55.8677L293.57 53.9033ZM301.93 54.4399C302.475 54.3492 302.843 53.8341 302.752 53.2893C302.662 52.7445 302.147 52.3763 301.602 52.467L301.93 54.4399ZM309.651 51.2281C309.104 51.3054 308.723 51.8114 308.8 52.3582C308.878 52.9051 309.384 53.2857 309.931 53.2084L309.651 51.2281ZM317.974 52.1722C318.523 52.1085 318.916 51.6121 318.852 51.0635C318.788 50.5149 318.292 50.1219 317.743 50.1856L317.974 52.1722ZM325.848 49.3469C325.298 49.3968 324.892 49.8832 324.942 50.4332C324.992 50.9832 325.478 51.3886 326.028 51.3387L325.848 49.3469ZM334.072 50.711C334.623 50.6749 335.04 50.199 335.004 49.6479C334.968 49.0967 334.492 48.6792 333.941 48.7152L334.072 50.711ZM342.053 48.2833C341.501 48.3062 341.073 48.772 341.096 49.3239C341.118 49.8757 341.584 50.3045 342.136 50.2816L342.053 48.2833ZM350.167 50.0383C350.719 50.0275 351.158 49.5712 351.147 49.019C351.136 48.4668 350.68 48.0279 350.128 48.0387L350.167 50.0383ZM358.23 47.9647C357.678 47.9642 357.23 48.4115 357.229 48.9638C357.229 49.5161 357.676 49.9642 358.228 49.9647L358.23 47.9647ZM366.299 50.0494C366.851 50.0603 367.308 49.6215 367.319 49.0694C367.33 48.5172 366.891 48.0607 366.339 48.0498L366.299 50.0494ZM374.415 48.2807C373.863 48.2602 373.399 48.691 373.379 49.2429C373.358 49.7948 373.789 50.2588 374.341 50.2793L374.415 48.2807ZM382.406 50.645C382.958 50.6744 383.429 50.2511 383.458 49.6996C383.488 49.1481 383.064 48.6772 382.513 48.6478L382.406 50.645ZM390.588 49.1389C390.037 49.1014 389.56 49.5176 389.523 50.0686C389.485 50.6196 389.901 51.0967 390.452 51.1343L390.588 49.1389ZM398.49 51.7378C399.04 51.7829 399.523 51.3732 399.568 50.8228C399.613 50.2723 399.203 49.7896 398.653 49.7445L398.49 51.7378ZM406.732 50.4578C406.182 50.4058 405.695 50.8094 405.643 51.3593C405.591 51.9091 405.994 52.397 406.544 52.449L406.732 50.4578ZM414.552 53.2533C415.102 53.3116 415.594 52.9136 415.652 52.3644C415.711 51.8153 415.313 51.3228 414.764 51.2645L414.552 53.2533ZM422.81 52.1624C422.261 52.0983 421.764 52.491 421.7 53.0395C421.636 53.5881 422.029 54.0848 422.577 54.1489L422.81 52.1624ZM430.587 55.1249C431.135 55.1943 431.635 54.8064 431.705 54.2585C431.774 53.7106 431.386 53.2102 430.839 53.1408L430.587 55.1249ZM438.853 54.1926C438.306 54.1184 437.802 54.5019 437.728 55.0491C437.654 55.5964 438.037 56.1002 438.585 56.1745L438.853 54.1926ZM446.59 57.2936C447.137 57.3722 447.644 56.9928 447.722 56.4461C447.801 55.8995 447.422 55.3926 446.875 55.314L446.59 57.2936ZM454.863 56.4926C454.317 56.4101 453.807 56.7858 453.725 57.3319C453.642 57.878 454.018 58.3876 454.564 58.4701L454.863 56.4926ZM462.548 59.7041C463.093 59.7902 463.605 59.4178 463.691 58.8722C463.778 58.3267 463.405 57.8147 462.86 57.7286L462.548 59.7041ZM470.839 59.0119C470.294 58.9226 469.78 59.2921 469.69 59.8372C469.601 60.3822 469.971 60.8964 470.516 60.9856L470.839 59.0119ZM478.48 62.311C479.025 62.403 479.541 62.0361 479.633 61.4916C479.725 60.947 479.358 60.4309 478.814 60.3389L478.48 62.311ZM486.784 61.7042C486.24 61.6098 485.722 61.9744 485.628 62.5185C485.533 63.0627 485.898 63.5803 486.442 63.6748L486.784 61.7042ZM494.393 65.0703C494.937 65.1668 495.456 64.8041 495.552 64.2603C495.649 63.7166 495.286 63.1975 494.742 63.101L494.393 65.0703ZM502.701 64.5264C502.158 64.4282 501.638 64.7892 501.54 65.3327C501.441 65.8762 501.802 66.3964 502.346 66.4945L502.701 64.5264ZM510.29 67.9405C510.833 68.0401 511.354 67.6804 511.454 67.1371C511.553 66.5939 511.194 66.0728 510.65 65.9733L510.29 67.9405ZM518.599 67.4383C518.056 67.3377 517.534 67.6963 517.433 68.2394C517.333 68.7824 517.691 69.3042 518.234 69.4048L518.599 67.4383ZM526.175 70.8818C526.718 70.9831 527.241 70.6251 527.342 70.0822C527.443 69.5393 527.085 69.0171 526.542 68.9157L526.175 70.8818ZM534.486 70.4015C533.943 70.2998 533.421 70.6574 533.319 71.2003C533.217 71.7431 533.575 72.2656 534.118 72.3673L534.486 70.4015ZM542.055 73.8553C542.598 73.9571 543.121 73.5996 543.223 73.0567C543.324 72.5139 542.967 71.9913 542.424 71.8896L542.055 73.8553ZM550.369 73.3774C549.826 73.2759 549.304 73.6337 549.202 74.1766C549.101 74.7195 549.459 75.2418 550.002 75.3433L550.369 73.3774ZM557.94 76.8232C558.483 76.9241 559.005 76.5657 559.106 76.0227C559.207 75.4797 558.849 74.9577 558.306 74.8569L557.94 76.8232ZM566.253 76.3266C565.71 76.2267 565.189 76.586 565.089 77.1292C564.989 77.6724 565.348 78.1937 565.891 78.2936L566.253 76.3266ZM573.841 79.7467C574.384 79.8453 574.904 79.4847 575.003 78.9413C575.102 78.3979 574.741 77.8774 574.198 77.7788L573.841 79.7467ZM582.143 79.2089C581.6 79.1119 581.08 79.4741 580.983 80.0178C580.886 80.5615 581.249 81.0809 581.792 81.1778L582.143 79.2089ZM589.759 82.5836C590.303 82.6785 590.821 82.3144 590.916 81.7704C591.01 81.2263 590.646 80.7083 590.102 80.6134L589.759 82.5836ZM598.045 81.9815C597.501 81.889 596.984 82.2554 596.892 82.7998C596.799 83.3443 597.166 83.8607 597.71 83.9532L598.045 81.9815ZM605.699 85.2896C606.244 85.3792 606.759 85.0101 606.848 84.4652C606.938 83.9202 606.569 83.4058 606.024 83.3161L605.699 85.2896ZM613.988 84.6025C613.443 84.5162 612.931 84.8883 612.844 85.4338C612.758 85.9793 613.13 86.4915 613.676 86.5779L613.988 84.6025ZM621.666 87.8161C622.212 87.8988 622.722 87.5231 622.805 86.977C622.887 86.431 622.511 85.9213 621.965 85.8386L621.666 87.8161ZM629.958 87.0177C629.411 86.9393 628.904 87.3188 628.826 87.8655C628.748 88.4122 629.127 88.919 629.674 88.9974L629.958 87.0177ZM637.663 90.1095C638.211 90.1833 638.714 89.7993 638.788 89.252C638.862 88.7047 638.478 88.2012 637.93 88.1274L637.663 90.1095ZM645.954 89.1696C645.406 89.1011 644.906 89.4899 644.837 90.0379C644.769 90.586 645.158 91.0857 645.706 91.1542L645.954 89.1696ZM653.734 92.1139C654.283 92.1764 654.779 91.7823 654.841 91.2336C654.904 90.6848 654.51 90.1893 653.961 90.1267L653.734 92.1139ZM661.972 90.9926C661.423 90.9366 660.932 91.3366 660.876 91.886C660.82 92.4355 661.22 92.9263 661.769 92.9823L661.972 90.9926ZM669.841 93.7526C670.392 93.8014 670.877 93.3949 670.926 92.8448C670.975 92.2947 670.568 91.8092 670.018 91.7604L669.841 93.7526ZM678.042 92.4141C677.492 92.3733 677.012 92.7868 676.971 93.3376C676.931 93.8883 677.344 94.3679 677.895 94.4087L678.042 92.4141ZM685.975 94.9428C686.526 94.9747 686.999 94.5536 687.031 94.0023C687.063 93.4509 686.642 92.9781 686.09 92.9461L685.975 94.9428ZM694.154 93.3427C693.602 93.3205 693.137 93.7499 693.114 94.3017C693.092 94.8536 693.522 95.3189 694.074 95.3411L694.154 93.3427ZM702.151 95.5879C702.703 95.5993 703.16 95.161 703.172 94.6088C703.183 94.0566 702.745 93.5998 702.193 93.5884L702.151 95.5879ZM710.254 93.6697C709.701 93.6702 709.254 94.1182 709.255 94.6705C709.255 95.2228 709.703 95.6702 710.255 95.6697L710.254 93.6697ZM718.37 95.5682C718.922 95.5546 719.359 95.0961 719.345 94.544C719.332 93.9918 718.873 93.5553 718.321 93.5688L718.37 95.5682ZM726.356 93.2684C725.805 93.2963 725.38 93.7661 725.408 94.3177C725.436 94.8693 725.906 95.2938 726.457 95.2658L726.356 93.2684ZM734.537 94.7421C735.087 94.6983 735.498 94.2165 735.455 93.666C735.411 93.1154 734.929 92.7046 734.378 92.7484L734.537 94.7421ZM742.408 91.9838C741.859 92.045 741.464 92.5396 741.525 93.0885C741.586 93.6374 742.081 94.0327 742.63 93.9715L742.408 91.9838ZM750.596 92.9708C751.143 92.8975 751.527 92.3943 751.454 91.8469C751.381 91.2995 750.878 90.9152 750.33 90.9885L750.596 92.9708ZM758.393 89.8697C757.846 89.9481 757.466 90.4548 757.545 91.0015C757.623 91.5482 758.13 91.9279 758.677 91.8495L758.393 89.8697ZM766.664 90.6727C767.21 90.5902 767.586 90.0806 767.503 89.5345C767.421 88.9884 766.911 88.6126 766.365 88.6952L766.664 90.6727ZM774.363 87.4597C773.817 87.5457 773.445 88.0577 773.531 88.6032C773.617 89.1488 774.129 89.5213 774.674 89.4353L774.363 87.4597ZM782.73 88.1432C783.275 88.0543 783.645 87.5404 783.556 86.9953C783.467 86.4502 782.953 86.0804 782.408 86.1692L782.73 88.1432ZM790.353 84.8563C789.808 84.9474 789.441 85.4629 789.532 86.0076C789.623 86.5523 790.138 86.92 790.683 86.8288L790.353 84.8563ZM798.688 85.4747C799.232 85.3817 799.598 84.865 799.505 84.3206C799.412 83.7762 798.895 83.4102 798.351 83.5033L798.688 85.4747ZM806.347 82.1256C805.803 82.2201 805.439 82.7378 805.533 83.2819C805.628 83.8261 806.145 84.1906 806.689 84.0962L806.347 82.1256ZM814.652 82.7057C815.196 82.6101 815.559 82.0917 815.464 81.5478C815.368 81.0038 814.85 80.6403 814.306 80.7358L814.652 82.7057ZM822.328 79.3212C821.784 79.4174 821.421 79.9363 821.517 80.4802C821.614 81.024 822.132 81.3868 822.676 81.2906L822.328 79.3212ZM830.617 79.8814C831.161 79.7847 831.524 79.2655 831.427 78.7218C831.33 78.178 830.811 77.8156 830.267 77.9123L830.617 79.8814ZM838.265 76.4885C837.721 76.5853 837.359 77.1046 837.456 77.6484C837.553 78.1921 838.072 78.5543 838.616 78.4575L838.265 76.4885ZM846.583 77.0385C847.127 76.9418 847.489 76.4225 847.393 75.8788C847.296 75.335 846.777 74.9727 846.233 75.0695L846.583 77.0385ZM854.214 73.651C853.671 73.7475 853.308 74.2665 853.404 74.8103C853.501 75.3541 854.02 75.7167 854.564 75.6203L854.214 73.651ZM862.551 74.2073C863.094 74.1114 863.458 73.5927 863.362 73.0488C863.266 72.5049 862.747 72.1418 862.203 72.2377L862.551 74.2073ZM870.175 70.8368C869.631 70.932 869.268 71.4502 869.363 71.9942C869.458 72.5383 869.976 72.9021 870.52 72.8069L870.175 70.8368ZM878.521 71.4134C879.065 71.3191 879.43 70.8015 879.336 70.2573C879.242 69.7131 878.724 69.3484 878.18 69.4427L878.521 71.4134ZM886.149 68.0699C885.605 68.1631 885.239 68.68 885.332 69.2243C885.425 69.7687 885.942 70.1344 886.487 70.0412L886.149 68.0699ZM894.499 68.6788C895.043 68.5869 895.41 68.0709 895.318 67.5263C895.226 66.9817 894.71 66.6148 894.166 66.7067L894.499 68.6788ZM902.137 65.3714C901.592 65.4619 901.224 65.977 901.314 66.5218C901.405 67.0666 901.92 67.4349 902.465 67.3443L902.137 65.3714ZM910.485 66.0234C911.03 65.9344 911.4 65.4204 911.311 64.8754C911.222 64.3303 910.708 63.9605 910.163 64.0495L910.485 66.0234ZM918.141 62.7602C917.596 62.8475 917.224 63.3603 917.312 63.9056C917.399 64.451 917.912 64.8223 918.457 64.7351L918.141 62.7602ZM926.484 63.4648C927.03 63.3794 927.403 62.8679 927.318 62.3222C927.232 61.7766 926.721 61.4035 926.175 61.4888L926.484 63.4648ZM934.163 60.2536C933.617 60.337 933.242 60.8472 933.326 61.3932C933.409 61.9391 933.919 62.3141 934.465 62.2307L934.163 60.2536ZM942.498 61.0195C943.045 60.9383 943.422 60.4296 943.34 59.8833C943.259 59.337 942.75 58.96 942.204 59.0413L942.498 61.0195ZM950.205 57.8678C949.658 57.9468 949.279 58.454 949.358 59.0006C949.437 59.5472 949.944 59.9263 950.491 59.8473L950.205 57.8678ZM958.529 58.703C959.076 58.6264 959.457 58.1209 959.381 57.574C959.304 57.027 958.799 56.6458 958.252 56.7224L958.529 58.703ZM966.267 55.618C965.72 55.6921 965.336 56.1959 965.41 56.7432C965.484 57.2905 965.988 57.674 966.535 57.5999L966.267 55.618ZM974.579 56.53C975.126 56.4585 975.512 55.9566 975.441 55.409C975.369 54.8614 974.868 54.4754 974.32 54.5469L974.579 56.53ZM982.351 53.5188C981.803 53.5875 981.414 54.0875 981.483 54.6355C981.552 55.1835 982.052 55.572 982.6 55.5032L982.351 53.5188ZM990.648 54.5148C991.196 54.4489 991.587 53.951 991.522 53.4026C991.456 52.8543 990.958 52.4632 990.409 52.5291L990.648 54.5148ZM998.456 51.5844C997.908 51.6473 997.514 52.143 997.577 52.6917C997.64 53.2404 998.135 53.6342 998.684 53.5713L998.456 51.5844ZM1006.74 52.6712C1007.29 52.6114 1007.68 52.1178 1007.62 51.5688C1007.56 51.0197 1007.07 50.6231 1006.52 50.6829L1006.74 52.6712ZM1014.58 49.8286C1014.03 49.8852 1013.63 50.3764 1013.69 50.9258C1013.75 51.4752 1014.24 51.8747 1014.79 51.8181L1014.58 49.8286ZM1022.85 51.0129C1023.4 50.9597 1023.8 50.4709 1023.75 49.9212C1023.69 49.3715 1023.2 48.969 1022.65 49.0222L1022.85 51.0129ZM1030.73 48.2653C1030.18 48.3151 1029.78 48.8014 1029.83 49.3514C1029.88 49.9014 1030.36 50.307 1030.91 50.2572L1030.73 48.2653ZM1038.97 49.5536C1039.53 49.5074 1039.93 49.0238 1039.89 48.4734C1039.84 47.9231 1039.36 47.5144 1038.81 47.5606L1038.97 49.5536ZM1046.9 46.9081C1046.35 46.9506 1045.94 47.4315 1045.98 47.9821C1046.02 48.5328 1046.5 48.9447 1047.05 48.9022L1046.9 46.9081ZM1055.12 48.3068C1055.67 48.2681 1056.09 47.7901 1056.05 47.2391C1056.01 46.6882 1055.53 46.273 1054.98 46.3117L1055.12 48.3068ZM1063.09 45.7706C1062.54 45.8054 1062.12 46.2805 1062.15 46.8316C1062.19 47.3828 1062.66 47.8014 1063.21 47.7666L1063.09 45.7706ZM1071.28 47.2862C1071.83 47.2554 1072.26 46.7834 1072.23 46.2319C1072.2 45.6805 1071.72 45.2585 1071.17 45.2893L1071.28 47.2862ZM1079.28 44.8666C1078.73 44.8933 1078.31 45.3621 1078.33 45.9137C1078.36 46.4654 1078.83 46.891 1079.38 46.8643L1079.28 44.8666ZM1087.46 46.5052C1088.01 46.4829 1088.44 46.0174 1088.42 45.4655C1088.39 44.9137 1087.93 44.4845 1087.38 44.5069L1087.46 46.5052ZM1095.49 44.2099C1094.94 44.2279 1094.51 44.6899 1094.52 45.2419C1094.54 45.7939 1095 46.2268 1095.56 46.2088L1095.49 44.2099ZM1103.64 45.9778C1104.2 45.9643 1104.63 45.5058 1104.62 44.9537C1104.61 44.4016 1104.15 43.9649 1103.59 43.9784L1103.64 45.9778ZM1111.71 43.8138C1111.16 43.8227 1110.71 44.2775 1110.72 44.8297C1110.73 45.3819 1111.19 45.8224 1111.74 45.8135L1111.71 43.8138ZM1119.84 45.7178C1120.39 45.7136 1120.83 45.2626 1120.83 44.7103C1120.82 44.158 1120.37 43.7137 1119.82 43.7178L1119.84 45.7178ZM1127.93 43.6923C1127.38 43.6916 1126.93 44.1388 1126.93 44.6911C1126.93 45.2434 1127.38 45.6916 1127.93 45.6923L1127.93 43.6923ZM1136.03 45.739C1136.58 45.7447 1137.03 45.3016 1137.04 44.7493C1137.04 44.1971 1136.6 43.7448 1136.05 43.7391L1136.03 45.739ZM1144.16 43.8597C1143.6 43.849 1143.15 44.2879 1143.14 44.84C1143.13 45.3922 1143.56 45.8486 1144.12 45.8593L1144.16 43.8597ZM1152.22 46.0555C1152.77 46.0715 1153.23 45.637 1153.25 45.0849C1153.26 44.5329 1152.83 44.0724 1152.28 44.0564L1152.22 46.0555ZM1160.38 44.3301C1159.82 44.3088 1159.36 44.7389 1159.34 45.2907C1159.32 45.8426 1159.75 46.3073 1160.3 46.3286L1160.38 44.3301ZM1168.39 46.6813C1168.94 46.7081 1169.41 46.2826 1169.44 45.7309C1169.47 45.1793 1169.04 44.7104 1168.49 44.6836L1168.39 46.6813ZM1176.59 45.1177C1176.04 45.0854 1175.56 45.5061 1175.53 46.0574C1175.5 46.6087 1175.92 47.0819 1176.47 47.1143L1176.59 45.1177ZM1184.55 47.6303C1185.1 47.6684 1185.58 47.2526 1185.62 46.7016C1185.65 46.1506 1185.24 45.6731 1184.69 45.6351L1184.55 47.6303ZM1192.78 46.2368C1192.23 46.1929 1191.75 46.6037 1191.7 47.1542C1191.66 47.7047 1192.07 48.1866 1192.62 48.2305L1192.78 46.2368ZM1200.68 48.9168C1201.23 48.9666 1201.72 48.5611 1201.77 48.0111C1201.82 47.461 1201.41 46.9748 1200.86 46.9249L1200.68 48.9168ZM1208.94 47.7016C1208.39 47.6457 1207.9 48.0458 1207.85 48.5953C1207.79 49.1447 1208.19 49.6354 1208.74 49.6913L1208.94 47.7016ZM1216.78 50.5548C1217.33 50.6168 1217.83 50.2222 1217.89 49.6735C1217.95 49.1247 1217.56 48.6295 1217.01 48.5674L1216.78 50.5548ZM1225.07 49.5261C1224.53 49.4577 1224.03 49.8466 1223.96 50.3946C1223.89 50.9427 1224.28 51.4423 1224.83 51.5107L1225.07 49.5261ZM1232.84 52.558C1233.39 52.6328 1233.9 52.2498 1233.97 51.7026C1234.04 51.1554 1233.66 50.6512 1233.11 50.5764L1232.84 52.558ZM1241.15 51.7233C1240.61 51.642 1240.1 52.019 1240.02 52.5652C1239.94 53.1115 1240.31 53.6202 1240.86 53.7015L1241.15 51.7233ZM1248.85 54.9401C1249.4 55.028 1249.91 54.6572 1250 54.112C1250.09 53.5667 1249.72 53.0535 1249.17 52.9656L1248.85 54.9401ZM1257.18 54.307C1256.63 54.2124 1256.11 54.5767 1256.02 55.1208C1255.93 55.665 1256.29 56.1828 1256.83 56.2774L1257.18 54.307ZM1264.84 57.7272C1265.38 57.83 1265.91 57.4734 1266.01 56.9308C1266.11 56.3882 1265.76 55.865 1265.21 55.7622L1264.84 57.7272ZM1273.14 57.3334C1272.59 57.2212 1272.07 57.5687 1271.95 58.1095C1271.84 58.6503 1272.19 59.1796 1272.73 59.2917L1273.14 57.3334ZM1280.66 61.0083C1281.2 61.1299 1281.73 60.7918 1281.85 60.2531C1281.97 59.7144 1281.64 59.179 1281.1 59.0574L1280.66 61.0083ZM1288.97 60.9083C1288.44 60.7772 1287.89 61.1059 1287.76 61.6424C1287.63 62.1789 1287.96 62.7201 1288.5 62.8512L1288.97 60.9083ZM1296.31 64.834C1296.85 64.9745 1297.4 64.6554 1297.54 64.1213C1297.68 63.5871 1297.36 63.0403 1296.82 62.8998L1296.31 64.834ZM1304.67 65.0367C1304.14 64.8869 1303.58 65.1964 1303.44 65.728C1303.29 66.2596 1303.59 66.812 1304.13 66.9617L1304.67 65.0367ZM1311.87 69.2143C1312.39 69.3732 1312.95 69.0732 1313.11 68.5442C1313.27 68.0153 1312.97 67.4577 1312.44 67.2988L1311.87 69.2143ZM1320.17 69.6913C1319.64 69.5236 1319.08 69.8143 1318.91 70.3405C1318.75 70.8667 1319.04 71.4292 1319.56 71.5969L1320.17 69.6913ZM1327.26 74.1178C1327.78 74.2939 1328.35 74.0124 1328.53 73.4889C1328.7 72.9655 1328.42 72.3984 1327.9 72.2222L1327.26 74.1178ZM1335.56 74.8663C1335.04 74.6822 1334.47 74.955 1334.28 75.4757C1334.1 75.9964 1334.37 76.5677 1334.89 76.7519L1335.56 74.8663ZM1342.47 79.4938C1342.99 79.6854 1343.56 79.4208 1343.75 78.9028C1343.95 78.3848 1343.68 77.8095 1343.16 77.618L1342.47 79.4938ZM1350.75 80.481C1350.23 80.2827 1349.66 80.5397 1349.46 81.0552C1349.26 81.5706 1349.52 82.1492 1350.03 82.3476L1350.75 80.481ZM1357.56 85.2984C1358.08 85.5029 1358.66 85.2526 1358.86 84.7396C1359.07 84.2265 1358.82 83.6449 1358.3 83.4405L1357.56 85.2984ZM1365.81 86.4779C1365.3 86.2682 1364.72 86.5125 1364.51 87.0234C1364.3 87.5344 1364.54 88.1186 1365.05 88.3282L1365.81 86.4779ZM1372.51 91.4257C1373.02 91.6397 1373.6 91.4003 1373.82 90.8912C1374.03 90.382 1373.79 89.7958 1373.28 89.5819L1372.51 91.4257ZM1380.73 92.7417C1380.23 92.5244 1379.64 92.76 1379.42 93.2677C1379.2 93.7755 1379.44 94.3632 1379.95 94.5805L1380.73 92.7417ZM1387.38 97.7822C1387.89 98.0016 1388.48 97.7686 1388.7 97.2618C1388.92 96.755 1388.68 96.1662 1388.18 95.9468L1387.38 97.7822ZM1395.6 99.1723C1395.09 98.9518 1394.51 99.1835 1394.29 99.6899C1394.06 100.196 1394.3 100.785 1394.8 101.006L1395.6 99.1723ZM1402.22 104.236C1402.73 104.456 1403.32 104.224 1403.54 103.718C1403.76 103.211 1403.52 102.622 1403.02 102.402L1402.22 104.236ZM1410.44 105.618C1409.93 105.399 1409.34 105.633 1409.12 106.14C1408.9 106.647 1409.14 107.236 1409.64 107.454L1410.44 105.618ZM1417.08 110.644C1417.59 110.861 1418.18 110.624 1418.39 110.116C1418.61 109.607 1418.37 109.02 1417.86 108.804L1417.08 110.644ZM1425.32 111.941C1424.81 111.729 1424.22 111.97 1424.01 112.48C1423.8 112.99 1424.04 113.575 1424.55 113.788L1425.32 111.941ZM1432.04 116.862C1432.55 117.069 1433.14 116.821 1433.34 116.309C1433.55 115.797 1433.3 115.214 1432.79 115.008L1432.04 116.862ZM1440.3 117.985C1439.78 117.785 1439.2 118.04 1439 118.555C1438.8 119.07 1439.06 119.649 1439.57 119.849L1440.3 117.985ZM1447.15 122.732C1447.67 122.924 1448.24 122.661 1448.44 122.143C1448.63 121.625 1448.36 121.05 1447.85 120.857L1447.15 122.732ZM1455.44 123.606C1454.92 123.423 1454.35 123.697 1454.17 124.217C1453.98 124.738 1454.26 125.309 1454.78 125.493L1455.44 123.606ZM1462.45 128.113C1462.98 128.286 1463.54 128.001 1463.72 127.477C1463.89 126.952 1463.61 126.387 1463.08 126.214L1462.45 128.113ZM1470.76 128.663C1470.23 128.501 1469.67 128.797 1469.51 129.325C1469.35 129.853 1469.65 130.413 1470.17 130.575L1470.76 128.663ZM1477.95 132.87C1478.48 133.02 1479.04 132.711 1479.19 132.18C1479.34 131.648 1479.03 131.096 1478.5 130.945L1477.95 132.87ZM1486.29 133.05C1485.75 132.912 1485.21 133.234 1485.07 133.769C1484.93 134.304 1485.25 134.849 1485.79 134.987L1486.29 133.05ZM1493.69 136.918C1494.22 137.043 1494.76 136.708 1494.89 136.17C1495.01 135.632 1494.67 135.094 1494.14 134.97L1493.69 136.918ZM1502 136.688C1501.46 136.577 1500.93 136.925 1500.82 137.466C1500.71 138.007 1501.06 138.536 1501.6 138.647L1502 136.688ZM1509.56 140.176C1510.1 140.273 1510.62 139.911 1510.72 139.368C1510.82 138.824 1510.45 138.304 1509.91 138.207L1509.56 140.176ZM1517.87 139.528C1517.33 139.445 1516.82 139.82 1516.73 140.366C1516.65 140.912 1517.02 141.422 1517.57 141.505L1517.87 139.528ZM1525.64 142.635C1526.19 142.705 1526.69 142.317 1526.76 141.77C1526.83 141.222 1526.44 140.721 1525.89 140.651L1525.64 142.635ZM1533.87 141.566C1533.32 141.509 1532.83 141.909 1532.77 142.459C1532.72 143.008 1533.12 143.499 1533.67 143.555L1533.87 141.566ZM1541.74 144.281C1542.29 144.324 1542.77 143.912 1542.81 143.362C1542.86 142.811 1542.45 142.33 1541.89 142.287L1541.74 144.281ZM1549.99 142.819C1549.43 142.789 1548.96 143.212 1548.93 143.764C1548.9 144.315 1549.33 144.787 1549.88 144.816L1549.99 142.819ZM1557.95 145.159C1558.5 145.176 1558.96 144.743 1558.98 144.191C1558.99 143.639 1558.56 143.177 1558.01 143.16L1557.95 145.159ZM1566.07 143.322C1565.52 143.317 1565.07 143.761 1565.06 144.313C1565.06 144.865 1565.5 145.317 1566.05 145.322L1566.07 143.322ZM1574.21 145.311C1574.76 145.304 1575.21 144.851 1575.2 144.299C1575.19 143.746 1574.74 143.304 1574.19 143.311L1574.21 145.311ZM1582.2 143.134C1581.65 143.151 1581.21 143.613 1581.23 144.165C1581.25 144.717 1581.71 145.15 1582.26 145.133L1582.2 143.134ZM1590.4 144.792C1590.95 144.764 1591.38 144.294 1591.35 143.742C1591.32 143.191 1590.85 142.767 1590.3 142.795L1590.4 144.792ZM1598.33 142.307C1597.78 142.346 1597.36 142.824 1597.4 143.375C1597.44 143.926 1597.92 144.341 1598.47 144.303L1598.33 142.307ZM1606.58 143.67C1607.13 143.624 1607.54 143.14 1607.49 142.59C1607.44 142.04 1606.96 141.631 1606.41 141.678L1606.58 143.67ZM1614.27 140.971C1613.72 141.024 1613.32 141.512 1613.37 142.062C1613.43 142.611 1613.91 143.015 1614.46 142.962L1614.27 140.971ZM1622.26 142.174C1622.81 142.115 1623.21 141.622 1623.15 141.073C1623.09 140.524 1622.6 140.126 1622.05 140.185L1622.26 142.174ZM1629.93 139.296C1629.38 139.361 1628.99 139.859 1629.06 140.407C1629.12 140.956 1629.62 141.347 1630.17 141.282L1629.93 139.296ZM1637.92 140.315C1638.46 140.243 1638.85 139.741 1638.78 139.194C1638.71 138.646 1638.2 138.26 1637.66 138.332L1637.92 140.315ZM1645.54 137.249C1644.99 137.327 1644.61 137.834 1644.69 138.381C1644.77 138.928 1645.28 139.307 1645.82 139.228L1645.54 137.249ZM1653.56 138.064C1654.11 137.978 1654.48 137.466 1654.4 136.92C1654.31 136.375 1653.8 136.002 1653.25 136.088L1653.56 138.064ZM1661.08 134.803C1660.54 134.896 1660.17 135.413 1660.27 135.958C1660.36 136.502 1660.88 136.868 1661.42 136.775L1661.08 134.803ZM1669.14 135.4C1669.68 135.299 1670.04 134.778 1669.94 134.235C1669.84 133.692 1669.32 133.333 1668.77 133.434L1669.14 135.4ZM1676.56 131.933C1676.01 132.042 1675.66 132.569 1675.77 133.11C1675.88 133.652 1676.41 134.003 1676.95 133.894L1676.56 131.933ZM1684.62 132.299C1685.16 132.182 1685.5 131.65 1685.39 131.11C1685.27 130.571 1684.74 130.227 1684.2 130.344L1684.62 132.299ZM1691.94 128.612C1691.4 128.737 1691.06 129.274 1691.19 129.812C1691.31 130.35 1691.85 130.685 1692.39 130.56L1691.94 128.612ZM1700.01 128.729C1700.54 128.596 1700.87 128.054 1700.74 127.518C1700.6 126.982 1700.06 126.655 1699.52 126.789L1700.01 128.729ZM1707.2 124.813C1706.67 124.955 1706.35 125.503 1706.49 126.037C1706.63 126.571 1707.18 126.888 1707.71 126.746L1707.2 124.813ZM1715.3 124.659C1715.83 124.508 1716.14 123.955 1715.99 123.424C1715.84 122.893 1715.29 122.584 1714.75 122.735L1715.3 124.659ZM1722.32 120.515C1721.79 120.675 1721.49 121.233 1721.65 121.762C1721.81 122.29 1722.37 122.589 1722.9 122.429L1722.32 120.515ZM1730.44 120.07C1730.97 119.9 1731.26 119.337 1731.09 118.811C1730.92 118.286 1730.35 117.997 1729.83 118.166L1730.44 120.07ZM1737.26 115.695C1736.74 115.874 1736.46 116.443 1736.64 116.965C1736.82 117.488 1737.39 117.766 1737.91 117.587L1737.26 115.695ZM1745.4 114.944C1745.92 114.756 1746.18 114.182 1746 113.663C1745.81 113.144 1745.23 112.876 1744.71 113.065L1745.4 114.944ZM1752.06 110.317C1751.54 110.516 1751.28 111.094 1751.48 111.61C1751.68 112.125 1752.26 112.382 1752.77 112.184L1752.06 110.317ZM1760.13 109.271C1760.64 109.062 1760.88 108.479 1760.67 107.967C1760.47 107.456 1759.88 107.21 1759.37 107.419L1760.13 109.271ZM1766.64 104.375C1766.13 104.593 1765.9 105.181 1766.12 105.689C1766.33 106.196 1766.92 106.43 1767.43 106.212L1766.64 104.375ZM1774.63 103.028C1775.14 102.8 1775.36 102.207 1775.13 101.704C1774.9 101.201 1774.31 100.978 1773.81 101.206L1774.63 103.028ZM1780.94 97.8832C1780.45 98.1213 1780.23 98.7183 1780.47 99.2166C1780.71 99.715 1781.31 99.9259 1781.81 99.6878L1780.94 97.8832ZM1788.92 96.2035C1789.41 95.9556 1789.61 95.3545 1789.36 94.861C1789.11 94.3675 1788.51 94.1684 1788.02 94.4163L1788.92 96.2035ZM1795 90.8238C1794.51 91.0813 1794.32 91.6861 1794.58 92.1747C1794.84 92.6633 1795.44 92.8506 1795.93 92.593L1795 90.8238ZM1802.87 88.8498C1803.35 88.5829 1803.53 87.9746 1803.26 87.4911C1803 87.0075 1802.39 86.8319 1801.9 87.0988L1802.87 88.8498ZM1808.77 83.2213C1808.29 83.4973 1808.13 84.1088 1808.41 84.5872C1808.68 85.0656 1809.29 85.2296 1809.77 84.9536L1808.77 83.2213ZM1816.58 80.9394C1817.06 80.6547 1817.21 80.0402 1816.92 79.567C1816.64 79.0938 1816.02 78.941 1815.55 79.2258L1816.58 80.9394ZM1822.25 75.1158C1821.78 75.4088 1821.64 76.0259 1821.93 76.494C1822.22 76.9622 1822.84 77.1041 1823.31 76.8111L1822.25 75.1158ZM1829.95 72.5734C1830.42 72.2727 1830.55 71.6533 1830.25 71.1901C1829.95 70.7269 1829.33 70.5953 1828.86 70.8961L1829.95 72.5734ZM1835.44 66.5507C1834.98 66.8586 1834.86 67.4799 1835.17 67.9384C1835.48 68.3968 1836.1 68.5188 1836.56 68.2109L1835.44 66.5507ZM1843.09 63.7554C1843.54 63.441 1843.65 62.818 1843.34 62.364C1843.03 61.9099 1842.4 61.7967 1841.95 62.1111L1843.09 63.7554ZM1848.39 57.5881C1847.94 57.9082 1847.84 58.5326 1848.16 58.9826C1848.48 59.4327 1849.1 59.538 1849.55 59.2179L1848.39 57.5881ZM1855.96 54.6092C1856.4 54.2843 1856.5 53.6588 1856.18 53.2122C1855.85 52.7656 1855.23 52.667 1854.78 52.9919L1855.96 54.6092ZM1861.12 48.3343C1860.68 48.663 1860.58 49.2893 1860.91 49.7331C1861.24 50.1768 1861.87 50.2701 1862.31 49.9413L1861.12 48.3343ZM1868.63 45.228C1869.07 44.8964 1869.16 44.2696 1868.83 43.8279C1868.5 43.3862 1867.87 43.297 1867.43 43.6285L1868.63 45.228ZM1873.72 38.884C1873.28 39.2172 1873.19 39.8444 1873.53 40.2848C1873.86 40.7253 1874.49 40.8123 1874.93 40.4791L1873.72 38.884ZM1881.22 35.7149C1881.66 35.3813 1881.74 34.7541 1881.41 34.3139C1881.08 33.8737 1880.45 33.7873 1880.01 34.1208L1881.22 35.7149ZM1886.3 29.362C1885.86 29.6945 1885.77 30.3215 1886.1 30.7625C1886.44 31.2035 1887.06 31.2914 1887.51 30.9589L1886.3 29.362ZM1893.81 26.2317C1894.25 25.9018 1894.34 25.2753 1894.01 24.8324C1893.68 24.3895 1893.06 24.2979 1892.61 24.6278L1893.81 26.2317ZM1898.97 19.9407C1898.52 20.2663 1898.42 20.8919 1898.75 21.338C1899.07 21.784 1899.7 21.8816 1900.15 21.5559L1898.97 19.9407ZM1906.53 16.956C1906.98 16.6364 1907.09 16.0122 1906.77 15.5618C1906.45 15.1114 1905.82 15.0054 1905.37 15.325L1906.53 16.956ZM1911.85 10.8076C1911.4 11.1192 1911.28 11.7415 1911.59 12.1974C1911.9 12.6534 1912.53 12.7704 1912.98 12.4588L1911.85 10.8076ZM1919.52 8.09297C1919.98 7.79144 1920.11 7.17191 1919.81 6.7092C1919.51 6.24648 1918.89 6.11581 1918.43 6.41734L1919.52 8.09297ZM1925.11 2.18506C1924.64 2.47428 1924.49 3.09016 1924.78 3.56065C1925.07 4.03115 1925.68 4.1781 1926.16 3.88887L1925.11 2.18506ZM-3.32232 237.235C-2.34885 236.338 -1.36507 235.431 -0.371076 234.514L-1.72716 233.044C-2.72103 233.961 -3.70455 234.868 -4.67768 235.765L-3.32232 237.235ZM5.60765 228.999C7.56737 227.192 9.56338 225.354 11.5953 223.486L10.2421 222.014C8.20902 223.882 6.21214 225.721 4.25196 227.529L5.60765 228.999ZM17.6009 217.982C19.5706 216.182 21.5714 214.36 23.6031 212.517L22.2594 211.035C20.2257 212.88 18.223 214.704 16.2518 216.506L17.6009 217.982ZM29.6195 207.084C31.6099 205.295 33.6279 203.49 35.6733 201.671L34.3442 200.176C32.296 201.998 30.2754 203.805 28.2826 205.596L29.6195 207.084ZM41.7686 196.281C43.787 194.507 45.8303 192.722 47.8985 190.928L46.5879 189.417C44.5163 191.215 42.4697 193.002 40.4482 194.779L41.7686 196.281ZM54.0351 185.642C56.0758 183.896 58.1392 182.144 60.2252 180.386L58.9366 178.857C56.8467 180.618 54.7794 182.373 52.735 184.122L54.0351 185.642ZM66.4698 175.168C68.5382 173.453 70.6276 171.736 72.7378 170.016L71.4745 168.466C69.3598 170.189 67.2661 171.91 65.1935 173.628L66.4698 175.168ZM79.0487 164.92C81.1531 163.237 83.2771 161.553 85.4207 159.87L84.1858 158.297C82.0372 159.983 79.9083 161.671 77.7992 163.359L79.0487 164.92ZM91.8324 154.887C93.9648 153.247 96.1156 151.609 98.2846 149.976L97.0813 148.378C94.9068 150.016 92.7506 151.658 90.613 153.302L91.8324 154.887ZM104.802 145.12C106.972 143.522 109.16 141.928 111.364 140.342L110.196 138.718C107.985 140.31 105.792 141.907 103.616 143.51L104.802 145.12ZM117.974 135.641C120.183 134.089 122.409 132.545 124.651 131.01L123.521 129.36C121.272 130.9 119.04 132.448 116.824 134.005L117.974 135.641ZM131.372 126.467C133.616 124.971 135.876 123.485 138.151 122.01L137.063 120.331C134.78 121.811 132.514 123.302 130.263 124.803L131.372 126.467ZM144.998 117.634C147.279 116.197 149.575 114.773 151.887 113.361L150.845 111.654C148.525 113.071 146.221 114.5 143.932 115.941L144.998 117.634ZM158.843 109.181C161.168 107.806 163.508 106.445 165.862 105.099L164.87 103.363C162.507 104.713 160.158 106.079 157.825 107.459L158.843 109.181ZM172.93 101.129C175.296 99.8247 177.675 98.5361 180.068 97.2647L179.129 95.4985C176.727 96.7749 174.339 98.0685 171.964 99.3781L172.93 101.129ZM187.262 93.5166C189.666 92.2889 192.084 91.0793 194.515 89.8888L193.635 88.0926C191.194 89.2881 188.766 90.5027 186.353 91.7354L187.262 93.5166ZM201.835 86.3816C204.279 85.2368 206.736 84.112 209.205 83.0081L208.389 81.1822C205.909 82.2909 203.441 83.4207 200.987 84.5705L201.835 86.3816ZM216.64 79.7664C219.126 78.7097 221.624 77.675 224.135 76.6632L223.388 74.8082C220.865 75.8247 218.355 76.8643 215.858 77.9258L216.64 79.7664ZM231.682 73.7068C234.207 72.7461 236.743 71.8093 239.292 70.8973L238.618 69.0142C236.057 69.9308 233.508 70.8722 230.971 71.8375L231.682 73.7068ZM246.951 68.2449C249.511 67.388 252.082 66.5567 254.665 65.752L254.07 63.8425C251.473 64.6514 248.889 65.4871 246.316 66.3484L246.951 68.2449ZM262.434 63.4229C265.026 62.6767 267.629 61.9577 270.243 61.2671L269.732 59.3335C267.103 60.0279 264.486 60.7507 261.881 61.501L262.434 63.4229ZM278.106 59.2844C280.728 58.6548 283.362 58.0542 286.006 57.4836L285.584 55.5286C282.925 56.1025 280.276 56.7065 277.639 57.3397L278.106 59.2844ZM293.946 55.8677C296.597 55.3608 299.258 54.8845 301.93 54.4399L301.602 52.467C298.914 52.9143 296.237 53.3934 293.57 53.9033L293.946 55.8677ZM309.931 53.2084C312.602 52.8306 315.283 52.4849 317.974 52.1722L317.743 50.1856C315.036 50.5002 312.338 50.848 309.651 51.2281L309.931 53.2084ZM326.028 51.3387C327.376 51.2164 328.726 51.1024 330.078 50.997L329.922 49.0031C328.562 49.1092 327.203 49.2238 325.848 49.3469L326.028 51.3387ZM330.078 50.997C331.405 50.8936 332.736 50.7983 334.072 50.711L333.941 48.7152C332.597 48.8031 331.258 48.899 329.922 49.0031L330.078 50.997ZM342.136 50.2816C344.797 50.1713 347.474 50.0906 350.167 50.0383L350.128 48.0387C347.421 48.0913 344.73 48.1724 342.053 48.2833L342.136 50.2816ZM358.228 49.9647C360.905 49.9672 363.596 49.9958 366.299 50.0494L366.339 48.0498C363.623 47.996 360.92 47.9672 358.23 47.9647L358.228 49.9647ZM374.341 50.2793C377.018 50.3788 379.707 50.5011 382.406 50.645L382.513 48.6478C379.803 48.5034 377.103 48.3806 374.415 48.2807L374.341 50.2793ZM390.452 51.1343C393.122 51.3162 395.801 51.5177 398.49 51.7378L398.653 49.7445C395.955 49.5237 393.267 49.3215 390.588 49.1389L390.452 51.1343ZM406.544 52.449C409.205 52.7006 411.875 52.969 414.552 53.2533L414.764 51.2645C412.079 50.9794 409.402 50.7102 406.732 50.4578L406.544 52.449ZM422.577 54.1489C425.241 54.4601 427.911 54.7858 430.587 55.1249L430.839 53.1408C428.156 52.8009 425.479 52.4744 422.81 52.1624L422.577 54.1489ZM438.585 56.1745C441.248 56.5357 443.917 56.9091 446.59 57.2936L446.875 55.314C444.196 54.9287 441.522 54.5546 438.853 54.1926L438.585 56.1745ZM454.564 58.4701C457.221 58.8718 459.883 59.2835 462.548 59.7041L462.86 57.7286C460.19 57.3073 457.525 56.895 454.863 56.4926L454.564 58.4701ZM470.516 60.9856C473.168 61.4198 475.823 61.8619 478.48 62.311L478.814 60.3389C476.153 59.8894 473.494 59.4467 470.839 59.0119L470.516 60.9856ZM486.442 63.6748C489.091 64.1343 491.741 64.5998 494.393 65.0703L494.742 63.101C492.088 62.6302 489.435 62.1642 486.784 61.7042L486.442 63.6748ZM502.346 66.4945C504.993 66.9728 507.641 67.4551 510.29 67.9405L510.65 65.9733C508 65.4876 505.351 65.005 502.701 64.5264L502.346 66.4945ZM518.234 69.4048C520.882 69.8953 523.529 70.3879 526.175 70.8818L526.542 68.9157C523.895 68.4218 521.247 67.929 518.599 67.4383L518.234 69.4048ZM534.118 72.3673C536.765 72.8634 539.411 73.3597 542.055 73.8553L542.424 71.8896C539.78 71.394 537.134 70.8976 534.486 70.4015L534.118 72.3673ZM550.002 75.3433C552.651 75.8385 555.297 76.3321 557.94 76.8232L558.306 74.8569C555.663 74.366 553.018 73.8725 550.369 73.3774L550.002 75.3433ZM565.891 78.2936C568.545 78.7818 571.195 79.2665 573.841 79.7467L574.198 77.7788C571.554 77.299 568.906 76.8146 566.253 76.3266L565.891 78.2936ZM581.792 81.1778C584.453 81.6523 587.109 82.1212 589.759 82.5836L590.102 80.6134C587.455 80.1515 584.802 79.683 582.143 79.2089L581.792 81.1778ZM597.71 83.9532C600.38 84.4067 603.043 84.8525 605.699 85.2896L606.024 83.3161C603.371 82.8797 600.711 82.4345 598.045 81.9815L597.71 83.9532ZM613.676 86.5779C616.347 87.001 619.011 87.4141 621.666 87.8161L621.965 85.8386C619.315 85.4374 616.656 85.025 613.988 84.6025L613.676 86.5779ZM629.674 88.9974C632.346 89.381 635.01 89.752 637.663 90.1095L637.93 88.1274C635.283 87.7708 632.625 87.4005 629.958 87.0177L629.674 88.9974ZM645.706 91.1542C648.393 91.4898 651.07 91.8101 653.734 92.1139L653.961 90.1267C651.304 89.8238 648.634 89.5043 645.954 89.1696L645.706 91.1542ZM661.769 92.9823C664.473 93.258 667.164 93.5152 669.841 93.7526L670.018 91.7604C667.35 91.5238 664.668 91.2675 661.972 90.9926L661.769 92.9823ZM677.895 94.4087C680.603 94.6092 683.297 94.7877 685.975 94.9428L686.09 92.9461C683.424 92.7917 680.741 92.6139 678.042 92.4141L677.895 94.4087ZM694.074 95.3411C696.784 95.4499 699.477 95.5327 702.151 95.5879L702.193 93.5884C699.532 93.5334 696.852 93.451 694.154 93.3427L694.074 95.3411ZM710.255 95.6697C712.981 95.6674 715.687 95.6341 718.37 95.5682L718.321 93.5688C715.654 93.6343 712.964 93.6674 710.254 93.6697L710.255 95.6697ZM726.457 95.2658C729.175 95.1282 731.868 94.9542 734.537 94.7421L734.378 92.7484C731.73 92.9589 729.055 93.1317 726.356 93.2684L726.457 95.2658ZM742.63 93.9715C743.969 93.8222 745.302 93.6624 746.628 93.4918L746.372 91.5082C745.058 91.6772 743.737 91.8357 742.408 91.9838L742.63 93.9715ZM746.628 93.4918C747.941 93.3229 749.264 93.1492 750.596 92.9708L750.33 90.9885C749.001 91.1664 747.682 91.3397 746.372 91.5082L746.628 93.4918ZM758.677 91.8495C761.306 91.4727 763.969 91.08 766.664 90.6727L766.365 88.6952C763.674 89.1017 761.017 89.4937 758.393 89.8697L758.677 91.8495ZM774.674 89.4353C777.33 89.0167 780.016 88.5856 782.73 88.1432L782.408 86.1692C779.697 86.6112 777.015 87.0417 774.363 87.4597L774.674 89.4353ZM790.683 86.8288C793.326 86.3866 795.994 85.9349 798.688 85.4747L798.351 83.5033C795.659 83.9631 792.993 84.4144 790.353 84.8563L790.683 86.8288ZM806.689 84.0962C809.321 83.6394 811.975 83.1756 814.652 82.7057L814.306 80.7358C811.631 81.2055 808.978 81.6691 806.347 82.1256L806.689 84.0962ZM822.676 81.2906C825.303 80.8256 827.951 80.3556 830.617 79.8814L830.267 77.9123C827.601 78.3864 824.954 78.8563 822.328 79.3212L822.676 81.2906ZM838.616 78.4575C841.254 77.9876 843.91 77.5144 846.583 77.0385L846.233 75.0695C843.559 75.5454 840.903 76.0186 838.265 76.4885L838.616 78.4575ZM854.564 75.6203C857.21 75.1509 859.872 74.6797 862.551 74.2073L862.203 72.2377C859.524 72.7103 856.861 73.1816 854.214 73.651L854.564 75.6203ZM870.52 72.8069C873.172 72.3427 875.84 71.878 878.521 71.4134L878.18 69.4427C875.497 69.9076 872.829 70.3725 870.175 70.8368L870.52 72.8069ZM886.487 70.0412C889.144 69.5863 891.815 69.132 894.499 68.6788L894.166 66.7067C891.48 67.1602 888.808 67.6147 886.149 68.0699L886.487 70.0412ZM902.465 67.3443C905.126 66.9022 907.8 66.4617 910.485 66.0234L910.163 64.0495C907.475 64.4881 904.8 64.9289 902.137 65.3714L902.465 67.3443ZM918.457 64.7351C921.122 64.3088 923.797 63.8852 926.484 63.4648L926.175 61.4888C923.486 61.9096 920.808 62.3336 918.141 62.7602L918.457 64.7351ZM934.465 62.2307C937.133 61.8233 939.81 61.4194 942.498 61.0195L942.204 59.0413C939.513 59.4415 936.833 59.8458 934.163 60.2536L934.465 62.2307ZM950.491 59.8473C953.161 59.4613 955.84 59.0797 958.529 58.703L958.252 56.7224C955.56 57.0995 952.878 57.4815 950.205 57.8678L950.491 59.8473ZM966.535 57.5999C969.208 57.2379 971.889 56.8812 974.579 56.53L974.32 54.5469C971.627 54.8984 968.943 55.2556 966.267 55.618L966.535 57.5999ZM982.6 55.5032C985.275 55.1676 987.957 54.838 990.648 54.5148L990.409 52.5291C987.715 52.8527 985.029 53.1828 982.351 53.5188L982.6 55.5032ZM998.684 53.5713C1001.36 53.2645 1004.05 52.9643 1006.74 52.6712L1006.52 50.6829C1003.83 50.9764 1001.14 51.2771 998.456 51.5844L998.684 53.5713ZM1014.79 51.8181C1017.47 51.5422 1020.15 51.2736 1022.85 51.0129L1022.65 49.0222C1019.96 49.2834 1017.27 49.5523 1014.58 49.8286L1014.79 51.8181ZM1030.91 50.2572C1033.59 50.0145 1036.28 49.7798 1038.97 49.5536L1038.81 47.5606C1036.11 47.7872 1033.42 48.0222 1030.73 48.2653L1030.91 50.2572ZM1047.05 48.9022C1049.74 48.6949 1052.43 48.4963 1055.12 48.3068L1054.98 46.3117C1052.28 46.5015 1049.59 46.7004 1046.9 46.9081L1047.05 48.9022ZM1063.21 47.7666C1065.9 47.5969 1068.59 47.4367 1071.28 47.2862L1071.17 45.2893C1068.47 45.44 1065.78 45.6006 1063.09 45.7706L1063.21 47.7666ZM1079.38 46.8643C1082.07 46.7345 1084.76 46.6146 1087.46 46.5052L1087.38 44.5069C1084.68 44.6165 1081.98 44.7365 1079.28 44.8666L1079.38 46.8643ZM1095.56 46.2088C1098.25 46.121 1100.94 46.0439 1103.64 45.9778L1103.59 43.9784C1100.89 44.0446 1098.19 44.1219 1095.49 44.2099L1095.56 46.2088ZM1111.74 45.8135C1114.44 45.7701 1117.13 45.7381 1119.84 45.7178L1119.82 43.7178C1117.11 43.7382 1114.41 43.7703 1111.71 43.8138L1111.74 45.8135ZM1127.93 45.6923C1130.63 45.6958 1133.33 45.7112 1136.03 45.739L1136.05 43.7391C1133.34 43.7112 1130.63 43.6958 1127.93 43.6923L1127.93 45.6923ZM1144.12 45.8593C1146.82 45.912 1149.52 45.9773 1152.22 46.0555L1152.28 44.0564C1149.57 43.9779 1146.86 43.9125 1144.16 43.8597L1144.12 45.8593ZM1160.3 46.3286C1163 46.4328 1165.69 46.5502 1168.39 46.6813L1168.49 44.6836C1165.78 44.5522 1163.08 44.4345 1160.38 44.3301L1160.3 46.3286ZM1176.47 47.1143C1179.16 47.2723 1181.85 47.4442 1184.55 47.6303L1184.69 45.6351C1181.99 45.4485 1179.29 45.2761 1176.59 45.1177L1176.47 47.1143ZM1192.62 48.2305C1195.31 48.4447 1197.99 48.6733 1200.68 48.9168L1200.86 46.9249C1198.17 46.6808 1195.47 46.4515 1192.78 46.2368L1192.62 48.2305ZM1208.74 49.6913C1211.42 49.9639 1214.1 50.2516 1216.78 50.5548L1217.01 48.5674C1214.32 48.2635 1211.63 47.9749 1208.94 47.7016L1208.74 49.6913ZM1224.83 51.5107C1227.5 51.844 1230.17 52.193 1232.84 52.558L1233.11 50.5764C1230.43 50.2103 1227.75 49.8603 1225.07 49.5261L1224.83 51.5107ZM1240.86 53.7015C1243.52 54.098 1246.19 54.5107 1248.85 54.9401L1249.17 52.9656C1246.5 52.5349 1243.83 52.1209 1241.15 51.7233L1240.86 53.7015ZM1256.83 56.2774C1258.16 56.5087 1259.49 56.7443 1260.82 56.9841L1261.18 55.0159C1259.84 54.7753 1258.51 54.539 1257.18 54.307L1256.83 56.2774ZM1260.82 56.9841C1262.17 57.2274 1263.51 57.4751 1264.84 57.7272L1265.21 55.7622C1263.88 55.509 1262.53 55.2602 1261.18 55.0159L1260.82 56.9841ZM1272.73 59.2917C1275.41 59.8466 1278.05 60.4192 1280.66 61.0083L1281.1 59.0574C1278.48 58.4657 1275.82 57.8907 1273.14 57.3334L1272.73 59.2917ZM1288.5 62.8512C1291.14 63.4958 1293.74 64.1572 1296.31 64.834L1296.82 62.8998C1294.24 62.22 1291.62 61.5558 1288.97 60.9083L1288.5 62.8512ZM1304.13 66.9617C1306.74 67.6976 1309.32 68.4489 1311.87 69.2143L1312.44 67.2988C1309.88 66.5302 1307.29 65.7757 1304.67 65.0367L1304.13 66.9617ZM1319.56 71.5969C1322.16 72.4237 1324.72 73.2645 1327.26 74.1178L1327.9 72.2222C1325.35 71.3657 1322.78 70.5215 1320.17 69.6913L1319.56 71.5969ZM1334.89 76.7519C1337.44 77.6548 1339.97 78.5694 1342.47 79.4938L1343.16 77.618C1340.65 76.6903 1338.12 75.7726 1335.56 74.8663L1334.89 76.7519ZM1350.03 82.3476C1352.57 83.3229 1355.08 84.3071 1357.56 85.2984L1358.3 83.4405C1355.81 82.4465 1353.29 81.4594 1350.75 80.481L1350.03 82.3476ZM1365.05 88.3282C1367.56 89.3558 1370.04 90.389 1372.51 91.4257L1373.28 89.5819C1370.81 88.5432 1368.32 87.5079 1365.81 86.4779L1365.05 88.3282ZM1379.95 94.5805C1382.44 95.6467 1384.92 96.7146 1387.38 97.7822L1388.18 95.9468C1385.71 94.8784 1383.23 93.8093 1380.73 92.7417L1379.95 94.5805ZM1394.8 101.006C1397.28 102.086 1399.75 103.163 1402.22 104.236L1403.02 102.402C1400.55 101.329 1398.08 100.253 1395.6 99.1723L1394.8 101.006ZM1409.64 107.454C1412.12 108.526 1414.6 109.59 1417.08 110.644L1417.86 108.804C1415.39 107.751 1412.91 106.688 1410.44 105.618L1409.64 107.454ZM1424.55 113.788C1427.04 114.825 1429.54 115.85 1432.04 116.862L1432.79 115.008C1430.29 113.999 1427.8 112.976 1425.32 111.941L1424.55 113.788ZM1439.57 119.849C1442.09 120.827 1444.61 121.789 1447.15 122.732L1447.85 120.857C1445.32 119.918 1442.8 118.96 1440.3 117.985L1439.57 119.849ZM1454.78 125.493C1457.32 126.387 1459.88 127.261 1462.45 128.113L1463.08 126.214C1460.52 125.366 1457.97 124.496 1455.44 123.606L1454.78 125.493ZM1470.17 130.575C1472.74 131.364 1475.33 132.13 1477.95 132.87L1478.5 130.945C1475.89 130.21 1473.32 129.448 1470.76 128.663L1470.17 130.575ZM1485.79 134.987C1488.39 135.658 1491.02 136.302 1493.69 136.918L1494.14 134.97C1491.49 134.357 1488.87 133.717 1486.29 133.05L1485.79 134.987ZM1501.6 138.647C1504.22 139.185 1506.87 139.695 1509.56 140.176L1509.91 138.207C1507.24 137.73 1504.61 137.223 1502 136.688L1501.6 138.647ZM1517.57 141.505C1520.23 141.912 1522.92 142.289 1525.64 142.635L1525.89 140.651C1523.19 140.307 1520.51 139.932 1517.87 139.528L1517.57 141.505ZM1533.67 143.555C1536.32 143.827 1539.01 144.069 1541.74 144.281L1541.89 142.287C1539.18 142.076 1536.51 141.835 1533.87 141.566L1533.67 143.555ZM1549.88 144.816C1552.53 144.96 1555.22 145.074 1557.95 145.159L1558.01 143.16C1555.3 143.076 1552.63 142.962 1549.99 142.819L1549.88 144.816ZM1566.05 145.322C1568.74 145.347 1571.46 145.344 1574.21 145.311L1574.19 143.311C1571.45 143.344 1568.74 143.347 1566.07 143.322L1566.05 145.322ZM1582.26 145.133C1584.94 145.047 1587.65 144.934 1590.4 144.792L1590.3 142.795C1587.56 142.936 1584.86 143.048 1582.2 143.134L1582.26 145.133ZM1598.47 144.303C1599.83 144.207 1601.2 144.106 1602.58 143.997L1602.42 142.003C1601.05 142.111 1599.69 142.213 1598.33 142.307L1598.47 144.303ZM1602.58 143.997C1603.92 143.891 1605.25 143.782 1606.58 143.67L1606.41 141.678C1605.09 141.789 1603.76 141.898 1602.42 142.003L1602.58 143.997ZM1614.46 142.962C1617.09 142.711 1619.69 142.449 1622.26 142.174L1622.05 140.185C1619.48 140.459 1616.89 140.721 1614.27 140.971L1614.46 142.962ZM1630.17 141.282C1632.78 140.972 1635.36 140.65 1637.92 140.315L1637.66 138.332C1635.11 138.666 1632.53 138.987 1629.93 139.296L1630.17 141.282ZM1645.82 139.228C1648.43 138.853 1651.01 138.465 1653.56 138.064L1653.25 136.088C1650.71 136.487 1648.14 136.875 1645.54 137.249L1645.82 139.228ZM1661.42 136.775C1664.02 136.33 1666.59 135.871 1669.14 135.4L1668.77 133.434C1666.24 133.903 1663.68 134.36 1661.08 134.803L1661.42 136.775ZM1676.95 133.894C1679.54 133.376 1682.09 132.844 1684.62 132.299L1684.2 130.344C1681.68 130.887 1679.13 131.417 1676.56 131.933L1676.95 133.894ZM1692.39 130.56C1694.96 129.964 1697.5 129.353 1700.01 128.729L1699.52 126.789C1697.03 127.41 1694.5 128.018 1691.94 128.612L1692.39 130.56ZM1707.71 126.746C1710.28 126.064 1712.8 125.368 1715.3 124.659L1714.75 122.735C1712.27 123.442 1709.75 124.134 1707.2 124.813L1707.71 126.746ZM1722.9 122.429C1725.45 121.656 1727.96 120.87 1730.44 120.07L1729.83 118.166C1727.36 118.963 1724.86 119.746 1722.32 120.515L1722.9 122.429ZM1737.91 117.587C1740.44 116.72 1742.94 115.839 1745.4 114.944L1744.71 113.065C1742.27 113.955 1739.78 114.832 1737.26 115.695L1737.91 117.587ZM1752.77 112.184C1755.26 111.226 1757.71 110.255 1760.13 109.271L1759.37 107.419C1756.97 108.398 1754.53 109.364 1752.06 110.317L1752.77 112.184ZM1767.43 106.212C1769.87 105.163 1772.27 104.101 1774.63 103.028L1773.81 101.206C1771.45 102.275 1769.07 103.331 1766.64 104.375L1767.43 106.212ZM1781.81 99.6878C1784.21 98.5378 1786.58 97.376 1788.92 96.2035L1788.02 94.4163C1785.7 95.583 1783.34 96.739 1780.94 97.8832L1781.81 99.6878ZM1795.93 92.593C1798.28 91.3552 1800.59 90.107 1802.87 88.8498L1801.9 87.0988C1799.64 88.3499 1797.34 89.592 1795 90.8238L1795.93 92.593ZM1809.77 84.9536C1812.08 83.6235 1814.35 82.2849 1816.58 80.9394L1815.55 79.2258C1813.33 80.5651 1811.07 81.8974 1808.77 83.2213L1809.77 84.9536ZM1823.31 76.8111C1825.56 75.4039 1827.77 73.9908 1829.95 72.5734L1828.86 70.8961C1826.69 72.3076 1824.48 73.7147 1822.25 75.1158L1823.31 76.8111ZM1836.56 68.2109C1838.76 66.728 1840.94 65.2422 1843.09 63.7554L1841.95 62.1111C1839.81 63.5929 1837.64 65.0733 1835.44 66.5507L1836.56 68.2109ZM1849.55 59.2179C1851.71 57.6802 1853.85 56.1433 1855.96 54.6092L1854.78 52.9919C1852.68 54.5222 1850.55 56.0549 1848.39 57.5881L1849.55 59.2179ZM1862.31 49.9413C1864.44 48.3643 1866.54 46.7924 1868.63 45.228L1867.43 43.6285C1865.35 45.1909 1863.24 46.7602 1861.12 48.3343L1862.31 49.9413ZM1874.93 40.4791C1877.04 38.88 1879.14 37.2909 1881.22 35.7149L1880.01 34.1208C1877.93 35.6974 1875.83 37.2856 1873.72 38.884L1874.93 40.4791ZM1887.51 30.9589C1889.62 29.3662 1891.72 27.7897 1893.81 26.2317L1892.61 24.6278C1890.52 26.1887 1888.42 27.7677 1886.3 29.362L1887.51 30.9589ZM1900.15 21.5559C1902.28 19.9992 1904.4 18.465 1906.53 16.956L1905.37 15.325C1903.24 16.8399 1901.1 18.3794 1898.97 19.9407L1900.15 21.5559ZM1912.98 12.4588C1915.16 10.9732 1917.33 9.51691 1919.52 8.09297L1918.43 6.41734C1916.23 7.85002 1914.04 9.31447 1911.85 10.8076L1912.98 12.4588ZM1926.16 3.88887C1927.27 3.20327 1928.39 2.52671 1929.51 1.85956L1928.49 0.140441C1927.36 0.812802 1926.23 1.49447 1925.11 2.18506L1926.16 3.88887Z" fill="#FD6C03"/>
</svg>
