<svg width="386" height="381" viewBox="0 0 386 381" fill="none" xmlns="http://www.w3.org/2000/svg">
<g clip-path="url(#clip0_276_243)">
<path d="M231.455 212.925C253.735 205.636 268.773 191.016 261.864 169.895C254.955 148.773 234.484 146.345 212.073 153.676L177.839 164.875L164.732 124.807L198.966 113.608C238.058 100.821 277.231 109.744 296.371 140.184L298.415 139.515L303.94 156.405C318.099 199.689 289.895 238.134 244.553 252.966L210.319 264.165L197.221 224.123L231.455 212.925Z" fill="#FD6C03"/>
<path d="M197.22 224.124L159.067 236.605L172.169 276.659L210.323 264.179L197.22 224.124ZM164.732 124.807L126.578 137.288L139.681 177.343L177.834 164.862L164.732 124.807Z" fill="#828282"/>
<path d="M225.925 196.023C248.205 188.735 263.243 174.114 256.334 152.993C249.425 131.872 228.954 129.443 206.544 136.774L172.309 147.973L159.207 107.918L193.441 96.7194C238.782 81.8873 284.259 96.2447 298.414 139.516C312.573 182.8 284.369 221.246 239.028 236.078L204.794 247.276L191.691 207.222L225.925 196.023Z" fill="#FF7E07"/>
<path d="M191.691 207.221L153.538 219.702L166.641 259.757L204.794 247.276L191.691 207.221ZM159.207 107.918L121.054 120.399L134.156 160.453L172.31 147.973L159.207 107.918Z" fill="#9D9D9D"/>
</g>
<path d="M66.0649 163.597L105.127 161.285L58.0112 149.991L53.2623 175.266L36.5133 182.976L61.4737 185.811L66.0649 163.597Z" fill="#FD6C03"/>
<path d="M105.044 262.114L144.107 259.802L96.9905 248.508L92.2416 273.783L75.4926 281.493L100.453 284.328L105.044 262.114Z" fill="#FD6C03"/>
<defs>
<clipPath id="clip0_276_243">
<rect width="175.369" height="175.369" fill="white" transform="matrix(-0.95044 0.310908 0.310908 0.95044 279.972 62.647)"/>
</clipPath>
</defs>
</svg>
