<svg width="184" height="48" viewBox="0 0 184 48" fill="none" xmlns="http://www.w3.org/2000/svg">
<rect width="48" height="48" rx="24" fill="#FF7E07"/>
<path fill-rule="evenodd" clip-rule="evenodd" d="M17.7876 26.0196C17.8314 26.0344 17.8756 26.0448 17.9197 26.0512C17.9678 26.1644 18.03 26.3107 18.1026 26.4818C18.2797 26.8994 18.5182 27.4643 18.7645 28.0535C19.2668 29.2552 19.7734 30.4939 19.8853 30.8485C20.0238 31.2868 20.1702 31.5848 20.33 31.7883C20.4127 31.8935 20.5082 31.9853 20.6201 32.0549C20.6764 32.0899 20.7359 32.1186 20.7979 32.14C20.8007 32.141 20.8034 32.1419 20.8061 32.1428C21.1262 32.2636 21.4179 32.2133 21.6006 32.1518C21.6983 32.1188 21.7774 32.0791 21.8335 32.0469C21.862 32.0304 21.8862 32.0151 21.9054 32.0021L21.91 31.9991L24.7362 30.2366L28.0007 32.7394C28.0489 32.7763 28.1014 32.8073 28.1571 32.8316C28.5493 33.0027 28.929 33.0624 29.2863 33.0136C29.6429 32.9649 29.9261 32.8151 30.1369 32.6464C30.3433 32.4813 30.4832 32.2963 30.5704 32.1589C30.6149 32.0887 30.6483 32.0266 30.6718 31.9791C30.6837 31.9552 30.6932 31.9346 30.7005 31.9181L30.71 31.8963L30.7135 31.8877L30.715 31.8841L30.7157 31.8824L30.7163 31.8808C30.7335 31.8379 30.7466 31.7935 30.7556 31.7482L33.7358 16.7227C33.7454 16.6747 33.7502 16.6258 33.7502 16.5768C33.7502 16.1368 33.5844 15.7184 33.1946 15.4645C32.8614 15.2475 32.4902 15.2382 32.2556 15.256C32.0026 15.2752 31.7689 15.3377 31.612 15.3876C31.5304 15.4135 31.462 15.4386 31.4127 15.4577C31.3879 15.4673 31.3675 15.4756 31.3524 15.4819L31.341 15.4867L14.6273 22.0432L14.6251 22.044C14.6145 22.0479 14.6008 22.053 14.5846 22.0593C14.5522 22.0719 14.5088 22.0896 14.4582 22.1126C14.3594 22.1574 14.2208 22.2273 14.0786 22.3247C13.8514 22.4803 13.3289 22.9064 13.4169 23.6097C13.4871 24.1708 13.8715 24.5154 14.1057 24.6811C14.2343 24.7721 14.3564 24.8371 14.4454 24.8795C14.4867 24.8991 14.5724 24.9339 14.6096 24.9491L14.6189 24.9529L17.7876 26.0196ZM31.926 16.8679L31.9236 16.8689C31.9153 16.8725 31.9069 16.876 31.8985 16.8793L15.1645 23.4438C15.1557 23.4472 15.1469 23.4505 15.1381 23.4536L15.1287 23.4571C15.118 23.4613 15.1 23.4686 15.0774 23.4788C15.0646 23.4846 15.0512 23.491 15.0375 23.4978C15.0563 23.5084 15.0742 23.5175 15.0902 23.5251C15.1055 23.5324 15.1172 23.5374 15.1236 23.54L18.2662 24.598C18.3237 24.6174 18.3773 24.643 18.4266 24.674L28.8033 18.5995L28.813 18.5937C28.8206 18.5893 28.8305 18.5835 28.8424 18.5768C28.866 18.5635 28.8985 18.5457 28.9371 18.526C29.0091 18.4894 29.1243 18.435 29.2541 18.3949C29.3445 18.3669 29.611 18.2882 29.8991 18.3806C30.0769 18.4377 30.261 18.5603 30.3807 18.768C30.4402 18.8712 30.4719 18.9748 30.4872 19.0697C30.528 19.2192 30.5216 19.3668 30.4896 19.4942C30.4209 19.7687 30.228 19.9829 30.0525 20.1466C29.9022 20.2871 27.9568 22.1629 26.0377 24.0147C25.0806 24.9381 24.1333 25.8525 23.4253 26.5359L22.9602 26.9849L28.8322 31.4867C28.9668 31.5349 29.0464 31.5325 29.0833 31.5274C29.1272 31.5214 29.1631 31.5045 29.1998 31.4752C29.2408 31.4424 29.2767 31.398 29.3035 31.3557L29.3046 31.354L32.1951 16.781C32.1522 16.7913 32.1088 16.8036 32.067 16.8169C32.0196 16.832 31.9806 16.8463 31.9547 16.8564C31.9419 16.8613 31.9327 16.8651 31.9277 16.8672L31.926 16.8679ZM23.4647 29.2618L22.2932 28.3636L22.0093 30.1693L23.4647 29.2618ZM21.2185 26.5814L22.3835 25.4567C23.0916 24.7732 24.039 23.8588 24.9961 22.9352L25.9686 21.997L19.4486 25.8138L19.4836 25.8963C19.6613 26.3154 19.9009 26.8827 20.1485 27.4751C20.3336 27.918 20.5272 28.3844 20.7036 28.8162L20.9866 27.0158C21.0139 26.8422 21.0987 26.692 21.2185 26.5814Z" fill="white"/>
<rect x="34" width="48" height="48" rx="24" fill="#FF7E07"/>
<path fill-rule="evenodd" clip-rule="evenodd" d="M69.405 28.865C68.8611 27.7695 68.1444 26.7688 67.2825 25.9013C66.9892 25.5603 66.6453 25.2238 66.3768 24.9612L66.3393 24.9245C66.2008 24.7889 66.0864 24.6764 65.9928 24.5795C67.1713 22.9407 68.18 21.1859 69.003 19.3422L69.0362 19.2678L69.0595 19.1898C69.1676 18.8269 69.2922 18.1368 68.8515 17.5132C68.396 16.8686 67.6666 16.7523 67.1782 16.7523H64.9311C64.4627 16.7309 63.9988 16.8575 63.6058 17.115C63.2098 17.3744 62.9069 17.7528 62.7402 18.1951C62.2563 19.3478 61.6507 20.4442 60.9347 21.466V18.8327C60.9347 18.4923 60.9027 17.9229 60.5382 17.4423C60.1018 16.8669 59.4707 16.7523 59.0326 16.7523H55.4671C55.0077 16.7417 54.5609 16.906 54.2176 17.2126C53.866 17.5266 53.6505 17.9652 53.6169 18.4354L53.6137 18.48V18.5246C53.6137 19.0101 53.8061 19.3682 53.9597 19.5934C54.0286 19.6943 54.1022 19.7861 54.1486 19.844L54.1594 19.8574C54.209 19.9192 54.242 19.9605 54.2752 20.0057C54.3626 20.1245 54.4882 20.3077 54.5238 20.7817V22.2547C53.9091 21.2442 53.2607 19.8996 52.7728 18.4634L52.7653 18.4414L52.757 18.4197C52.6353 18.101 52.4402 17.6374 52.0494 17.2827C51.5929 16.8682 51.0529 16.7523 50.5618 16.7523H48.2819C47.7851 16.7523 47.1861 16.8686 46.7392 17.34C46.2998 17.8036 46.25 18.3591 46.25 18.6544V18.7876L46.278 18.9177C46.9095 21.8488 48.2108 24.5937 50.0795 26.9377C50.9267 28.2737 52.0747 29.3936 53.4321 30.2075C54.8112 31.0345 56.3671 31.5219 57.9715 31.6297L58.0133 31.6325H58.0553C58.7811 31.6325 59.5378 31.5699 60.1068 31.1907C60.8744 30.6792 60.9347 29.8936 60.9347 29.5021V28.3642C61.1317 28.5234 61.3761 28.7378 61.6753 29.0259C62.037 29.3879 62.325 29.7016 62.572 29.9754L62.7038 30.122L62.7046 30.1228C62.8964 30.3364 63.0852 30.5467 63.2571 30.7195C63.4732 30.9367 63.7396 31.1761 64.0745 31.3529C64.4371 31.5444 64.8177 31.631 65.2219 31.631H67.5035C67.9841 31.631 68.6735 31.5173 69.1582 30.9554C69.6864 30.343 69.6461 29.5924 69.48 29.053L69.4501 28.956L69.405 28.865ZM63.6857 28.9706C63.4289 28.6859 63.1192 28.3484 62.7278 27.9571L62.7246 27.9539C61.3685 26.6464 60.7348 26.4186 60.2868 26.4186C60.0485 26.4186 59.7848 26.4454 59.6137 26.6585C59.5329 26.7591 59.4905 26.8805 59.4667 27.007C59.4429 27.1333 59.4347 27.2816 59.4347 27.4505V29.5021C59.4347 29.7569 59.3928 29.8639 59.275 29.9425C59.118 30.0471 58.7825 30.1319 58.0637 30.1325C56.6993 30.0395 55.3764 29.6244 54.2035 28.9211C53.0282 28.2164 52.0371 27.2425 51.3119 26.0797L51.304 26.0671L51.2946 26.0554C49.5534 23.8881 48.34 21.3457 47.7503 18.6291C47.7535 18.4981 47.7819 18.4204 47.8278 18.372C47.8752 18.322 47.99 18.2523 48.2819 18.2523H50.5618C50.8154 18.2523 50.9467 18.3075 51.0412 18.3933C51.1483 18.4905 51.2412 18.6556 51.354 18.9504C51.9136 20.5964 52.6704 22.1357 53.387 23.2675C53.7452 23.8332 54.0977 24.3041 54.4153 24.6368C54.5738 24.803 54.7293 24.9406 54.8777 25.0385C55.0213 25.1332 55.1841 25.2079 55.3516 25.2079C55.4399 25.2079 55.5433 25.1988 55.6428 25.1547C55.7498 25.1073 55.8329 25.0284 55.8916 24.9225C55.9954 24.7353 56.0238 24.458 56.0238 24.0947V20.731L56.0233 20.7231C55.9715 19.9048 55.7244 19.4444 55.4838 19.1172C55.4311 19.0455 55.3791 18.9807 55.3336 18.924L55.3211 18.9085C55.2712 18.8462 55.2314 18.7958 55.1988 18.7479C55.1389 18.6602 55.1157 18.5991 55.1138 18.5336C55.1216 18.4558 55.1583 18.3836 55.2167 18.3314C55.2774 18.2772 55.3569 18.249 55.4382 18.2523H59.0326C59.2387 18.2523 59.3081 18.3026 59.343 18.3487C59.3923 18.4137 59.4347 18.5489 59.4347 18.8327V23.3613C59.4347 23.8992 59.6827 24.2634 60.0428 24.2634C60.4572 24.2634 60.7559 24.012 61.2783 23.4896L61.287 23.4809L61.2948 23.4713C62.4656 22.0436 63.4225 20.453 64.1347 18.7494L64.1392 18.7367C64.1928 18.5861 64.2941 18.4573 64.4278 18.3697C64.5614 18.2821 64.72 18.2407 64.8794 18.2517L64.8881 18.2523H67.1782C67.4905 18.2523 67.5933 18.3318 67.6265 18.3788C67.6618 18.4289 67.6864 18.536 67.6264 18.7463C66.8053 20.5827 65.7899 22.3258 64.598 23.9464L64.5905 23.9578C64.4748 24.1348 64.3479 24.3306 64.3295 24.5554C64.3098 24.7968 64.4143 25.0163 64.597 25.2515C64.7302 25.4484 65.0049 25.7173 65.2836 25.9901L65.3099 26.0158C65.6021 26.3018 65.9186 26.6116 66.1727 26.9116L66.1795 26.9195L66.1869 26.9269C66.9444 27.6825 67.5743 28.556 68.052 29.5132C68.1283 29.7738 68.0816 29.907 68.0223 29.9757C67.953 30.0561 67.7976 30.131 67.5035 30.131H65.2219C65.0438 30.131 64.9063 30.0959 64.7749 30.0265C64.638 29.9542 64.4972 29.8392 64.3206 29.6616C64.1784 29.5187 64.023 29.3457 63.8334 29.1348C63.7864 29.0825 63.7373 29.0277 63.6857 28.9706Z" fill="white"/>
<rect x="68" width="48" height="48" rx="24" fill="#FF7E07"/>
<path fill-rule="evenodd" clip-rule="evenodd" d="M90.3859 20.3564C90.1542 20.2174 89.8656 20.2138 89.6305 20.3469C89.3953 20.48 89.25 20.7293 89.25 20.9995V26.9995C89.25 27.2697 89.3953 27.5191 89.6305 27.6522C89.8656 27.7853 90.1542 27.7817 90.3859 27.6427L95.3859 24.6427C95.6118 24.5071 95.75 24.263 95.75 23.9995C95.75 23.7361 95.6118 23.492 95.3859 23.3564L90.3859 20.3564ZM93.5423 23.9995L90.75 25.6749V22.3242L93.5423 23.9995Z" fill="white"/>
<path fill-rule="evenodd" clip-rule="evenodd" d="M97.0307 16.6408C93.682 16.3788 90.318 16.3788 86.9694 16.6408L84.7287 16.8161C83.3661 16.9227 82.2514 17.9439 82.0262 19.292C81.5054 22.4087 81.5054 25.5903 82.0262 28.7071C82.2514 30.0552 83.3661 31.0764 84.7287 31.183L86.9694 31.3583C90.318 31.6202 93.682 31.6202 97.0307 31.3583L99.2714 31.183C100.634 31.0764 101.749 30.0552 101.974 28.7071C102.495 25.5903 102.495 22.4087 101.974 19.292C101.749 17.9439 100.634 16.9227 99.2714 16.8161L97.0307 16.6408ZM87.0864 18.1363C90.3572 17.8804 93.6429 17.8804 96.9137 18.1363L99.1544 18.3116C99.83 18.3644 100.383 18.8708 100.494 19.5392C100.988 22.4923 100.988 25.5068 100.494 28.4599C100.383 29.1283 99.83 29.6347 99.1544 29.6875L96.9137 29.8628C93.6429 30.1187 90.3571 30.1187 87.0864 29.8628L84.8457 29.6875C84.1701 29.6347 83.6174 29.1283 83.5057 28.4599C83.0123 25.5068 83.0123 22.4923 83.5057 19.5392C83.6174 18.8708 84.1701 18.3644 84.8457 18.3116L87.0864 18.1363Z" fill="white"/>
<rect x="102" width="48" height="48" rx="24" fill="#FF7E07"/>
<path d="M121.965 18.2019C121.779 18.1748 121.59 18.212 121.428 18.3076H121.414C121.039 18.5275 120.701 18.8055 120.413 19.1312C120.173 19.4081 120.043 19.6883 120.009 19.958C119.989 20.1188 120.003 20.2796 120.05 20.4332L120.068 20.4437C120.337 21.2364 120.69 21.999 121.12 22.7169C121.675 23.7255 122.357 24.6583 123.151 25.4922L123.174 25.5263L123.212 25.5539L123.235 25.5814L123.263 25.6051C124.1 26.4008 125.035 27.0865 126.045 27.6453C127.2 28.274 127.901 28.5713 128.322 28.6947V28.7012C128.445 28.7387 128.557 28.7557 128.67 28.7557C129.029 28.7294 129.368 28.5839 129.634 28.3423C129.959 28.054 130.233 27.7146 130.448 27.3376V27.331C130.65 26.9517 130.581 26.5927 130.291 26.3499C129.708 25.841 129.079 25.389 128.41 25C127.963 24.7572 127.508 24.9042 127.324 25.1503L126.931 25.6457C126.729 25.8918 126.363 25.8577 126.363 25.8577L126.352 25.8643C123.622 25.1667 122.893 22.4019 122.893 22.4019C122.893 22.4019 122.859 22.0259 123.112 21.8342L123.604 21.4379C123.84 21.2462 124.004 20.7921 123.751 20.3439C123.365 19.6746 122.914 19.0449 122.404 18.4637C122.293 18.3267 122.137 18.2335 121.963 18.2006L121.965 18.2019Z" fill="white"/>
<path d="M126.579 17.0001C126.303 17.0001 126.079 17.2239 126.079 17.5001C126.079 17.7762 126.303 18.0001 126.579 18.0001C127.844 18.0001 128.894 18.4134 129.724 19.2048C130.152 19.6382 130.484 20.1512 130.703 20.7126C130.922 21.2761 131.022 21.877 130.996 22.4789C130.984 22.7547 131.199 22.9879 131.474 22.9996C131.75 23.0114 131.983 22.7972 131.995 22.5213C132.027 21.7809 131.904 21.0421 131.635 20.3501C131.366 19.6581 130.956 19.0275 130.431 18.4966L130.421 18.487C129.391 17.5019 128.085 17.0001 126.579 17.0001Z" fill="white"/>
<path d="M126.545 18.6444C126.269 18.6444 126.045 18.8683 126.045 19.1444C126.045 19.4206 126.269 19.6444 126.545 19.6444H126.562C127.474 19.7087 128.138 20.0129 128.603 20.5121C129.08 21.0263 129.327 21.6649 129.308 22.4551C129.302 22.7311 129.521 22.9601 129.797 22.9665C130.073 22.9729 130.302 22.7543 130.308 22.4782C130.332 21.4407 129.999 20.5461 129.336 19.8317L129.335 19.8308C128.659 19.1047 127.731 18.7206 126.612 18.6455L126.595 18.6444H126.545Z" fill="white"/>
<path d="M126.526 20.3188C126.251 20.3043 126.015 20.516 126.001 20.7918C125.986 21.0676 126.198 21.3029 126.474 21.3174C126.892 21.3394 127.159 21.465 127.327 21.6344C127.496 21.8046 127.622 22.0771 127.645 22.5043C127.659 22.7801 127.895 22.9916 128.171 22.9767C128.446 22.9619 128.658 22.7264 128.643 22.4506C128.611 21.8506 128.423 21.3201 128.038 20.9308C127.651 20.5407 127.124 20.3502 126.526 20.3188Z" fill="white"/>
<path fill-rule="evenodd" clip-rule="evenodd" d="M121.067 14.3836C124.249 13.6723 127.549 13.6723 130.731 14.3836L131.07 14.4594C132.967 14.8833 134.464 16.3382 134.942 18.222C135.749 21.4049 135.749 24.7391 134.942 27.9219C134.464 29.8058 132.967 31.2606 131.07 31.6846L130.731 31.7604C128.732 32.2072 126.687 32.3733 124.653 32.2588L122 34.6327C121.796 34.815 121.51 34.872 121.252 34.7815C120.994 34.691 120.805 34.4673 120.76 34.1976L120.321 31.5763C118.619 31.0473 117.299 29.6691 116.856 27.9219C116.048 24.7391 116.048 21.4049 116.856 18.222C117.334 16.3382 118.831 14.8833 120.728 14.4594L121.067 14.3836ZM130.404 15.8474C127.437 15.1843 124.361 15.1843 121.394 15.8474L121.055 15.9232C119.71 16.2238 118.649 17.2553 118.31 18.591C117.563 21.5317 117.563 24.6122 118.31 27.5529C118.649 28.8886 119.71 29.9201 121.055 30.2207L121.144 30.2407C121.442 30.3073 121.67 30.5478 121.721 30.8488L122.015 32.6068L123.887 30.9315C124.038 30.7962 124.238 30.7279 124.44 30.7423C126.434 30.8834 128.443 30.7348 130.404 30.2965L130.743 30.2207C132.087 29.9201 133.149 28.8886 133.488 27.5529C134.234 24.6122 134.234 21.5317 133.488 18.591C133.149 17.2553 132.087 16.2238 130.743 15.9232L130.404 15.8474Z" fill="white"/>
<rect x="136" width="48" height="48" rx="24" fill="#FF7E07"/>
<path d="M156.886 19.1699C157.069 19.1748 157.272 19.1846 157.465 19.613C157.593 19.8982 157.808 20.4232 157.984 20.8509C158.121 21.1837 158.233 21.4575 158.261 21.5136C158.325 21.6416 158.365 21.7893 158.281 21.9616C158.271 21.9819 158.262 22.0013 158.253 22.02C158.185 22.16 158.137 22.2597 158.024 22.3899C157.977 22.4435 157.928 22.5022 157.88 22.5607C157.795 22.6636 157.71 22.7658 157.638 22.838C157.509 22.9659 157.376 23.1039 157.524 23.3599C157.673 23.6159 158.192 24.4579 158.959 25.1373C159.783 25.8712 160.5 26.1805 160.862 26.3368C160.933 26.3672 160.989 26.3918 161.031 26.4126C161.289 26.5406 161.442 26.5209 161.59 26.3486C161.739 26.1762 162.233 25.6001 162.407 25.3441C162.575 25.0881 162.748 25.1275 162.985 25.2161C163.223 25.3047 164.489 25.9251 164.746 26.0531C164.797 26.0784 164.845 26.1012 164.889 26.1224C165.068 26.2082 165.189 26.2665 165.241 26.3535C165.305 26.4618 165.305 26.9739 165.093 27.5746C164.875 28.1752 163.826 28.7513 163.351 28.7956C163.306 28.7999 163.262 28.8053 163.216 28.8108C162.78 28.8635 162.228 28.9303 160.26 28.1555C157.834 27.2018 156.233 24.8354 155.91 24.357C155.884 24.3192 155.866 24.2932 155.857 24.2806L155.851 24.2733C155.704 24.0762 154.803 22.8707 154.803 21.6269C154.803 20.4368 155.39 19.8173 155.657 19.5347C155.674 19.5168 155.69 19.5002 155.704 19.4849C155.941 19.2289 156.218 19.1649 156.391 19.1649C156.564 19.1649 156.738 19.1649 156.886 19.1699Z" fill="white"/>
<path fill-rule="evenodd" clip-rule="evenodd" d="M150.184 33.3314C150.102 33.6284 150.373 33.9025 150.671 33.8247L155.278 32.6213C156.733 33.409 158.37 33.8275 160.037 33.8275H160.042C165.528 33.8275 170 29.3815 170 23.9163C170 21.2673 168.966 18.7759 167.086 16.9049C165.207 15.034 162.708 14 160.042 14C154.556 14 150.084 18.4461 150.084 23.9114C150.083 25.65 150.542 27.3582 151.415 28.8645L150.184 33.3314ZM152.861 29.2629C152.968 28.8752 152.914 28.4608 152.713 28.1127C151.973 26.8348 151.584 25.3855 151.584 23.9114C151.584 19.2816 155.377 15.5 160.042 15.5C162.312 15.5 164.43 16.377 166.028 17.9681C167.625 19.5574 168.5 21.6661 168.5 23.9163C168.5 28.5459 164.707 32.3275 160.042 32.3275H160.037C158.621 32.3275 157.229 31.9718 155.993 31.3023C155.658 31.1211 155.267 31.0738 154.899 31.17L152.137 31.8915L152.861 29.2629Z" fill="white"/>
</svg>
