<svg width="22" height="16" viewBox="0 0 22 16" fill="none" xmlns="http://www.w3.org/2000/svg">
<path d="M7.48095 11.8963C7.52613 11.939 7.57155 11.939 7.61722 11.8963C11.3862 8.37323 15.1698 4.83756 18.9682 1.28927C19.3547 0.928109 19.639 0.707602 19.8212 0.627752C21.0683 0.0818789 22.4421 1.39115 21.8638 2.55311C21.7759 2.73025 21.5773 2.96337 21.2679 3.25249C17.1886 7.06373 13.1098 10.8757 9.0315 14.6883C8.63275 15.0609 8.33222 15.2899 8.1299 15.3753C7.4257 15.6733 6.83863 15.4042 6.31786 14.9168C4.46211 13.1789 2.6049 11.4424 0.746205 9.70728C0.428975 9.41129 0.229847 9.18642 0.148821 9.03269C-0.476553 7.84457 0.992966 6.51534 2.25182 7.12592C2.40258 7.19888 2.61987 7.36661 2.90371 7.62911C4.38772 9.00079 5.91346 10.4232 7.48095 11.8963Z" fill="#161616"/>
</svg>
