<svg width="30" height="31" viewBox="0 0 30 31" fill="none" xmlns="http://www.w3.org/2000/svg">
<rect x="0.5" y="1" width="29" height="29" rx="4.5" fill="#E8E8E8"/>
<rect x="0.5" y="1" width="29" height="29" rx="4.5" stroke="#161616"/>
<path d="M12.1208 19.3768C12.1577 19.4138 12.1949 19.4138 12.2323 19.3768C15.316 16.3235 18.4117 13.2592 21.5195 10.184C21.8357 9.87103 22.0683 9.67992 22.2174 9.61072C23.2377 9.13763 24.3617 10.2723 23.8886 11.2794C23.8167 11.4329 23.6541 11.6349 23.401 11.8855C20.0634 15.1886 16.7262 18.4922 13.3894 21.7965C13.0632 22.1195 12.8173 22.3179 12.6517 22.3919C12.0756 22.6502 11.5952 22.417 11.1692 21.9946C9.65082 20.4884 8.13128 18.9834 6.61053 17.4796C6.35098 17.2231 6.18806 17.0282 6.12176 16.895C5.61009 15.8653 6.81243 14.7133 7.8424 15.2425C7.96574 15.3057 8.14353 15.4511 8.37576 15.6786C9.58995 16.8674 10.8383 18.1001 12.1208 19.3768Z" fill="#161616"/>
</svg>
