<svg width="180" height="22" viewBox="0 0 180 22" fill="none" xmlns="http://www.w3.org/2000/svg">
<path d="M60.8507 5.36022L56.5409 17.2887H53.2257L50.5515 9.88328L47.7888 17.2887H44.4736L40.186 5.36022H43.4349L46.2417 13.4308L49.1591 5.36022H52.0765L54.9054 13.4308L57.8007 5.36022H60.8507Z" fill="white"/>
<path d="M73.7771 11.3688C73.7771 11.4131 73.755 11.7235 73.7108 12.3H64.7156C64.8777 13.0391 65.2608 13.6229 65.8649 14.0516C66.469 14.4802 67.2204 14.6946 68.1192 14.6946C68.738 14.6946 69.2832 14.6059 69.7547 14.4285C70.2409 14.2364 70.6903 13.9407 71.1029 13.5416L72.9373 15.5371C71.8175 16.8231 70.182 17.4661 68.0308 17.4661C66.69 17.4661 65.5039 17.2074 64.4725 16.69C63.4411 16.1579 62.6455 15.4262 62.0856 14.495C61.5257 13.5638 61.2457 12.5069 61.2457 11.3244C61.2457 10.1567 61.5183 9.10726 62.0635 8.17604C62.6234 7.23004 63.3822 6.49837 64.3399 5.98103C65.3123 5.4489 66.3953 5.18284 67.5888 5.18284C68.7528 5.18284 69.8063 5.43412 70.7492 5.93669C71.6922 6.43925 72.4289 7.16353 72.9594 8.10953C73.5045 9.04075 73.7771 10.1272 73.7771 11.3688ZM67.6109 7.79912C66.83 7.79912 66.1743 8.02084 65.6439 8.46428C65.1134 8.90771 64.7893 9.51374 64.6714 10.2824H70.5282C70.4104 9.52853 70.0862 8.92989 69.5558 8.48645C69.0254 8.02823 68.377 7.79912 67.6109 7.79912Z" fill="white"/>
<path d="M83.1007 5.18284C84.2058 5.18284 85.2077 5.44151 86.1065 5.95886C87.02 6.46142 87.7346 7.17831 88.2503 8.10953C88.766 9.02596 89.0239 10.0976 89.0239 11.3244C89.0239 12.5513 88.766 13.6303 88.2503 14.5615C87.7346 15.478 87.02 16.1949 86.1065 16.7122C85.2077 17.2148 84.2058 17.4661 83.1007 17.4661C81.4653 17.4661 80.2202 16.9487 79.3656 15.914V17.2887H76.0725V0.837158H79.5203V6.62401C80.3897 5.66323 81.5831 5.18284 83.1007 5.18284ZM82.504 14.6281C83.3881 14.6281 84.11 14.3324 84.6699 13.7412C85.2446 13.1351 85.5319 12.3296 85.5319 11.3244C85.5319 10.3193 85.2446 9.52114 84.6699 8.92989C84.11 8.32386 83.3881 8.02084 82.504 8.02084C81.62 8.02084 80.8906 8.32386 80.316 8.92989C79.7561 9.52114 79.4761 10.3193 79.4761 11.3244C79.4761 12.3296 79.7561 13.1351 80.316 13.7412C80.8906 14.3324 81.62 14.6281 82.504 14.6281Z" fill="white"/>
<path d="M109.238 11.3688C109.238 11.4131 109.216 11.7235 109.172 12.3H100.177C100.339 13.0391 100.722 13.6229 101.326 14.0516C101.93 14.4802 102.682 14.6946 103.58 14.6946C104.199 14.6946 104.744 14.6059 105.216 14.4285C105.702 14.2364 106.152 13.9407 106.564 13.5416L108.399 15.5371C107.279 16.8231 105.643 17.4661 103.492 17.4661C102.151 17.4661 100.965 17.2074 99.9338 16.69C98.9024 16.1579 98.1067 15.4262 97.5468 14.495C96.9869 13.5638 96.707 12.5069 96.707 11.3244C96.707 10.1567 96.9796 9.10726 97.5247 8.17604C98.0846 7.23004 98.8435 6.49837 99.8012 5.98103C100.774 5.4489 101.857 5.18284 103.05 5.18284C104.214 5.18284 105.268 5.43412 106.211 5.93669C107.154 6.43925 107.89 7.16353 108.421 8.10953C108.966 9.04075 109.238 10.1272 109.238 11.3688ZM103.072 7.79912C102.291 7.79912 101.636 8.02084 101.105 8.46428C100.575 8.90771 100.251 9.51374 100.133 10.2824H105.99C105.872 9.52853 105.548 8.92989 105.017 8.48645C104.487 8.02823 103.838 7.79912 103.072 7.79912Z" fill="white"/>
<path d="M118.761 5.18284C120.234 5.18284 121.42 5.62628 122.319 6.51315C123.233 7.40003 123.69 8.71556 123.69 10.4597V17.2887H120.242V10.9919C120.242 10.0459 120.035 9.34376 119.623 8.88554C119.21 8.41254 118.614 8.17604 117.833 8.17604C116.963 8.17604 116.271 8.4495 115.755 8.9964C115.239 9.52853 114.982 10.3267 114.982 11.391V17.2887H111.534V5.36022H114.827V6.75704C115.284 6.25448 115.851 5.87017 116.529 5.60411C117.206 5.32326 117.951 5.18284 118.761 5.18284Z" fill="white"/>
<path d="M138.592 11.3688C138.592 11.4131 138.57 11.7235 138.525 12.3H129.53C129.692 13.0391 130.075 13.6229 130.679 14.0516C131.284 14.4802 132.035 14.6946 132.934 14.6946C133.553 14.6946 134.098 14.6059 134.569 14.4285C135.055 14.2364 135.505 13.9407 135.917 13.5416L137.752 15.5371C136.632 16.8231 134.997 17.4661 132.845 17.4661C131.505 17.4661 130.318 17.2074 129.287 16.69C128.256 16.1579 127.46 15.4262 126.9 14.495C126.34 13.5638 126.06 12.5069 126.06 11.3244C126.06 10.1567 126.333 9.10726 126.878 8.17604C127.438 7.23004 128.197 6.49837 129.154 5.98103C130.127 5.4489 131.21 5.18284 132.403 5.18284C133.567 5.18284 134.621 5.43412 135.564 5.93669C136.507 6.43925 137.243 7.16353 137.774 8.10953C138.319 9.04075 138.592 10.1272 138.592 11.3688ZM132.425 7.79912C131.644 7.79912 130.989 8.02084 130.458 8.46428C129.928 8.90771 129.604 9.51374 129.486 10.2824H135.343C135.225 9.52853 134.901 8.92989 134.37 8.48645C133.84 8.02823 133.192 7.79912 132.425 7.79912Z" fill="white"/>
<path d="M144.18 6.93442C144.593 6.35795 145.145 5.9219 145.838 5.62628C146.545 5.33066 147.355 5.18284 148.269 5.18284V8.37559C147.886 8.34603 147.628 8.33125 147.495 8.33125C146.508 8.33125 145.735 8.61209 145.175 9.17378C144.615 9.72068 144.335 10.5484 144.335 11.657V17.2887H140.887V5.36022H144.18V6.93442Z" fill="white"/>
<path d="M162.477 5.36022V15.2932C162.477 17.4808 161.91 19.1068 160.775 20.171C159.641 21.2353 157.983 21.7674 155.803 21.7674C154.653 21.7674 153.563 21.627 152.532 21.3461C151.5 21.0653 150.646 20.6588 149.968 20.1267L151.338 17.6434C151.839 18.0573 152.473 18.3825 153.239 18.619C154.005 18.8703 154.771 18.9959 155.537 18.9959C156.731 18.9959 157.608 18.7225 158.167 18.1756C158.742 17.6434 159.029 16.8305 159.029 15.7366V15.2267C158.131 16.217 156.878 16.7122 155.272 16.7122C154.182 16.7122 153.18 16.4757 152.266 16.0027C151.368 15.5149 150.653 14.835 150.123 13.9629C149.592 13.0908 149.327 12.0857 149.327 10.9475C149.327 9.80937 149.592 8.80425 150.123 7.93215C150.653 7.06006 151.368 6.38751 152.266 5.91451C153.18 5.42673 154.182 5.18284 155.272 5.18284C156.996 5.18284 158.307 5.75192 159.206 6.89008V5.36022H162.477ZM155.957 13.8742C156.871 13.8742 157.615 13.6081 158.19 13.076C158.779 12.5291 159.074 11.8196 159.074 10.9475C159.074 10.0754 158.779 9.37332 158.19 8.8412C157.615 8.29429 156.871 8.02084 155.957 8.02084C155.044 8.02084 154.292 8.29429 153.703 8.8412C153.114 9.37332 152.819 10.0754 152.819 10.9475C152.819 11.8196 153.114 12.5291 153.703 13.076C154.292 13.6081 155.044 13.8742 155.957 13.8742Z" fill="white"/>
<path d="M177.488 5.36022L172.118 18.0203C171.573 19.395 170.895 20.3632 170.084 20.9249C169.289 21.4865 168.324 21.7674 167.189 21.7674C166.57 21.7674 165.959 21.6713 165.355 21.4792C164.751 21.287 164.257 21.0209 163.874 20.681L165.134 18.2199C165.399 18.4564 165.701 18.6412 166.04 18.7742C166.393 18.9072 166.74 18.9737 167.079 18.9737C167.55 18.9737 167.933 18.8555 168.228 18.619C168.523 18.3973 168.788 18.0203 169.024 17.4882L169.068 17.3774L163.918 5.36022H167.476L170.814 13.4529L174.173 5.36022H177.488Z" fill="white"/>
<path d="M7.06845 1.95843C6.83339 1.28684 6.19957 0.837158 5.48804 0.837158H2.36051C1.20709 0.837158 0.399058 1.97606 0.780091 3.06472L6.28356 18.7889C6.51861 19.4605 7.15244 19.9102 7.86397 19.9102H10.9915C12.1449 19.9102 12.9529 18.7713 12.5719 17.6826L7.06845 1.95843Z" fill="url(#paint0_linear_14_983)"/>
<path d="M12.9567 1.96149L11.302 6.71874C11.1785 7.07391 11.1781 7.46033 11.3009 7.81574L13.2893 13.5694C13.6548 14.627 15.1491 14.631 15.5203 13.5754C15.8902 12.5235 17.3775 12.5226 17.7487 13.5741L19.5931 18.8C19.8294 19.4695 20.4621 19.9172 21.1721 19.9172H24.3331C25.4876 19.9172 26.2957 18.7764 25.9127 17.6873L20.3809 1.95611C20.1451 1.28572 19.5119 0.837158 18.8013 0.837158H14.5382C13.8255 0.837158 13.1909 1.28833 12.9567 1.96149Z" fill="url(#paint1_linear_14_983)"/>
<path d="M30.9076 0.837158H27.8089C27.1004 0.837158 26.4686 1.28307 26.2312 1.95063L24.5893 6.56839C24.4608 6.92997 24.4603 7.32474 24.588 7.68662L26.1588 12.1371C26.6853 13.629 28.7963 13.6258 29.3184 12.1323L32.4882 3.0641C32.8687 1.97555 32.0607 0.837158 30.9076 0.837158Z" fill="url(#paint2_linear_14_983)"/>
<path d="M17.6269 0.837158H14.4699C13.7571 0.837158 13.1225 1.28833 12.8884 1.96149L11.2357 6.71293C11.1109 7.07166 11.1118 7.46214 11.2382 7.82029L12.8141 12.2853C13.3403 13.7762 15.4496 13.7743 15.973 12.2824L19.2069 3.06596C19.5889 1.97707 18.7809 0.837158 17.6269 0.837158Z" fill="#FF7E07"/>
<defs>
<linearGradient id="paint0_linear_14_983" x1="13.4194" y1="19.8473" x2="6.7099" y2="0.837157" gradientUnits="userSpaceOnUse">
<stop stop-color="#FF7E07"/>
<stop offset="1" stop-color="#F8871F"/>
</linearGradient>
<linearGradient id="paint1_linear_14_983" x1="18.9041" y1="0.837158" x2="25.4388" y2="20.686" gradientUnits="userSpaceOnUse">
<stop stop-color="#E56E00"/>
<stop offset="1" stop-color="#FF7E07"/>
</linearGradient>
<linearGradient id="paint2_linear_14_983" x1="28.8287" y1="0.837158" x2="25.2992" y2="11.1809" gradientUnits="userSpaceOnUse">
<stop stop-color="#E56E00"/>
<stop offset="1" stop-color="#FF7E07"/>
</linearGradient>
</defs>
</svg>
