<svg width="68" height="68" viewBox="0 0 68 68" fill="none" xmlns="http://www.w3.org/2000/svg">
<circle cx="34" cy="34" r="34" fill="#3C3B3B"/>
<g clip-path="url(#clip0_201_769)">
<path d="M19.8258 14H19.9406C20.2818 14.0193 20.5823 14.1604 20.8422 14.4234C23.1641 16.7693 25.4826 19.1185 27.7977 21.4711C28.0221 21.6997 28.1349 21.9766 28.1359 22.3016C28.1385 23.6802 28.1404 25.0615 28.1414 26.4453C28.1414 26.4577 28.1439 26.47 28.1487 26.4815C28.1535 26.4931 28.1606 26.5036 28.1695 26.5125C30.2846 28.6302 32.401 30.7471 34.5188 32.8633C34.8151 33.1596 35.0008 33.3927 35.0758 33.5625C35.4688 34.4555 34.5477 35.4516 33.6242 35.1023C33.4352 35.031 33.1596 34.8143 32.7977 34.4523C30.7133 32.3685 28.6354 30.2911 26.5641 28.2203C26.5145 28.1708 26.4474 28.143 26.3773 28.143C25.0279 28.1404 23.6625 28.1344 22.2812 28.125C21.9474 28.1224 21.6555 27.9964 21.4055 27.7469C19.0648 25.4068 16.7245 23.0661 14.3844 20.725C14.1432 20.4839 14.0151 20.1927 14 19.8516V19.7273C14.0995 19.2716 14.3263 18.9646 14.6805 18.8063C14.8607 18.7255 15.207 18.6857 15.7195 18.6867C16.7029 18.6888 17.6872 18.6891 18.6727 18.6875C18.7346 18.687 18.7656 18.6557 18.7656 18.5938C18.7651 17.6406 18.7648 16.6839 18.7648 15.7234C18.7643 15.2068 18.8047 14.8578 18.8859 14.6766C19.0469 14.3182 19.3602 14.0927 19.8258 14Z" fill="#FE964A"/>
<path d="M33.6875 14H34.3781C40.5789 14.1609 46.3023 17.1148 49.9867 22.0352C52.5419 25.4466 53.8797 29.3125 54 33.6328V34.3789C53.8383 40.6109 50.8547 46.3617 45.8867 50.0453C42.4904 52.563 38.65 53.8812 34.3656 54H33.6227C27.3656 53.8406 21.5906 50.8266 17.9125 45.8305C15.4234 42.4492 14.1193 38.6276 14 34.3656V33.6773C14.0891 30.8695 14.7385 28.1951 15.9484 25.6539C15.9583 25.6326 15.9719 25.6302 15.9891 25.6469L19.5203 29.1781C19.5391 29.1969 19.5448 29.2195 19.5375 29.2461C19.3961 29.7391 19.2336 30.2602 19.1336 30.7234C17.7461 37.1398 20.5328 43.5883 26.0977 47.0055C30.8906 49.9492 37.1039 49.9773 41.9023 47.0055C48.5438 42.8922 51.0734 34.6844 47.7914 27.5609C46.1312 23.9578 42.957 21.0492 39.2258 19.7016C35.9503 18.5177 32.6234 18.4633 29.2453 19.5383C29.2342 19.5418 29.2224 19.5422 29.2109 19.5395C29.1995 19.5367 29.189 19.5309 29.1805 19.5227L25.6547 15.9969C25.6328 15.975 25.6359 15.9573 25.6641 15.9437C28.2052 14.7349 30.8797 14.087 33.6875 14Z" fill="#FE964A"/>
<path d="M39.0219 37.0075C41.5016 32.8419 38.0977 27.5106 33.2274 28.2129C33.2034 28.2166 33.1826 28.2098 33.1649 28.1926L30.5055 25.534C30.4915 25.52 30.4836 25.5012 30.4836 25.4817V24.1403C30.4836 24.1205 30.493 24.1075 30.5117 24.1012C33.0925 23.184 35.6021 23.2374 38.0406 24.2614C43.1336 26.4004 45.7148 32.0293 44.0055 37.3067C43.0031 40.3997 40.4859 42.9395 37.4039 43.9723C35.1716 44.7202 32.9349 44.7309 30.6938 44.0044C27.5969 43.0004 25.0883 40.5059 24.0344 37.4301C23.2531 35.1499 23.2716 32.8463 24.0898 30.5192C24.0982 30.4958 24.1148 30.484 24.1398 30.484H25.4813C25.5026 30.484 25.5211 30.4916 25.5367 30.5067L28.1922 33.1645C28.2099 33.1817 28.2169 33.2028 28.2133 33.2278C27.8734 35.5723 29.0227 37.8622 31.0328 39.045C33.8094 40.677 37.3883 39.752 39.0219 37.0075Z" fill="#FE964A"/>
</g>
<defs>
<clipPath id="clip0_201_769">
<rect width="40" height="40" fill="white" transform="translate(14 14)"/>
</clipPath>
</defs>
</svg>
