<svg width="68" height="68" viewBox="0 0 68 68" fill="none" xmlns="http://www.w3.org/2000/svg">
<circle cx="34" cy="34" r="34" fill="#3C3B3B"/>
<path d="M50.1217 17.8994H17.8786C16.6252 17.8994 15.6092 18.9155 15.6092 20.1689V20.2282C15.6092 21.4815 16.6252 22.4976 17.8786 22.4976H50.1217C51.3751 22.4976 52.3912 21.4815 52.3912 20.2282V20.1689C52.3912 18.9155 51.3751 17.8994 50.1217 17.8994Z" fill="#FE964A"/>
<path d="M40.9298 27.1035H17.8669C16.62 27.1035 15.6092 28.1144 15.6092 29.3613V29.4404C15.6092 30.6873 16.62 31.6981 17.8669 31.6981H40.9298C42.1768 31.6981 43.1876 30.6873 43.1876 29.4404V29.3613C43.1876 28.1144 42.1768 27.1035 40.9298 27.1035Z" fill="#FE964A"/>
<path d="M50.1217 36.2969H17.8786C16.6252 36.2969 15.6092 37.3129 15.6092 38.5663V38.6274C15.6092 39.8808 16.6252 40.8969 17.8786 40.8969H50.1217C51.3751 40.8969 52.3912 39.8808 52.3912 38.6274V38.5663C52.3912 37.3129 51.3751 36.2969 50.1217 36.2969Z" fill="#FE964A"/>
<path d="M40.921 45.4812L17.8689 45.5214C16.621 45.5236 15.6111 46.537 15.6133 47.785L15.6135 47.8658C15.6156 49.1137 16.629 50.1236 17.877 50.1214L40.929 50.0812C42.177 50.079 43.1868 49.0656 43.1847 47.8177L43.1845 47.7368C43.1823 46.4889 42.1689 45.479 40.921 45.4812Z" fill="#FE964A"/>
</svg>
