<svg width="68" height="68" viewBox="0 0 68 68" fill="none" xmlns="http://www.w3.org/2000/svg">
<circle cx="34" cy="34" r="34" fill="#3C3B3B"/>
<path d="M18.8125 14H49.1961C50.9016 14.1234 52.3203 15.3063 52.6609 16.975C52.7208 17.2719 52.7508 17.7906 52.7508 18.5312C52.7497 26.1745 52.7487 33.8177 52.7477 41.4609C52.7469 43.2414 51.5438 44.7836 49.7945 45.1562C49.4982 45.2193 48.9797 45.2508 48.2391 45.2508C38.512 45.2497 28.7852 45.25 19.0586 45.2516C17.2922 45.2516 15.7555 44.0828 15.357 42.3516C15.2852 42.0385 15.2492 41.5206 15.2492 40.7977C15.2503 33.1148 15.2505 25.4323 15.25 17.75C15.2492 15.7141 16.7953 14.182 18.8125 14ZM48.993 22.0961C48.993 21.7729 48.8646 21.4629 48.636 21.2343C48.4074 21.0057 48.0975 20.8773 47.7742 20.8773H38.9758C38.6526 20.8773 38.3426 21.0057 38.114 21.2343C37.8854 21.4629 37.757 21.7729 37.757 22.0961V22.1539C37.757 22.4771 37.8854 22.7871 38.114 23.0157C38.3426 23.2443 38.6526 23.3727 38.9758 23.3727H47.7742C48.0975 23.3727 48.4074 23.2443 48.636 23.0157C48.8646 22.7871 48.993 22.4771 48.993 22.1539V22.0961ZM25.2055 24.818C24.7872 24.9279 24.3919 25.0927 24.0195 25.3125C23.9935 25.3281 23.9695 25.3253 23.9477 25.3039C23.6893 25.0477 23.4318 24.7906 23.175 24.5328C22.925 24.2823 22.7341 24.124 22.6023 24.0578C21.6086 23.5586 20.4898 24.6367 20.8953 25.6336C21.082 26.0922 21.7672 26.657 22.1773 27.0703C22.1992 27.0922 22.2023 27.1164 22.1867 27.143C21.968 27.518 21.8029 27.9154 21.6914 28.3352C21.6885 28.3459 21.6822 28.3555 21.6733 28.3624C21.6644 28.3693 21.6535 28.3732 21.6422 28.3734C21.2688 28.376 20.8953 28.3771 20.5219 28.3766C20.1823 28.3766 19.9396 28.4042 19.7938 28.4594C18.732 28.8617 18.7508 30.3734 19.7969 30.7859C19.9422 30.8432 20.1576 30.8724 20.443 30.8734C20.8393 30.875 21.2378 30.8755 21.6383 30.875C21.6664 30.875 21.6841 30.8885 21.6914 30.9156C21.8034 31.3344 21.9682 31.731 22.1859 32.1055C22.2005 32.1305 22.1977 32.1534 22.1773 32.1742C21.8456 32.5143 21.5143 32.8544 21.1836 33.1945C20.2523 34.1539 21.2914 35.7078 22.5 35.2305C22.9781 35.0422 23.5422 34.3508 23.9469 33.9461C23.9562 33.9367 23.9684 33.9307 23.9814 33.929C23.9944 33.9273 24.0075 33.93 24.0188 33.9367C24.3927 34.1565 24.7893 34.3219 25.2086 34.4328C25.2341 34.4396 25.2471 34.4562 25.2477 34.4828C25.2563 35.0391 25.1648 35.8406 25.3375 36.3125C25.725 37.3664 27.2391 37.4039 27.6539 36.3375C27.8352 35.8727 27.7453 35.0523 27.7516 34.4859C27.7521 34.4583 27.7656 34.4409 27.7922 34.4336C28.2094 34.3201 28.6055 34.1557 28.9805 33.9406C29.006 33.926 29.0294 33.9289 29.0508 33.9492C29.3867 34.2773 29.7229 34.6052 30.0594 34.9328C31.2547 36.0961 32.9727 34.3438 31.7836 33.1492C31.4633 32.8273 31.1427 32.5026 30.8219 32.175C30.8016 32.1542 30.7987 32.1313 30.8133 32.1062C31.031 31.7312 31.1961 31.3341 31.3086 30.9148C31.3164 30.8878 31.3344 30.8742 31.3625 30.8742C31.7516 30.8763 32.1406 30.8758 32.5297 30.8727C32.8625 30.8706 33.1089 30.8341 33.2688 30.7633C34.2563 30.3258 34.2305 28.8398 33.207 28.4586C33.0591 28.4034 32.8161 28.376 32.4781 28.3766C32.1057 28.3776 31.732 28.3763 31.357 28.3727C31.3458 28.3727 31.335 28.369 31.3262 28.3622C31.3174 28.3554 31.3112 28.3459 31.3086 28.3352C31.1971 27.9159 31.0323 27.5188 30.8141 27.1438C30.7979 27.1172 30.801 27.0927 30.8234 27.0703C31.1401 26.75 31.4591 26.4323 31.7805 26.1172C33.0055 24.9148 31.225 23.093 29.968 24.3836C29.668 24.6914 29.3633 24.9974 29.0539 25.3016C29.0326 25.3229 29.0086 25.3258 28.982 25.3102C28.6076 25.0935 28.2115 24.9292 27.7938 24.8172C27.7667 24.8099 27.7531 24.7924 27.7531 24.7648C27.749 24.3018 27.7448 23.8385 27.7406 23.375C27.7297 22.0164 25.8672 21.6422 25.3531 22.8836C25.2844 23.0503 25.2503 23.3172 25.2508 23.6844C25.2518 24.0437 25.251 24.4031 25.2484 24.7625C25.2484 24.7922 25.2341 24.8107 25.2055 24.818ZM48.993 27.0961C48.993 26.7729 48.8646 26.4629 48.636 26.2343C48.4074 26.0057 48.0975 25.8773 47.7742 25.8773H38.9758C38.6526 25.8773 38.3426 26.0057 38.114 26.2343C37.8854 26.4629 37.757 26.7729 37.757 27.0961V27.1539C37.757 27.4771 37.8854 27.7871 38.114 28.0157C38.3426 28.2443 38.6526 28.3727 38.9758 28.3727H47.7742C48.0975 28.3727 48.4074 28.2443 48.636 28.0157C48.8646 27.7871 48.993 27.4771 48.993 27.1539V27.0961ZM48.993 32.0961C48.993 31.7729 48.8646 31.4629 48.636 31.2343C48.4074 31.0057 48.0975 30.8773 47.7742 30.8773H38.9758C38.6526 30.8773 38.3426 31.0057 38.114 31.2343C37.8854 31.4629 37.757 31.7729 37.757 32.0961V32.1539C37.757 32.4771 37.8854 32.7871 38.114 33.0157C38.3426 33.2443 38.6526 33.3727 38.9758 33.3727H47.7742C48.0975 33.3727 48.4074 33.2443 48.636 33.0157C48.8646 32.7871 48.993 32.4771 48.993 32.1539V32.0961ZM48.993 37.0961C48.993 36.7729 48.8646 36.4629 48.636 36.2343C48.4074 36.0057 48.0975 35.8773 47.7742 35.8773H38.9758C38.6526 35.8773 38.3426 36.0057 38.114 36.2343C37.8854 36.4629 37.757 36.7729 37.757 37.0961V37.1539C37.757 37.4771 37.8854 37.7871 38.114 38.0157C38.3426 38.2443 38.6526 38.3727 38.9758 38.3727H47.7742C48.0975 38.3727 48.4074 38.2443 48.636 38.0157C48.8646 37.7871 48.993 37.4771 48.993 37.1539V37.0961Z" fill="#FE964A"/>
<path d="M26.5 32.1229C27.8798 32.1229 28.9984 31.0043 28.9984 29.6244C28.9984 28.2446 27.8798 27.126 26.5 27.126C25.1201 27.126 24.0016 28.2446 24.0016 29.6244C24.0016 31.0043 25.1201 32.1229 26.5 32.1229Z" fill="#FE964A"/>
<path d="M41.6359 54H26.3445C25.9591 53.9234 25.6677 53.7406 25.4703 53.4516C25.0219 52.7938 25.2953 51.868 26.0453 51.5836C26.1875 51.5299 26.4159 51.5023 26.7305 51.5008C27.2206 51.4992 27.7099 51.4992 28.1984 51.5008C28.2086 51.5008 28.2185 51.4979 28.227 51.4925C28.2356 51.4871 28.2425 51.4794 28.2469 51.4703C28.7963 50.3052 29.1333 49.081 29.2578 47.7977C29.2609 47.7659 29.2784 47.75 29.3102 47.75H38.7047C38.7137 47.75 38.7224 47.7533 38.729 47.7594C38.7357 47.7655 38.7398 47.7738 38.7406 47.7828C38.8625 49.0688 39.1984 50.2948 39.7484 51.4609C39.7604 51.4859 39.7802 51.4987 39.8078 51.4992C40.2547 51.5013 40.7 51.5018 41.1437 51.5008C41.8531 51.4992 42.3523 51.6031 42.6445 52.25C42.9953 53.025 42.4742 53.8617 41.6359 54Z" fill="#FE964A"/>
</svg>
