<svg width="68" height="68" viewBox="0 0 68 68" fill="none" xmlns="http://www.w3.org/2000/svg">
<circle cx="34" cy="34" r="34" fill="#3C3B3B"/>
<g clip-path="url(#clip0_201_797)">
<path d="M14.5599 18.7014C14.5703 16.7448 15.9305 15.0911 17.7977 14.671C18.1426 14.5935 18.7185 14.5547 19.5252 14.5547C29.4355 14.5558 39.3458 14.5579 49.2561 14.5608C51.2292 14.5608 52.9253 15.9045 53.3394 17.8385C53.4117 18.1759 53.4476 18.7526 53.447 19.5686C53.4465 20.6612 53.445 21.7538 53.4427 22.8464C53.4427 22.8747 53.4285 22.8889 53.4002 22.8889H14.5998C14.5726 22.8889 14.559 22.8753 14.559 22.8481C14.5515 21.4604 14.5518 20.0781 14.5599 18.7014ZM42.3307 18.7214C42.3307 18.3535 42.1846 18.0006 41.9244 17.7405C41.6643 17.4803 41.3115 17.3342 40.9436 17.3342C40.5757 17.3342 40.2228 17.4803 39.9627 17.7405C39.7026 18.0006 39.5564 18.3535 39.5564 18.7214C39.5564 18.9035 39.5923 19.0839 39.662 19.2522C39.7317 19.4205 39.8339 19.5734 39.9627 19.7022C40.0915 19.831 40.2444 19.9332 40.4127 20.0029C40.581 20.0726 40.7614 20.1085 40.9436 20.1085C41.1257 20.1085 41.3061 20.0726 41.4744 20.0029C41.6427 19.9332 41.7956 19.831 41.9244 19.7022C42.0532 19.5734 42.1554 19.4205 42.2251 19.2522C42.2948 19.0839 42.3307 18.9035 42.3307 18.7214ZM47.8863 18.7214C47.8863 18.5392 47.8504 18.3588 47.7807 18.1905C47.711 18.0222 47.6088 17.8693 47.48 17.7405C47.3512 17.6117 47.1983 17.5095 47.03 17.4398C46.8617 17.3701 46.6813 17.3342 46.4991 17.3342C46.1312 17.3342 45.7784 17.4803 45.5183 17.7405C45.2581 18.0006 45.112 18.3535 45.112 18.7214C45.112 18.9035 45.1479 19.0839 45.2176 19.2522C45.2873 19.4205 45.3895 19.5734 45.5183 19.7022C45.6471 19.831 45.8 19.9332 45.9683 20.0029C46.1366 20.0726 46.317 20.1085 46.4991 20.1085C46.6813 20.1085 46.8617 20.0726 47.03 20.0029C47.1983 19.9332 47.3512 19.831 47.48 19.7022C47.6088 19.5734 47.711 19.4205 47.7807 19.2522C47.8504 19.0839 47.8863 18.9035 47.8863 18.7214Z" fill="#FE964A"/>
<path d="M53.3429 50.1392C52.954 52.0342 51.276 53.4326 49.2995 53.4344C39.1288 53.4413 28.958 53.4456 18.7873 53.4474C16.4549 53.4474 14.5538 51.6123 14.5547 49.2564C14.5558 41.4294 14.5561 33.5912 14.5556 25.7416C14.5556 25.7218 14.5633 25.7029 14.5772 25.6889C14.591 25.6749 14.6098 25.667 14.6293 25.667H53.3993C53.43 25.667 53.4453 25.6823 53.4453 25.713C53.4436 33.2709 53.4439 40.8366 53.4462 48.41C53.4462 49.2278 53.4117 49.8041 53.3429 50.1392ZM30.7205 33.0064C24.6181 34.5012 20.2387 39.9222 20.1163 46.2278C20.11 46.579 20.1418 46.8435 20.2118 47.0212C20.6788 48.1991 22.3802 48.1566 22.803 46.9682C22.8521 46.8293 22.8819 46.5863 22.8924 46.239C23.0425 41.0377 26.7517 36.5706 31.8967 35.5923C38.6762 34.3033 44.9288 39.3831 45.1094 46.2651C45.1192 46.6337 45.1568 46.8947 45.2222 47.0481C45.7196 48.2069 47.3958 48.1444 47.8082 46.9561C47.8678 46.7836 47.8932 46.5345 47.8845 46.2087C47.6536 37.3666 39.3637 30.8901 30.7205 33.0064ZM33.2535 42.3988C32.5093 41.6569 31.7656 40.9141 31.0226 40.1705C30.7546 39.9031 30.5373 39.7327 30.3707 39.6592C29.2344 39.1574 28.0556 40.4005 28.5495 41.4838C28.6299 41.6603 28.8643 41.9419 29.2526 42.3285C29.9308 43.0026 30.6056 43.678 31.2769 44.3545C31.2972 44.3747 31.3047 44.3991 31.2995 44.4274C31.0859 45.6213 31.3993 46.5611 32.2396 47.2469C34.1675 48.8215 36.9913 47.292 36.7665 44.8311C36.7271 44.3953 36.5943 44.0035 36.3681 43.6557C35.6667 42.5753 34.6525 42.1638 33.3255 42.4213C33.2977 42.4265 33.2737 42.419 33.2535 42.3988Z" fill="#FE964A"/>
</g>
<defs>
<clipPath id="clip0_201_797">
<rect width="40" height="40" fill="white" transform="translate(14 14)"/>
</clipPath>
</defs>
</svg>
