<svg width="32" height="24" viewBox="0 0 32 24" fill="none" xmlns="http://www.w3.org/2000/svg">
<path d="M10.6093 17.8183C10.6734 17.882 10.7378 17.882 10.8026 17.8183C16.1477 12.5572 21.5136 7.27723 26.9004 1.97845C27.4485 1.43911 27.8517 1.10982 28.1101 0.990581C29.8787 0.175411 31.8269 2.13059 31.0069 3.86578C30.8822 4.13031 30.6005 4.47844 30.1618 4.91019C24.3766 10.6016 18.5921 16.2941 12.8083 21.9877C12.2428 22.5441 11.8166 22.8861 11.5297 23.0136C10.531 23.4587 9.69843 23.0567 8.95987 22.3289C6.32809 19.7337 3.69422 17.1405 1.05825 14.5493C0.608365 14.1073 0.325965 13.7715 0.211056 13.5419C-0.675839 11.7677 1.40821 9.78271 3.19349 10.6945C3.40729 10.8035 3.71546 11.0539 4.11799 11.4459C6.22258 13.4943 8.38636 15.6184 10.6093 17.8183Z" fill="#E8E8E8"/>
</svg>
