<svg width="71" height="15" viewBox="0 0 71 15" fill="none" xmlns="http://www.w3.org/2000/svg">
<path d="M1 6.5C0.447715 6.5 0 6.94772 0 7.5C0 8.05228 0.447715 8.5 1 8.5V6.5ZM70.7071 8.20711C71.0976 7.81658 71.0976 7.18342 70.7071 6.79289L64.3431 0.428932C63.9526 0.0384078 63.3195 0.0384078 62.9289 0.428932C62.5384 0.819457 62.5384 1.45262 62.9289 1.84315L68.5858 7.5L62.9289 13.1569C62.5384 13.5474 62.5384 14.1805 62.9289 14.5711C63.3195 14.9616 63.9526 14.9616 64.3431 14.5711L70.7071 8.20711ZM1 8.5H70V6.5H1V8.5Z" fill="#FD6C03"/>
</svg>
