<svg width="198" height="80" viewBox="0 0 198 80" fill="none" xmlns="http://www.w3.org/2000/svg">
<g clip-path="url(#clip0_231_362)">
<path d="M15.3645 1.44872C13.1887 1.44872 11.158 2.51111 9.27233 4.63589C7.43502 6.71239 5.96033 9.75468 4.84828 13.7628H3.7604C3.80874 13.0384 3.85711 12.2899 3.90545 11.5173C3.95381 10.8412 4.00215 10.1169 4.05049 9.34422C4.09885 8.52329 4.12304 7.70233 4.12304 6.88141C4.12304 6.15704 4.09885 5.43269 4.05049 4.70832C4.00215 3.93568 3.95381 3.21133 3.90545 2.53526C3.85711 1.8109 3.80874 1.08654 3.7604 0.362179H4.84828C5.57354 0.555343 6.25044 0.989957 6.879 1.66602C7.5559 2.29379 8.08776 2.96988 8.47455 3.69423C9.05475 3.01816 9.73167 2.41453 10.5053 1.88333C11.1822 1.40043 11.9799 0.965812 12.8986 0.579488C13.8173 0.193163 14.881 0 16.0897 0C18.1688 0 20.2237 0.555343 22.2543 1.66602C24.2852 2.72841 26.0982 4.37029 27.6937 6.59165C29.3377 8.76473 30.6431 11.5173 31.6101 14.8493C32.6254 18.1331 33.1333 21.9963 33.1333 26.4391C33.1333 30.8817 32.6254 34.7693 31.6101 38.1012C30.6431 41.3851 29.3134 44.1375 27.6212 46.3589C25.9774 48.5321 24.0916 50.1738 21.9643 51.2845C19.8369 52.347 17.6369 52.8783 15.3645 52.8783C13.6238 52.8783 11.9799 52.5159 10.4327 51.7916C8.88552 51.0672 7.50754 50.0532 6.29878 48.7494C5.13839 47.3972 4.17138 45.8277 3.39777 44.0411C2.62417 42.2061 2.14067 40.2019 1.94727 38.0288H3.03514C3.22855 39.8638 3.68788 41.6024 4.41312 43.2441C5.13839 44.8378 6.03285 46.2383 7.09657 47.4454C8.16028 48.6528 9.34486 49.6186 10.6503 50.3429C11.9558 51.0672 13.2854 51.4294 14.6392 51.4294C16.1864 51.4294 17.6611 51.043 19.0633 50.2705C20.4654 49.4977 21.6984 48.1697 22.762 46.2865C23.8258 44.3548 24.6718 41.7955 25.3005 38.6082C25.9289 35.3728 26.2433 31.3163 26.2433 26.4391H18.2655L15.0018 32.9583H14.2766V18.4711H15.0018L18.2655 24.9903H26.2433C26.1465 20.3545 25.7839 16.5395 25.1554 13.5455C24.5268 10.5032 23.705 8.08867 22.6895 6.30192C21.7225 4.51518 20.5863 3.25961 19.2808 2.53526C18.0237 1.8109 16.7183 1.44872 15.3645 1.44872Z" fill="white"/>
<path d="M48.7431 10.5032C48.7431 12.4831 49.3235 14.1974 50.4838 15.6461C51.6442 17.0466 53.0946 18.3504 54.8354 19.5577C56.5759 20.765 58.4617 21.9481 60.4923 23.107C62.5714 24.2659 64.4812 25.5939 66.2217 27.091C67.9625 28.5397 69.4129 30.2541 70.5733 32.2339C71.7336 34.2138 72.314 36.6283 72.314 39.4776C72.314 41.3609 71.9754 43.1235 71.2985 44.7654C70.6218 46.4071 69.6547 47.8318 68.3976 49.0391C67.1888 50.2463 65.7383 51.1879 64.0461 51.864C62.3538 52.5401 60.5165 52.8783 58.5342 52.8783C56.6969 52.8783 55.1254 52.685 53.82 52.2986C52.5144 51.9606 51.4266 51.5503 50.5563 51.0672C49.541 50.536 48.6948 49.9325 48.0179 49.2564C47.6312 49.9808 47.0993 50.6569 46.4224 51.2845C45.7939 51.9124 45.117 52.3228 44.3918 52.5159H43.3037C43.3522 51.84 43.4005 51.1155 43.4488 50.3429C43.4972 49.715 43.5455 49.0149 43.5938 48.2422C43.6423 47.4696 43.6663 46.7211 43.6663 45.9968C43.6663 45.1758 43.6423 44.379 43.5938 43.6063C43.5455 42.7855 43.4972 42.037 43.4488 41.3609C43.4005 40.5883 43.3522 39.8398 43.3037 39.1152H44.3918C45.5036 43.1235 47.0993 46.1898 49.1784 48.3148C51.3058 50.3911 54.1827 51.4294 57.8088 51.4294C60.7099 51.4294 63.0548 50.512 64.8438 48.677C66.6811 46.7935 67.5999 44.2099 67.5999 40.9263C67.5999 38.9464 67.0195 37.2562 65.8591 35.8558C64.6988 34.4069 63.2483 33.0791 61.5076 31.8718C59.7671 30.6644 57.8572 29.4813 55.7781 28.3224C53.7475 27.1635 51.8617 25.8597 50.1212 24.4108C48.3805 22.9139 46.93 21.1754 45.7697 19.1955C44.6093 17.2156 44.0289 14.8011 44.0289 11.9519C44.0289 10.31 44.3433 8.76474 44.9719 7.31602C45.6004 5.86731 46.4706 4.61174 47.5827 3.54936C48.6948 2.43868 50.0002 1.56945 51.4991 0.941667C52.9981 0.31389 54.6178 0 56.3583 0C57.8088 0 59.0901 0.193163 60.2022 0.579488C61.3143 0.965812 62.2571 1.37628 63.0308 1.8109C63.901 2.3421 64.6988 2.94573 65.424 3.62179C65.8109 2.89743 66.3185 2.22136 66.947 1.59359C67.6239 0.965812 68.3251 0.555343 69.0503 0.362179H70.1381C70.0414 1.08654 69.9689 1.8109 69.9206 2.53526C69.8723 3.21133 69.8238 3.93568 69.7755 4.70832C69.7755 5.43269 69.7755 6.15704 69.7755 6.88141C69.7755 7.70233 69.7755 8.52329 69.7755 9.34422C69.8238 10.1169 69.8723 10.8412 69.9206 11.5173C69.9689 12.2899 70.0414 13.0384 70.1381 13.7628H69.0503C67.9382 9.75468 66.391 6.71239 64.4087 4.63589C62.4263 2.51111 59.9846 1.44872 57.0835 1.44872C54.7143 1.44872 52.732 2.26966 51.1365 3.91155C49.541 5.55341 48.7431 7.75064 48.7431 10.5032Z" fill="white"/>
<path d="M99.5167 49.9806L103.868 51.0671V51.7915H89.0004V51.0671L93.3519 49.9806V2.53515H85.7369C85.7369 4.56335 85.3258 6.44668 84.5038 8.18514C83.682 9.92358 82.6425 11.4206 81.3854 12.6762H80.6602C80.7084 12.0484 80.7567 11.3964 80.8052 10.7204C80.8535 10.1409 80.9017 9.53727 80.9502 8.90949C80.9985 8.23342 81.0228 7.55736 81.0228 6.88129C81.0228 5.96378 80.9985 5.16698 80.9502 4.49091C80.9017 3.76655 80.8535 3.13876 80.8052 2.60758C80.7567 2.02809 80.7084 1.52104 80.6602 1.08643H112.209C112.112 1.52104 112.039 2.02809 111.991 2.60758C111.943 3.13876 111.894 3.76655 111.846 4.49091C111.846 5.16698 111.846 5.96378 111.846 6.88129C111.846 7.55736 111.846 8.23342 111.846 8.90949C111.894 9.53727 111.943 10.1409 111.991 10.7204C112.039 11.3964 112.112 12.0484 112.209 12.6762H111.483C110.226 11.4206 109.187 9.92358 108.365 8.18514C107.543 6.44668 107.132 4.56335 107.132 2.53515H99.5167V49.9806Z" fill="white"/>
<path d="M147.392 50.3428C147.392 48.3147 147.803 46.4312 148.625 44.6929C149.447 42.9543 150.486 41.4574 151.743 40.2018H152.469C152.372 40.8295 152.299 41.4814 152.251 42.1575C152.203 42.737 152.154 43.3649 152.106 44.041C152.106 44.7169 152.106 45.369 152.106 45.9966C152.106 46.9143 152.106 47.735 152.106 48.4596C152.154 49.1355 152.203 49.7391 152.251 50.2704C152.299 50.8498 152.372 51.3569 152.469 51.7915H122.371V51.0671L126.722 49.9806V2.89731L122.371 1.81078V1.08643H151.743C151.647 1.52104 151.574 2.02809 151.526 2.60758C151.477 3.13876 151.429 3.76655 151.381 4.49091C151.381 5.16698 151.381 5.96378 151.381 6.88129C151.381 7.55736 151.381 8.23342 151.381 8.90949C151.429 9.53727 151.477 10.1409 151.526 10.7204C151.574 11.3964 151.647 12.0484 151.743 12.6762H151.018C149.761 11.4206 148.721 9.92358 147.899 8.18514C147.078 6.44668 146.667 4.56335 146.667 2.53515H132.887V24.2658H139.777L143.04 17.7467H143.766V32.2338H143.04L139.777 25.7147H132.887V50.3428H147.392Z" fill="white"/>
<path d="M181.47 49.9806L185.822 51.0671V51.7915H170.954V51.0671L175.306 49.9806V2.53515H167.691C167.691 4.56335 167.28 6.44668 166.458 8.18514C165.636 9.92358 164.596 11.4206 163.339 12.6762H162.614C162.662 12.0484 162.711 11.3964 162.759 10.7204C162.807 10.1409 162.856 9.53727 162.904 8.90949C162.952 8.23342 162.976 7.55736 162.976 6.88129C162.976 5.96378 162.952 5.16698 162.904 4.49091C162.856 3.76655 162.807 3.13876 162.759 2.60758C162.711 2.02809 162.662 1.52104 162.614 1.08643H194.162C194.066 1.52104 193.993 2.02809 193.945 2.60758C193.896 3.13876 193.848 3.76655 193.8 4.49091C193.8 5.16698 193.8 5.96378 193.8 6.88129C193.8 7.55736 193.8 8.23342 193.8 8.90949C193.848 9.53727 193.896 10.1409 193.945 10.7204C193.993 11.3964 194.066 12.0484 194.162 12.6762H193.437C192.18 11.4206 191.14 9.92358 190.318 8.18514C189.496 6.44668 189.086 4.56335 189.086 2.53515H181.47V49.9806Z" fill="white"/>
<path fill-rule="evenodd" clip-rule="evenodd" d="M79.6013 78.1214L83.0246 72.413L83.0395 79.4277H85.4836L85.4665 67.564H83.377L79.0355 74.9339L74.6144 67.564H72.5258V79.4277H74.9861V72.5034L78.4085 78.1214H79.6013ZM95.1726 67.564V79.4277H104.19V77.2152H97.7312V74.4959H103.258V72.3162H97.7312V69.7765H103.961V67.564H95.1726ZM123.76 67.564H121.218V74.9129L115.226 67.564H113.157V79.4277H115.699V72.0788L121.691 79.4277H123.76V67.564ZM59.2744 75.6755H0.5V73.0809H59.2744V75.6755ZM136.885 75.2124H195.659V72.6178H136.885V75.2124Z" fill="white"/>
</g>
<defs>
<clipPath id="clip0_231_362">
<rect width="197" height="80" fill="white" transform="translate(0.5)"/>
</clipPath>
</defs>
</svg>
