<svg width="155" height="68" viewBox="0 0 155 68" fill="none" xmlns="http://www.w3.org/2000/svg">
<g clip-path="url(#clip0_1494_923)">
<path d="M2.59188 59.6529C7.01094 42.4535 17.8226 27.134 32.2358 17.6163C41.81 11.2781 53.1684 7.39039 65.0588 6.30297C76.9478 5.24118 88.8247 7.05574 99.3852 11.58C109.946 16.1043 119.443 23.4278 126.859 32.7815C133.743 41.4412 138.529 51.4366 140.798 61.8482L129.167 49.2315C128.678 48.7194 127.882 48.6805 127.344 49.1422C126.832 49.6308 126.791 50.4508 127.281 50.9629L141.967 66.8887C142.26 67.2113 142.715 67.3621 143.131 67.2797C143.573 67.1986 143.921 66.9074 144.096 66.5049L152.358 46.4883C152.446 46.2614 152.485 46.0064 152.445 45.7733C152.362 45.3583 152.097 44.9857 151.668 44.8106C151.012 44.5472 150.251 44.8439 149.988 45.4989L143.388 61.5127C141.064 50.636 136.069 40.1936 128.894 31.1601C121.211 21.4851 111.34 13.9121 100.402 9.21523C89.4367 4.54268 77.1516 2.65676 64.8223 3.77406C52.4931 4.89136 40.7408 8.93956 30.796 15.4908C15.8517 25.3421 4.67749 41.2347 0.099937 59.0428C0.0705075 59.1185 0.0654729 59.221 0.0617084 59.2978C0.0328475 59.8872 0.417244 60.4455 1.02708 60.6038C1.71393 60.7658 2.40396 60.3373 2.59188 59.6529Z" fill="#FD6C03"/>
</g>
<defs>
<clipPath id="clip0_1494_923">
<rect width="60.6259" height="151.565" fill="white" transform="translate(154.349 7.41284) rotate(92.8034)"/>
</clipPath>
</defs>
</svg>
