<svg width="70" height="70" viewBox="0 0 70 70" fill="none" xmlns="http://www.w3.org/2000/svg">
<path d="M12.5689 58.1511C12.0689 57.9168 11.4735 58.1321 11.2391 58.6322C11.0047 59.1323 11.22 59.7277 11.7201 59.9621L12.5689 58.1511ZM17.4766 59.0566L17.0606 58.1472L17.4766 59.0566ZM26.202 41.6062L26.202 42.6062L26.202 41.6062ZM46.1975 43.182L46.1226 44.1792L46.1975 43.182ZM53.9534 51.5437L53.7335 52.5193L53.9534 51.5437ZM61.3104 46.0061C61.485 45.4822 61.2018 44.9158 60.6779 44.7412C60.154 44.5665 59.5876 44.8497 59.413 45.3736L61.3104 46.0061ZM11.7201 59.9621C12.522 60.3379 13.5759 60.5507 14.6382 60.574C15.7046 60.5975 16.8732 60.4322 17.8925 59.966L17.0606 58.1472C16.3864 58.4556 15.5353 58.5933 14.6822 58.5745C13.825 58.5557 13.0597 58.3812 12.5689 58.1511L11.7201 59.9621ZM17.8925 59.966C19.7087 59.1353 20.58 57.3508 21.0777 55.5102C21.5762 53.6665 21.7757 51.4565 22.024 49.4964C22.2823 47.4578 22.5924 45.6886 23.2431 44.4325C23.5581 43.8246 23.9319 43.3813 24.3803 43.0863C24.822 42.7957 25.4008 42.6062 26.202 42.6062L26.202 40.6062C25.0648 40.6062 24.0921 40.8819 23.2811 41.4155C22.4766 41.9447 21.8962 42.6847 21.4673 43.5125C20.6302 45.1281 20.2937 47.2412 20.0399 49.245C19.7761 51.3273 19.5981 53.3198 19.147 54.9882C18.6951 56.6598 18.0447 57.6971 17.0606 58.1472L17.8925 59.966ZM26.202 42.6062C26.8321 42.6062 27.2743 42.7382 27.6049 42.9273C27.9381 43.1179 28.2184 43.4014 28.4708 43.7942C29.0116 44.6359 29.315 45.7732 29.7482 47.1735C30.1538 48.4843 30.6704 49.9963 31.6996 51.1636C32.7834 52.3928 34.3461 53.1497 36.6239 53.1497V51.1497C34.8488 51.1497 33.8591 50.5887 33.1998 49.8409C32.486 49.0313 32.0689 47.9076 31.6589 46.5824C31.2766 45.3469 30.8828 43.8483 30.1534 42.7131C29.7707 42.1175 29.2727 41.5773 28.598 41.1913C27.9207 40.8038 27.1255 40.6062 26.202 40.6062L26.202 42.6062ZM36.6239 53.1497C38.4271 53.1497 39.6359 52.3913 40.4707 51.2797C41.2408 50.2544 41.6908 48.9184 42.0905 47.8243C42.521 46.6455 42.9063 45.6991 43.4994 45.0498C44.0221 44.4775 44.7645 44.0771 46.1226 44.1792L46.2725 42.1848C44.3536 42.0406 42.9935 42.6381 42.0226 43.701C41.1221 44.687 40.6227 46.0133 40.2119 47.138C39.7701 48.3474 39.422 49.3457 38.8715 50.0787C38.3857 50.7255 37.7517 51.1497 36.6239 51.1497V53.1497ZM46.1226 44.1792C47.2778 44.266 47.8893 44.6613 48.2988 45.15C48.7575 45.6974 49.0369 46.4433 49.3517 47.4092C49.6441 48.3064 49.9752 49.4286 50.5885 50.369C51.2428 51.3721 52.2138 52.1767 53.7335 52.5193L54.1733 50.5682C53.2032 50.3496 52.6579 49.8808 52.2637 49.2764C51.8287 48.6094 51.5793 47.7899 51.2533 46.7895C50.9496 45.8577 50.5728 44.7498 49.8318 43.8654C49.0415 42.9223 47.9097 42.3078 46.2725 42.1848L46.1226 44.1792ZM53.7335 52.5193C55.7384 52.9712 57.3707 52.3002 58.6188 51.002C59.814 49.7588 60.6646 47.9434 61.3104 46.0061L59.413 45.3736C58.7977 47.2194 58.0619 48.6956 57.1771 49.6159C56.3452 50.4811 55.4038 50.8456 54.1733 50.5682L53.7335 52.5193Z" fill="#FD6C03"/>
<path d="M28 26.25V25C28 24.337 27.7366 23.7011 27.2678 23.2322C26.7989 22.7634 26.163 22.5 25.5 22.5H20.5C19.837 22.5 19.2011 22.7634 18.7322 23.2322C18.2634 23.7011 18 24.337 18 25V26.25" stroke="#FD6C03" stroke-width="2" stroke-linecap="round" stroke-linejoin="round"/>
<path d="M23 20C24.3807 20 25.5 18.8807 25.5 17.5C25.5 16.1193 24.3807 15 23 15C21.6193 15 20.5 16.1193 20.5 17.5C20.5 18.8807 21.6193 20 23 20Z" stroke="#FD6C03" stroke-width="2" stroke-linecap="round" stroke-linejoin="round"/>
<circle cx="15" cy="13" r="3" fill="#FD6C03"/>
<path d="M13 21C13 20.4477 12.5523 20 12 20C11.4477 20 11 20.4477 11 21H13ZM23 9C22.4477 9 22 9.44772 22 10C22 10.5523 22.4477 11 23 11V9ZM33 21C33 26.5228 28.5228 31 23 31V33C29.6274 33 35 27.6274 35 21H33ZM23 31C17.4772 31 13 26.5228 13 21H11C11 27.6274 16.3726 33 23 33V31ZM23 11C28.5228 11 33 15.4772 33 21H35C35 14.3726 29.6274 9 23 9V11Z" fill="#FD6C03"/>
<path d="M61.2514 23.8901C60.6152 25.3946 59.6202 26.7203 58.3533 27.7514C57.0864 28.7825 55.5862 29.4875 53.9839 29.8049C52.3815 30.1222 50.7258 30.0422 49.1616 29.5719C47.5973 29.1015 46.172 28.2551 45.0104 27.1067C43.8488 25.9583 42.9862 24.5428 42.4981 22.984C42.0099 21.4252 41.911 19.7706 42.21 18.1647C42.5091 16.5589 43.1969 15.0507 44.2135 13.7721C45.23 12.4935 46.5443 11.4834 48.0414 10.8301" stroke="#FD6C03" stroke-width="2" stroke-linecap="round" stroke-linejoin="round"/>
<path d="M62.0415 20C62.0415 18.6868 61.7828 17.3864 61.2803 16.1732C60.7778 14.9599 60.0412 13.8575 59.1126 12.9289C58.184 12.0003 57.0816 11.2638 55.8683 10.7612C54.6551 10.2587 53.3547 10 52.0415 10V20H62.0415Z" stroke="#FD6C03" stroke-width="2" stroke-linecap="round" stroke-linejoin="round"/>
</svg>
