<svg width="70" height="70" viewBox="0 0 70 70" fill="none" xmlns="http://www.w3.org/2000/svg">
<rect x="14.1818" y="15.1818" width="23.6364" height="23.6364" rx="3.54545" stroke="#FD6C03" stroke-width="2.36364"/>
<path d="M24.71 30.5453H26.6689L23.0623 22.4794H21.2186L17.6235 30.5453H19.5363L20.2507 28.8169H23.9956L24.71 30.5453ZM20.8499 27.3996L22.1289 24.3115L23.4079 27.3996H20.8499Z" fill="#FD6C03"/>
<path d="M29.8794 24.2539C28.8884 24.2539 27.886 24.5189 27.2061 25.0028L27.8514 26.2588C28.3008 25.9016 28.9806 25.6827 29.6374 25.6827C30.6053 25.6827 31.0662 26.1321 31.0662 26.9041H29.6374C27.7477 26.9041 26.9757 27.6646 26.9757 28.7593C26.9757 29.8309 27.8399 30.6375 29.2917 30.6375C30.202 30.6375 30.8473 30.3379 31.1815 29.7733V30.5453H32.8638V27.0078C32.8638 25.1296 31.7691 24.2539 29.8794 24.2539ZM29.7411 29.4276C29.1074 29.4276 28.7271 29.128 28.7271 28.6786C28.7271 28.2638 28.9921 27.9527 29.8333 27.9527H31.0662V28.5864C30.8588 29.151 30.3403 29.4276 29.7411 29.4276Z" fill="#FD6C03"/>
<path fill-rule="evenodd" clip-rule="evenodd" d="M42.6603 37.6819C42.2055 36.894 41.0682 36.894 40.6134 37.6819L37.5429 43C37.088 43.7879 37.6566 44.7728 38.5664 44.7728H42.8552C43.146 47.1047 45.1353 48.9091 47.5459 48.9091C50.1567 48.9091 52.2732 46.7927 52.2732 44.1819C52.2732 41.5711 50.1567 39.4546 47.5459 39.4546C46.3302 39.4546 45.2217 39.9135 44.3841 40.6675L42.6603 37.6819ZM44.3841 40.6675C43.423 41.5328 42.8187 42.7868 42.8187 44.1819C42.8187 44.382 42.8311 44.5792 42.8552 44.7728H44.7073C45.6171 44.7728 46.1857 43.7879 45.7308 43L44.3841 40.6675Z" fill="#FD6C03"/>
<rect x="32.1818" y="31.1818" width="23.6364" height="23.6364" rx="3.54545" stroke="#FD6C03" stroke-width="2.36364"/>
</svg>
