<svg width="70" height="70" viewBox="0 0 70 70" fill="none" xmlns="http://www.w3.org/2000/svg">
<path d="M52.0218 35.9374C51.3698 35.9374 50.8417 35.3253 50.8417 34.5703V28.7053C50.8417 28.2427 50.5174 27.868 50.1192 27.868H29.8833C29.2312 27.868 28.7031 27.2558 28.7031 26.5009C28.7031 25.746 29.2312 25.1338 29.8833 25.1338H50.118C51.818 25.1338 53.202 26.7356 53.202 28.7066V34.5717C53.202 35.3253 52.6739 35.9374 52.0218 35.9374Z" fill="#FD6C03"/>
<path d="M40.1374 54.5396H19.6378C17.6791 54.5396 16.0869 53.0706 16.0869 51.263V33.868C16.0869 33.1757 16.695 32.6143 17.4458 32.6143C18.1966 32.6143 18.8046 33.1757 18.8046 33.868V51.263C18.8046 51.6872 19.178 52.0322 19.6378 52.0322H40.1374C40.8882 52.0322 41.4963 52.5936 41.4963 53.2859C41.4963 53.9782 40.8882 54.5396 40.1374 54.5396Z" fill="#FD6C03"/>
<path d="M32.6868 44.593C32.4123 44.593 32.1391 44.5203 31.8948 44.3789C31.4089 44.0962 31.1069 43.5691 31.1069 43.0022V36.6691C31.1069 36.1022 31.4103 35.5751 31.8975 35.2924C32.3848 35.0096 32.9888 35.0096 33.4774 35.2924L38.9293 38.4576C39.4166 38.7403 39.7199 39.2688 39.7199 39.8357C39.7199 40.4025 39.4166 40.931 38.9279 41.2137L33.4774 44.3789C33.2331 44.523 32.9599 44.593 32.6868 44.593ZM33.8247 38.6525V41.0216L35.8643 39.837L33.8247 38.6525Z" fill="#FD6C03"/>
<path fill-rule="evenodd" clip-rule="evenodd" d="M50.5355 44.6997C50.2476 44.201 49.5279 44.201 49.24 44.6997L47.2966 48.0656C47.0087 48.5643 47.3686 49.1876 47.9444 49.1876H50.6588C50.843 50.6633 52.102 51.8052 53.6276 51.8052C55.28 51.8052 56.6195 50.4656 56.6195 48.8132C56.6195 47.1608 55.28 45.8213 53.6276 45.8213C52.8581 45.8213 52.1565 46.1118 51.6263 46.5891L50.5355 44.6997ZM51.6263 46.5891C51.0181 47.1367 50.6357 47.9303 50.6357 48.8132C50.6357 48.94 50.6435 49.0649 50.6588 49.1876H51.831C52.4068 49.1876 52.7667 48.5643 52.4788 48.0656L51.6263 46.5891Z" fill="#FD6C03"/>
<rect x="44.1562" y="40.8369" width="14.4556" height="14.4556" rx="1.99193" stroke="#FD6C03" stroke-width="2"/>
<rect x="11.3877" y="14.708" width="14.8273" height="14.8273" rx="2.0595" stroke="#FD6C03" stroke-width="2"/>
<path d="M17.9663 24.4156H19.234L16.8998 19.1953H15.7066L13.3799 24.4156H14.6178L15.0802 23.297H17.5039L17.9663 24.4156ZM15.468 22.3797L16.2958 20.3811L17.1236 22.3797H15.468Z" fill="#FD6C03"/>
<path d="M21.3119 20.3438C20.6706 20.3438 20.0217 20.5153 19.5818 20.8285L19.9994 21.6414C20.2902 21.4102 20.7302 21.2685 21.1553 21.2685C21.7817 21.2685 22.08 21.5594 22.08 22.059H21.1553C19.9323 22.059 19.4326 22.5512 19.4326 23.2597C19.4326 23.9532 19.9919 24.4752 20.9316 24.4752C21.5207 24.4752 21.9383 24.2813 22.1546 23.9159V24.4156H23.2434V22.1261C23.2434 20.9105 22.5349 20.3438 21.3119 20.3438ZM21.2224 23.6922C20.8122 23.6922 20.5661 23.4983 20.5661 23.2075C20.5661 22.939 20.7377 22.7376 21.2821 22.7376H22.08V23.1478C21.9458 23.5132 21.6102 23.6922 21.2224 23.6922Z" fill="#FD6C03"/>
</svg>
