<svg width="120" height="120" viewBox="0 0 120 120" fill="none" xmlns="http://www.w3.org/2000/svg">
<rect width="120" height="120" rx="60" fill="#161616"/>
<path d="M35.7053 38.6182C35.1083 36.9125 33.4985 35.7704 31.6913 35.7704H23.7481C20.8186 35.7704 18.7664 38.663 19.7341 41.4279L33.7118 81.3641C34.3088 83.0698 35.9186 84.2119 37.7257 84.2119H45.669C48.5985 84.2119 50.6507 81.3194 49.6829 78.5544L35.7053 38.6182Z" fill="url(#paint0_linear_29_331)"/>
<path d="M50.6635 38.626L46.4609 50.7084C46.1472 51.6105 46.1462 52.5919 46.4582 53.4946L51.5083 68.1076C52.4365 70.7937 56.2316 70.8039 57.1744 68.123C58.1139 65.4513 61.8915 65.4491 62.834 68.1197L67.5185 81.3924C68.1186 83.0927 69.7257 84.2297 71.5287 84.2297H79.5571C82.4892 84.2297 84.5417 81.3323 83.569 78.5663L69.5193 38.6123C68.9205 36.9096 67.3123 35.7704 65.5074 35.7704H54.6802C52.87 35.7704 51.2582 36.9163 50.6635 38.626Z" fill="url(#paint1_linear_29_331)"/>
<path d="M96.2549 35.7704H88.3848C86.5853 35.7704 84.9807 36.9029 84.3778 38.5984L80.2078 50.3265C79.8813 51.2449 79.8801 52.2475 80.2045 53.1666L84.1939 64.4698C85.5312 68.2589 90.8927 68.2508 92.2186 64.4577L100.269 41.4264C101.236 38.6617 99.1836 35.7704 96.2549 35.7704Z" fill="url(#paint2_linear_29_331)"/>
<path d="M62.5216 35.7704H54.5034C52.6932 35.7704 51.0815 36.9163 50.4868 38.626L46.2893 50.6936C45.9724 51.6047 45.9747 52.5965 46.2957 53.5061L50.2981 64.8462C51.6346 68.633 56.9916 68.6281 58.3212 64.8389L66.5344 41.4311C67.5048 38.6655 65.4525 35.7704 62.5216 35.7704Z" fill="#FF7E07"/>
<defs>
<linearGradient id="paint0_linear_29_331" x1="51.8353" y1="84.0522" x2="34.7946" y2="35.7704" gradientUnits="userSpaceOnUse">
<stop stop-color="#FF7E07"/>
<stop offset="1" stop-color="#F8871F"/>
</linearGradient>
<linearGradient id="paint1_linear_29_331" x1="65.7686" y1="35.7704" x2="82.3654" y2="86.1823" gradientUnits="userSpaceOnUse">
<stop stop-color="#E56E00"/>
<stop offset="1" stop-color="#FF7E07"/>
</linearGradient>
<linearGradient id="paint2_linear_29_331" x1="90.9748" y1="35.7704" x2="82.0107" y2="62.0414" gradientUnits="userSpaceOnUse">
<stop stop-color="#E56E00"/>
<stop offset="1" stop-color="#FF7E07"/>
</linearGradient>
</defs>
</svg>
