<svg width="70" height="70" viewBox="0 0 70 70" fill="none" xmlns="http://www.w3.org/2000/svg">
<path d="M37.9705 36.4762H17.7993C17.0384 36.4762 16.4209 35.8614 16.4209 35.1033C16.4209 34.3452 17.0384 33.7305 17.7993 33.7305H37.9705C38.7327 33.7305 39.3488 34.3452 39.3488 35.1033C39.3488 35.8614 38.7327 36.4762 37.9705 36.4762Z" fill="#FD6C03"/>
<path d="M37.97 41.0826H17.7988C17.0379 41.0826 16.4204 40.4679 16.4204 39.7098C16.4204 38.9517 17.0379 38.3369 17.7988 38.3369H37.97C38.7322 38.3369 39.3484 38.9517 39.3484 39.7098C39.3484 40.4679 38.7322 41.0826 37.97 41.0826Z" fill="#FD6C03"/>
<path d="M38.1575 45.5573H17.9863C17.2254 45.5573 16.6079 44.9425 16.6079 44.1844C16.6079 43.4263 17.2254 42.8115 17.9863 42.8115H38.1575C38.9197 42.8115 39.5359 43.4263 39.5359 44.1844C39.5359 44.9425 38.9197 45.5573 38.1575 45.5573Z" fill="#FD6C03"/>
<path d="M51.8393 31.4023H17.9863C17.2254 31.4023 16.6079 30.7889 16.6079 30.0294V25.1844C16.6079 24.4263 17.2254 23.8115 17.9863 23.8115H51.8393C52.6015 23.8115 53.2176 24.4249 53.2176 25.1844V30.0294C53.2176 30.7889 52.6015 31.4023 51.8393 31.4023ZM19.3647 28.6565H50.4609V26.5573H19.3647V28.6565Z" fill="#FD6C03"/>
<path d="M56.7954 51.0401C56.0331 51.0401 55.417 50.4267 55.417 49.6672V21.7054H14.5839V49.6672C14.5839 50.4253 13.9664 51.0401 13.2055 51.0401C12.4447 51.0401 11.8271 50.4267 11.8271 49.6672V20.3326C11.8271 19.5745 12.4447 18.9597 13.2055 18.9597H56.794C57.5562 18.9597 58.1724 19.5745 58.1724 20.3326V49.6672C58.1737 50.4267 57.5562 51.0401 56.7954 51.0401Z" fill="#FD6C03"/>
<path d="M13.3252 49.8115L56.6084 49.8115" stroke="#FD6C03" stroke-width="3" stroke-linecap="round"/>
<path d="M51.2917 35.625H43.7083C43.11 35.625 42.625 36.11 42.625 36.7083V44.2917C42.625 44.89 43.11 45.375 43.7083 45.375H51.2917C51.89 45.375 52.375 44.89 52.375 44.2917V36.7083C52.375 36.11 51.89 35.625 51.2917 35.625Z" stroke="#FD6C03" stroke-width="2" stroke-linecap="round" stroke-linejoin="round"/>
<path d="M52.3752 42.125L49.6668 39.4166L43.7085 45.375" stroke="#FD6C03" stroke-width="2" stroke-linecap="round" stroke-linejoin="round"/>
</svg>
