<svg width="70" height="70" viewBox="0 0 70 70" fill="none" xmlns="http://www.w3.org/2000/svg">
<path d="M7.84617 50.4422C7.09536 50.4422 6.4873 49.83 6.4873 49.0751V29.0573C6.4873 28.3024 7.09536 27.6902 7.84617 27.6902C8.59697 27.6902 9.20503 28.3024 9.20503 29.0573V49.0751C9.20503 49.83 8.5956 50.4422 7.84617 50.4422Z" fill="#FD6C03"/>
<path d="M59.235 64.0185H10.6453C6.4301 64.0185 3 60.5679 3 56.3279V55.5154C3 54.1496 4.10493 53.0378 5.4638 53.0378H64.4165C65.774 53.0378 66.8803 54.1496 66.8803 55.5154V56.3279C66.8803 60.5679 63.4502 64.0185 59.235 64.0185ZM5.71773 55.7707V56.3279C5.71773 59.0608 7.92759 61.2844 10.6453 61.2844H59.235C61.9513 61.2844 64.1625 59.0608 64.1625 56.3279V55.7707H5.71773Z" fill="#FD6C03"/>
<path d="M24.7816 28.5632C24.529 28.5632 24.2765 28.5001 24.0486 28.3724L21.099 26.7144C19.4903 27.3087 17.7814 27.6106 16.0094 27.6106C8.83625 27.6106 3 22.5389 3 16.3046C3 14.3899 3.55864 12.4985 4.61691 10.8362C6.90776 7.23595 11.2726 5 16.0094 5C23.1825 5 29.0188 10.0717 29.0188 16.306C29.0188 18.8439 28.0401 21.3009 26.2516 23.2829L26.2928 27.0287C26.2983 27.5681 26.0169 28.0746 25.5557 28.3518C25.3183 28.4919 25.0493 28.5632 24.7816 28.5632ZM21.1992 23.8374C21.4284 23.8374 21.6576 23.8951 21.8621 24.0103L23.5518 24.9602L23.5271 22.7558C23.5229 22.388 23.6671 22.0325 23.9265 21.773C25.4569 20.2385 26.2997 18.2963 26.2997 16.3046C26.2997 11.5774 21.6837 7.73282 16.0094 7.73282C12.1895 7.73282 8.70173 9.48699 6.90639 12.309C6.11852 13.5485 5.71773 14.8922 5.71773 16.3033C5.71773 21.0291 10.3337 24.8751 16.008 24.8751C17.6483 24.8751 19.2171 24.5621 20.6693 23.9445C20.8395 23.8731 21.0207 23.8374 21.1992 23.8374Z" fill="#FD6C03"/>
<path d="M21.3272 18.1082C22.2657 18.1082 23.0265 17.3431 23.0265 16.3993C23.0265 15.4555 22.2657 14.6904 21.3272 14.6904C20.3887 14.6904 19.6279 15.4555 19.6279 16.3993C19.6279 17.3431 20.3887 18.1082 21.3272 18.1082Z" fill="#FD6C03"/>
<path d="M16.0079 18.1082C16.9463 18.1082 17.7071 17.3431 17.7071 16.3993C17.7071 15.4555 16.9463 14.6904 16.0079 14.6904C15.0694 14.6904 14.3086 15.4555 14.3086 16.3993C14.3086 17.3431 15.0694 18.1082 16.0079 18.1082Z" fill="#FD6C03"/>
<path d="M10.6934 18.1082C11.6319 18.1082 12.3927 17.3431 12.3927 16.3993C12.3927 15.4555 11.6319 14.6904 10.6934 14.6904C9.75493 14.6904 8.99414 15.4555 8.99414 16.3993C8.99414 17.3431 9.75493 18.1082 10.6934 18.1082Z" fill="#FD6C03"/>
<path d="M32.9844 14.7012H59.2148C60.8717 14.7012 62.2148 16.0443 62.2148 17.7012V23.9259" stroke="#FD6C03" stroke-width="3" stroke-linecap="round"/>
<path d="M30.7075 19.1786C29.8791 19.1786 29.2075 19.8502 29.2075 20.6786C29.2075 21.507 29.8791 22.1786 30.7075 22.1786V19.1786ZM50.7566 25.7107C50.7566 26.5391 51.4282 27.2107 52.2566 27.2107C53.085 27.2107 53.7566 26.5391 53.7566 25.7107H50.7566ZM30.7075 22.1786H49.2566V19.1786H30.7075V22.1786ZM50.7566 23.6786V25.7107H53.7566V23.6786H50.7566ZM49.2566 22.1786C50.085 22.1786 50.7566 22.8502 50.7566 23.6786H53.7566C53.7566 21.1933 51.7419 19.1786 49.2566 19.1786V22.1786Z" fill="#FD6C03"/>
<path d="M16.207 30.5227C16.207 29.6943 16.8786 29.0227 17.707 29.0227C18.5355 29.0227 19.207 29.6943 19.207 30.5227H16.207ZM40.6707 46.4738C41.4991 46.4738 42.1707 47.1454 42.1707 47.9738C42.1707 48.8022 41.4991 49.4738 40.6707 49.4738V46.4738ZM19.207 30.5227L19.207 44.9738H16.207L16.207 30.5227H19.207ZM20.707 46.4738L40.6707 46.4738V49.4738L20.707 49.4738V46.4738ZM19.207 44.9738C19.207 45.8022 19.8786 46.4738 20.707 46.4738V49.4738C18.2218 49.4738 16.207 47.4591 16.207 44.9738H19.207Z" fill="#FD6C03"/>
<path d="M63.1199 37.4393C64.2457 36.3134 64.8782 34.7864 64.8782 33.1943C64.8782 31.6021 64.2457 30.0751 63.1199 28.9493C61.994 27.8234 60.4671 27.1909 58.8749 27.1909C57.2827 27.1909 55.7557 27.8234 54.6299 28.9493L47.8799 35.6993V44.1993H56.3799L63.1199 37.4393Z" stroke="#FD6C03" stroke-width="2" stroke-linecap="round" stroke-linejoin="round"/>
<path d="M58.8799 33.1992L44.8799 47.1992" stroke="#FD6C03" stroke-width="2" stroke-linecap="round" stroke-linejoin="round"/>
<path d="M60.3799 40.1992H51.8799" stroke="#FD6C03" stroke-width="2" stroke-linecap="round" stroke-linejoin="round"/>
<path d="M27.25 31.1948H43.25" stroke="#FD6C03" stroke-width="2" stroke-linecap="round"/>
<path d="M27.25 35.6948H38.75" stroke="#FD6C03" stroke-width="2" stroke-linecap="round"/>
<path d="M26.75 40.1948H37.25" stroke="#FD6C03" stroke-width="2" stroke-linecap="round"/>
</svg>
