<svg width="70" height="70" viewBox="0 0 70 70" fill="none" xmlns="http://www.w3.org/2000/svg">
<path d="M62.0336 27.8617C61.2828 27.8617 60.6748 27.2496 60.6748 26.4946V17.3216C60.6748 16.5681 60.0654 15.9545 59.3159 15.9545H32.9526C32.2018 15.9545 31.5938 15.3424 31.5938 14.5874C31.5938 13.8325 32.2018 13.2203 32.9526 13.2203H59.3145C61.5628 13.2203 63.3925 15.0596 63.3925 17.3216V26.4946C63.3925 27.2496 62.7844 27.8617 62.0336 27.8617Z" fill="#FD6C03"/>
<path d="M7.84617 50.4422C7.09536 50.4422 6.4873 49.83 6.4873 49.0751V29.0573C6.4873 28.3024 7.09536 27.6902 7.84617 27.6902C8.59697 27.6902 9.20503 28.3024 9.20503 29.0573V49.0751C9.20503 49.83 8.5956 50.4422 7.84617 50.4422Z" fill="#FD6C03"/>
<path d="M59.235 64.0185H10.6453C6.4301 64.0185 3 60.5679 3 56.3279V55.5154C3 54.1496 4.10493 53.0378 5.4638 53.0378H64.4165C65.774 53.0378 66.8803 54.1496 66.8803 55.5154V56.3279C66.8803 60.5679 63.4502 64.0185 59.235 64.0185ZM5.71773 55.7707V56.3279C5.71773 59.0608 7.92759 61.2844 10.6453 61.2844H59.235C61.9513 61.2844 64.1625 59.0608 64.1625 56.3279V55.7707H5.71773Z" fill="#FD6C03"/>
<path d="M52.1383 30.5959C51.3875 30.5959 50.7794 29.9837 50.7794 29.2288V23.3637C50.7794 22.9012 50.4061 22.5264 49.9476 22.5264H26.6479C25.8971 22.5264 25.2891 21.9143 25.2891 21.1593C25.2891 20.4044 25.8971 19.7922 26.6479 19.7922H49.9462C51.9036 19.7922 53.4971 21.394 53.4971 23.3651V29.2302C53.4971 29.9837 52.8891 30.5959 52.1383 30.5959Z" fill="#FD6C03"/>
<path d="M40.4333 49.1986H19.9337C17.975 49.1986 16.3828 47.5968 16.3828 45.6258V26.658C16.3828 25.9031 16.9909 25.2909 17.7417 25.2909C18.4925 25.2909 19.1005 25.9031 19.1005 26.658V45.6258C19.1005 46.0884 19.4739 46.4644 19.9337 46.4644H40.4333C41.1841 46.4644 41.7922 47.0766 41.7922 47.8315C41.7922 48.5865 41.1841 49.1986 40.4333 49.1986Z" fill="#FD6C03"/>
<path d="M8.28906 13.8516H5.28906C5.02385 13.8516 4.76949 13.9569 4.58196 14.1445C4.39442 14.332 4.28906 14.5863 4.28906 14.8516V16.8516C4.28906 17.1168 4.39442 17.3711 4.58196 17.5587C4.76949 17.7462 5.02385 17.8516 5.28906 17.8516H7.28906C7.55428 17.8516 7.80863 17.9569 7.99617 18.1445C8.18371 18.332 8.28906 18.5863 8.28906 18.8516V20.8516C8.28906 21.1168 8.18371 21.3711 7.99617 21.5587C7.80863 21.7462 7.55428 21.8516 7.28906 21.8516H4.28906M15.2891 21.8516H11.2891V13.8516H15.2891M12.2891 17.8516H14.2891" stroke="#FD6C03" stroke-width="2" stroke-linecap="round" stroke-linejoin="round"/>
<path d="M21.2891 13.8516H19.2891C18.7368 13.8516 18.2891 14.2993 18.2891 14.8516V20.8516C18.2891 21.4038 18.7368 21.8516 19.2891 21.8516H21.2891C21.8413 21.8516 22.2891 21.4038 22.2891 20.8516V14.8516C22.2891 14.2993 21.8413 13.8516 21.2891 13.8516Z" stroke="#FD6C03" stroke-width="2" stroke-linecap="round" stroke-linejoin="round"/>
<path d="M56.9072 43.8516C58.5641 43.8516 59.9072 42.5084 59.9072 40.8516C59.9072 39.1947 58.5641 37.8516 56.9072 37.8516C55.2504 37.8516 53.9072 39.1947 53.9072 40.8516C53.9072 42.5084 55.2504 43.8516 56.9072 43.8516Z" stroke="#FD6C03" stroke-width="2" stroke-linecap="round" stroke-linejoin="round"/>
<path d="M64.3072 43.8516C64.1741 44.1532 64.1344 44.4878 64.1932 44.8122C64.252 45.1365 64.4067 45.4359 64.6372 45.6716L64.6972 45.7316C64.8832 45.9173 65.0307 46.1379 65.1313 46.3807C65.232 46.6235 65.2838 46.8837 65.2838 47.1466C65.2838 47.4094 65.232 47.6696 65.1313 47.9124C65.0307 48.1552 64.8832 48.3758 64.6972 48.5616C64.5115 48.7475 64.2909 48.895 64.0481 48.9957C63.8053 49.0963 63.5451 49.1481 63.2822 49.1481C63.0194 49.1481 62.7591 49.0963 62.5163 48.9957C62.2735 48.895 62.053 48.7475 61.8672 48.5616L61.8072 48.5016C61.5715 48.271 61.2722 48.1164 60.9478 48.0576C60.6234 47.9987 60.2888 48.0384 59.9872 48.1716C59.6915 48.2983 59.4392 48.5088 59.2615 48.7771C59.0839 49.0454 58.9885 49.3598 58.9872 49.6816V49.8516C58.9872 50.382 58.7765 50.8907 58.4014 51.2658C58.0264 51.6408 57.5177 51.8516 56.9872 51.8516C56.4568 51.8516 55.9481 51.6408 55.573 51.2658C55.1979 50.8907 54.9872 50.382 54.9872 49.8516V49.7616C54.9795 49.4306 54.8723 49.1096 54.6797 48.8403C54.4871 48.571 54.218 48.3658 53.9072 48.2516C53.6056 48.1184 53.271 48.0787 52.9466 48.1376C52.6222 48.1964 52.3229 48.351 52.0872 48.5816L52.0272 48.6416C51.8415 48.8275 51.6209 48.975 51.3781 49.0757C51.1353 49.1763 50.8751 49.2281 50.6122 49.2281C50.3494 49.2281 50.0891 49.1763 49.8463 49.0757C49.6035 48.975 49.383 48.8275 49.1972 48.6416C49.0113 48.4558 48.8638 48.2352 48.7631 47.9924C48.6625 47.7496 48.6107 47.4894 48.6107 47.2266C48.6107 46.9637 48.6625 46.7035 48.7631 46.4607C48.8638 46.2179 49.0113 45.9973 49.1972 45.8116L49.2572 45.7516C49.4878 45.5159 49.6424 45.2165 49.7012 44.8922C49.76 44.5678 49.7203 44.2332 49.5872 43.9316C49.4605 43.6358 49.25 43.3835 48.9817 43.2059C48.7134 43.0282 48.399 42.9328 48.0772 42.9316H47.9072C47.3768 42.9316 46.8681 42.7208 46.493 42.3458C46.1179 41.9707 45.9072 41.462 45.9072 40.9316C45.9072 40.4011 46.1179 39.8924 46.493 39.5173C46.8681 39.1423 47.3768 38.9316 47.9072 38.9316H47.9972C48.3282 38.9238 48.6492 38.8167 48.9185 38.6241C49.1878 38.4315 49.3929 38.1623 49.5072 37.8516C49.6403 37.5499 49.68 37.2154 49.6212 36.891C49.5624 36.5666 49.4078 36.2672 49.1772 36.0316L49.1172 35.9716C48.9313 35.7858 48.7838 35.5652 48.6831 35.3224C48.5825 35.0796 48.5307 34.8194 48.5307 34.5566C48.5307 34.2937 48.5825 34.0335 48.6831 33.7907C48.7838 33.5479 48.9313 33.3273 49.1172 33.1416C49.303 32.9556 49.5235 32.8081 49.7663 32.7074C50.0091 32.6068 50.2694 32.555 50.5322 32.555C50.7951 32.555 51.0553 32.6068 51.2981 32.7074C51.5409 32.8081 51.7615 32.9556 51.9472 33.1416L52.0072 33.2016C52.2429 33.4321 52.5422 33.5867 52.8666 33.6456C53.191 33.7044 53.5256 33.6647 53.8272 33.5316H53.9072C54.203 33.4048 54.4552 33.1943 54.6329 32.926C54.8106 32.6577 54.9059 32.3433 54.9072 32.0216V31.8516C54.9072 31.3211 55.1179 30.8124 55.493 30.4373C55.8681 30.0623 56.3768 29.8516 56.9072 29.8516C57.4377 29.8516 57.9464 30.0623 58.3214 30.4373C58.6965 30.8124 58.9072 31.3211 58.9072 31.8516V31.9416C58.9085 32.2633 59.0039 32.5777 59.1815 32.846C59.3592 33.1143 59.6115 33.3248 59.9072 33.4516C60.2088 33.5847 60.5434 33.6244 60.8678 33.5656C61.1922 33.5067 61.4915 33.3521 61.7272 33.1216L61.7872 33.0616C61.973 32.8756 62.1935 32.7281 62.4363 32.6274C62.6791 32.5268 62.9394 32.475 63.2022 32.475C63.4651 32.475 63.7253 32.5268 63.9681 32.6274C64.2109 32.7281 64.4315 32.8756 64.6172 33.0616C64.8032 33.2473 64.9507 33.4679 65.0513 33.7107C65.152 33.9535 65.2038 34.2137 65.2038 34.4766C65.2038 34.7394 65.152 34.9996 65.0513 35.2424C64.9507 35.4852 64.8032 35.7058 64.6172 35.8916L64.5572 35.9516C64.3267 36.1872 64.172 36.4866 64.1132 36.811C64.0544 37.1354 64.0941 37.4699 64.2272 37.7716V37.8516C64.354 38.1473 64.5645 38.3996 64.8328 38.5773C65.1011 38.7549 65.4154 38.8503 65.7372 38.8516H65.9072C66.4377 38.8516 66.9464 39.0623 67.3214 39.4373C67.6965 39.8124 67.9072 40.3211 67.9072 40.8516C67.9072 41.382 67.6965 41.8907 67.3214 42.2658C66.9464 42.6408 66.4377 42.8516 65.9072 42.8516H65.8172C65.4954 42.8528 65.1811 42.9482 64.9128 43.1259C64.6445 43.3035 64.434 43.5558 64.3072 43.8516V43.8516Z" stroke="#FD6C03" stroke-width="2" stroke-linecap="round" stroke-linejoin="round"/>
<path d="M26.9922 31.0469H42.9922" stroke="#FD6C03" stroke-width="2" stroke-linecap="round"/>
<path d="M26.9922 35.5469H38.4922" stroke="#FD6C03" stroke-width="2" stroke-linecap="round"/>
<path d="M26.4922 40.0469H36.9922" stroke="#FD6C03" stroke-width="2" stroke-linecap="round"/>
</svg>
