<svg width="565" height="187" viewBox="0 0 565 187" fill="none" xmlns="http://www.w3.org/2000/svg">
<path d="M28.2686 181.912L28.039 182.448H28.6219H93.8655H94.121L94.2199 182.213L153.142 41.8629L153.172 41.7915V41.7141V5.04611V4.66177H152.787H1.31055H0.926201V5.04611V77.1176V77.502H1.31055H50.6226H51.007V77.1176V51.708H84.0705L28.2686 181.912ZM249.65 116.93C254.34 115.282 258.561 113.159 262.311 110.559C260.699 118.09 257.521 124.21 252.791 128.94C245.796 135.934 236.376 139.448 224.487 139.448C218.954 139.448 213.504 138.861 208.139 137.688C202.968 136.353 197.786 133.847 192.594 130.162L192.232 129.906L192.03 130.3L170.534 172.025L170.375 172.334L170.667 172.524C177.453 176.935 185.67 180.321 195.311 182.689C205.121 185.226 215.269 186.494 225.752 186.494C245.359 186.494 262.535 182.606 277.266 174.817C291.999 167.028 303.516 155.849 311.813 141.287L311.814 141.286C320.114 126.549 324.254 108.779 324.254 87.9916C324.254 68.5592 320.622 52.3899 313.332 39.5044C306.215 26.6264 296.213 16.9618 283.331 10.52C270.623 3.91274 255.81 0.615654 238.902 0.615654C225.533 0.615654 213.339 3.15423 202.325 8.23749L202.323 8.23846C191.476 13.3233 182.824 20.5315 176.376 29.863C169.92 39.2073 166.699 50.2439 166.699 62.9562C166.699 74.4852 169.497 84.5906 175.105 93.2581L175.11 93.2654C180.878 101.748 188.345 108.366 197.505 113.115L197.512 113.119C206.84 117.698 216.929 119.986 227.775 119.986C236.066 119.986 243.357 118.971 249.641 116.933L249.65 116.93ZM233.763 44.8396L233.771 44.8354L233.779 44.8308C236.411 43.3503 239.464 42.6042 242.948 42.6042C246.432 42.6042 249.484 43.3503 252.116 44.8308L252.128 44.8376L252.141 44.8436C254.936 46.1591 257.067 48.1273 258.544 50.7534C260.023 53.3829 260.771 56.5185 260.771 60.1745C260.771 63.8305 260.023 66.9661 258.544 69.5956C257.065 72.2256 254.929 74.2819 252.125 75.7664L252.124 75.7663L252.116 75.7711C249.484 77.2516 246.432 77.9977 242.948 77.9977C237.811 77.9977 233.524 76.4274 230.063 73.2988C226.78 70.0119 225.124 65.6506 225.124 60.1745C225.124 56.5221 225.871 53.3889 227.347 50.7611C228.997 48.124 231.135 46.1536 233.763 44.8396ZM370.117 181.847L369.706 182.448H370.434H413.171H413.374L413.489 182.281L534.366 5.26285L534.777 4.66177H534.049H491.312H491.109L490.994 4.82937L370.117 181.847ZM363.169 95.9152L363.175 95.9185C370.317 99.6596 378.387 101.526 387.377 101.526C396.367 101.526 404.437 99.6596 411.579 95.9186L411.586 95.9152C418.733 92.0012 424.347 86.3001 428.427 78.8224C432.68 71.3354 434.798 62.3324 434.798 51.8294C434.798 41.3275 432.681 32.4076 428.426 25.0876C424.347 17.6108 418.732 11.9102 411.586 7.99648C404.442 4.08474 396.37 2.13294 387.377 2.13294C378.384 2.13294 370.312 4.08474 363.169 7.99648C356.022 11.9102 350.324 17.6106 346.076 25.0868L346.075 25.0894C341.989 32.409 339.957 41.328 339.957 51.8294C339.957 62.3311 341.989 71.3328 346.073 78.819L346.076 78.8248C350.324 86.301 356.022 92.0014 363.169 95.9152ZM394.654 69.0503L394.652 69.0533C392.508 72.0215 390.083 73.4458 387.377 73.4458C384.844 73.4458 382.416 72.0263 380.097 69.0464C377.818 65.9501 376.635 60.2476 376.635 51.8294C376.635 47.6304 376.929 44.1179 377.512 41.2858C378.096 38.4501 378.964 36.3222 380.094 34.8694L380.1 34.8614C382.424 31.7076 384.852 30.2129 387.377 30.2129C390.074 30.2129 392.499 31.7113 394.646 34.8504L394.653 34.8601L394.66 34.8693C395.79 36.3222 396.659 38.4501 397.242 41.2858C397.826 44.1179 398.12 47.6304 398.12 51.8294C398.12 60.2512 396.935 65.9549 394.654 69.0503ZM492.897 179.366L492.904 179.37C500.046 183.111 508.116 184.977 517.106 184.977C526.096 184.977 534.166 183.111 541.308 179.37L541.314 179.366C548.462 175.452 554.076 169.751 558.156 162.273C562.409 154.786 564.526 145.783 564.526 135.281C564.526 124.779 562.409 115.859 558.155 108.539C554.075 101.062 548.461 95.3614 541.314 91.4477C534.171 87.536 526.099 85.5842 517.106 85.5842C508.113 85.5842 500.041 87.536 492.897 91.4477C485.751 95.3615 480.053 101.062 475.805 108.538L475.803 108.541C471.718 115.86 469.685 124.779 469.685 135.281C469.685 145.782 471.718 154.784 475.801 162.27L475.805 162.276C480.053 169.752 485.751 175.453 492.897 179.366ZM524.383 152.502L524.381 152.504C522.237 155.473 519.812 156.897 517.106 156.897C514.573 156.897 512.145 155.478 509.826 152.498C507.547 149.401 506.363 143.699 506.363 135.281C506.363 131.082 506.658 127.569 507.241 124.737C507.824 121.901 508.693 119.773 509.823 118.321L509.829 118.313C512.153 115.159 514.581 113.664 517.106 113.664C519.803 113.664 522.227 115.162 524.375 118.302L524.382 118.311L524.389 118.321C525.519 119.773 526.387 121.901 526.971 124.737C527.554 127.569 527.848 131.082 527.848 135.281C527.848 143.702 526.664 149.406 524.383 152.502Z" fill="#1E1E1E" stroke="#1E1E1E" stroke-width="0.768692"/>
</svg>
