<svg width="70" height="70" viewBox="0 0 70 70" fill="none" xmlns="http://www.w3.org/2000/svg">
<path d="M7.84617 50.4422C7.09536 50.4422 6.4873 49.83 6.4873 49.0751V29.0573C6.4873 28.3024 7.09536 27.6902 7.84617 27.6902C8.59697 27.6902 9.20503 28.3024 9.20503 29.0573V49.0751C9.20503 49.83 8.5956 50.4422 7.84617 50.4422Z" fill="#FD6C03"/>
<path d="M59.235 64.0185H10.6453C6.4301 64.0185 3 60.5679 3 56.3279V55.5154C3 54.1496 4.10493 53.0378 5.4638 53.0378H64.4165C65.774 53.0378 66.8803 54.1496 66.8803 55.5154V56.3279C66.8803 60.5679 63.4502 64.0185 59.235 64.0185ZM5.71773 55.7707V56.3279C5.71773 59.0608 7.92759 61.2844 10.6453 61.2844H59.235C61.9513 61.2844 64.1625 59.0608 64.1625 56.3279V55.7707H5.71773Z" fill="#FD6C03"/>
<path d="M32.9844 14.7012H59.2148C60.8717 14.7012 62.2148 16.0443 62.2148 17.7012V23.9259" stroke="#FD6C03" stroke-width="3" stroke-linecap="round"/>
<path d="M30.708 19.1786C29.8796 19.1786 29.208 19.8502 29.208 20.6786C29.208 21.507 29.8796 22.1786 30.708 22.1786V19.1786ZM50.7571 25.7107C50.7571 26.5391 51.4287 27.2107 52.2571 27.2107C53.0855 27.2107 53.7571 26.5391 53.7571 25.7107H50.7571ZM30.708 22.1786H49.2571V19.1786H30.708V22.1786ZM50.7571 23.6786V25.7107H53.7571V23.6786H50.7571ZM49.2571 22.1786C50.0855 22.1786 50.7571 22.8502 50.7571 23.6786H53.7571C53.7571 21.1933 51.7424 19.1786 49.2571 19.1786V22.1786Z" fill="#FD6C03"/>
<path d="M16.207 30.5227C16.207 29.6943 16.8786 29.0227 17.707 29.0227C18.5355 29.0227 19.207 29.6943 19.207 30.5227H16.207ZM40.6707 46.4738C41.4991 46.4738 42.1707 47.1454 42.1707 47.9738C42.1707 48.8022 41.4991 49.4738 40.6707 49.4738V46.4738ZM19.207 30.5227L19.207 44.9738H16.207L16.207 30.5227H19.207ZM20.707 46.4738L40.6707 46.4738V49.4738L20.707 49.4738V46.4738ZM19.207 44.9738C19.207 45.8022 19.8786 46.4738 20.707 46.4738V49.4738C18.2218 49.4738 16.207 47.4591 16.207 44.9738H19.207Z" fill="#FD6C03"/>
<path d="M27.25 31.1948H43.25" stroke="#FD6C03" stroke-width="2" stroke-linecap="round"/>
<path d="M27.25 35.6948H38.75" stroke="#FD6C03" stroke-width="2" stroke-linecap="round"/>
<path d="M26.75 40.1948H37.25" stroke="#FD6C03" stroke-width="2" stroke-linecap="round"/>
<path d="M17.9082 16.1247L24.8727 9.02608M24.8727 9.02608V6.47779C24.8727 6.35233 24.9199 6.23145 25.0049 6.13915L26.6493 4.35285C26.9382 4.03898 27.4622 4.20787 27.5135 4.6314L27.6602 5.84278C27.6906 6.09385 27.9036 6.28269 28.1565 6.28269H29.5021C29.9473 6.28269 30.1705 6.82079 29.8559 7.13591L27.9674 9.02803C27.8669 9.1287 27.7283 9.18181 27.5862 9.17406L24.8727 9.02608Z" stroke="#FD6C03" stroke-width="2" stroke-linecap="round"/>
<circle cx="17.1757" cy="16.7341" r="1.76747" fill="#FD6C03"/>
<circle cx="17.176" cy="16.7344" r="4.73066" stroke="#FD6C03" stroke-width="2"/>
<circle cx="17.1764" cy="16.7348" r="8.96054" stroke="#FD6C03" stroke-width="2"/>
<path d="M57.5695 32.2812C57.3863 32.4681 57.2836 32.7194 57.2836 32.9812C57.2836 33.2429 57.3863 33.4943 57.5695 33.6812L59.1695 35.2812C59.3564 35.4644 59.6077 35.567 59.8695 35.567C60.1312 35.567 60.3826 35.4644 60.5695 35.2812L64.3395 31.5112C64.8423 32.6224 64.9946 33.8604 64.7759 35.0603C64.5573 36.2602 63.9782 37.365 63.1158 38.2275C62.2533 39.0899 61.1485 39.669 59.9486 39.8876C58.7487 40.1063 57.5107 39.954 56.3995 39.4512L49.4895 46.3612C49.0917 46.759 48.5521 46.9825 47.9895 46.9825C47.4269 46.9825 46.8873 46.759 46.4895 46.3612C46.0917 45.9634 45.8682 45.4238 45.8682 44.8612C45.8682 44.2986 46.0917 43.759 46.4895 43.3612L53.3995 36.4512C52.8966 35.34 52.7444 34.1019 52.963 32.902C53.1817 31.7021 53.7608 30.5973 54.6232 29.7349C55.4856 28.8725 56.5904 28.2933 57.7903 28.0747C58.9902 27.8561 60.2283 28.0083 61.3395 28.5112L57.5795 32.2712L57.5695 32.2812Z" stroke="#FD6C03" stroke-width="2" stroke-linecap="round" stroke-linejoin="round"/>
</svg>
