<svg width="498" height="186" viewBox="0 0 498 186" fill="none" xmlns="http://www.w3.org/2000/svg">
<path d="M31.226 180.547V180.931H31.6103H91.2906H91.6749V180.547V3.52882V3.14448H91.2906H1.2644H0.880058V3.52882V48.5419V48.9263H1.2644H31.226V180.547ZM108.888 168.501L108.739 168.825L109.051 168.997C118.53 174.245 129.525 178.218 142.031 180.922C154.532 183.625 166.866 184.977 179.033 184.977C197.949 184.977 213.355 182.022 225.227 176.087C237.247 170.161 246.076 162.531 251.685 153.183C257.451 143.855 260.34 134.092 260.34 123.901C260.34 108.113 254.477 95.1924 242.756 85.1706C236.277 79.6307 228.175 75.6302 218.46 73.1589L250.62 40.4663L250.73 40.3541V40.1968V3.52882V3.14448H250.346H118.341H117.957V3.52882V48.5419V48.9263H118.341H180.717L155.241 74.8251L155.13 74.9372V75.0946V111.763V112.147H155.515H179.033C186.604 112.147 191.898 113.245 195 115.367L195 115.367L195.012 115.375C198.101 117.326 199.638 120.151 199.638 123.901C199.638 126.112 199.106 128.041 198.054 129.701C197.001 131.362 195.412 132.774 193.267 133.929C189.126 136.082 183.715 137.172 177.01 137.172C169.628 137.172 161.736 136.166 153.333 134.149C145.107 131.967 137.217 128.693 129.66 124.327L129.295 124.116L129.119 124.499L108.888 168.501ZM302.499 180.33L302.089 180.931H302.817H345.554H345.757L345.871 180.763L466.749 3.74556L467.16 3.14448H466.432H423.695H423.492L423.377 3.31208L302.499 180.33ZM295.552 94.3979L295.558 94.4012C302.7 98.1423 310.77 100.009 319.76 100.009C328.75 100.009 336.82 98.1423 343.962 94.4013L343.968 94.3979C351.116 90.4839 356.73 84.7828 360.81 77.3051C365.063 69.8181 367.181 60.8151 367.181 50.3121C367.181 39.8102 365.064 30.8903 360.809 23.5703C356.729 16.0935 351.115 10.3929 343.968 6.47919C336.825 2.56745 328.753 0.615654 319.76 0.615654C310.767 0.615654 302.695 2.56745 295.552 6.47919C288.405 10.393 282.707 16.0933 278.459 23.5696L278.457 23.5721C274.372 30.8917 272.34 39.8107 272.34 50.3121C272.34 60.8138 274.372 69.8155 278.456 77.3017L278.459 77.3075C282.707 84.7837 288.405 90.4841 295.552 94.3979ZM327.037 67.533L327.035 67.536C324.891 70.5042 322.466 71.9285 319.76 71.9285C317.227 71.9285 314.799 70.509 312.48 67.5291C310.201 64.4328 309.018 58.7303 309.018 50.3121C309.018 46.1131 309.312 42.6006 309.895 39.7685C310.479 36.9328 311.347 34.8049 312.477 33.3521L312.483 33.3441C314.807 30.1903 317.235 28.6957 319.76 28.6957C322.457 28.6957 324.881 30.194 327.029 33.3331L327.036 33.3428L327.043 33.3521C328.173 34.8049 329.041 36.9328 329.625 39.7685C330.208 42.6006 330.503 46.1131 330.503 50.3121C330.503 58.7339 329.318 64.4376 327.037 67.533ZM425.28 177.849L425.287 177.852C432.429 181.593 440.499 183.46 449.489 183.46C458.479 183.46 466.549 181.593 473.691 177.853L473.697 177.849C480.845 173.935 486.459 168.234 490.539 160.756C494.792 153.269 496.909 144.266 496.909 133.763C496.909 123.261 494.792 114.342 490.538 107.022C486.458 99.5447 480.844 93.8441 473.697 89.9304C466.554 86.0187 458.481 84.0669 449.489 84.0669C440.496 84.0669 432.423 86.0187 425.28 89.9304C418.133 93.8442 412.435 99.5446 408.188 107.021L408.186 107.023C404.101 114.343 402.068 123.262 402.068 133.763C402.068 144.265 404.101 153.267 408.184 160.753L408.188 160.759C412.435 168.235 418.133 173.935 425.28 177.849ZM456.766 150.984L456.764 150.987C454.62 153.955 452.195 155.38 449.489 155.38C446.956 155.38 444.528 153.96 442.209 150.98C439.93 147.884 438.746 142.182 438.746 133.763C438.746 129.564 439.04 126.052 439.623 123.22C440.207 120.384 441.076 118.256 442.206 116.803L442.212 116.795C444.536 113.642 446.964 112.147 449.489 112.147C452.186 112.147 454.61 113.645 456.758 116.784L456.765 116.794L456.772 116.803C457.902 118.256 458.77 120.384 459.354 123.22C459.937 126.052 460.231 129.564 460.231 133.763C460.231 142.185 459.047 147.889 456.766 150.984Z" stroke="#292929" stroke-width="0.768692"/>
</svg>
