<svg width="70" height="70" viewBox="0 0 70 70" fill="none" xmlns="http://www.w3.org/2000/svg">
<rect x="13" y="13" width="20" height="20" rx="3" stroke="#FD6C03" stroke-width="2"/>
<rect x="37" y="13" width="20" height="20" rx="3" stroke="#FD6C03" stroke-width="2"/>
<path d="M21.9084 25.9998H23.5659L20.5141 19.1748H18.9541L15.9121 25.9998H17.5306L18.1351 24.5373H21.3039L21.9084 25.9998ZM18.6421 23.3381L19.7244 20.7251L20.8066 23.3381H18.6421Z" fill="#FD6C03"/>
<path d="M26.2825 20.6763C25.444 20.6763 24.5957 20.9006 24.0205 21.3101L24.5665 22.3728C24.9467 22.0706 25.522 21.8853 26.0777 21.8853C26.8967 21.8853 27.2867 22.2656 27.2867 22.9188H26.0777C24.4787 22.9188 23.8255 23.5623 23.8255 24.4886C23.8255 25.3953 24.5567 26.0778 25.7852 26.0778C26.5555 26.0778 27.1015 25.8243 27.3842 25.3466V25.9998H28.8077V23.0066C28.8077 21.4173 27.8815 20.6763 26.2825 20.6763ZM26.1655 25.0541C25.6292 25.0541 25.3075 24.8006 25.3075 24.4203C25.3075 24.0693 25.5317 23.8061 26.2435 23.8061H27.2867V24.3423C27.1112 24.8201 26.6725 25.0541 26.1655 25.0541Z" fill="#FD6C03"/>
<path fill-rule="evenodd" clip-rule="evenodd" d="M45.866 18.5C45.4811 17.8333 44.5188 17.8333 44.1339 18.5L41.5359 23C41.151 23.6667 41.6321 24.5 42.4019 24.5H46.0309C46.277 26.4732 47.9602 28 50 28C52.2091 28 54 26.2091 54 24C54 21.7909 52.2091 20 50 20C48.9713 20 48.0333 20.3883 47.3246 21.0264L45.866 18.5ZM47.3246 21.0264C46.5113 21.7585 46 22.8195 46 24C46 24.1693 46.0105 24.3362 46.0309 24.5H47.598C48.3678 24.5 48.849 23.6667 48.4641 23L47.3246 21.0264Z" fill="#FD6C03"/>
<path d="M12 43.5H21" stroke="#FD6C03" stroke-width="2" stroke-linecap="round"/>
<path d="M34.5 43.5H58" stroke="#FD6C03" stroke-width="2" stroke-linecap="round"/>
<circle cx="27" cy="43" r="4" fill="#FD6C03"/>
<path d="M58 53.5H49" stroke="#FD6C03" stroke-width="2" stroke-linecap="round"/>
<path d="M35.5 53.5H12" stroke="#FD6C03" stroke-width="2" stroke-linecap="round"/>
<circle r="4" transform="matrix(-1 0 0 1 43 53)" fill="#FD6C03"/>
</svg>
