<svg width="70" height="70" viewBox="0 0 70 70" fill="none" xmlns="http://www.w3.org/2000/svg">
<path d="M62.0336 27.8617C61.2828 27.8617 60.6748 27.2496 60.6748 26.4946V17.3216C60.6748 16.5681 60.0654 15.9545 59.3159 15.9545H32.9526C32.2018 15.9545 31.5938 15.3424 31.5938 14.5874C31.5938 13.8325 32.2018 13.2203 32.9526 13.2203H59.3145C61.5628 13.2203 63.3925 15.0596 63.3925 17.3216V26.4946C63.3925 27.2496 62.7844 27.8617 62.0336 27.8617Z" fill="#FD6C03"/>
<path d="M7.84617 50.4422C7.09536 50.4422 6.4873 49.83 6.4873 49.0751V29.0573C6.4873 28.3024 7.09536 27.6902 7.84617 27.6902C8.59697 27.6902 9.20503 28.3024 9.20503 29.0573V49.0751C9.20503 49.83 8.5956 50.4422 7.84617 50.4422Z" fill="#FD6C03"/>
<path d="M59.235 64.0185H10.6453C6.4301 64.0185 3 60.5679 3 56.3279V55.5154C3 54.1496 4.10493 53.0378 5.4638 53.0378H64.4165C65.774 53.0378 66.8803 54.1496 66.8803 55.5154V56.3279C66.8803 60.5679 63.4502 64.0185 59.235 64.0185ZM5.71773 55.7707V56.3279C5.71773 59.0608 7.92759 61.2844 10.6453 61.2844H59.235C61.9513 61.2844 64.1625 59.0608 64.1625 56.3279V55.7707H5.71773Z" fill="#FD6C03"/>
<path d="M52.1383 30.5959C51.3875 30.5959 50.7794 29.9837 50.7794 29.2288V23.3637C50.7794 22.9012 50.4061 22.5264 49.9476 22.5264H26.6479C25.8971 22.5264 25.2891 21.9143 25.2891 21.1593C25.2891 20.4044 25.8971 19.7922 26.6479 19.7922H49.9462C51.9036 19.7922 53.4971 21.394 53.4971 23.3651V29.2302C53.4971 29.9837 52.8891 30.5959 52.1383 30.5959Z" fill="#FD6C03"/>
<path d="M40.4333 49.1988H19.9337C17.975 49.1988 16.3828 47.597 16.3828 45.6259V26.6581C16.3828 25.9032 16.9909 25.291 17.7417 25.291C18.4925 25.291 19.1005 25.9032 19.1005 26.6581V45.6259C19.1005 46.0885 19.4739 46.4646 19.9337 46.4646H40.4333C41.1841 46.4646 41.7922 47.0767 41.7922 47.8317C41.7922 48.5866 41.1841 49.1988 40.4333 49.1988Z" fill="#FD6C03"/>
<path d="M32.9832 39.2516C32.7087 39.2516 32.4355 39.1789 32.1912 39.0375C31.7053 38.7547 31.4033 38.2277 31.4033 37.6608V31.3277C31.4033 30.7608 31.7067 30.2337 32.1939 29.951C32.6812 29.6682 33.2851 29.6682 33.7738 29.951L39.2257 33.1161C39.713 33.3989 40.0163 33.9273 40.0163 34.4942C40.0163 35.0611 39.713 35.5895 39.2243 35.8723L33.7738 39.0375C33.5295 39.1816 33.2563 39.2516 32.9832 39.2516ZM34.121 33.3111V35.6801L36.1607 34.4956L34.121 33.3111Z" fill="#FD6C03"/>
<path d="M24.7816 28.5632C24.529 28.5632 24.2765 28.5001 24.0486 28.3724L21.099 26.7144C19.4903 27.3087 17.7814 27.6106 16.0094 27.6106C8.83625 27.6106 3 22.5389 3 16.3046C3 14.3899 3.55864 12.4985 4.61691 10.8362C6.90776 7.23595 11.2726 5 16.0094 5C23.1825 5 29.0188 10.0717 29.0188 16.306C29.0188 18.8439 28.0401 21.3009 26.2516 23.2829L26.2928 27.0287C26.2983 27.5681 26.0169 28.0746 25.5557 28.3518C25.3183 28.4919 25.0493 28.5632 24.7816 28.5632ZM21.1992 23.8374C21.4284 23.8374 21.6576 23.8951 21.8621 24.0103L23.5518 24.9602L23.5271 22.7558C23.5229 22.388 23.6671 22.0325 23.9265 21.773C25.4569 20.2385 26.2997 18.2963 26.2997 16.3046C26.2997 11.5774 21.6837 7.73282 16.0094 7.73282C12.1895 7.73282 8.70173 9.48699 6.90639 12.309C6.11852 13.5485 5.71773 14.8922 5.71773 16.3033C5.71773 21.0291 10.3337 24.8751 16.008 24.8751C17.6483 24.8751 19.2171 24.5621 20.6693 23.9445C20.8395 23.8731 21.0207 23.8374 21.1992 23.8374Z" fill="#FD6C03"/>
<path d="M21.3272 18.1082C22.2657 18.1082 23.0265 17.3431 23.0265 16.3993C23.0265 15.4555 22.2657 14.6904 21.3272 14.6904C20.3887 14.6904 19.6279 15.4555 19.6279 16.3993C19.6279 17.3431 20.3887 18.1082 21.3272 18.1082Z" fill="#FD6C03"/>
<path d="M16.0079 18.1082C16.9463 18.1082 17.7071 17.3431 17.7071 16.3993C17.7071 15.4555 16.9463 14.6904 16.0079 14.6904C15.0694 14.6904 14.3086 15.4555 14.3086 16.3993C14.3086 17.3431 15.0694 18.1082 16.0079 18.1082Z" fill="#FD6C03"/>
<path d="M10.6934 18.1082C11.6319 18.1082 12.3927 17.3431 12.3927 16.3993C12.3927 15.4555 11.6319 14.6904 10.6934 14.6904C9.75493 14.6904 8.99414 15.4555 8.99414 16.3993C8.99414 17.3431 9.75493 18.1082 10.6934 18.1082Z" fill="#FD6C03"/>
<path d="M61.9543 49.5693C61.7868 49.5693 61.618 49.5446 61.4561 49.491L51.6009 46.2778L45.0193 46.2654C44.0914 46.2654 43.3379 45.5064 43.3379 44.5744V35.6814C43.3379 34.7494 44.0914 33.9904 45.0193 33.9904H51.5652L61.4574 30.7648C61.9488 30.6056 62.4869 30.692 62.9028 30.9954C63.32 31.3001 63.5671 31.7901 63.5671 32.3076V47.9469C63.5671 48.4643 63.3187 48.9543 62.9028 49.2591C62.6241 49.4636 62.2906 49.5693 61.9543 49.5693ZM46.0556 43.5299H51.5268C51.837 43.5299 52.1458 43.5793 52.4409 43.6754L59.0293 45.8235L60.8494 46.4178V33.8366L52.1993 36.6573C52.0634 36.7012 51.9221 36.7246 51.7793 36.7246H46.0542V43.5299H46.0556Z" fill="#FD6C03"/>
<path d="M44.6964 45.2251H42.6718C41.0961 45.2251 39.8154 43.9363 39.8154 42.3523V37.9024C39.8154 36.317 41.0961 35.0295 42.6718 35.0295H44.6964V37.7637H42.6718C42.5963 37.7637 42.5332 37.8269 42.5332 37.9024V42.3523C42.5332 42.4278 42.5949 42.4909 42.6718 42.4909H44.6964V45.2251Z" fill="#FD6C03"/>
<path d="M62.209 45.4625V42.7283C63.6351 42.7283 64.7936 41.5629 64.7936 40.1286C64.7936 38.6942 63.6351 37.5275 62.209 37.5275V34.7933C65.1326 34.7933 67.5113 37.1871 67.5113 40.1286C67.5113 43.0687 65.1326 45.4625 62.209 45.4625Z" fill="#FD6C03"/>
<path d="M48.2394 51.1299C46.5772 51.1299 45.2266 49.771 45.2266 48.0992V44.897H47.9443V48.0992C47.9443 48.4245 48.5331 48.4245 48.5331 48.0992V44.897H51.2509V48.0992C51.2522 49.771 49.9016 51.1299 48.2394 51.1299Z" fill="#FD6C03"/>
</svg>
