<svg width="70" height="70" viewBox="0 0 70 70" fill="none" xmlns="http://www.w3.org/2000/svg">
<path d="M11.0567 30.7602V27.8329C11.0567 27.4768 10.9152 27.1352 10.6634 26.8834C10.4116 26.6316 10.07 26.4901 9.7139 26.4901C9.35776 26.4901 9.01622 26.6316 8.76439 26.8834C8.51257 27.1352 8.37109 27.4768 8.37109 27.8329V38.5753C8.37109 38.9315 8.51257 39.273 8.76439 39.5248C9.01622 39.7767 9.35776 39.9181 9.7139 39.9181C10.07 39.9181 10.4116 39.7767 10.6634 39.5248C10.9152 39.273 11.0567 38.9315 11.0567 38.5753V34.5469C11.0567 34.1908 11.1982 33.8492 11.45 33.5974C11.7018 33.3456 12.0434 33.2041 12.3995 33.2041C12.7556 33.2041 13.0972 33.3456 13.349 33.5974C13.6008 33.8492 13.7423 34.1908 13.7423 34.5469V38.5753C13.7423 38.9315 13.8838 39.273 14.1356 39.5248C14.3874 39.7767 14.729 39.9181 15.0851 39.9181C15.4412 39.9181 15.7828 39.7767 16.0346 39.5248C16.2864 39.273 16.4279 38.9315 16.4279 38.5753V34.5469C16.4261 33.9034 16.2702 33.2697 15.9731 32.6988C15.6761 32.128 15.2466 31.6366 14.7207 31.2658C14.1947 30.895 13.5876 30.6556 12.9501 30.5676C12.3127 30.4797 11.6634 30.5457 11.0567 30.7602Z" fill="#FD6C03"/>
<path d="M23.1417 33.2041C23.4979 33.2041 23.8394 33.0626 24.0912 32.8108C24.3431 32.559 24.4845 32.2175 24.4845 31.8613C24.4845 31.5052 24.3431 31.1636 24.0912 30.9118C23.8394 30.66 23.4979 30.5185 23.1417 30.5185H21.7989V27.8329C21.7989 27.4768 21.6575 27.1352 21.4056 26.8834C21.1538 26.6316 20.8123 26.4901 20.4561 26.4901C20.1 26.4901 19.7585 26.6316 19.5066 26.8834C19.2548 27.1352 19.1133 27.4768 19.1133 27.8329V30.5185H17.7705C17.4144 30.5185 17.0729 30.66 16.821 30.9118C16.5692 31.1636 16.4277 31.5052 16.4277 31.8613C16.4277 32.2175 16.5692 32.559 16.821 32.8108C17.0729 33.0626 17.4144 33.2041 17.7705 33.2041H19.1133V35.8897C19.1133 39.9181 24.4845 41.1535 24.4845 38.5753C24.4845 38.2192 24.3431 37.8776 24.0912 37.6258C23.8394 37.374 23.4979 37.2325 23.1417 37.2325C22.7856 37.2325 22.4441 37.0911 22.1922 36.8392C21.9404 36.5874 21.7989 36.2459 21.7989 35.8897V33.2041H23.1417Z" fill="#FD6C03"/>
<path d="M32.5421 33.2041C32.8983 33.2041 33.2398 33.0626 33.4916 32.8108C33.7435 32.559 33.8849 32.2175 33.8849 31.8613C33.8849 31.5052 33.7435 31.1636 33.4916 30.9118C33.2398 30.66 32.8983 30.5185 32.5421 30.5185H31.1993V27.8329C31.1993 27.4768 31.0579 27.1352 30.806 26.8834C30.5542 26.6316 30.2127 26.4901 29.8565 26.4901C29.5004 26.4901 29.1588 26.6316 28.907 26.8834C28.6552 27.1352 28.5137 27.4768 28.5137 27.8329V30.5185H27.1709C26.8148 30.5185 26.4732 30.66 26.2214 30.9118C25.9696 31.1636 25.8281 31.5052 25.8281 31.8613C25.8281 32.2175 25.9696 32.559 26.2214 32.8108C26.4732 33.0626 26.8148 33.2041 27.1709 33.2041H28.5137V35.8897C28.5137 39.9181 33.8849 41.1535 33.8849 38.5753C33.8849 38.2192 33.7435 37.8776 33.4916 37.6258C33.2398 37.374 32.8983 37.2325 32.5421 37.2325C32.186 37.2325 31.8445 37.0911 31.5926 36.8392C31.3408 36.5874 31.1993 36.2459 31.1993 35.8897V33.2041H32.5421Z" fill="#FD6C03"/>
<path d="M39.2559 30.5184H36.5703C36.2142 30.5184 35.8727 30.6599 35.6208 30.9117C35.369 31.1636 35.2275 31.5051 35.2275 31.8612V41.2608C35.2275 41.617 35.369 41.9585 35.6208 42.2104C35.8727 42.4622 36.2142 42.6037 36.5703 42.6037C36.9265 42.6037 37.268 42.4622 37.5198 42.2104C37.7717 41.9585 37.9131 41.617 37.9131 41.2608V38.5752H39.2559C40.3243 38.5752 41.349 38.1508 42.1045 37.3954C42.8599 36.6399 43.2844 35.6152 43.2844 34.5468C43.2844 33.4784 42.8599 32.4538 42.1045 31.6983C41.349 30.9429 40.3243 30.5184 39.2559 30.5184ZM39.2559 35.8896H37.9131V33.204H39.2559C39.6121 33.204 39.9536 33.3455 40.2055 33.5973C40.4573 33.8492 40.5987 34.1907 40.5987 34.5468C40.5987 34.903 40.4573 35.2445 40.2055 35.4963C39.9536 35.7482 39.6121 35.8896 39.2559 35.8896Z" fill="#FD6C03"/>
<path d="M46.8019 30.6259C46.5597 30.7291 46.3531 30.9012 46.2079 31.1209C46.0628 31.3405 45.9854 31.598 45.9854 31.8613C45.9854 32.1246 46.0628 32.3821 46.2079 32.6017C46.3531 32.8214 46.5597 32.9935 46.8019 33.0967C47.0041 33.1797 47.2236 33.2121 47.4413 33.1911C47.6589 33.17 47.8681 33.0961 48.0507 32.9758C48.3144 32.7862 48.5003 32.5074 48.5742 32.1911C48.648 31.8748 48.6047 31.5424 48.4523 31.2556C48.2999 30.9688 48.0487 30.747 47.7452 30.6312C47.4418 30.5154 47.1066 30.5135 46.8019 30.6259Z" fill="#FD6C03"/>
<path d="M48.2658 36.2791C48.046 36.0602 47.7571 35.9241 47.4483 35.8941C47.1395 35.8641 46.8299 35.9419 46.572 36.1144C46.3141 36.2869 46.1238 36.5433 46.0336 36.8401C45.9434 37.137 45.9588 37.4559 46.0771 37.7427C46.8828 39.7032 49.7026 37.877 48.2658 36.2791Z" fill="#FD6C03"/>
<path d="M54.0269 28.8533L51.3413 39.5958C51.271 39.9357 51.3351 40.2897 51.5202 40.5834C51.7052 40.877 51.9968 41.0877 52.3338 41.1711C52.6707 41.2544 53.0269 41.2041 53.3275 41.0305C53.6282 40.857 53.8499 40.5738 53.9463 40.2403L56.6319 29.4979C56.7022 29.1579 56.6381 28.804 56.453 28.5103C56.268 28.2166 55.9764 28.006 55.6394 27.9226C55.3025 27.8392 54.9463 27.8896 54.6456 28.0631C54.345 28.2367 54.1232 28.5199 54.0269 28.8533Z" fill="#FD6C03"/>
<path d="M59.398 28.8533L56.7124 39.5958C56.6421 39.9357 56.7062 40.2897 56.8913 40.5834C57.0763 40.877 57.3679 41.0877 57.7049 41.1711C58.0418 41.2544 58.398 41.2041 58.6986 41.0305C58.9993 40.857 59.221 40.5738 59.3174 40.2403L62.003 29.4979C62.0733 29.1579 62.0092 28.804 61.8241 28.5103C61.6391 28.2166 61.3475 28.006 61.0105 27.9226C60.6735 27.8392 60.3174 27.8896 60.0167 28.0631C59.7161 28.2367 59.4943 28.5199 59.398 28.8533Z" fill="#FD6C03"/>
<path d="M63.4261 21.1189H61.5327C50.6426 -0.218256 19.973 -0.527101 8.92176 21.1189H7.02841C5.96001 21.1189 4.93537 21.5433 4.17989 22.2988C3.42442 23.0542 3 24.0789 3 25.1473L3 43.9465C3 45.0149 3.42442 46.0395 4.17989 46.795C4.93537 47.5505 5.96001 47.9749 7.02841 47.9749H8.92176C20.0133 69.7014 50.6829 69.218 61.5327 47.9749H63.4261C64.4945 47.9749 65.5191 47.5505 66.2746 46.795C67.0301 46.0395 67.4545 45.0149 67.4545 43.9465V25.1473C67.4545 24.0789 67.0301 23.0542 66.2746 22.2988C65.5191 21.5433 64.4945 21.1189 63.4261 21.1189ZM58.4846 21.1189H49.6087C49.1093 19.2533 48.4627 17.4304 47.675 15.6671C49.077 15.0054 50.4241 14.2331 51.7034 13.3575C54.4411 15.4853 56.7434 18.1204 58.4846 21.1189ZM23.5717 21.1189C24.0165 19.6081 24.5592 18.1278 25.1965 16.6876C27.987 17.7074 30.9166 18.296 33.8844 18.4333V21.1189H23.5717ZM43.2841 8.93965C45.4289 9.60703 47.4815 10.5409 49.3938 11.7193C48.4517 12.3033 47.474 12.828 46.4665 13.2903C45.5925 11.7123 44.5233 10.2505 43.2841 8.93965ZM43.9017 14.3109C41.5388 15.1367 39.0699 15.6205 36.57 15.7477V7.82513C39.2557 8.40253 41.9413 10.7256 43.9555 14.284L43.9017 14.3109ZM33.8844 7.82513V15.7477C31.3678 15.6343 28.8805 15.1595 26.499 14.3377C28.5132 10.7256 31.1988 8.40253 33.8844 7.82513ZM23.988 13.2769C22.9852 12.8189 22.012 12.2987 21.0741 11.7193C22.9633 10.5749 24.9889 9.67257 27.1033 9.03365C25.8933 10.3137 24.8468 11.739 23.988 13.2769ZM36.57 18.4333C39.517 18.3079 42.428 17.7375 45.2043 16.7413C45.8394 18.1641 46.3821 19.6263 46.8291 21.1189H36.57V18.4333ZM18.7108 13.3575C19.9898 14.2336 21.3369 15.0059 22.7392 15.6671C21.9652 17.4315 21.3321 19.2545 20.8458 21.1189H11.9699C13.6961 18.1218 15.985 15.4864 18.7108 13.3575ZM11.9699 47.9749H20.8458C21.3452 49.8404 21.9918 51.6634 22.7795 53.4267C21.3775 54.0884 20.0304 54.8607 18.7511 55.7363C16.0134 53.6085 13.711 50.9734 11.9699 47.9749ZM46.8828 47.9749C46.438 49.4857 45.8952 50.9659 45.258 52.4062C42.4675 51.3864 39.5379 50.7977 36.57 50.6605V47.9749H46.8828ZM27.1704 60.1541C25.0256 59.4867 22.973 58.5529 21.0607 57.3745C22.0028 56.7904 22.9805 56.2657 23.988 55.8034C24.862 57.3815 25.9312 58.8432 27.1704 60.1541ZM26.5527 54.7829C28.9157 53.9571 31.3846 53.4732 33.8844 53.3461V61.2687C31.1988 60.6912 28.5132 58.3682 26.499 54.8098L26.5527 54.7829ZM36.57 61.2687V53.3461C39.0867 53.4595 41.574 53.9343 43.9555 54.7561C41.9413 58.3682 39.2557 60.6912 36.57 61.2687ZM46.4665 55.8169C47.4693 56.2749 48.4425 56.7951 49.3804 57.3745C47.4945 58.5422 45.4688 59.4671 43.3512 60.1273C44.5658 58.8264 45.6124 57.3783 46.4665 55.8169ZM33.8844 50.6605C30.9375 50.7859 28.0265 51.3563 25.2502 52.3524C24.6151 50.9297 24.0724 49.4675 23.6254 47.9749H33.8844V50.6605ZM51.7437 55.6826C50.4647 54.8065 49.1176 54.0341 47.7153 53.373C48.4866 51.6259 49.1197 49.821 49.6087 47.9749H58.4846C56.7584 50.972 54.4695 53.6074 51.7437 55.7363V55.6826ZM64.7689 43.9465C64.7689 44.3026 64.6274 44.6442 64.3756 44.896C64.1238 45.1478 63.7822 45.2893 63.4261 45.2893H7.02841C6.67227 45.2893 6.33073 45.1478 6.0789 44.896C5.82708 44.6442 5.6856 44.3026 5.6856 43.9465V25.1473C5.6856 24.7911 5.82708 24.4496 6.0789 24.1978C6.33073 23.9459 6.67227 23.8045 7.02841 23.8045H63.4261C63.7822 23.8045 64.1238 23.9459 64.3756 24.1978C64.6274 24.4496 64.7689 24.7911 64.7689 25.1473V43.9465Z" fill="#FD6C03"/>
</svg>
