<svg width="70" height="70" viewBox="0 0 70 70" fill="none" xmlns="http://www.w3.org/2000/svg">
<path d="M7.84617 50.4422C7.09536 50.4422 6.4873 49.83 6.4873 49.0751V29.0573C6.4873 28.3024 7.09536 27.6902 7.84617 27.6902C8.59697 27.6902 9.20503 28.3024 9.20503 29.0573V49.0751C9.20503 49.83 8.5956 50.4422 7.84617 50.4422Z" fill="#FD6C03"/>
<path d="M59.235 64.0185H10.6453C6.4301 64.0185 3 60.5679 3 56.3279V55.5154C3 54.1496 4.10493 53.0378 5.4638 53.0378H64.4165C65.774 53.0378 66.8803 54.1496 66.8803 55.5154V56.3279C66.8803 60.5679 63.4502 64.0185 59.235 64.0185ZM5.71773 55.7707V56.3279C5.71773 59.0608 7.92759 61.2844 10.6453 61.2844H59.235C61.9513 61.2844 64.1625 59.0608 64.1625 56.3279V55.7707H5.71773Z" fill="#FD6C03"/>
<path d="M32.9844 14.7012H59.2148C60.8717 14.7012 62.2148 16.0443 62.2148 17.7012V23.9259" stroke="#FD6C03" stroke-width="3" stroke-linecap="round"/>
<path d="M30.708 19.1786C29.8796 19.1786 29.208 19.8502 29.208 20.6786C29.208 21.507 29.8796 22.1786 30.708 22.1786V19.1786ZM50.7571 25.7107C50.7571 26.5391 51.4287 27.2107 52.2571 27.2107C53.0855 27.2107 53.7571 26.5391 53.7571 25.7107H50.7571ZM30.708 22.1786H49.2571V19.1786H30.708V22.1786ZM50.7571 23.6786V25.7107H53.7571V23.6786H50.7571ZM49.2571 22.1786C50.0855 22.1786 50.7571 22.8502 50.7571 23.6786H53.7571C53.7571 21.1933 51.7424 19.1786 49.2571 19.1786V22.1786Z" fill="#FD6C03"/>
<path d="M16.207 30.5227C16.207 29.6943 16.8786 29.0227 17.707 29.0227C18.5355 29.0227 19.207 29.6943 19.207 30.5227H16.207ZM40.6707 46.4738C41.4991 46.4738 42.1707 47.1454 42.1707 47.9738C42.1707 48.8022 41.4991 49.4738 40.6707 49.4738V46.4738ZM19.207 30.5227L19.207 44.9738H16.207L16.207 30.5227H19.207ZM20.707 46.4738L40.6707 46.4738V49.4738L20.707 49.4738V46.4738ZM19.207 44.9738C19.207 45.8022 19.8786 46.4738 20.707 46.4738V49.4738C18.2218 49.4738 16.207 47.4591 16.207 44.9738H19.207Z" fill="#FD6C03"/>
<path d="M27.25 31.1948H43.25" stroke="#FD6C03" stroke-width="2" stroke-linecap="round"/>
<path d="M27.25 35.6948H38.75" stroke="#FD6C03" stroke-width="2" stroke-linecap="round"/>
<path d="M26.75 40.1948H37.25" stroke="#FD6C03" stroke-width="2" stroke-linecap="round"/>
<mask id="path-9-inside-1_1994_17915" fill="white">
<path d="M45.3828 36.4756C45.3828 35.371 46.2782 34.4756 47.3828 34.4756H60.9319C62.0364 34.4756 62.9319 35.371 62.9319 36.4756V44.6016C62.9319 46.8107 61.141 48.6016 58.9319 48.6016H49.3828C47.1737 48.6016 45.3828 46.8107 45.3828 44.6016V36.4756Z"/>
</mask>
<path d="M45.3828 36.4756C45.3828 35.371 46.2782 34.4756 47.3828 34.4756H60.9319C62.0364 34.4756 62.9319 35.371 62.9319 36.4756V44.6016C62.9319 46.8107 61.141 48.6016 58.9319 48.6016H49.3828C47.1737 48.6016 45.3828 46.8107 45.3828 44.6016V36.4756Z" stroke="#FD6C03" stroke-width="5" mask="url(#path-9-inside-1_1994_17915)"/>
<path d="M58.1572 38.9728V34.5049C58.1572 32.2957 56.3664 30.5049 54.1572 30.5049V30.5049C51.9481 30.5049 50.1572 32.2957 50.1572 34.5049V38.9728" stroke="#FD6C03" stroke-width="2" stroke-linecap="round"/>
<path d="M18 17.5048C18.4295 18.079 18.9774 18.554 19.6066 18.8978C20.2357 19.2415 20.9315 19.446 21.6467 19.4972C22.3618 19.5484 23.0796 19.4452 23.7513 19.1946C24.4231 18.944 25.0331 18.5519 25.54 18.0448L28.54 15.0448C29.4508 14.1018 29.9548 12.8388 29.9434 11.5278C29.932 10.2169 29.4061 8.9628 28.4791 8.03576C27.5521 7.10871 26.298 6.58287 24.987 6.57148C23.676 6.56009 22.413 7.06406 21.47 7.97485L19.75 9.68485" stroke="#FD6C03" stroke-width="2.5" stroke-linecap="round" stroke-linejoin="round"/>
<path d="M22.0002 15.5049C21.5707 14.9307 21.0228 14.4557 20.3936 14.1119C19.7645 13.7682 19.0687 13.5637 18.3535 13.5125C17.6384 13.4613 16.9206 13.5645 16.2489 13.8151C15.5771 14.0657 14.9671 14.4578 14.4602 14.9649L11.4602 17.9649C10.5494 18.9079 10.0454 20.1709 10.0568 21.4819C10.0682 22.7929 10.5941 24.0469 11.5211 24.974C12.4481 25.901 13.7022 26.4268 15.0132 26.4382C16.3242 26.4496 17.5872 25.9457 18.5302 25.0349L20.2402 23.3249" stroke="#FD6C03" stroke-width="2.5" stroke-linecap="round" stroke-linejoin="round"/>
</svg>
