<svg width="70" height="70" viewBox="0 0 70 70" fill="none" xmlns="http://www.w3.org/2000/svg">
<path d="M12.5689 58.1511C12.0689 57.9168 11.4735 58.1321 11.2391 58.6322C11.0047 59.1323 11.22 59.7277 11.7201 59.9621L12.5689 58.1511ZM17.4766 59.0566L17.0606 58.1472L17.4766 59.0566ZM26.202 41.6062L26.202 42.6062L26.202 41.6062ZM36.6239 53.1497C37.1762 53.1497 37.6239 52.702 37.6239 52.1497C37.6239 51.5974 37.1762 51.1497 36.6239 51.1497V53.1497ZM11.7201 59.9621C12.522 60.3379 13.5759 60.5507 14.6382 60.574C15.7046 60.5975 16.8732 60.4322 17.8925 59.966L17.0606 58.1472C16.3864 58.4556 15.5353 58.5933 14.6822 58.5745C13.825 58.5557 13.0597 58.3812 12.5689 58.1511L11.7201 59.9621ZM17.8925 59.966C19.7087 59.1353 20.58 57.3508 21.0777 55.5102C21.5762 53.6665 21.7757 51.4565 22.024 49.4964C22.2823 47.4578 22.5924 45.6886 23.2431 44.4325C23.5581 43.8246 23.9319 43.3813 24.3803 43.0863C24.822 42.7957 25.4008 42.6062 26.202 42.6062L26.202 40.6062C25.0648 40.6062 24.0921 40.8819 23.2811 41.4155C22.4766 41.9447 21.8962 42.6847 21.4673 43.5125C20.6302 45.1281 20.2937 47.2412 20.0399 49.245C19.7761 51.3273 19.5981 53.3198 19.147 54.9882C18.6951 56.6598 18.0447 57.6971 17.0606 58.1472L17.8925 59.966ZM26.202 42.6062C26.8321 42.6062 27.2743 42.7382 27.6049 42.9273C27.9381 43.1179 28.2184 43.4014 28.4708 43.7942C29.0116 44.6359 29.315 45.7732 29.7482 47.1735C30.1538 48.4843 30.6704 49.9963 31.6996 51.1636C32.7834 52.3928 34.3461 53.1497 36.6239 53.1497V51.1497C34.8488 51.1497 33.8591 50.5887 33.1998 49.8409C32.486 49.0313 32.0689 47.9076 31.6589 46.5824C31.2766 45.3469 30.8828 43.8483 30.1534 42.7131C29.7707 42.1175 29.2727 41.5773 28.598 41.1913C27.9207 40.8038 27.1255 40.6062 26.202 40.6062L26.202 42.6062Z" fill="#FD6C03"/>
<path d="M24 11V15" stroke="#FD6C03" stroke-width="2" stroke-linecap="round" stroke-linejoin="round"/>
<path d="M24 27V31" stroke="#FD6C03" stroke-width="2" stroke-linecap="round" stroke-linejoin="round"/>
<path d="M16.9299 13.9301L19.7599 16.7601" stroke="#FD6C03" stroke-width="2" stroke-linecap="round" stroke-linejoin="round"/>
<path d="M28.24 25.24L31.07 28.07" stroke="#FD6C03" stroke-width="2" stroke-linecap="round" stroke-linejoin="round"/>
<path d="M14 21H18" stroke="#FD6C03" stroke-width="2" stroke-linecap="round" stroke-linejoin="round"/>
<path d="M30 21H34" stroke="#FD6C03" stroke-width="2" stroke-linecap="round" stroke-linejoin="round"/>
<path d="M16.9299 28.07L19.7599 25.24" stroke="#FD6C03" stroke-width="2" stroke-linecap="round" stroke-linejoin="round"/>
<path d="M28.24 16.7601L31.07 13.9301" stroke="#FD6C03" stroke-width="2" stroke-linecap="round" stroke-linejoin="round"/>
<path d="M60 11H44C42.8954 11 42 11.8954 42 13V17C42 18.1046 42.8954 19 44 19H60C61.1046 19 62 18.1046 62 17V13C62 11.8954 61.1046 11 60 11Z" stroke="#FD6C03" stroke-width="2" stroke-linecap="round" stroke-linejoin="round"/>
<path d="M60 23H44C42.8954 23 42 23.8954 42 25V29C42 30.1046 42.8954 31 44 31H60C61.1046 31 62 30.1046 62 29V25C62 23.8954 61.1046 23 60 23Z" stroke="#FD6C03" stroke-width="2" stroke-linecap="round" stroke-linejoin="round"/>
<path d="M46 15H46.01" stroke="#FD6C03" stroke-width="2" stroke-linecap="round" stroke-linejoin="round"/>
<path d="M46 27H46.01" stroke="#FD6C03" stroke-width="2" stroke-linecap="round" stroke-linejoin="round"/>
<path fill-rule="evenodd" clip-rule="evenodd" d="M54.1138 41.6664C54.3904 41.7842 54.57 42.0558 54.57 42.3565V49.3547H58.5C58.7667 49.3547 59.0133 49.4963 59.1478 49.7266C59.2822 49.957 59.2842 50.2414 59.153 50.4736L58.6609 51.3445C56.7948 54.6471 54.4149 57.6317 51.6106 60.1863L50.8151 60.9109C50.5955 61.1109 50.2786 61.1625 50.0069 61.0425C49.7353 60.9225 49.56 60.6535 49.56 60.3565V53.4176H45.5C45.0858 53.4176 44.75 53.0818 44.75 52.6676C44.75 52.5334 44.7852 52.4075 44.8469 52.2986C46.6057 49.0471 48.8575 46.0876 51.5222 43.5254L53.3002 41.8158C53.5169 41.6074 53.8371 41.5486 54.1138 41.6664ZM46.7846 51.9176H50.31C50.7242 51.9176 51.06 52.2534 51.06 52.6676V58.651C53.4786 56.3654 55.5517 53.7391 57.2134 50.8547H53.82C53.4058 50.8547 53.07 50.5189 53.07 50.1047V44.1181L52.5619 44.6067C50.3111 46.7709 48.3678 49.2309 46.7846 51.9176Z" fill="#FD6C03"/>
</svg>
