<svg width="520" height="187" viewBox="0 0 520 187" fill="none" xmlns="http://www.w3.org/2000/svg">
<path d="M167.739 111.305H171.739V107.305H167.739V111.305ZM138.445 111.305H134.445V115.305H138.445V111.305ZM138.445 77.6424H142.445V73.6424H138.445V77.6424ZM99.1285 77.6424V73.6424H95.1285V77.6424H99.1285ZM99.1285 111.305V115.305H103.128V111.305H99.1285ZM50.8182 111.305L47.5826 108.954L42.9658 115.305H50.8182V111.305ZM129.451 3.1212L132.687 5.47297L137.303 -0.878799H129.451V3.1212ZM85.7661 3.1212V-0.878799H83.7552L82.5557 0.735107L85.7661 3.1212ZM0.966061 117.216L-2.24432 114.83L-3.03394 115.892V117.216H0.966061ZM0.966061 145.225H-3.03394V149.225H0.966061V145.225ZM97.8436 145.225H101.844V141.225H97.8436V145.225ZM97.8436 183H93.8436V187H97.8436V183ZM138.445 183V187H142.445V183H138.445ZM138.445 145.225V141.225H134.445V145.225H138.445ZM167.739 145.225V149.225H171.739V145.225H167.739ZM167.739 107.305H138.445V115.305H167.739V107.305ZM142.445 111.305V77.6424H134.445V111.305H142.445ZM138.445 73.6424H99.1285V81.6424H138.445V73.6424ZM95.1285 77.6424V111.305H103.128V77.6424H95.1285ZM99.1285 107.305H50.8182V115.305H99.1285V107.305ZM54.0538 113.657L132.687 5.47297L126.215 0.769428L47.5826 108.954L54.0538 113.657ZM129.451 -0.878799H85.7661V7.1212H129.451V-0.878799ZM82.5557 0.735107L-2.24432 114.83L4.17644 119.602L88.9764 5.50729L82.5557 0.735107ZM-3.03394 117.216V145.225H4.96606V117.216H-3.03394ZM0.966061 149.225H97.8436V141.225H0.966061V149.225ZM93.8436 145.225V183H101.844V145.225H93.8436ZM97.8436 187H138.445V179H97.8436V187ZM142.445 183V145.225H134.445V183H142.445ZM138.445 149.225H167.739V141.225H138.445V149.225ZM171.739 145.225V111.305H163.739V145.225H171.739ZM257.281 190.084C280.579 190.084 300.988 181.23 315.521 164.451C330.013 147.72 338.372 123.454 338.372 93.0606H330.372C330.372 122.028 322.414 144.273 309.474 159.213C296.576 174.106 278.439 182.084 257.281 182.084V190.084ZM338.372 93.0606C338.372 62.6675 330.013 38.4015 315.521 21.6703C300.988 4.89102 280.579 -3.96243 257.281 -3.96243V4.03757C278.439 4.03757 296.576 12.0156 309.474 26.9079C322.414 41.8482 330.372 64.0937 330.372 93.0606H338.372ZM257.281 -3.96243C234.107 -3.96243 213.702 4.89423 199.141 21.6668C184.618 38.3945 176.19 62.6597 176.19 93.0606H184.19C184.19 64.1015 192.208 41.8551 205.182 26.9114C218.116 12.0124 236.257 4.03757 257.281 4.03757V-3.96243ZM176.19 93.0606C176.19 123.462 184.618 147.727 199.141 164.454C213.702 181.227 234.107 190.084 257.281 190.084V182.084C236.257 182.084 218.116 174.109 205.182 159.21C192.208 144.266 184.19 122.02 184.19 93.0606H176.19ZM257.281 146.879C248.286 146.879 240.831 143.264 235.437 135.089C229.885 126.674 226.333 113.126 226.333 93.0606H218.333C218.333 113.853 221.977 129.214 228.76 139.494C235.7 150.013 245.719 154.879 257.281 154.879V146.879ZM226.333 93.0606C226.333 72.9953 229.885 59.447 235.437 51.0326C240.831 42.8568 248.286 39.2424 257.281 39.2424V31.2424C245.719 31.2424 235.7 36.108 228.76 46.6268C221.977 56.9069 218.333 72.2677 218.333 93.0606H226.333ZM257.281 39.2424C266.422 39.2424 273.938 42.8714 279.356 51.0406C284.934 59.4511 288.486 72.994 288.486 93.0606H296.486C296.486 72.2691 292.843 56.9028 286.023 46.6188C279.042 36.0934 268.955 31.2424 257.281 31.2424V39.2424ZM288.486 93.0606C288.486 113.127 284.934 126.67 279.356 135.081C273.938 143.25 266.422 146.879 257.281 146.879V154.879C268.955 154.879 279.042 150.028 286.023 139.502C292.843 129.218 296.486 113.852 296.486 93.0606H288.486ZM519.316 111.305H523.316V107.305H519.316V111.305ZM490.022 111.305H486.022V115.305H490.022V111.305ZM490.022 77.6424H494.022V73.6424H490.022V77.6424ZM450.705 77.6424V73.6424H446.705V77.6424H450.705ZM450.705 111.305V115.305H454.705V111.305H450.705ZM402.395 111.305L399.159 108.954L394.543 115.305H402.395V111.305ZM481.028 3.1212L484.263 5.47297L488.88 -0.878799H481.028V3.1212ZM437.343 3.1212V-0.878799H435.332L434.132 0.735107L437.343 3.1212ZM352.543 117.216L349.332 114.83L348.543 115.892V117.216H352.543ZM352.543 145.225H348.543V149.225H352.543V145.225ZM449.42 145.225H453.42V141.225H449.42V145.225ZM449.42 183H445.42V187H449.42V183ZM490.022 183V187H494.022V183H490.022ZM490.022 145.225V141.225H486.022V145.225H490.022ZM519.316 145.225V149.225H523.316V145.225H519.316ZM519.316 107.305H490.022V115.305H519.316V107.305ZM494.022 111.305V77.6424H486.022V111.305H494.022ZM490.022 73.6424H450.705V81.6424H490.022V73.6424ZM446.705 77.6424V111.305H454.705V77.6424H446.705ZM450.705 107.305H402.395V115.305H450.705V107.305ZM405.631 113.657L484.263 5.47297L477.792 0.769428L399.159 108.954L405.631 113.657ZM481.028 -0.878799H437.343V7.1212H481.028V-0.878799ZM434.132 0.735107L349.332 114.83L355.753 119.602L440.553 5.50729L434.132 0.735107ZM348.543 117.216V145.225H356.543V117.216H348.543ZM352.543 149.225H449.42V141.225H352.543V149.225ZM445.42 145.225V183H453.42V145.225H445.42ZM449.42 187H490.022V179H449.42V187ZM494.022 183V145.225H486.022V183H494.022ZM490.022 149.225H519.316V141.225H490.022V149.225ZM523.316 145.225V111.305H515.316V145.225H523.316Z" fill="#FD6C03"/>
</svg>
