<svg width="70" height="70" viewBox="0 0 70 70" fill="none" xmlns="http://www.w3.org/2000/svg">
<path d="M38.3621 32.6647H18.1909C17.43 32.6647 16.8125 32.0499 16.8125 31.2918C16.8125 30.5337 17.43 29.9189 18.1909 29.9189H38.3621C39.1243 29.9189 39.7404 30.5337 39.7404 31.2918C39.7404 32.0499 39.1243 32.6647 38.3621 32.6647Z" fill="#FD6C03"/>
<path d="M38.3621 37.2712H18.1909C17.43 37.2712 16.8125 36.6565 16.8125 35.8984C16.8125 35.1403 17.43 34.5255 18.1909 34.5255H38.3621C39.1243 34.5255 39.7404 35.1403 39.7404 35.8984C39.7404 36.6565 39.1243 37.2712 38.3621 37.2712Z" fill="#FD6C03"/>
<path d="M51.9693 37.2713H43.3628C42.6005 37.2713 41.9844 36.6565 41.9844 35.8984V31.0534C41.9844 30.2953 42.6005 29.6805 43.3628 29.6805H51.9693C52.7316 29.6805 53.3477 30.2953 53.3477 31.0534V35.8984C53.3477 36.6565 52.7316 37.2713 51.9693 37.2713ZM44.7411 34.5255H50.591V32.4263H44.7411V34.5255Z" fill="#FD6C03"/>
<path d="M51.9701 46.4126H18.1171C17.3563 46.4126 16.7388 45.7993 16.7388 45.0398V40.1948C16.7388 39.4367 17.3563 38.8219 18.1171 38.8219H51.9701C52.7324 38.8219 53.3485 39.4353 53.3485 40.1948V45.0398C53.3485 45.7993 52.7324 46.4126 51.9701 46.4126ZM19.4955 43.6669H50.5917V41.5676H19.4955V43.6669Z" fill="#FD6C03"/>
<path d="M57.1875 47.2286C56.4252 47.2286 55.8091 46.6152 55.8091 45.8557V17.8939H14.976V45.8557C14.976 46.6138 14.3585 47.2286 13.5976 47.2286C12.8368 47.2286 12.2192 46.6152 12.2192 45.8557V16.5211C12.2192 15.763 12.8368 15.1482 13.5976 15.1482H57.1861C57.9483 15.1482 58.5645 15.763 58.5645 16.5211V45.8557C58.5658 46.6152 57.9483 47.2286 57.1875 47.2286Z" fill="#FD6C03"/>
<path d="M13.5977 24.8851H57.1861V27.6309H13.5977V24.8851Z" fill="#FD6C03"/>
<path d="M19.3343 23.1512C20.2859 23.1512 21.0573 22.3828 21.0573 21.4351C21.0573 20.4873 20.2859 19.719 19.3343 19.719C18.3827 19.719 17.6113 20.4873 17.6113 21.4351C17.6113 22.3828 18.3827 23.1512 19.3343 23.1512Z" fill="#FD6C03"/>
<path d="M24.5194 23.1512C25.4709 23.1512 26.2423 22.3828 26.2423 21.4351C26.2423 20.4873 25.4709 19.719 24.5194 19.719C23.5678 19.719 22.7964 20.4873 22.7964 21.4351C22.7964 22.3828 23.5678 23.1512 24.5194 23.1512Z" fill="#FD6C03"/>
<path d="M29.7054 23.1512C30.657 23.1512 31.4284 22.3828 31.4284 21.4351C31.4284 20.4873 30.657 19.719 29.7054 19.719C28.7538 19.719 27.9824 20.4873 27.9824 21.4351C27.9824 22.3828 28.7538 23.1512 29.7054 23.1512Z" fill="#FD6C03"/>
<path d="M62.87 47.2286C62.1077 47.2286 61.4916 46.6152 61.4916 45.8558V14.1186C61.4916 13.3619 60.8741 12.7457 60.1132 12.7457H10.6708C9.91129 12.7457 9.2924 13.3619 9.2924 14.1186V45.8571C9.2924 46.6152 8.67489 47.23 7.91402 47.23C7.15316 47.23 6.53564 46.6166 6.53564 45.8571V14.1186C6.53564 11.8484 8.39094 10 10.6708 10H60.1118C62.3917 10 64.247 11.847 64.247 14.1186V45.8571C64.2483 46.6152 63.6308 47.2286 62.87 47.2286Z" fill="#FD6C03"/>
<path d="M60.0304 61H10.7534C6.47765 61 3 57.5361 3 53.2783V52.4623C3 51.0909 4.12062 49.9744 5.499 49.9744H65.2862C66.6632 49.9744 67.7852 51.0909 67.7852 52.4623V53.2783C67.7838 57.5361 64.3061 61 60.0304 61ZM5.75676 52.7201V53.2797C5.75676 56.0241 7.998 58.2557 10.7534 58.2557H60.0304C62.7858 58.2557 65.027 56.0241 65.027 53.2797V52.7201H5.75676Z" fill="#FD6C03"/>
</svg>
