<svg width="400" height="188" viewBox="0 0 400 188" fill="none" xmlns="http://www.w3.org/2000/svg">
<path d="M38.9713 180.498L38.9775 180.5C51.0573 185.094 64.9961 187.386 80.7869 187.386C96.5775 187.386 110.432 185.094 122.344 180.5L122.347 180.499C134.425 175.735 143.886 169.093 150.711 160.561L150.714 160.558C157.546 151.847 160.96 141.683 160.96 130.082C160.96 118.479 157.459 108.562 150.449 100.356C146.755 96.031 142.35 92.2566 137.238 89.031C140.056 86.8297 142.596 84.4201 144.858 81.8016L144.861 81.7983C151.361 74.1006 154.608 64.863 154.608 54.1066C154.608 43.1856 151.449 33.7818 145.122 25.9152C138.806 17.8925 130.107 11.6729 119.045 7.24798C107.98 2.82191 95.2247 0.613806 80.7869 0.613806C66.3491 0.613806 53.5939 2.82191 42.5287 7.24798C31.4664 11.6729 22.7681 17.8926 16.4519 25.9153C10.125 33.7818 6.96627 43.1856 6.96627 54.1066C6.96627 64.863 10.2128 74.1006 16.7131 81.7984L16.7159 81.8016C18.9773 84.4201 21.5177 86.8297 24.3362 89.031C19.2233 92.2566 14.8184 96.031 11.1244 100.356C4.1145 108.562 0.613806 118.479 0.613806 130.082C0.613806 141.683 4.02802 151.847 10.86 160.558L10.8624 160.561C17.6869 169.092 27.0625 175.734 38.9713 180.498ZM94.496 114.862L94.5028 114.868L94.5099 114.874C98.137 118.007 99.9663 122.381 99.9663 128.049C99.9663 133.717 98.1369 138.181 94.5025 141.485C91.0299 144.626 86.4706 146.212 80.7869 146.212C75.1071 146.212 70.4609 144.628 66.8169 141.484C63.3538 138.183 61.6075 133.719 61.6075 128.049C61.6075 122.375 63.3561 117.999 66.8165 114.868L66.8172 114.868C70.4626 111.554 75.1086 109.886 80.7869 109.886C86.4656 109.886 91.0226 111.554 94.496 114.862ZM90.6777 45.7403L90.6776 45.7404L90.6867 45.749C93.2963 48.1955 94.6302 51.8057 94.6302 56.6475C94.6302 61.3141 93.2993 64.9332 90.6777 67.5548C88.0445 70.188 84.7569 71.5072 80.7869 71.5072C76.8168 71.5072 73.5293 70.188 70.896 67.5548C68.2745 64.9332 66.9436 61.3141 66.9436 56.6475C66.9436 51.8057 68.2775 48.1955 70.8871 45.749L70.8872 45.7491L70.896 45.7403C73.5293 43.1071 76.8168 41.7878 80.7869 41.7878C84.7569 41.7878 88.0445 43.1071 90.6777 45.7403ZM203.444 182.717L203.031 183.321H203.763H246.705H246.909L247.024 183.152L368.483 5.28335L368.896 4.67937H368.164H325.222H325.018L324.903 4.84778L203.444 182.717ZM196.462 96.3716L196.469 96.3749C203.645 100.134 211.754 102.009 220.787 102.009C229.82 102.009 237.929 100.134 245.106 96.375L245.112 96.3715C252.294 92.4386 257.935 86.7098 262.035 79.1958C266.308 71.673 268.436 62.6269 268.436 52.0738C268.436 41.5219 266.309 32.5595 262.034 25.2044C257.935 17.6912 252.293 11.9628 245.112 8.03012C237.934 4.09957 229.823 2.13839 220.787 2.13839C211.751 2.13839 203.64 4.09957 196.462 8.03012C189.281 11.9627 183.556 17.6905 179.287 25.2027L179.286 25.2052C175.181 32.56 173.139 41.5219 173.139 52.0738C173.139 62.626 175.181 71.6709 179.284 79.1932L179.287 79.199C183.556 86.7111 189.281 92.4389 196.462 96.3716ZM228.099 69.3775L228.097 69.3804C225.943 72.3629 223.506 73.7941 220.787 73.7941C218.242 73.7941 215.802 72.3679 213.472 69.3736C211.182 66.2625 209.993 60.5326 209.993 52.0738C209.993 47.8546 210.289 44.3252 210.874 41.4795C211.461 38.6302 212.334 36.492 213.469 35.0322L213.469 35.0323L213.475 35.0242C215.81 31.8552 218.25 30.3534 220.787 30.3534C223.497 30.3534 225.933 31.8589 228.091 35.0132L228.098 35.0229L228.105 35.0322C229.241 36.492 230.113 38.6302 230.7 41.4795C231.286 44.3252 231.581 47.8546 231.581 52.0738C231.581 60.5361 230.391 66.2672 228.099 69.3775ZM326.815 180.224L326.821 180.227C333.997 183.986 342.106 185.862 351.14 185.862C360.173 185.862 368.282 183.986 375.458 180.227L375.464 180.224C382.646 176.291 388.288 170.562 392.387 163.048C396.661 155.525 398.788 146.479 398.788 135.926C398.788 125.374 396.661 116.412 392.386 109.057C388.287 101.544 382.646 95.8153 375.464 91.8826C368.287 87.952 360.176 85.9909 351.14 85.9909C342.104 85.9909 333.992 87.952 326.815 91.8826C319.634 95.8152 313.908 101.543 309.64 109.055L309.638 109.058C305.533 116.412 303.491 125.374 303.491 135.926C303.491 146.478 305.534 155.523 309.637 163.046L309.64 163.051C313.908 170.564 319.634 176.291 326.815 180.224ZM358.452 153.23L358.449 153.233C356.295 156.215 353.859 157.647 351.14 157.647C348.594 157.647 346.155 156.22 343.825 153.226C341.535 150.115 340.345 144.385 340.345 135.926C340.345 131.707 340.641 128.178 341.227 125.332C341.814 122.483 342.686 120.344 343.822 118.885L343.828 118.877C346.163 115.708 348.602 114.206 351.14 114.206C353.849 114.206 356.286 115.711 358.444 118.866L358.451 118.875L358.458 118.885C359.593 120.344 360.466 122.483 361.052 125.332C361.638 128.178 361.934 131.707 361.934 135.926C361.934 144.389 360.743 150.12 358.452 153.23Z" stroke="#292929" stroke-width="0.772387"/>
</svg>
