<svg width="30" height="22" viewBox="0 0 30 22" fill="none" xmlns="http://www.w3.org/2000/svg">
<path d="M10.2013 16.7844C10.2629 16.8441 10.3248 16.8441 10.3871 16.7844C15.5266 11.8521 20.6861 6.90218 25.8658 1.93457C26.3928 1.42894 26.7805 1.12023 27.029 1.00844C28.7295 0.24422 30.6028 2.0772 29.8143 3.70394C29.6944 3.95194 29.4236 4.27831 29.0017 4.68307C23.439 10.0188 17.877 15.3555 12.3157 20.6932C11.7719 21.2149 11.3621 21.5355 11.0862 21.655C10.126 22.0723 9.32541 21.6955 8.61526 21.0131C6.0847 18.5801 3.55213 16.149 1.01755 13.7198C0.584966 13.3054 0.313428 12.9906 0.202938 12.7754C-0.649845 11.112 1.35404 9.25106 3.07066 10.1059C3.27624 10.208 3.57255 10.4428 3.9596 10.8103C5.98325 12.7307 8.06381 14.722 10.2013 16.7844Z" fill="#161616"/>
</svg>
