<svg width="76" height="76" viewBox="0 0 76 76" fill="none" xmlns="http://www.w3.org/2000/svg">
<rect width="76" height="76" rx="38" fill="white"/>
<path d="M10.8502 26.4828C10.1403 26.4828 9.47779 26.8369 8.86256 27.545C8.26312 28.237 7.78198 29.2509 7.41916 30.5867H7.06422C7.07999 30.3453 7.09577 30.0958 7.11154 29.8383C7.12732 29.613 7.14309 29.3716 7.15887 29.1141C7.17464 28.8405 7.18253 28.5669 7.18253 28.2933C7.18253 28.0519 7.17464 27.8105 7.15887 27.5691C7.14309 27.3116 7.12732 27.0702 7.11154 26.8449C7.09577 26.6035 7.07999 26.3621 7.06422 26.1207H7.41916C7.65578 26.1851 7.87663 26.3299 8.0817 26.5552C8.30255 26.7644 8.47608 26.9898 8.60228 27.2312C8.79158 27.0058 9.01244 26.8047 9.26483 26.6277C9.48568 26.4667 9.74597 26.3219 10.0457 26.1931C10.3454 26.0644 10.6925 26 11.0868 26C11.7652 26 12.4356 26.1851 13.0982 26.5552C13.7607 26.9093 14.3523 27.4565 14.8728 28.1968C15.4092 28.921 15.8351 29.8383 16.1506 30.9488C16.4819 32.0431 16.6475 33.3306 16.6475 34.8112C16.6475 36.2918 16.4819 37.5874 16.1506 38.6978C15.8351 39.7923 15.4013 40.7095 14.8492 41.4499C14.3128 42.1741 13.6976 42.7213 13.0035 43.0914C12.3094 43.4455 11.5916 43.6225 10.8502 43.6225C10.2823 43.6225 9.74597 43.5018 9.24117 43.2603C8.73637 43.019 8.28678 42.681 7.89241 42.2465C7.5138 41.7959 7.19831 41.2728 6.94591 40.6774C6.69351 40.0658 6.53576 39.3979 6.47266 38.6737H6.82759C6.89069 39.2852 7.04056 39.8646 7.27718 40.4118C7.5138 40.943 7.80564 41.4097 8.15269 41.8119C8.49974 42.2143 8.88623 42.5361 9.31216 42.7776C9.73808 43.019 10.1719 43.1397 10.6136 43.1397C11.1184 43.1397 11.5995 43.0109 12.057 42.7534C12.5145 42.4959 12.9167 42.0534 13.2638 41.4257C13.6108 40.7819 13.8869 39.929 14.092 38.8668C14.297 37.7886 14.3996 36.4367 14.3996 34.8112H11.7967L10.7319 36.9839H10.4953V32.1558H10.7319L11.7967 34.3284H14.3996C14.368 32.7834 14.2497 31.5121 14.0447 30.5142C13.8396 29.5004 13.5714 28.6957 13.2401 28.1002C12.9246 27.5047 12.5539 27.0863 12.128 26.8449C11.7178 26.6035 11.2919 26.4828 10.8502 26.4828Z" fill="#333399"/>
<path d="M21.7414 29.5004C21.7414 30.1602 21.9308 30.7315 22.3094 31.2143C22.688 31.681 23.1612 32.1156 23.7291 32.5179C24.297 32.9202 24.9123 33.3145 25.5748 33.7008C26.2531 34.087 26.8763 34.5296 27.4441 35.0285C28.012 35.5113 28.4853 36.0826 28.8639 36.7425C29.2425 37.4023 29.4317 38.207 29.4317 39.1565C29.4317 39.7842 29.3213 40.3716 29.1005 40.9187C28.8797 41.4659 28.5641 41.9407 28.154 42.3431C27.7596 42.7453 27.2864 43.0592 26.7343 43.2846C26.1821 43.5098 25.5826 43.6225 24.9359 43.6225C24.3364 43.6225 23.8238 43.5581 23.3979 43.4293C22.9719 43.3167 22.6169 43.1799 22.333 43.019C22.0017 42.8419 21.7257 42.6408 21.5048 42.4155C21.3786 42.6568 21.2051 42.8822 20.9842 43.0914C20.7791 43.3006 20.5584 43.4374 20.3217 43.5018H19.9668C19.9825 43.2765 19.9983 43.0351 20.0141 42.7776C20.0298 42.5683 20.0457 42.335 20.0615 42.0775C20.0772 41.82 20.0851 41.5706 20.0851 41.3292C20.0851 41.0556 20.0772 40.79 20.0615 40.5325C20.0457 40.259 20.0298 40.0094 20.0141 39.7842C19.9983 39.5267 19.9825 39.2773 19.9668 39.0358H20.3217C20.6846 40.3716 21.2051 41.3935 21.8834 42.1016C22.5775 42.7936 23.5162 43.1397 24.6993 43.1397C25.6458 43.1397 26.4109 42.8339 26.9946 42.2224C27.5939 41.5947 27.8937 40.7336 27.8937 39.6393C27.8937 38.9795 27.7044 38.4162 27.3258 37.9495C26.9472 37.4667 26.4739 37.0241 25.9061 36.6218C25.3381 36.2194 24.715 35.8251 24.0367 35.4389C23.3741 35.0526 22.7589 34.6181 22.1911 34.1353C21.6231 33.6364 21.15 33.057 20.7714 32.3972C20.3927 31.7374 20.2034 30.9327 20.2034 29.9832C20.2034 29.436 20.306 28.921 20.511 28.4382C20.7161 27.9554 21 27.5369 21.3628 27.1829C21.7257 26.8127 22.1517 26.523 22.6407 26.3138C23.1296 26.1046 23.6581 26 24.226 26C24.6993 26 25.1174 26.0644 25.4801 26.1931C25.8429 26.3219 26.1506 26.4587 26.403 26.6035C26.6869 26.7805 26.9472 26.9817 27.1838 27.207C27.31 26.9656 27.4757 26.7403 27.6807 26.5311C27.9016 26.3219 28.1304 26.1851 28.367 26.1207H28.7219C28.6903 26.3621 28.6667 26.6035 28.6509 26.8449C28.6351 27.0702 28.6194 27.3116 28.6036 27.5691C28.6036 27.8105 28.6036 28.0519 28.6036 28.2933C28.6036 28.5669 28.6036 28.8405 28.6036 29.1141C28.6194 29.3716 28.6351 29.613 28.6509 29.8383C28.6667 30.0958 28.6903 30.3453 28.7219 30.5867H28.367C28.0042 29.2509 27.4994 28.237 26.8525 27.545C26.2058 26.8369 25.4092 26.4828 24.4626 26.4828C23.6897 26.4828 23.0429 26.7564 22.5224 27.3036C22.0017 27.8508 21.7414 28.583 21.7414 29.5004Z" fill="#333399"/>
<path d="M38.3066 42.657L39.7263 43.0192V43.2605H34.8755V43.0192L36.2952 42.657V26.8451H33.8106C33.8106 27.521 33.6765 28.1487 33.4084 28.7281C33.1402 29.3074 32.801 29.8063 32.3909 30.2248H32.1543C32.17 30.0155 32.1858 29.7983 32.2016 29.573C32.2173 29.3798 32.2332 29.1787 32.2489 28.9695C32.2647 28.7442 32.2726 28.5188 32.2726 28.2935C32.2726 27.9878 32.2647 27.7222 32.2489 27.4969C32.2332 27.2555 32.2173 27.0463 32.2016 26.8693C32.1858 26.6761 32.17 26.5071 32.1543 26.3623H42.4474C42.4159 26.5071 42.3923 26.6761 42.3764 26.8693C42.3607 27.0463 42.3449 27.2555 42.3291 27.4969C42.3291 27.7222 42.3291 27.9878 42.3291 28.2935C42.3291 28.5188 42.3291 28.7442 42.3291 28.9695C42.3449 29.1787 42.3607 29.3798 42.3764 29.573C42.3923 29.7983 42.4159 30.0155 42.4474 30.2248H42.2108C41.8007 29.8063 41.4615 29.3074 41.1933 28.7281C40.9252 28.1487 40.7911 27.521 40.7911 26.8451H38.3066V42.657Z" fill="#333399"/>
<path d="M53.9253 42.7778C53.9253 42.1018 54.0594 41.4742 54.3275 40.8949C54.5958 40.3154 54.9349 39.8165 55.3451 39.3981H55.5816C55.5501 39.6073 55.5265 39.8246 55.5107 40.05C55.4949 40.243 55.4792 40.4522 55.4634 40.6776C55.4634 40.9029 55.4634 41.1201 55.4634 41.3294C55.4634 41.6351 55.4634 41.9087 55.4634 42.1501C55.4792 42.3754 55.4949 42.5766 55.5107 42.7536C55.5265 42.9468 55.5501 43.1158 55.5816 43.2605H45.7617V43.0192L47.1815 42.657V26.9658L45.7617 26.6037V26.3623H55.3451C55.3135 26.5071 55.2898 26.6761 55.2741 26.8693C55.2583 27.0463 55.2425 27.2555 55.2268 27.4969C55.2268 27.7222 55.2268 27.9878 55.2268 28.2935C55.2268 28.5188 55.2268 28.7442 55.2268 28.9695C55.2425 29.1787 55.2583 29.3798 55.2741 29.573C55.2898 29.7983 55.3135 30.0155 55.3451 30.2248H55.1085C54.6983 29.8063 54.3592 29.3074 54.0909 28.7281C53.8227 28.1487 53.6887 27.521 53.6887 26.8451H49.1928V34.0872H51.4407L52.5056 31.9146H52.7422V36.7427H52.5056L51.4407 34.57H49.1928V42.7778H53.9253Z" fill="#333399"/>
<path d="M65.0468 42.657L66.4665 43.0192V43.2605H61.6157V43.0192L63.0355 42.657V26.8451H60.5509C60.5509 27.521 60.4169 28.1487 60.1486 28.7281C59.8804 29.3074 59.5414 29.8063 59.1311 30.2248H58.8945C58.9104 30.0155 58.9261 29.7983 58.9419 29.573C58.9576 29.3798 58.9734 29.1787 58.9892 28.9695C59.0049 28.7442 59.0128 28.5188 59.0128 28.2935C59.0128 27.9878 59.0049 27.7222 58.9892 27.4969C58.9734 27.2555 58.9576 27.0463 58.9419 26.8693C58.9261 26.6761 58.9104 26.5071 58.8945 26.3623H69.1877C69.1561 26.5071 69.1325 26.6761 69.1167 26.8693C69.101 27.0463 69.0852 27.2555 69.0695 27.4969C69.0695 27.7222 69.0695 27.9878 69.0695 28.2935C69.0695 28.5188 69.0695 28.7442 69.0695 28.9695C69.0852 29.1787 69.101 29.3798 69.1167 29.573C69.1325 29.7983 69.1561 30.0155 69.1877 30.2248H68.951C68.5409 29.8063 68.2017 29.3074 67.9336 28.7281C67.6654 28.1487 67.5313 27.521 67.5313 26.8451H65.0468V42.657Z" fill="#333399"/>
<path d="M33.1313 52.6549L33.126 50.1297L31.899 52.2195H31.5897L30.3626 50.1623V52.6549H29.7012V48.8452H30.272L31.755 51.3705L33.2113 48.8452H33.7822L33.7875 52.6549H33.1313Z" fill="#333399"/>
<path d="M39.8904 52.0618V52.655H37.0897V48.8453H39.8157V49.4386H37.7832V50.4291H39.5863V51.0115H37.7832V52.0618H39.8904Z" fill="#333399"/>
<path d="M46.2751 48.8452V52.6549H45.7044L43.6452 50.0753V52.6549H42.957V48.8452H43.5278L45.5869 51.4249V48.8452H46.2751Z" fill="#333399"/>
<path fill-rule="evenodd" clip-rule="evenodd" d="M25.176 51.0655H6V50.5764H25.176V51.0655Z" fill="#333399"/>
<path fill-rule="evenodd" clip-rule="evenodd" d="M69.8811 51.0655H50.7051V50.5764H69.8811V51.0655Z" fill="#333399"/>
</svg>
