<svg width="76" height="77" viewBox="0 0 76 77" fill="none" xmlns="http://www.w3.org/2000/svg">
<g clip-path="url(#clip0_237_368)">
<rect y="0.5" width="76" height="76" rx="38" fill="white"/>
<path d="M30.2983 15.4611C32.2479 9.8686 41.7697 5.7257 46.313 4.56929C45.7908 4.24127 42.2048 3.44721 39.2282 3.67171C33.2976 4.11901 22.43 8.47028 19.2794 16.5831C16.1285 24.696 20.6197 30.254 24.9367 33.7581C29.2538 37.2621 41.2913 42.1339 42.8404 48.6413C44.3898 55.1487 40.5426 60.6897 36.3823 63.6931C33.0541 66.0958 32.1435 68.7122 32.0911 69.5925C33.623 66.5718 50.0551 60.8119 53.1819 57.1727C55.5071 54.4663 57.1158 49.7866 53.9651 43.3481C50.491 36.2488 43.4162 32.7604 38.5841 29.5982C34.2324 26.75 27.8612 22.4519 30.2983 15.4611Z" fill="#E95973"/>
<path d="M15.43 13.5729C22.4983 5.17856 34.2673 3.45965 39.2683 3.64949C27.713 5.82401 16.5735 13.5729 18.5138 23.5997C20.4541 33.6267 32.3014 37.1871 39.1784 43.1285C46.3155 49.2948 42.889 56.6316 40.3423 59.876C38.3049 62.4718 34.2269 66.6642 32.4424 68.4361C32.5752 67.8667 33.1216 66.3928 34.2442 65.0535C35.6475 63.3795 37.9169 61.5848 38.8351 59.2549C39.7533 56.925 40.2384 55.4408 37.4664 51.972C34.4694 49.038 30.329 47.0879 26.9853 45.2067C23.6417 43.3258 18.7388 38.6143 17.6821 37.389C16.6254 36.1637 6.5946 24.0657 15.43 13.5729Z" fill="#282828"/>
<path d="M10.8741 26.5002C10.2377 22.7697 11.4779 18.2023 12.3183 16.2598C5.14686 26.7684 6.22934 35.74 8.38885 42.4216C10.4694 48.8585 15.5604 55.271 22.3777 58.8306C26.3768 60.9189 30.7075 63.0244 32.217 64.1703C34.3951 63.4633 39.2442 58.2565 37.3077 54.4419C35.1294 50.1506 28.7168 49.6874 21.9372 43.787C15.1574 37.8866 11.685 31.2532 10.8741 26.5002Z" fill="#636363"/>
<path d="M66.3864 22.1601C62.4105 11.5491 51.98 6.16559 47.7213 5.09277C44.8732 6.55569 41.0967 9.04274 39.008 10.7982C36.397 12.9926 37.7575 17.2595 39.6128 22.5259C41.468 27.7923 58.0497 39.3982 58.8514 45.396C59.4926 50.1945 57.7291 53.7511 56.7672 54.9295L58.0497 53.8323C63.2488 49.3461 71.3564 35.4239 66.3864 22.1601Z" fill="#636363"/>
<path d="M41.5552 16.5759C39.2547 11.8402 45.1818 7.04369 48.277 5.23735L47.7227 5.08203C43.1491 6.39363 34.3658 10.7428 32.4947 14.643C30.7833 18.2102 31.2647 21.8224 36.8604 26.2404C42.4563 30.6583 49.2299 33.4887 54.2539 40.6163C58.2732 46.3183 57.54 52.5704 56.7314 54.9923L58.3253 53.5943C62.7776 41.5138 59.5672 35.8606 57.3204 32.8503C53.3532 27.5346 44.431 22.4953 41.5552 16.5759Z" fill="#282828"/>
<path fill-rule="evenodd" clip-rule="evenodd" d="M39.9914 66.4097C40.2717 66.2671 40.5617 66.1196 40.8598 65.9671C41.478 65.6511 42.118 65.3303 42.7294 65.0235C44.2229 64.2747 45.5451 63.6115 45.9598 63.3168C44.6444 65.1045 41.8887 68.5468 40.2071 69.699L42.3232 72.9351C42.79 73.6487 42.276 74.5934 41.421 74.5934H36.4498C35.5948 74.5934 35.0807 73.6487 35.5475 72.9351L37.604 69.7905C36.9514 69.4375 36.4358 68.8946 36.1697 68.5185C36.8738 67.9961 38.2479 67.2969 39.9914 66.4097Z" fill="#636363"/>
</g>
<defs>
<clipPath id="clip0_237_368">
<rect y="0.5" width="76" height="76" rx="38" fill="white"/>
</clipPath>
</defs>
</svg>
