<svg width="76" height="77" viewBox="0 0 76 77" fill="none" xmlns="http://www.w3.org/2000/svg">
<rect y="0.5" width="76" height="76" rx="38" fill="white"/>
<g clip-path="url(#clip0_242_1427)">
<path d="M10.3216 39.6402H5.32227V38.6433L8.40577 34.4248H5.45911V33.1787H10.2121V34.1756L7.11946 38.394H10.3216V39.6402ZM14.5751 39.6402H13.1702L10.6888 33.1787H12.1667L13.8727 38.0156L15.5878 33.1787H17.0657L14.5751 39.6402ZM17.804 33.1787H22.3016V34.3971H19.1725V35.7725H22.0279V36.9817H19.1725V38.4217H22.3563V39.6402H17.804V33.1787ZM24.8119 39.6402H23.4434V33.1787H26.0708C26.4053 33.1787 26.7124 33.2125 26.9922 33.2802C27.2781 33.3479 27.5457 33.4587 27.795 33.6125C28.0505 33.7664 28.248 33.9848 28.3881 34.2679C28.534 34.551 28.607 34.8894 28.607 35.2833C28.607 36.2617 28.1418 36.9018 27.2112 37.2033L29.1179 39.6402H27.5396L25.8154 37.3787H24.8119V39.6402ZM24.8119 34.3971V36.2248H26.1347C26.4448 36.2248 26.7003 36.151 26.901 36.0033C27.1078 35.8494 27.2112 35.6187 27.2112 35.311C27.2112 34.9971 27.1108 34.7664 26.9101 34.6187C26.7094 34.471 26.4509 34.3971 26.1347 34.3971H24.8119ZM29.6019 34.8864C29.6019 34.2894 29.8238 33.8341 30.2678 33.5202C30.7119 33.2064 31.2684 33.0494 31.9373 33.0494C32.7401 33.0494 33.4305 33.2156 34.0082 33.5479V34.8402C33.467 34.4464 32.8101 34.2556 32.0377 34.2679C31.3443 34.2802 30.9977 34.4802 30.9977 34.8679C30.9977 35.0402 31.0827 35.191 31.2531 35.3202C31.4294 35.4494 31.6454 35.5541 31.9008 35.634C32.1624 35.7079 32.442 35.8064 32.7401 35.9294C33.0441 36.0464 33.324 36.1756 33.5794 36.3171C33.841 36.4525 34.0568 36.6556 34.2271 36.9264C34.4034 37.1971 34.4917 37.511 34.4917 37.8679C34.4917 38.2187 34.4249 38.5202 34.291 38.7725C34.1633 39.0248 33.9808 39.2217 33.7436 39.3633C33.5064 39.5048 33.2448 39.6064 32.9591 39.6679C32.6733 39.7356 32.354 39.7694 32.0012 39.7694C31.1133 39.7694 30.3255 39.5756 29.6384 39.1879V37.8679C30.3196 38.3233 31.0736 38.551 31.9008 38.551C32.6975 38.551 33.0959 38.3448 33.0959 37.9325C33.0959 37.7479 33.0076 37.5879 32.8313 37.4525C32.661 37.311 32.4452 37.2002 32.1836 37.1202C31.9282 37.0341 31.6483 36.9325 31.3443 36.8156C31.0462 36.6925 30.7666 36.5633 30.505 36.4279C30.2496 36.2864 30.0336 36.0833 29.8573 35.8187C29.6869 35.5541 29.6019 35.2433 29.6019 34.8864ZM39.6502 33.1787H41.0186V39.6402H39.6502V37.0371H36.7856V39.6402H35.4172V33.1787H36.7856V35.7817H39.6502V33.1787ZM42.2381 37.674C42.0981 37.2741 42.0283 36.8525 42.0283 36.4094C42.0283 35.9664 42.0981 35.5448 42.2381 35.1448C42.3841 34.7448 42.5939 34.3879 42.8676 34.0741C43.1472 33.7602 43.5062 33.511 43.9441 33.3264C44.382 33.1417 44.8746 33.0494 45.4219 33.0494C45.9693 33.0494 46.4619 33.1417 46.8998 33.3264C47.3377 33.511 47.6935 33.7602 47.9672 34.0741C48.2468 34.3879 48.4566 34.7448 48.5967 35.1448C48.7426 35.5448 48.8156 35.9664 48.8156 36.4094C48.8156 36.8525 48.7426 37.2741 48.5967 37.674C48.4566 38.0741 48.2468 38.431 47.9672 38.7448C47.6935 39.0587 47.3377 39.3079 46.8998 39.4925C46.4619 39.6771 45.9693 39.7694 45.4219 39.7694C44.8746 39.7694 44.382 39.6771 43.9441 39.4925C43.5062 39.3079 43.1472 39.0587 42.8676 38.7448C42.5939 38.431 42.3841 38.0741 42.2381 37.674ZM46.8907 37.8956C47.2374 37.5018 47.4107 37.0064 47.4107 36.4094C47.4107 35.8125 47.2374 35.3171 46.8907 34.9233C46.5441 34.5294 46.0544 34.3325 45.4219 34.3325C44.7834 34.3325 44.2907 34.5294 43.9441 34.9233C43.5974 35.3171 43.4241 35.8125 43.4241 36.4094C43.4241 37.0064 43.5974 37.5018 43.9441 37.8956C44.2907 38.2894 44.7834 38.4864 45.4219 38.4864C46.0544 38.4864 46.5441 38.2894 46.8907 37.8956ZM49.8319 33.1787H52.2403C54.077 33.1787 54.9954 33.9017 54.9954 35.3479C54.9954 36.7941 54.077 37.5171 52.2403 37.5171H51.2003V39.6402H49.8319V33.1787ZM52.3042 36.2987C53.1677 36.2987 53.5996 35.9817 53.5996 35.3479C53.5996 34.7141 53.1677 34.3971 52.3042 34.3971H51.2003V36.2987H52.3042ZM56.2165 38.4402C56.3625 38.5694 56.4355 38.7571 56.4355 39.0033C56.4355 39.2494 56.3625 39.4371 56.2165 39.5664C56.0705 39.6956 55.8881 39.7602 55.6691 39.7602C55.4502 39.7602 55.2645 39.6956 55.1127 39.5664C54.9667 39.4371 54.8937 39.2494 54.8937 39.0033C54.8937 38.7571 54.9667 38.5694 55.1127 38.4402C55.2645 38.311 55.4502 38.2464 55.6691 38.2464C55.8881 38.2464 56.0705 38.311 56.2165 38.4402ZM58.853 39.6402H57.4846V33.1787H60.1119C60.4465 33.1787 60.7537 33.2125 61.0333 33.2802C61.3194 33.3479 61.5869 33.4587 61.8362 33.6125C62.0916 33.7664 62.2893 33.9848 62.4291 34.2679C62.5751 34.551 62.6481 34.8894 62.6481 35.2833C62.6481 36.2617 62.1828 36.9018 61.2523 37.2033L63.159 39.6402H61.5807L59.8565 37.3787H58.853V39.6402ZM58.853 34.3971V36.2248H60.1758C60.486 36.2248 60.7414 36.151 60.9421 36.0033C61.149 35.8494 61.2523 35.6187 61.2523 35.311C61.2523 34.9971 61.1519 34.7664 60.9512 34.6187C60.7505 34.471 60.4921 34.3971 60.1758 34.3971H58.853ZM68.0328 33.1787H69.3921V37.2125C69.3921 37.5817 69.3406 37.914 69.237 38.2094C69.1337 38.5048 68.9939 38.7479 68.8174 38.9387C68.6411 39.1294 68.4313 39.2894 68.1879 39.4187C67.9448 39.5479 67.6894 39.6371 67.4216 39.6864C67.1602 39.7417 66.8833 39.7694 66.5914 39.7694C66.2995 39.7694 66.0199 39.7417 65.7521 39.6864C65.4908 39.6371 65.2383 39.5479 64.9949 39.4187C64.7518 39.2894 64.542 39.1294 64.3655 38.9387C64.1892 38.7479 64.0493 38.5048 63.9458 38.2094C63.8425 37.914 63.7907 37.5817 63.7907 37.2125V33.1787H65.1591V37.1387C65.1591 38.0617 65.6367 38.5233 66.5914 38.5233C67.5525 38.5233 68.0328 38.0617 68.0328 37.1387V33.1787Z" fill="#283891"/>
<path d="M5.95311 43.2462L6.41961 42.0513H6.78498L6.05098 43.8502C5.90091 44.2177 5.69104 44.4015 5.42137 44.4015C5.3583 44.4015 5.28979 44.3926 5.21585 44.3751V44.0747C5.26369 44.0901 5.31698 44.0978 5.3757 44.0978C5.54316 44.0978 5.67256 43.9745 5.7639 43.7281L5.79652 43.6489L5.05273 42.0513H5.42463L5.95311 43.2462ZM7.3943 43.6356H7.04525V42.0513H7.3943V42.6883H8.17724V42.0513H8.52631V43.6356H8.17724V42.9986H7.3943V43.6356ZM9.2632 43.6356H8.96308V42.0513H9.31214V43.0877L10.1505 42.0513H10.4507V43.6356H10.1016V42.5992L9.2632 43.6356ZM11.2364 43.6356H10.8873V42.0513H11.2364V42.6784H11.4941L11.9443 42.0513H12.3422L11.7746 42.8369L12.4042 43.6356H12.003L11.4875 42.9788H11.2364V43.6356ZM13.9514 43.2693C13.9514 43.3463 13.9895 43.3848 14.0656 43.3848C14.0917 43.3848 14.1265 43.3782 14.17 43.365V43.6191C14.1047 43.6455 14.0308 43.6588 13.9482 43.6588C13.7916 43.6588 13.6872 43.5972 13.635 43.4739C13.4675 43.6104 13.2707 43.6786 13.0445 43.6786C12.8923 43.6786 12.7629 43.6368 12.6563 43.5531C12.5497 43.4673 12.4965 43.3474 12.4965 43.1934C12.4965 43.0085 12.565 42.8743 12.702 42.7906C12.839 42.7048 13.0032 42.6619 13.1946 42.6619C13.3207 42.6619 13.4566 42.6773 13.6024 42.7081V42.652C13.6024 42.5508 13.5665 42.4694 13.4947 42.4077C13.4229 42.3461 13.3218 42.3153 13.1913 42.3153C12.9978 42.3153 12.8096 42.356 12.627 42.4374V42.114C12.8314 42.0435 13.0315 42.0083 13.2272 42.0083C13.4556 42.0083 13.6328 42.0656 13.7589 42.18C13.8873 42.2944 13.9514 42.4683 13.9514 42.7015V43.2693ZM13.2631 42.9095C13.1478 42.9095 13.051 42.9304 12.9727 42.9722C12.8945 43.014 12.8553 43.08 12.8553 43.1702C12.8553 43.245 12.8836 43.3034 12.9401 43.3452C12.9967 43.3848 13.0663 43.4046 13.1489 43.4046C13.3273 43.4046 13.4784 43.3419 13.6024 43.2165V42.9491C13.4762 42.9227 13.3631 42.9095 13.2631 42.9095ZM15.0561 42.3516C15.0431 42.5585 15.0257 42.7356 15.004 42.8831C14.9822 43.0305 14.9496 43.1669 14.9061 43.2924C14.8626 43.4156 14.8049 43.5091 14.7332 43.5729C14.6636 43.6346 14.5777 43.6654 14.4755 43.6654C14.4081 43.6654 14.3363 43.6511 14.2601 43.6224V43.3452C14.2971 43.3584 14.3308 43.365 14.3613 43.365C14.4853 43.365 14.5722 43.2561 14.6223 43.0382C14.6745 42.8181 14.7093 42.4892 14.7267 42.0513H15.9337V43.6356H15.5846V42.3516H15.0561ZM17.1464 43.6356H16.37V42.0513H16.7191V42.5794H17.1464C17.3378 42.5794 17.489 42.6289 17.5999 42.7279C17.7108 42.8269 17.7662 42.9535 17.7662 43.1075C17.7662 43.2616 17.7108 43.3881 17.5999 43.4871C17.489 43.5861 17.3378 43.6356 17.1464 43.6356ZM16.7191 42.8567V43.3551H17.0779C17.1823 43.3551 17.2639 43.3342 17.3226 43.2924C17.3813 43.2483 17.4107 43.1867 17.4107 43.1075C17.4107 43.0261 17.3813 42.9645 17.3226 42.9227C17.2639 42.8787 17.1823 42.8567 17.0779 42.8567H16.7191ZM18.4203 43.6356H18.0712V42.0513H18.4203V42.6883H19.2032V42.0513H19.5523V43.6356H19.2032V42.9986H18.4203V43.6356ZM20.7655 43.6356H19.989V42.0513H20.3381V42.5794H20.7655C20.9568 42.5794 21.108 42.6289 21.2189 42.7279C21.3298 42.8269 21.3853 42.9535 21.3853 43.1075C21.3853 43.2616 21.3298 43.3881 21.2189 43.4871C21.108 43.5861 20.9568 43.6356 20.7655 43.6356ZM20.3381 42.8567V43.3551H20.697C20.8013 43.3551 20.8829 43.3342 20.9416 43.2924C21.0003 43.2483 21.0297 43.1867 21.0297 43.1075C21.0297 43.0261 21.0003 42.9645 20.9416 42.9227C20.8829 42.8787 20.8013 42.8567 20.697 42.8567H20.3381ZM22.0149 43.6356H21.6658V42.0513H22.0149V43.6356ZM23.6717 41.6948C23.5412 41.785 23.3825 41.8301 23.1954 41.8301C23.0084 41.8301 22.8496 41.785 22.7192 41.6948V41.4076C22.8649 41.5 23.0236 41.5462 23.1954 41.5462C23.3672 41.5462 23.526 41.5 23.6717 41.4076V41.6948ZM22.7518 43.6356H22.4517V42.0513H22.8007V43.0877L23.6391 42.0513H23.9392V43.6356H23.5902V42.5992L22.7518 43.6356ZM25.4959 43.6356H25.1468V42.0513H25.4959V42.6784H25.7536L26.2038 42.0513H26.6018L26.0341 42.8369L26.6637 43.6356H26.2625L25.7471 42.9788H25.4959V43.6356ZM26.963 43.4574C26.7978 43.31 26.7151 43.1053 26.7151 42.8435C26.7151 42.5816 26.7978 42.3769 26.963 42.2295C27.1305 42.0821 27.3306 42.0083 27.5633 42.0083C27.7982 42.0083 27.9983 42.0821 28.1634 42.2295C28.3288 42.3769 28.4114 42.5816 28.4114 42.8435C28.4114 43.1053 28.3288 43.31 28.1634 43.4574C27.9983 43.6048 27.7982 43.6786 27.5633 43.6786C27.3306 43.6786 27.1305 43.6048 26.963 43.4574ZM27.919 43.2165C28.0102 43.1218 28.0558 42.9975 28.0558 42.8435C28.0558 42.6894 28.0102 42.5662 27.919 42.4738C27.8275 42.3791 27.709 42.3318 27.5633 42.3318C27.4154 42.3318 27.2958 42.3791 27.2044 42.4738C27.1131 42.5662 27.0674 42.6894 27.0674 42.8435C27.0674 42.9975 27.1131 43.1218 27.2044 43.2165C27.2958 43.3089 27.4154 43.3551 27.5633 43.3551C27.709 43.3551 27.8275 43.3089 27.919 43.2165ZM29.099 43.6356H28.7498V42.0513H29.099V42.6883H29.882V42.0513H30.2309V43.6356H29.882V42.9986H29.099V43.6356ZM31.3952 43.6356H31.0463V42.3615H30.5046V42.0513H31.9334V42.3615H31.3952V43.6356ZM32.0673 42.8435C32.0673 42.707 32.091 42.5838 32.1389 42.4738C32.1868 42.3615 32.25 42.2735 32.3282 42.2097C32.4065 42.1437 32.4913 42.0942 32.5825 42.0612C32.674 42.0259 32.7664 42.0083 32.8599 42.0083C32.9796 42.0083 33.0873 42.027 33.1828 42.0645C33.2807 42.1019 33.3591 42.1525 33.4177 42.2163C33.4766 42.2801 33.5242 42.3538 33.5614 42.4374C33.5984 42.5211 33.6177 42.6091 33.62 42.7015C33.6223 42.7917 33.6145 42.8831 33.5972 42.9755H32.4195C32.437 43.1097 32.5023 43.2109 32.6154 43.2792C32.7283 43.3452 32.8633 43.3782 33.0197 43.3782C33.1981 43.3782 33.3634 43.3408 33.5156 43.266V43.5696C33.3655 43.6422 33.1785 43.6786 32.9545 43.6786C32.7 43.6786 32.4881 43.6059 32.3184 43.4607C32.151 43.3155 32.0673 43.1097 32.0673 42.8435ZM33.2841 42.7114C33.2971 42.6212 33.2699 42.531 33.2024 42.4407C33.1372 42.3483 33.0284 42.3021 32.8763 42.3021C32.7522 42.3021 32.6457 42.3384 32.5565 42.411C32.4696 42.4837 32.4229 42.5838 32.4163 42.7114H33.2841ZM34.2949 43.6356H33.9459V42.0513H34.2949V42.6883H35.0778V42.0513H35.427V43.6356H35.0778V42.9986H34.2949V43.6356ZM36.5913 43.6356H36.2421V42.3615H35.7007V42.0513H37.1296V42.3615H36.5913V43.6356ZM38.3627 44.0615H38.0332V43.3452H38.2485C38.4202 43.0371 38.503 42.6058 38.4964 42.0513H39.7198V43.3452H39.9513V44.0615H39.6219V43.6356H38.3627V44.0615ZM38.8225 42.3417C38.8095 42.7378 38.74 43.0723 38.6138 43.3452H39.3674V42.3417H38.8225ZM40.8927 42.3516C40.8797 42.5585 40.8624 42.7356 40.8405 42.8831C40.8188 43.0305 40.7862 43.1669 40.7427 43.2924C40.6993 43.4156 40.6416 43.5091 40.5698 43.5729C40.5002 43.6346 40.4142 43.6654 40.3121 43.6654C40.2448 43.6654 40.1729 43.6511 40.0968 43.6224V43.3452C40.1337 43.3584 40.1675 43.365 40.198 43.365C40.3219 43.365 40.4088 43.2561 40.4589 43.0382C40.5112 42.8181 40.5458 42.4892 40.5634 42.0513H41.7703V43.6356H41.4212V42.3516H40.8927ZM42.4676 43.6356H42.0664L42.497 43.0778C42.3861 43.0382 42.3001 42.9744 42.2393 42.8864C42.1784 42.7983 42.148 42.6982 42.148 42.586C42.148 42.4341 42.2012 42.3076 42.3077 42.2064C42.4165 42.103 42.5645 42.0513 42.7515 42.0513H43.5605V43.6356H43.2115V43.1174H42.8557L42.4676 43.6356ZM42.585 42.411C42.5307 42.4529 42.5036 42.5123 42.5036 42.5893C42.5036 42.6663 42.5307 42.7268 42.585 42.7708C42.6395 42.8127 42.7146 42.8336 42.8101 42.8336H43.2115V42.345H42.8101C42.7146 42.345 42.6395 42.367 42.585 42.411ZM45.6879 43.6356H44.7681V42.0513H45.6619C45.8163 42.0513 45.937 42.0909 46.0238 42.1701C46.113 42.2471 46.1577 42.3483 46.1577 42.4738C46.1577 42.6476 46.0838 42.7675 45.9358 42.8336C46.0143 42.8577 46.0784 42.9018 46.1283 42.9656C46.1785 43.0294 46.2033 43.1075 46.2033 43.2C46.2033 43.3298 46.1598 43.4354 46.0729 43.5168C45.988 43.596 45.8599 43.6356 45.6879 43.6356ZM45.117 42.9623V43.3683H45.6031C45.7684 43.3683 45.851 43.3012 45.851 43.1669C45.851 43.0305 45.7707 42.9623 45.6097 42.9623H45.117ZM45.117 42.3186V42.7114H45.5834C45.7315 42.7114 45.8054 42.6476 45.8054 42.52C45.8054 42.4496 45.7837 42.3989 45.7401 42.3681C45.6988 42.3351 45.6466 42.3186 45.5834 42.3186H45.117ZM47.8895 43.2693C47.8895 43.3463 47.9276 43.3848 48.0037 43.3848C48.0297 43.3848 48.0646 43.3782 48.108 43.365V43.6191C48.0427 43.6455 47.9688 43.6588 47.8863 43.6588C47.7296 43.6588 47.6251 43.5972 47.5731 43.4739C47.4055 43.6104 47.2087 43.6786 46.9827 43.6786C46.8303 43.6786 46.701 43.6368 46.5945 43.5531C46.4877 43.4673 46.4346 43.3474 46.4346 43.1934C46.4346 43.0085 46.503 42.8743 46.6401 42.7906C46.7772 42.7048 46.9411 42.6619 47.1327 42.6619C47.2589 42.6619 47.3948 42.6773 47.5405 42.7081V42.652C47.5405 42.5508 47.5045 42.4694 47.4329 42.4077C47.361 42.3461 47.2598 42.3153 47.1293 42.3153C46.9359 42.3153 46.7477 42.356 46.5651 42.4374V42.114C46.7694 42.0435 46.9694 42.0083 47.1653 42.0083C47.3936 42.0083 47.5709 42.0656 47.697 42.18C47.8254 42.2944 47.8895 42.4683 47.8895 42.7015V43.2693ZM47.2011 42.9095C47.086 42.9095 46.989 42.9304 46.9108 42.9722C46.8326 43.014 46.7934 43.08 46.7934 43.1702C46.7934 43.245 46.8216 43.3034 46.8782 43.3452C46.9348 43.3848 47.0043 43.4046 47.0869 43.4046C47.2652 43.4046 47.4164 43.3419 47.5405 43.2165V42.9491C47.4142 42.9227 47.3013 42.9095 47.2011 42.9095ZM50.596 43.6356H48.3711V42.0513H48.7201V43.3254H49.3106V42.0513H49.6597V43.3254H50.2468V42.0513H50.596V43.6356ZM50.9365 42.8435C50.9365 42.707 50.9604 42.5838 51.0083 42.4738C51.0562 42.3615 51.1192 42.2735 51.1976 42.2097C51.2758 42.1437 51.3607 42.0942 51.4519 42.0612C51.5434 42.0259 51.6357 42.0083 51.7293 42.0083C51.849 42.0083 51.9566 42.027 52.0522 42.0645C52.15 42.1019 52.2285 42.1525 52.2871 42.2163C52.3457 42.2801 52.3936 42.3538 52.4306 42.4374C52.4675 42.5211 52.4871 42.6091 52.4894 42.7015C52.4915 42.7917 52.4839 42.8831 52.4666 42.9755H51.2888C51.3062 43.1097 51.3714 43.2109 51.4845 43.2792C51.5977 43.3452 51.7324 43.3782 51.8891 43.3782C52.0675 43.3782 52.2328 43.3408 52.385 43.266V43.5696C52.2349 43.6422 52.0479 43.6786 51.8239 43.6786C51.5694 43.6786 51.3573 43.6059 51.1878 43.4607C51.0202 43.3155 50.9365 43.1097 50.9365 42.8435ZM52.1535 42.7114C52.1665 42.6212 52.1393 42.531 52.0718 42.4407C52.0066 42.3483 51.8978 42.3021 51.7457 42.3021C51.6216 42.3021 51.5151 42.3384 51.4259 42.411C51.3388 42.4837 51.292 42.5838 51.2857 42.7114H52.1535ZM53.1643 43.6356H52.8153V42.0513H53.983V42.3615H53.1643V43.6356ZM54.3639 43.4574C54.1986 43.31 54.116 43.1053 54.116 42.8435C54.116 42.5816 54.1986 42.3769 54.3639 42.2295C54.5313 42.0821 54.7313 42.0083 54.9642 42.0083C55.1991 42.0083 55.3991 42.0821 55.5645 42.2295C55.7296 42.3769 55.8124 42.5816 55.8124 42.8435C55.8124 43.1053 55.7296 43.31 55.5645 43.4574C55.3991 43.6048 55.1991 43.6786 54.9642 43.6786C54.7313 43.6786 54.5313 43.6048 54.3639 43.4574ZM55.3198 43.2165C55.411 43.1218 55.4568 42.9975 55.4568 42.8435C55.4568 42.6894 55.411 42.5662 55.3198 42.4738C55.2283 42.3791 55.1099 42.3318 54.9642 42.3318C54.8162 42.3318 54.6967 42.3791 54.6052 42.4738C54.514 42.5662 54.4684 42.6894 54.4684 42.8435C54.4684 42.9975 54.514 43.1218 54.6052 43.2165C54.6967 43.3089 54.8162 43.3551 54.9642 43.3551C55.1099 43.3551 55.2283 43.3089 55.3198 43.2165ZM57.2709 43.6356H56.9217V42.0513H58.4028V43.6356H58.0536V42.3615H57.2709V43.6356ZM59.1397 43.6356H58.8396V42.0513H59.1885V43.0877L60.0271 42.0513H60.327V43.6356H59.9781V42.5992L59.1397 43.6356ZM61.4913 43.6356H61.1422V42.3615H60.6007V42.0513H62.0296V42.3615H61.4913V43.6356ZM62.4111 43.4574C62.2458 43.31 62.1632 43.1053 62.1632 42.8435C62.1632 42.5816 62.2458 42.3769 62.4111 42.2295C62.5786 42.0821 62.7788 42.0083 63.0114 42.0083C63.2463 42.0083 63.4464 42.0821 63.6117 42.2295C63.7768 42.3769 63.8596 42.5816 63.8596 42.8435C63.8596 43.1053 63.7768 43.31 63.6117 43.4574C63.4464 43.6048 63.2463 43.6786 63.0114 43.6786C62.7788 43.6786 62.5786 43.6048 62.4111 43.4574ZM63.367 43.2165C63.4582 43.1218 63.5041 42.9975 63.5041 42.8435C63.5041 42.6894 63.4582 42.5662 63.367 42.4738C63.2755 42.3791 63.1572 42.3318 63.0114 42.3318C62.8634 42.3318 62.7439 42.3791 62.6524 42.4738C62.5612 42.5662 62.5156 42.6894 62.5156 42.8435C62.5156 42.9975 62.5612 43.1218 62.6524 43.2165C62.7439 43.3089 62.8634 43.3551 63.0114 43.3551C63.1572 43.3551 63.2755 43.3089 63.367 43.2165ZM64.534 43.6356H64.1981V42.0513H64.5504L65.0821 42.8864L65.6171 42.0513H65.9695V43.6356H65.6333V42.5629L65.1865 43.2561H64.9776L64.534 42.5629V43.6356ZM68.0858 44.0615H67.7564V43.6356H66.4058V42.0513H66.7547V43.3254H67.5019V42.0513H67.8509V43.332H68.0858V44.0615ZM69.7406 43.2693C69.7406 43.3463 69.7787 43.3848 69.8549 43.3848C69.8809 43.3848 69.9158 43.3782 69.9594 43.365V43.6191C69.8941 43.6455 69.82 43.6588 69.7374 43.6588C69.5808 43.6588 69.4765 43.5972 69.4243 43.4739C69.2569 43.6104 69.0601 43.6786 68.8338 43.6786C68.6815 43.6786 68.5522 43.6368 68.4457 43.5531C68.3389 43.4673 68.2858 43.3474 68.2858 43.1934C68.2858 43.0085 68.3542 42.8743 68.4913 42.7906C68.6283 42.7048 68.7925 42.6619 68.9839 42.6619C69.11 42.6619 69.246 42.6773 69.3917 42.7081V42.652C69.3917 42.5508 69.3557 42.4694 69.284 42.4077C69.2122 42.3461 69.1112 42.3153 68.9807 42.3153C68.7871 42.3153 68.5989 42.356 68.4162 42.4374V42.114C68.6206 42.0435 68.8208 42.0083 69.0165 42.0083C69.2448 42.0083 69.422 42.0656 69.5481 42.18C69.6766 42.2944 69.7406 42.4683 69.7406 42.7015V43.2693ZM69.0523 42.9095C68.9371 42.9095 68.8402 42.9304 68.762 42.9722C68.6838 43.014 68.6445 43.08 68.6445 43.1702C68.6445 43.245 68.6728 43.3034 68.7294 43.3452C68.7859 43.3848 68.8555 43.4046 68.9383 43.4046C69.1166 43.4046 69.2676 43.3419 69.3917 43.2165V42.9491C69.2656 42.9227 69.1524 42.9095 69.0523 42.9095Z" fill="#2BB6CC"/>
</g>
<defs>
<clipPath id="clip0_242_1427">
<rect width="65" height="12" fill="white" transform="translate(5 32.5)"/>
</clipPath>
</defs>
</svg>
