<svg width="30" height="22" viewBox="0 0 30 22" fill="none" xmlns="http://www.w3.org/2000/svg">
<path d="M10.2013 16.4548C10.2629 16.5145 10.3248 16.5145 10.3871 16.4548C15.5266 11.5225 20.6861 6.57259 25.8658 1.60498C26.3928 1.09935 26.7805 0.790643 27.029 0.678853C28.7295 -0.0853695 30.6028 1.74761 29.8143 3.37435C29.6944 3.62235 29.4236 3.94872 29.0017 4.35348C23.439 9.68923 17.877 15.0259 12.3157 20.3636C11.7719 20.8853 11.3621 21.2059 11.0862 21.3254C10.126 21.7427 9.32541 21.3659 8.61526 20.6836C6.0847 18.2505 3.55213 15.8194 1.01755 13.3902C0.584966 12.9758 0.313428 12.661 0.202938 12.4458C-0.649845 10.7824 1.35404 8.92147 3.07066 9.77628C3.27624 9.87843 3.57255 10.1133 3.9596 10.4808C5.98325 12.4011 8.06381 14.3925 10.2013 16.4548Z" fill="#161616"/>
</svg>
